<?xml version="1.0" encoding="UTF-8" standalone="no"?>
<!DOCTYPE svg PUBLIC "-//W3C//DTD SVG 1.1//EN"
 "http://www.w3.org/Graphics/SVG/1.1/DTD/svg11.dtd">
<!-- Generated by graphviz version 2.44.1 (20200629.0846)
 -->
<!-- Title: G Pages: 1 -->
<svg width="730pt" height="870pt"
 viewBox="0.00 0.00 729.57 870.00" xmlns="http://www.w3.org/2000/svg" xmlns:xlink="http://www.w3.org/1999/xlink">
<g id="graph0" class="graph" transform="scale(1 1) rotate(0) translate(4 866)">
<title>G</title>
<polygon fill="white" stroke="transparent" points="-4,4 -4,-866 725.57,-866 725.57,4 -4,4"/>
<!-- Arrows -->
<g id="node1" class="node">
<title>Arrows</title>
<text text-anchor="middle" x="121" y="-16" font-family="Times,serif" font-size="40.00">Arrows</text>
</g>
<!-- title -->
<g id="node2" class="node">
<title>title</title>
<g id="a_node2"><a xlink:href="https://graphviz.org/doc/info/arrows.html" xlink:title="https://graphviz.org/doc/info/arrows.html">
<text text-anchor="middle" x="121" y="-84.3" font-family="Times,serif" font-size="14.00">https://graphviz.org/doc/info/arrows.html</text>
</a>
</g>
</g>
<!-- here -->
<g id="node3" class="node">
<title>here</title>
<ellipse fill="none" stroke="black" cx="121" cy="-142" rx="27" ry="18"/>
<text text-anchor="middle" x="121" y="-138.3" font-family="Times,serif" font-size="14.00">here</text>
</g>
<!-- there -->
<g id="node4" class="node">
<title>there</title>
<ellipse fill="none" stroke="black" cx="448.64" cy="-142" rx="28.7" ry="18"/>
<text text-anchor="middle" x="448.64" y="-138.3" font-family="Times,serif" font-size="14.00">there</text>
</g>
<!-- here&#45;&gt;there -->
<g id="edge1" class="edge">
<title>here&#45;&gt;there</title>
<path fill="none" stroke="black" d="M148.1,-142C205.54,-142 343.13,-142 409.95,-142"/>
<polygon fill="black" stroke="black" points="410.04,-145.5 420.04,-142 410.04,-138.5 410.04,-145.5"/>
<text text-anchor="middle" x="273.5" y="-145.8" font-family="Times,serif" font-size="14.00">label</text>
</g>
<!-- head -->
<g id="node5" class="node">
<title>head</title>
<ellipse fill="none" stroke="black" cx="121" cy="-196" rx="27.1" ry="18"/>
<text text-anchor="middle" x="121" y="-192.3" font-family="Times,serif" font-size="14.00">head</text>
</g>
<!-- tail -->
<g id="node6" class="node">
<title>tail</title>
<ellipse fill="none" stroke="black" cx="448.64" cy="-196" rx="27" ry="18"/>
<text text-anchor="middle" x="448.64" y="-192.3" font-family="Times,serif" font-size="14.00">tail</text>
</g>
<!-- head&#45;&gt;tail -->
<g id="edge2" class="edge">
<title>head&#45;&gt;tail</title>
<path fill="none" stroke="black" d="M148.37,-196C206.32,-196 344.83,-196 411.1,-196"/>
<polygon fill="black" stroke="black" points="411.47,-199.5 421.47,-196 411.47,-192.5 411.47,-199.5"/>
<text text-anchor="middle" x="395.47" y="-184.8" font-family="Times,serif" font-size="14.00">headlabel</text>
<text text-anchor="middle" x="170.37" y="-184.8" font-family="Times,serif" font-size="14.00">taillabel</text>
</g>
<!-- arrowhead -->
<g id="node7" class="node">
<title>arrowhead</title>
<ellipse fill="none" stroke="black" cx="121" cy="-277" rx="48.19" ry="18"/>
<text text-anchor="middle" x="121" y="-273.3" font-family="Times,serif" font-size="14.00">arrowhead</text>
</g>
<!-- [arrowhead=dot] -->
<g id="node8" class="node">
<title>[arrowhead=dot]</title>
<ellipse fill="none" stroke="black" cx="448.64" cy="-304" rx="70.39" ry="18"/>
<text text-anchor="middle" x="448.64" y="-300.3" font-family="Times,serif" font-size="14.00">[arrowhead=dot]</text>
</g>
<!-- arrowhead&#45;&gt;[arrowhead=dot] -->
<g id="edge3" class="edge">
<title>arrowhead&#45;&gt;[arrowhead=dot]</title>
<path fill="none" stroke="black" d="M168.31,-280.84C221.66,-285.26 310.07,-292.59 373.13,-297.82"/>
<ellipse fill="black" stroke="black" cx="377.48" cy="-298.18" rx="4" ry="4"/>
</g>
<!-- [arrowhead=diamond] -->
<g id="node9" class="node">
<title>[arrowhead=diamond]</title>
<ellipse fill="none" stroke="black" cx="448.64" cy="-250" rx="90.18" ry="18"/>
<text text-anchor="middle" x="448.64" y="-246.3" font-family="Times,serif" font-size="14.00">[arrowhead=diamond]</text>
</g>
<!-- arrowhead&#45;&gt;[arrowhead=diamond] -->
<g id="edge4" class="edge">
<title>arrowhead&#45;&gt;[arrowhead=diamond]</title>
<path fill="none" stroke="black" d="M168.31,-273.16C216.11,-269.2 292.06,-262.9 352.7,-257.87"/>
<polygon fill="black" stroke="black" points="353.04,-257.84 358.69,-253.36 365,-256.85 359.35,-261.33 353.04,-257.84"/>
</g>
<!-- arrowsize -->
<g id="node10" class="node">
<title>arrowsize</title>
<ellipse fill="none" stroke="black" cx="121" cy="-358" rx="44.69" ry="18"/>
<text text-anchor="middle" x="121" y="-354.3" font-family="Times,serif" font-size="14.00">arrowsize</text>
</g>
<!-- [arrowsize=3] -->
<g id="node11" class="node">
<title>[arrowsize=3]</title>
<ellipse fill="none" stroke="black" cx="448.64" cy="-358" rx="60.39" ry="18"/>
<text text-anchor="middle" x="448.64" y="-354.3" font-family="Times,serif" font-size="14.00">[arrowsize=3]</text>
</g>
<!-- arrowsize&#45;&gt;[arrowsize=3] -->
<g id="edge5" class="edge">
<title>arrowsize&#45;&gt;[arrowsize=3]</title>
<path fill="none" stroke="black" d="M165.92,-358C214.89,-358 295.41,-358 357.86,-358"/>
<polygon fill="black" stroke="black" points="358.16,-368.5 388.16,-358 358.16,-347.5 358.16,-368.5"/>
</g>
<!-- arrowtail -->
<g id="node12" class="node">
<title>arrowtail</title>
<ellipse fill="none" stroke="black" cx="121" cy="-412" rx="42.49" ry="18"/>
<text text-anchor="middle" x="121" y="-408.3" font-family="Times,serif" font-size="14.00">arrowtail</text>
</g>
<!-- [arrowtail=invempty] -->
<g id="node13" class="node">
<title>[arrowtail=invempty]</title>
<ellipse fill="none" stroke="black" cx="448.64" cy="-412" rx="87.18" ry="18"/>
<text text-anchor="middle" x="448.64" y="-408.3" font-family="Times,serif" font-size="14.00">[arrowtail=invempty]</text>
</g>
<!-- arrowtail&#45;&gt;[arrowtail=invempty] -->
<g id="edge6" class="edge">
<title>arrowtail&#45;&gt;[arrowtail=invempty]</title>
<path fill="none" stroke="black" d="M163.57,-412C210.59,-412 288.74,-412 351.17,-412"/>
<polygon fill="none" stroke="black" points="361.45,-415.5 351.45,-412 361.45,-408.5 361.45,-415.5"/>
</g>
<!-- color -->
<g id="node14" class="node">
<title>color</title>
<ellipse fill="none" stroke="black" cx="121" cy="-493" rx="28.7" ry="18"/>
<text text-anchor="middle" x="121" y="-489.3" font-family="Times,serif" font-size="14.00">color</text>
</g>
<!-- [dir=both color=red:blue] -->
<g id="node15" class="node">
<title>[dir=both color=red:blue]</title>
<ellipse fill="none" stroke="black" cx="448.64" cy="-520" rx="102.08" ry="18"/>
<text text-anchor="middle" x="448.64" y="-516.3" font-family="Times,serif" font-size="14.00">[dir=both color=red:blue]</text>
</g>
<!-- color&#45;&gt;[dir=both color=red:blue] -->
<g id="edge7" class="edge">
<title>color&#45;&gt;[dir=both color=red:blue]</title>
<path fill="none" stroke="red" d="M159.74,-495.13C205,-498.88 282.76,-505.33 346.08,-510.58"/>
<path fill="none" stroke="blue" d="M159.58,-497.12C204.84,-500.87 282.6,-507.32 345.91,-512.57"/>
<polygon fill="blue" stroke="blue" points="159.74,-492.62 149.48,-495.28 159.16,-499.59 159.74,-492.62"/>
<polygon fill="red" stroke="red" points="345.77,-515.07 356.03,-512.4 346.35,-508.09 345.77,-515.07"/>
</g>
<!-- [dir=none color=green:red;0.25:blue] -->
<g id="node18" class="node">
<title>[dir=none color=green:red;0.25:blue]</title>
<ellipse fill="none" stroke="black" cx="448.64" cy="-466" rx="143.77" ry="18"/>
<text text-anchor="middle" x="448.64" y="-462.3" font-family="Times,serif" font-size="14.00">[dir=none color=green:red;0.25:blue]</text>
</g>
<!-- color&#45;&gt;[dir=none color=green:red;0.25:blue] -->
<g id="edge9" class="edge">
<title>color&#45;&gt;[dir=none color=green:red;0.25:blue]</title>
<path fill="none" stroke="green" d="M149.48,-490.72C164.23,-489.5 183.96,-487.86 206.28,-486.01"/>
<path fill="none" stroke="red" d="M206.28,-486.01C221.16,-484.78 237.19,-483.45 253.66,-482.08"/>
<path fill="none" stroke="blue" d="M253.66,-482.08C278.37,-480.03 304.07,-477.9 328.38,-475.89"/>
</g>
<!-- style -->
<g id="node16" class="node">
<title>style</title>
<ellipse fill="none" stroke="black" cx="121" cy="-574" rx="27.1" ry="18"/>
<text text-anchor="middle" x="121" y="-570.3" font-family="Times,serif" font-size="14.00">style</text>
</g>
<!-- [style=dashed] -->
<g id="node17" class="node">
<title>[style=dashed]</title>
<ellipse fill="none" stroke="black" cx="448.64" cy="-574" rx="63.09" ry="18"/>
<text text-anchor="middle" x="448.64" y="-570.3" font-family="Times,serif" font-size="14.00">[style=dashed]</text>
</g>
<!-- style&#45;&gt;[style=dashed] -->
<g id="edge8" class="edge">
<title>style&#45;&gt;[style=dashed]</title>
<path fill="none" stroke="black" stroke-dasharray="5,2" d="M148.37,-574C197.22,-574 303.34,-574 375.15,-574"/>
<polygon fill="black" stroke="black" points="375.49,-577.5 385.49,-574 375.49,-570.5 375.49,-577.5"/>
</g>
<!-- with -->
<g id="node19" class="node">
<title>with</title>
<ellipse fill="none" stroke="black" cx="121" cy="-682" rx="27" ry="18"/>
<text text-anchor="middle" x="121" y="-678.3" font-family="Times,serif" font-size="14.00">with</text>
</g>
<!-- sets -->
<g id="node20" class="node">
<title>sets</title>
<ellipse fill="none" stroke="black" cx="448.64" cy="-736" rx="27" ry="18"/>
<text text-anchor="middle" x="448.64" y="-732.3" font-family="Times,serif" font-size="14.00">sets</text>
</g>
<!-- with&#45;&gt;sets -->
<g id="edge10" class="edge">
<title>with&#45;&gt;sets</title>
<path fill="none" stroke="black" d="M147.28,-686.19C204.87,-695.74 345.93,-719.13 412.18,-730.12"/>
<polygon fill="black" stroke="black" points="411.71,-733.59 422.15,-731.77 412.85,-726.68 411.71,-733.59"/>
</g>
<!-- of -->
<g id="node21" class="node">
<title>of</title>
<ellipse fill="none" stroke="black" cx="448.64" cy="-682" rx="27" ry="18"/>
<text text-anchor="middle" x="448.64" y="-678.3" font-family="Times,serif" font-size="14.00">of</text>
</g>
<!-- with&#45;&gt;of -->
<g id="edge11" class="edge">
<title>with&#45;&gt;of</title>
<path fill="none" stroke="black" d="M148.1,-682C205.86,-682 344.62,-682 411.02,-682"/>
<polygon fill="black" stroke="black" points="411.42,-685.5 421.42,-682 411.42,-678.5 411.42,-685.5"/>
</g>
<!-- stuff -->
<g id="node22" class="node">
<title>stuff</title>
<ellipse fill="none" stroke="black" cx="448.64" cy="-628" rx="27" ry="18"/>
<text text-anchor="middle" x="448.64" y="-624.3" font-family="Times,serif" font-size="14.00">stuff</text>
</g>
<!-- with&#45;&gt;stuff -->
<g id="edge12" class="edge">
<title>with&#45;&gt;stuff</title>
<path fill="none" stroke="black" d="M147.28,-677.81C204.87,-668.26 345.93,-644.87 412.18,-633.88"/>
<polygon fill="black" stroke="black" points="412.85,-637.32 422.15,-632.23 411.71,-630.41 412.85,-637.32"/>
</g>
<!-- singletons -->
<g id="node23" class="node">
<title>singletons</title>
<ellipse fill="none" stroke="black" cx="675.42" cy="-682" rx="46.29" ry="18"/>
<text text-anchor="middle" x="675.42" y="-678.3" font-family="Times,serif" font-size="14.00">singletons</text>
</g>
<!-- sets&#45;&gt;singletons -->
<g id="edge13" class="edge">
<title>sets&#45;&gt;singletons</title>
<path fill="none" stroke="black" d="M475.11,-732.21C503.81,-727.7 551.76,-719.44 592.27,-709 605.01,-705.72 618.64,-701.52 631.07,-697.42"/>
<polygon fill="black" stroke="black" points="632.38,-700.67 640.74,-694.17 630.15,-694.04 632.38,-700.67"/>
</g>
<!-- of&#45;&gt;singletons -->
<g id="edge14" class="edge">
<title>of&#45;&gt;singletons</title>
<path fill="none" stroke="black" d="M475.86,-682C510.75,-682 573.31,-682 618.91,-682"/>
<polygon fill="black" stroke="black" points="618.94,-685.5 628.94,-682 618.94,-678.5 618.94,-685.5"/>
</g>
<!-- stuff&#45;&gt;singletons -->
<g id="edge15" class="edge">
<title>stuff&#45;&gt;singletons</title>
<path fill="none" stroke="black" d="M475.11,-631.79C503.81,-636.3 551.76,-644.56 592.27,-655 605.01,-658.28 618.64,-662.48 631.07,-666.58"/>
<polygon fill="black" stroke="black" points="630.15,-669.96 640.74,-669.83 632.38,-663.33 630.15,-669.96"/>
</g>
<!-- in -->
<g id="node24" class="node">
<title>in</title>
<ellipse fill="none" stroke="black" cx="121" cy="-790" rx="27" ry="18"/>
<text text-anchor="middle" x="121" y="-786.3" font-family="Times,serif" font-size="14.00">in</text>
</g>
<!-- a -->
<g id="node25" class="node">
<title>a</title>
<ellipse fill="none" stroke="black" cx="448.64" cy="-790" rx="27" ry="18"/>
<text text-anchor="middle" x="448.64" y="-786.3" font-family="Times,serif" font-size="14.00">a</text>
</g>
<!-- in&#45;&gt;a -->
<g id="edge16" class="edge">
<title>in&#45;&gt;a</title>
<path fill="none" stroke="black" d="M148.1,-790C205.86,-790 344.62,-790 411.02,-790"/>
<polygon fill="black" stroke="black" points="411.42,-793.5 421.42,-790 411.42,-786.5 411.42,-793.5"/>
</g>
<!-- pipeline -->
<g id="node26" class="node">
<title>pipeline</title>
<ellipse fill="none" stroke="black" cx="675.42" cy="-790" rx="38.99" ry="18"/>
<text text-anchor="middle" x="675.42" y="-786.3" font-family="Times,serif" font-size="14.00">pipeline</text>
</g>
<!-- a&#45;&gt;pipeline -->
<g id="edge17" class="edge">
<title>a&#45;&gt;pipeline</title>
<path fill="none" stroke="black" d="M475.86,-790C512.69,-790 580.35,-790 626.34,-790"/>
<polygon fill="black" stroke="black" points="626.39,-793.5 636.39,-790 626.39,-786.5 626.39,-793.5"/>
</g>
<!-- this -->
<g id="node27" class="node">
<title>this</title>
<ellipse fill="none" stroke="black" cx="121" cy="-844" rx="27" ry="18"/>
<text text-anchor="middle" x="121" y="-840.3" font-family="Times,serif" font-size="14.00">this</text>
</g>
<!-- that -->
<g id="node28" class="node">
<title>that</title>
<ellipse fill="none" stroke="black" cx="448.64" cy="-844" rx="27" ry="18"/>
<text text-anchor="middle" x="448.64" y="-840.3" font-family="Times,serif" font-size="14.00">that</text>
</g>
<!-- this&#45;&gt;that -->
<g id="edge18" class="edge">
<title>this&#45;&gt;that</title>
<path fill="none" stroke="black" d="M148.1,-844C205.86,-844 344.62,-844 411.02,-844"/>
<polygon fill="black" stroke="black" points="411.42,-847.5 421.42,-844 411.42,-840.5 411.42,-847.5"/>
</g>
</g>
</svg>
