<?xml version="1.0" encoding="UTF-8" standalone="no"?>
<!DOCTYPE svg PUBLIC "-//W3C//DTD SVG 1.1//EN"
 "http://www.w3.org/Graphics/SVG/1.1/DTD/svg11.dtd">
<!-- Generated by graphviz version 2.44.1 (20200629.0846)
 -->
<!-- Title: G Pages: 1 -->
<svg width="730pt" height="800pt"
 viewBox="0.00 0.00 729.57 800.00" xmlns="http://www.w3.org/2000/svg" xmlns:xlink="http://www.w3.org/1999/xlink">
<g id="graph0" class="graph" transform="scale(1 1) rotate(0) translate(4 796)">
<title>G</title>
<polygon fill="white" stroke="transparent" points="-4,4 -4,-796 725.57,-796 725.57,4 -4,4"/>
<!-- title -->
<g id="node1" class="node">
<title>title</title>
<g id="a_node1"><a xlink:href="https://graphviz.org/doc/info/arrows.html" xlink:title="https://graphviz.org/doc/info/arrows.html">
<text text-anchor="middle" x="121" y="-14.3" font-family="Times,serif" font-size="14.00">https://graphviz.org/doc/info/arrows.html</text>
</a>
</g>
</g>
<!-- here -->
<g id="node2" class="node">
<title>here</title>
<ellipse fill="none" stroke="black" cx="121" cy="-72" rx="27" ry="18"/>
<text text-anchor="middle" x="121" y="-68.3" font-family="Times,serif" font-size="14.00">here</text>
</g>
<!-- there -->
<g id="node3" class="node">
<title>there</title>
<ellipse fill="none" stroke="black" cx="448.64" cy="-72" rx="28.7" ry="18"/>
<text text-anchor="middle" x="448.64" y="-68.3" font-family="Times,serif" font-size="14.00">there</text>
</g>
<!-- here&#45;&gt;there -->
<g id="edge1" class="edge">
<title>here&#45;&gt;there</title>
<path fill="none" stroke="black" d="M148.1,-72C205.54,-72 343.13,-72 409.95,-72"/>
<polygon fill="black" stroke="black" points="410.04,-75.5 420.04,-72 410.04,-68.5 410.04,-75.5"/>
<text text-anchor="middle" x="273.5" y="-75.8" font-family="Times,serif" font-size="14.00">label</text>
</g>
<!-- head -->
<g id="node4" class="node">
<title>head</title>
<ellipse fill="none" stroke="black" cx="121" cy="-126" rx="27.1" ry="18"/>
<text text-anchor="middle" x="121" y="-122.3" font-family="Times,serif" font-size="14.00">head</text>
</g>
<!-- tail -->
<g id="node5" class="node">
<title>tail</title>
<ellipse fill="none" stroke="black" cx="448.64" cy="-126" rx="27" ry="18"/>
<text text-anchor="middle" x="448.64" y="-122.3" font-family="Times,serif" font-size="14.00">tail</text>
</g>
<!-- head&#45;&gt;tail -->
<g id="edge2" class="edge">
<title>head&#45;&gt;tail</title>
<path fill="none" stroke="black" d="M148.37,-126C206.32,-126 344.83,-126 411.1,-126"/>
<polygon fill="black" stroke="black" points="411.47,-129.5 421.47,-126 411.47,-122.5 411.47,-129.5"/>
<text text-anchor="middle" x="395.47" y="-114.8" font-family="Times,serif" font-size="14.00">headlabel</text>
<text text-anchor="middle" x="170.37" y="-114.8" font-family="Times,serif" font-size="14.00">taillabel</text>
</g>
<!-- arrowhead -->
<g id="node6" class="node">
<title>arrowhead</title>
<ellipse fill="none" stroke="black" cx="121" cy="-207" rx="48.19" ry="18"/>
<text text-anchor="middle" x="121" y="-203.3" font-family="Times,serif" font-size="14.00">arrowhead</text>
</g>
<!-- [arrowhead=dot] -->
<g id="node7" class="node">
<title>[arrowhead=dot]</title>
<ellipse fill="none" stroke="black" cx="448.64" cy="-234" rx="70.39" ry="18"/>
<text text-anchor="middle" x="448.64" y="-230.3" font-family="Times,serif" font-size="14.00">[arrowhead=dot]</text>
</g>
<!-- arrowhead&#45;&gt;[arrowhead=dot] -->
<g id="edge3" class="edge">
<title>arrowhead&#45;&gt;[arrowhead=dot]</title>
<path fill="none" stroke="black" d="M168.31,-210.84C221.66,-215.26 310.07,-222.59 373.13,-227.82"/>
<ellipse fill="black" stroke="black" cx="377.48" cy="-228.18" rx="4" ry="4"/>
</g>
<!-- [arrowhead=diamond] -->
<g id="node8" class="node">
<title>[arrowhead=diamond]</title>
<ellipse fill="none" stroke="black" cx="448.64" cy="-180" rx="90.18" ry="18"/>
<text text-anchor="middle" x="448.64" y="-176.3" font-family="Times,serif" font-size="14.00">[arrowhead=diamond]</text>
</g>
<!-- arrowhead&#45;&gt;[arrowhead=diamond] -->
<g id="edge4" class="edge">
<title>arrowhead&#45;&gt;[arrowhead=diamond]</title>
<path fill="none" stroke="black" d="M168.31,-203.16C216.11,-199.2 292.06,-192.9 352.7,-187.87"/>
<polygon fill="black" stroke="black" points="353.04,-187.84 358.69,-183.36 365,-186.85 359.35,-191.33 353.04,-187.84"/>
</g>
<!-- arrowsize -->
<g id="node9" class="node">
<title>arrowsize</title>
<ellipse fill="none" stroke="black" cx="121" cy="-288" rx="44.69" ry="18"/>
<text text-anchor="middle" x="121" y="-284.3" font-family="Times,serif" font-size="14.00">arrowsize</text>
</g>
<!-- [arrowsize=3] -->
<g id="node10" class="node">
<title>[arrowsize=3]</title>
<ellipse fill="none" stroke="black" cx="448.64" cy="-288" rx="60.39" ry="18"/>
<text text-anchor="middle" x="448.64" y="-284.3" font-family="Times,serif" font-size="14.00">[arrowsize=3]</text>
</g>
<!-- arrowsize&#45;&gt;[arrowsize=3] -->
<g id="edge5" class="edge">
<title>arrowsize&#45;&gt;[arrowsize=3]</title>
<path fill="none" stroke="black" d="M165.92,-288C214.89,-288 295.41,-288 357.86,-288"/>
<polygon fill="black" stroke="black" points="358.16,-298.5 388.16,-288 358.16,-277.5 358.16,-298.5"/>
</g>
<!-- arrowtail -->
<g id="node11" class="node">
<title>arrowtail</title>
<ellipse fill="none" stroke="black" cx="121" cy="-342" rx="42.49" ry="18"/>
<text text-anchor="middle" x="121" y="-338.3" font-family="Times,serif" font-size="14.00">arrowtail</text>
</g>
<!-- [arrowtail=invempty] -->
<g id="node12" class="node">
<title>[arrowtail=invempty]</title>
<ellipse fill="none" stroke="black" cx="448.64" cy="-342" rx="87.18" ry="18"/>
<text text-anchor="middle" x="448.64" y="-338.3" font-family="Times,serif" font-size="14.00">[arrowtail=invempty]</text>
</g>
<!-- arrowtail&#45;&gt;[arrowtail=invempty] -->
<g id="edge6" class="edge">
<title>arrowtail&#45;&gt;[arrowtail=invempty]</title>
<path fill="none" stroke="black" d="M163.57,-342C210.59,-342 288.74,-342 351.17,-342"/>
<polygon fill="none" stroke="black" points="361.45,-345.5 351.45,-342 361.45,-338.5 361.45,-345.5"/>
</g>
<!-- color -->
<g id="node13" class="node">
<title>color</title>
<ellipse fill="none" stroke="black" cx="121" cy="-423" rx="28.7" ry="18"/>
<text text-anchor="middle" x="121" y="-419.3" font-family="Times,serif" font-size="14.00">color</text>
</g>
<!-- [dir=both color=red:blue] -->
<g id="node14" class="node">
<title>[dir=both color=red:blue]</title>
<ellipse fill="none" stroke="black" cx="448.64" cy="-450" rx="102.08" ry="18"/>
<text text-anchor="middle" x="448.64" y="-446.3" font-family="Times,serif" font-size="14.00">[dir=both color=red:blue]</text>
</g>
<!-- color&#45;&gt;[dir=both color=red:blue] -->
<g id="edge7" class="edge">
<title>color&#45;&gt;[dir=both color=red:blue]</title>
<path fill="none" stroke="red" d="M159.74,-425.13C205,-428.88 282.76,-435.33 346.08,-440.58"/>
<path fill="none" stroke="blue" d="M159.58,-427.12C204.84,-430.87 282.6,-437.32 345.91,-442.57"/>
<polygon fill="blue" stroke="blue" points="159.74,-422.62 149.48,-425.28 159.16,-429.59 159.74,-422.62"/>
<polygon fill="red" stroke="red" points="345.77,-445.07 356.03,-442.4 346.35,-438.09 345.77,-445.07"/>
</g>
<!-- [dir=none color=green:red;0.25:blue] -->
<g id="node17" class="node">
<title>[dir=none color=green:red;0.25:blue]</title>
<ellipse fill="none" stroke="black" cx="448.64" cy="-396" rx="143.77" ry="18"/>
<text text-anchor="middle" x="448.64" y="-392.3" font-family="Times,serif" font-size="14.00">[dir=none color=green:red;0.25:blue]</text>
</g>
<!-- color&#45;&gt;[dir=none color=green:red;0.25:blue] -->
<g id="edge9" class="edge">
<title>color&#45;&gt;[dir=none color=green:red;0.25:blue]</title>
<path fill="none" stroke="green" d="M149.48,-420.72C164.23,-419.5 183.96,-417.86 206.28,-416.01"/>
<path fill="none" stroke="red" d="M206.28,-416.01C221.16,-414.78 237.19,-413.45 253.66,-412.08"/>
<path fill="none" stroke="blue" d="M253.66,-412.08C278.37,-410.03 304.07,-407.9 328.38,-405.89"/>
</g>
<!-- style -->
<g id="node15" class="node">
<title>style</title>
<ellipse fill="none" stroke="black" cx="121" cy="-504" rx="27.1" ry="18"/>
<text text-anchor="middle" x="121" y="-500.3" font-family="Times,serif" font-size="14.00">style</text>
</g>
<!-- [style=dashed] -->
<g id="node16" class="node">
<title>[style=dashed]</title>
<ellipse fill="none" stroke="black" cx="448.64" cy="-504" rx="63.09" ry="18"/>
<text text-anchor="middle" x="448.64" y="-500.3" font-family="Times,serif" font-size="14.00">[style=dashed]</text>
</g>
<!-- style&#45;&gt;[style=dashed] -->
<g id="edge8" class="edge">
<title>style&#45;&gt;[style=dashed]</title>
<path fill="none" stroke="black" stroke-dasharray="5,2" d="M148.37,-504C197.22,-504 303.34,-504 375.15,-504"/>
<polygon fill="black" stroke="black" points="375.49,-507.5 385.49,-504 375.49,-500.5 375.49,-507.5"/>
</g>
<!-- with -->
<g id="node18" class="node">
<title>with</title>
<ellipse fill="none" stroke="black" cx="121" cy="-612" rx="27" ry="18"/>
<text text-anchor="middle" x="121" y="-608.3" font-family="Times,serif" font-size="14.00">with</text>
</g>
<!-- sets -->
<g id="node19" class="node">
<title>sets</title>
<ellipse fill="none" stroke="black" cx="448.64" cy="-666" rx="27" ry="18"/>
<text text-anchor="middle" x="448.64" y="-662.3" font-family="Times,serif" font-size="14.00">sets</text>
</g>
<!-- with&#45;&gt;sets -->
<g id="edge10" class="edge">
<title>with&#45;&gt;sets</title>
<path fill="none" stroke="black" d="M147.28,-616.19C204.87,-625.74 345.93,-649.13 412.18,-660.12"/>
<polygon fill="black" stroke="black" points="411.71,-663.59 422.15,-661.77 412.85,-656.68 411.71,-663.59"/>
</g>
<!-- of -->
<g id="node20" class="node">
<title>of</title>
<ellipse fill="none" stroke="black" cx="448.64" cy="-612" rx="27" ry="18"/>
<text text-anchor="middle" x="448.64" y="-608.3" font-family="Times,serif" font-size="14.00">of</text>
</g>
<!-- with&#45;&gt;of -->
<g id="edge11" class="edge">
<title>with&#45;&gt;of</title>
<path fill="none" stroke="black" d="M148.1,-612C205.86,-612 344.62,-612 411.02,-612"/>
<polygon fill="black" stroke="black" points="411.42,-615.5 421.42,-612 411.42,-608.5 411.42,-615.5"/>
</g>
<!-- stuff -->
<g id="node21" class="node">
<title>stuff</title>
<ellipse fill="none" stroke="black" cx="448.64" cy="-558" rx="27" ry="18"/>
<text text-anchor="middle" x="448.64" y="-554.3" font-family="Times,serif" font-size="14.00">stuff</text>
</g>
<!-- with&#45;&gt;stuff -->
<g id="edge12" class="edge">
<title>with&#45;&gt;stuff</title>
<path fill="none" stroke="black" d="M147.28,-607.81C204.87,-598.26 345.93,-574.87 412.18,-563.88"/>
<polygon fill="black" stroke="black" points="412.85,-567.32 422.15,-562.23 411.71,-560.41 412.85,-567.32"/>
</g>
<!-- singletons -->
<g id="node22" class="node">
<title>singletons</title>
<ellipse fill="none" stroke="black" cx="675.42" cy="-612" rx="46.29" ry="18"/>
<text text-anchor="middle" x="675.42" y="-608.3" font-family="Times,serif" font-size="14.00">singletons</text>
</g>
<!-- sets&#45;&gt;singletons -->
<g id="edge13" class="edge">
<title>sets&#45;&gt;singletons</title>
<path fill="none" stroke="black" d="M475.11,-662.21C503.81,-657.7 551.76,-649.44 592.27,-639 605.01,-635.72 618.64,-631.52 631.07,-627.42"/>
<polygon fill="black" stroke="black" points="632.38,-630.67 640.74,-624.17 630.15,-624.04 632.38,-630.67"/>
</g>
<!-- of&#45;&gt;singletons -->
<g id="edge14" class="edge">
<title>of&#45;&gt;singletons</title>
<path fill="none" stroke="black" d="M475.86,-612C510.75,-612 573.31,-612 618.91,-612"/>
<polygon fill="black" stroke="black" points="618.94,-615.5 628.94,-612 618.94,-608.5 618.94,-615.5"/>
</g>
<!-- stuff&#45;&gt;singletons -->
<g id="edge15" class="edge">
<title>stuff&#45;&gt;singletons</title>
<path fill="none" stroke="black" d="M475.11,-561.79C503.81,-566.3 551.76,-574.56 592.27,-585 605.01,-588.28 618.64,-592.48 631.07,-596.58"/>
<polygon fill="black" stroke="black" points="630.15,-599.96 640.74,-599.83 632.38,-593.33 630.15,-599.96"/>
</g>
<!-- in -->
<g id="node23" class="node">
<title>in</title>
<ellipse fill="none" stroke="black" cx="121" cy="-720" rx="27" ry="18"/>
<text text-anchor="middle" x="121" y="-716.3" font-family="Times,serif" font-size="14.00">in</text>
</g>
<!-- a -->
<g id="node24" class="node">
<title>a</title>
<ellipse fill="none" stroke="black" cx="448.64" cy="-720" rx="27" ry="18"/>
<text text-anchor="middle" x="448.64" y="-716.3" font-family="Times,serif" font-size="14.00">a</text>
</g>
<!-- in&#45;&gt;a -->
<g id="edge16" class="edge">
<title>in&#45;&gt;a</title>
<path fill="none" stroke="black" d="M148.1,-720C205.86,-720 344.62,-720 411.02,-720"/>
<polygon fill="black" stroke="black" points="411.42,-723.5 421.42,-720 411.42,-716.5 411.42,-723.5"/>
</g>
<!-- pipeline -->
<g id="node25" class="node">
<title>pipeline</title>
<ellipse fill="none" stroke="black" cx="675.42" cy="-720" rx="38.99" ry="18"/>
<text text-anchor="middle" x="675.42" y="-716.3" font-family="Times,serif" font-size="14.00">pipeline</text>
</g>
<!-- a&#45;&gt;pipeline -->
<g id="edge17" class="edge">
<title>a&#45;&gt;pipeline</title>
<path fill="none" stroke="black" d="M475.86,-720C512.69,-720 580.35,-720 626.34,-720"/>
<polygon fill="black" stroke="black" points="626.39,-723.5 636.39,-720 626.39,-716.5 626.39,-723.5"/>
</g>
<!-- this -->
<g id="node26" class="node">
<title>this</title>
<ellipse fill="none" stroke="black" cx="121" cy="-774" rx="27" ry="18"/>
<text text-anchor="middle" x="121" y="-770.3" font-family="Times,serif" font-size="14.00">this</text>
</g>
<!-- that -->
<g id="node27" class="node">
<title>that</title>
<ellipse fill="none" stroke="black" cx="448.64" cy="-774" rx="27" ry="18"/>
<text text-anchor="middle" x="448.64" y="-770.3" font-family="Times,serif" font-size="14.00">that</text>
</g>
<!-- this&#45;&gt;that -->
<g id="edge18" class="edge">
<title>this&#45;&gt;that</title>
<path fill="none" stroke="black" d="M148.1,-774C205.86,-774 344.62,-774 411.02,-774"/>
<polygon fill="black" stroke="black" points="411.42,-777.5 421.42,-774 411.42,-770.5 411.42,-777.5"/>
</g>
</g>
</svg>
