<?xml version="1.0" encoding="UTF-8" standalone="no"?>
<!DOCTYPE svg PUBLIC "-//W3C//DTD SVG 1.1//EN"
 "http://www.w3.org/Graphics/SVG/1.1/DTD/svg11.dtd">
<!-- Generated by graphviz version 2.44.1 (20200629.0846)
 -->
<!-- Title: G Pages: 1 -->
<svg width="891pt" height="844pt"
 viewBox="0.00 0.00 891.25 844.00" xmlns="http://www.w3.org/2000/svg" xmlns:xlink="http://www.w3.org/1999/xlink">
<g id="graph0" class="graph" transform="scale(1 1) rotate(0) translate(4 840)">
<title>G</title>
<polygon fill="white" stroke="transparent" points="-4,4 -4,-840 887.25,-840 887.25,4 -4,4"/>
<!-- me -->
<g id="node1" class="node">
<title>me</title>
<ellipse fill="blue" stroke="blue" cx="70" cy="-502" rx="27" ry="18"/>
<text text-anchor="middle" x="70" y="-498.3" font-family="Times,serif" font-size="14.00" fill="white">me</text>
</g>
<!-- my wife -->
<g id="node2" class="node">
<title>my wife</title>
<ellipse fill="none" stroke="black" cx="226.05" cy="-656" rx="40.09" ry="18"/>
<text text-anchor="middle" x="226.05" y="-652.3" font-family="Times,serif" font-size="14.00">my wife</text>
</g>
<!-- me&#45;&gt;my wife -->
<g id="edge1" class="edge">
<title>me&#45;&gt;my wife</title>
<path fill="none" stroke="black" d="M95.87,-507.77C109.91,-511.94 127.16,-518.69 140,-529 177.85,-559.42 205.05,-611.24 217.48,-638.33"/>
</g>
<!-- my son -->
<g id="node3" class="node">
<title>my son</title>
<ellipse fill="none" stroke="black" cx="395.28" cy="-818" rx="37.09" ry="18"/>
<text text-anchor="middle" x="395.28" y="-814.3" font-family="Times,serif" font-size="14.00">my son</text>
</g>
<!-- me&#45;&gt;my son -->
<g id="edge2" class="edge">
<title>me&#45;&gt;my son</title>
<path fill="none" stroke="black" d="M96.62,-505.72C111.47,-509.23 129.28,-516 140,-529 196.61,-597.69 121.92,-655.3 176,-726 220.72,-784.47 309.62,-806.15 359.06,-813.91"/>
</g>
<!-- my daughter -->
<g id="node4" class="node">
<title>my daughter</title>
<ellipse fill="none" stroke="black" cx="395.28" cy="-764" rx="55.79" ry="18"/>
<text text-anchor="middle" x="395.28" y="-760.3" font-family="Times,serif" font-size="14.00">my daughter</text>
</g>
<!-- me&#45;&gt;my daughter -->
<g id="edge3" class="edge">
<title>me&#45;&gt;my daughter</title>
<path fill="none" stroke="black" d="M96.4,-505.91C111.16,-509.49 128.97,-516.26 140,-529 186.02,-582.13 130.11,-629.76 176,-683 217.83,-731.53 291.54,-751.02 341.61,-758.82"/>
</g>
<!-- my brother -->
<g id="node5" class="node">
<title>my brother</title>
<ellipse fill="none" stroke="black" cx="592.47" cy="-426" rx="50.09" ry="18"/>
<text text-anchor="middle" x="592.47" y="-422.3" font-family="Times,serif" font-size="14.00">my brother</text>
</g>
<!-- me&#45;&gt;my brother -->
<g id="edge4" class="edge">
<title>me&#45;&gt;my brother</title>
<path fill="none" stroke="black" d="M97.25,-503.77C162.75,-507.49 338.23,-513.07 478.48,-478 509.9,-470.14 543.29,-453.64 565.56,-441.32"/>
</g>
<!-- my sister -->
<g id="node6" class="node">
<title>my sister</title>
<ellipse fill="none" stroke="black" cx="592.47" cy="-234" rx="43.59" ry="18"/>
<text text-anchor="middle" x="592.47" y="-230.3" font-family="Times,serif" font-size="14.00">my sister</text>
</g>
<!-- me&#45;&gt;my sister -->
<g id="edge5" class="edge">
<title>me&#45;&gt;my sister</title>
<path fill="none" stroke="black" d="M97.03,-502.37C165.82,-502.07 355.58,-493.01 478.48,-407 535.79,-366.89 571.35,-287.51 585.04,-251.95"/>
</g>
<!-- my father -->
<g id="node7" class="node">
<title>my father</title>
<ellipse fill="none" stroke="black" cx="395.28" cy="-126" rx="45.49" ry="18"/>
<text text-anchor="middle" x="395.28" y="-122.3" font-family="Times,serif" font-size="14.00">my father</text>
</g>
<!-- me&#45;&gt;my father -->
<g id="edge6" class="edge">
<title>me&#45;&gt;my father</title>
<path fill="none" stroke="black" d="M75.84,-484.26C87.63,-443.43 120.99,-340.98 176,-272 227.88,-206.95 316.73,-160.45 363.47,-139.11"/>
</g>
<!-- my mother -->
<g id="node8" class="node">
<title>my mother</title>
<ellipse fill="none" stroke="black" cx="226.05" cy="-299" rx="50.09" ry="18"/>
<text text-anchor="middle" x="226.05" y="-295.3" font-family="Times,serif" font-size="14.00">my mother</text>
</g>
<!-- me&#45;&gt;my mother -->
<g id="edge7" class="edge">
<title>me&#45;&gt;my mother</title>
<path fill="none" stroke="black" d="M83.09,-486.07C111.53,-448.59 182.5,-355.07 211.93,-316.28"/>
</g>
<!-- my wife&#45;&gt;my son -->
<g id="edge8" class="edge">
<title>my wife&#45;&gt;my son</title>
<path fill="none" stroke="black" d="M233.72,-674.11C245.27,-703 271.7,-759.46 312.09,-791 325.82,-801.72 343.99,-808.27 359.75,-812.23"/>
</g>
<!-- my wife&#45;&gt;my daughter -->
<g id="edge9" class="edge">
<title>my wife&#45;&gt;my daughter</title>
<path fill="none" stroke="black" d="M240.7,-672.88C256.24,-691.07 283.22,-719.73 312.09,-737 323.69,-743.94 337.29,-749.34 350.06,-753.42"/>
</g>
<!-- my wife&#39;s father -->
<g id="node23" class="node">
<title>my wife&#39;s father</title>
<ellipse fill="none" stroke="black" cx="395.28" cy="-656" rx="68.49" ry="18"/>
<text text-anchor="middle" x="395.28" y="-652.3" font-family="Times,serif" font-size="14.00">my wife&#39;s father</text>
</g>
<!-- my wife&#45;&gt;my wife&#39;s father -->
<g id="edge29" class="edge">
<title>my wife&#45;&gt;my wife&#39;s father</title>
<path fill="none" stroke="black" d="M266.68,-656C284.64,-656 306.4,-656 326.82,-656"/>
</g>
<!-- my wife&#39;s mother -->
<g id="node24" class="node">
<title>my wife&#39;s mother</title>
<ellipse fill="none" stroke="black" cx="395.28" cy="-602" rx="73.39" ry="18"/>
<text text-anchor="middle" x="395.28" y="-598.3" font-family="Times,serif" font-size="14.00">my wife&#39;s mother</text>
</g>
<!-- my wife&#45;&gt;my wife&#39;s mother -->
<g id="edge30" class="edge">
<title>my wife&#45;&gt;my wife&#39;s mother</title>
<path fill="none" stroke="black" d="M259.29,-645.59C285.11,-637.25 321.59,-625.47 350.13,-616.26"/>
</g>
<!-- my wife&#39;s brother -->
<g id="node25" class="node">
<title>my wife&#39;s brother</title>
<ellipse fill="none" stroke="black" cx="395.28" cy="-548" rx="73.39" ry="18"/>
<text text-anchor="middle" x="395.28" y="-544.3" font-family="Times,serif" font-size="14.00">my wife&#39;s brother</text>
</g>
<!-- my wife&#45;&gt;my wife&#39;s brother -->
<g id="edge31" class="edge">
<title>my wife&#45;&gt;my wife&#39;s brother</title>
<path fill="none" stroke="black" d="M240.7,-639.12C256.24,-620.93 283.22,-592.27 312.09,-575 321.63,-569.29 332.52,-564.63 343.19,-560.88"/>
</g>
<!-- my wife&#39;s sister -->
<g id="node26" class="node">
<title>my wife&#39;s sister</title>
<ellipse fill="none" stroke="black" cx="395.28" cy="-710" rx="66.09" ry="18"/>
<text text-anchor="middle" x="395.28" y="-706.3" font-family="Times,serif" font-size="14.00">my wife&#39;s sister</text>
</g>
<!-- my wife&#45;&gt;my wife&#39;s sister -->
<g id="edge32" class="edge">
<title>my wife&#45;&gt;my wife&#39;s sister</title>
<path fill="none" stroke="black" d="M259.29,-666.41C285.68,-674.93 323.21,-687.05 352,-696.35"/>
</g>
<!-- my brother&#39;s wife -->
<g id="node20" class="node">
<title>my brother&#39;s wife</title>
<ellipse fill="none" stroke="black" cx="794.85" cy="-480" rx="73.39" ry="18"/>
<text text-anchor="middle" x="794.85" y="-476.3" font-family="Times,serif" font-size="14.00">my brother&#39;s wife</text>
</g>
<!-- my brother&#45;&gt;my brother&#39;s wife -->
<g id="edge26" class="edge">
<title>my brother&#45;&gt;my brother&#39;s wife</title>
<path fill="none" stroke="black" d="M633.06,-436.67C665.11,-445.31 710.41,-457.51 744.77,-466.77"/>
</g>
<!-- my brother&#39;s son -->
<g id="node21" class="node">
<title>my brother&#39;s son</title>
<ellipse fill="none" stroke="black" cx="794.85" cy="-426" rx="69.59" ry="18"/>
<text text-anchor="middle" x="794.85" y="-422.3" font-family="Times,serif" font-size="14.00">my brother&#39;s son</text>
</g>
<!-- my brother&#45;&gt;my brother&#39;s son -->
<g id="edge27" class="edge">
<title>my brother&#45;&gt;my brother&#39;s son</title>
<path fill="none" stroke="black" d="M642.75,-426C667.54,-426 698.01,-426 725.08,-426"/>
</g>
<!-- my brother&#39;s daughter -->
<g id="node22" class="node">
<title>my brother&#39;s daughter</title>
<ellipse fill="none" stroke="black" cx="794.85" cy="-372" rx="88.28" ry="18"/>
<text text-anchor="middle" x="794.85" y="-368.3" font-family="Times,serif" font-size="14.00">my brother&#39;s daughter</text>
</g>
<!-- my brother&#45;&gt;my brother&#39;s daughter -->
<g id="edge28" class="edge">
<title>my brother&#45;&gt;my brother&#39;s daughter</title>
<path fill="none" stroke="black" d="M633.06,-415.33C663.86,-407.03 706.89,-395.44 740.69,-386.33"/>
</g>
<!-- my sister&#39;s husband -->
<g id="node17" class="node">
<title>my sister&#39;s husband</title>
<ellipse fill="none" stroke="black" cx="794.85" cy="-288" rx="79.89" ry="18"/>
<text text-anchor="middle" x="794.85" y="-284.3" font-family="Times,serif" font-size="14.00">my sister&#39;s husband</text>
</g>
<!-- my sister&#45;&gt;my sister&#39;s husband -->
<g id="edge23" class="edge">
<title>my sister&#45;&gt;my sister&#39;s husband</title>
<path fill="none" stroke="black" d="M629.29,-243.65C660.93,-252.18 707.41,-264.7 742.91,-274.27"/>
</g>
<!-- my sister&#39;s son -->
<g id="node18" class="node">
<title>my sister&#39;s son</title>
<ellipse fill="none" stroke="black" cx="794.85" cy="-234" rx="63.09" ry="18"/>
<text text-anchor="middle" x="794.85" y="-230.3" font-family="Times,serif" font-size="14.00">my sister&#39;s son</text>
</g>
<!-- my sister&#45;&gt;my sister&#39;s son -->
<g id="edge24" class="edge">
<title>my sister&#45;&gt;my sister&#39;s son</title>
<path fill="none" stroke="black" d="M636.46,-234C664.17,-234 700.67,-234 731.54,-234"/>
</g>
<!-- my sister&#39;s daughter -->
<g id="node19" class="node">
<title>my sister&#39;s daughter</title>
<ellipse fill="none" stroke="black" cx="794.85" cy="-180" rx="81.49" ry="18"/>
<text text-anchor="middle" x="794.85" y="-176.3" font-family="Times,serif" font-size="14.00">my sister&#39;s daughter</text>
</g>
<!-- my sister&#45;&gt;my sister&#39;s daughter -->
<g id="edge25" class="edge">
<title>my sister&#45;&gt;my sister&#39;s daughter</title>
<path fill="none" stroke="black" d="M629.29,-224.35C660.82,-215.85 707.08,-203.39 742.53,-193.83"/>
</g>
<!-- my father&#45;&gt;my brother -->
<g id="edge11" class="edge">
<title>my father&#45;&gt;my brother</title>
<path fill="none" stroke="black" d="M420.69,-140.94C438.48,-152.79 462.22,-170.69 478.48,-191 485.95,-200.34 558.2,-354.65 583.09,-408.01"/>
</g>
<!-- my father&#45;&gt;my sister -->
<g id="edge12" class="edge">
<title>my father&#45;&gt;my sister</title>
<path fill="none" stroke="black" d="M433.78,-135.63C448.67,-140.67 465.35,-147.94 478.48,-158 499.92,-174.44 492.76,-190.92 514.48,-207 525.98,-215.51 540.39,-221.51 553.62,-225.65"/>
</g>
<!-- my father&#39;s father -->
<g id="node13" class="node">
<title>my father&#39;s father</title>
<ellipse fill="none" stroke="black" cx="592.47" cy="-18" rx="73.39" ry="18"/>
<text text-anchor="middle" x="592.47" y="-14.3" font-family="Times,serif" font-size="14.00">my father&#39;s father</text>
</g>
<!-- my father&#45;&gt;my father&#39;s father -->
<g id="edge19" class="edge">
<title>my father&#45;&gt;my father&#39;s father</title>
<path fill="none" stroke="black" d="M416.18,-109.93C438.88,-92.18 477.64,-63.67 514.48,-45 524.21,-40.07 535.05,-35.66 545.45,-31.91"/>
</g>
<!-- my father&#39;s mother -->
<g id="node14" class="node">
<title>my father&#39;s mother</title>
<ellipse fill="none" stroke="black" cx="592.47" cy="-180" rx="77.99" ry="18"/>
<text text-anchor="middle" x="592.47" y="-176.3" font-family="Times,serif" font-size="14.00">my father&#39;s mother</text>
</g>
<!-- my father&#45;&gt;my father&#39;s mother -->
<g id="edge20" class="edge">
<title>my father&#45;&gt;my father&#39;s mother</title>
<path fill="none" stroke="black" d="M433,-136.16C463.7,-144.65 507.78,-156.85 541.66,-166.22"/>
</g>
<!-- my father&#39;s brother -->
<g id="node15" class="node">
<title>my father&#39;s brother</title>
<ellipse fill="none" stroke="black" cx="592.47" cy="-126" rx="77.99" ry="18"/>
<text text-anchor="middle" x="592.47" y="-122.3" font-family="Times,serif" font-size="14.00">my father&#39;s brother</text>
</g>
<!-- my father&#45;&gt;my father&#39;s brother -->
<g id="edge21" class="edge">
<title>my father&#45;&gt;my father&#39;s brother</title>
<path fill="none" stroke="black" d="M441.06,-126C462.79,-126 489.5,-126 514.36,-126"/>
</g>
<!-- my father&#39;s sister -->
<g id="node16" class="node">
<title>my father&#39;s sister</title>
<ellipse fill="none" stroke="black" cx="592.47" cy="-72" rx="71.49" ry="18"/>
<text text-anchor="middle" x="592.47" y="-68.3" font-family="Times,serif" font-size="14.00">my father&#39;s sister</text>
</g>
<!-- my father&#45;&gt;my father&#39;s sister -->
<g id="edge22" class="edge">
<title>my father&#45;&gt;my father&#39;s sister</title>
<path fill="none" stroke="black" d="M433,-115.84C464.25,-107.2 509.37,-94.71 543.48,-85.28"/>
</g>
<!-- my mother&#45;&gt;my brother -->
<g id="edge13" class="edge">
<title>my mother&#45;&gt;my brother</title>
<path fill="none" stroke="black" d="M235.25,-317.02C247.79,-342.2 274.31,-387.05 312.09,-407 386.89,-446.5 489.08,-441.08 546.86,-433.56"/>
</g>
<!-- my mother&#45;&gt;my sister -->
<g id="edge14" class="edge">
<title>my mother&#45;&gt;my sister</title>
<path fill="none" stroke="black" d="M234.86,-281.06C247.1,-255.53 273.44,-209.76 312.09,-191 378.62,-158.71 406.14,-175.65 478.48,-191 495.6,-194.63 498.2,-200.54 514.48,-207 528.56,-212.59 544.33,-218.22 557.9,-222.89"/>
</g>
<!-- my mother&#45;&gt;my father -->
<g id="edge10" class="edge">
<title>my mother&#45;&gt;my father</title>
<path fill="none" stroke="black" d="M233.52,-280.82C244.95,-251.16 271.41,-192.24 312.09,-158 324.63,-147.45 341.04,-140.13 355.9,-135.18"/>
</g>
<!-- my mother&#39;s father -->
<g id="node9" class="node">
<title>my mother&#39;s father</title>
<ellipse fill="none" stroke="black" cx="395.28" cy="-380" rx="77.99" ry="18"/>
<text text-anchor="middle" x="395.28" y="-376.3" font-family="Times,serif" font-size="14.00">my mother&#39;s father</text>
</g>
<!-- my mother&#45;&gt;my mother&#39;s father -->
<g id="edge15" class="edge">
<title>my mother&#45;&gt;my mother&#39;s father</title>
<path fill="none" stroke="black" d="M248.91,-315.03C265.59,-326.71 289.48,-342.31 312.09,-353 322.55,-357.94 334.15,-362.35 345.26,-366.11"/>
</g>
<!-- my mother&#39;s mother -->
<g id="node10" class="node">
<title>my mother&#39;s mother</title>
<ellipse fill="none" stroke="black" cx="395.28" cy="-326" rx="83.39" ry="18"/>
<text text-anchor="middle" x="395.28" y="-322.3" font-family="Times,serif" font-size="14.00">my mother&#39;s mother</text>
</g>
<!-- my mother&#45;&gt;my mother&#39;s mother -->
<g id="edge16" class="edge">
<title>my mother&#45;&gt;my mother&#39;s mother</title>
<path fill="none" stroke="black" d="M272.3,-306.31C289.42,-309.07 309.29,-312.28 327.95,-315.29"/>
</g>
<!-- my mother&#39;s brother -->
<g id="node11" class="node">
<title>my mother&#39;s brother</title>
<ellipse fill="none" stroke="black" cx="395.28" cy="-272" rx="83.39" ry="18"/>
<text text-anchor="middle" x="395.28" y="-268.3" font-family="Times,serif" font-size="14.00">my mother&#39;s brother</text>
</g>
<!-- my mother&#45;&gt;my mother&#39;s brother -->
<g id="edge17" class="edge">
<title>my mother&#45;&gt;my mother&#39;s brother</title>
<path fill="none" stroke="black" d="M272.3,-291.69C289.42,-288.93 309.29,-285.72 327.95,-282.71"/>
</g>
<!-- my mother&#39;s sister -->
<g id="node12" class="node">
<title>my mother&#39;s sister</title>
<ellipse fill="none" stroke="black" cx="395.28" cy="-218" rx="76.09" ry="18"/>
<text text-anchor="middle" x="395.28" y="-214.3" font-family="Times,serif" font-size="14.00">my mother&#39;s sister</text>
</g>
<!-- my mother&#45;&gt;my mother&#39;s sister -->
<g id="edge18" class="edge">
<title>my mother&#45;&gt;my mother&#39;s sister</title>
<path fill="none" stroke="black" d="M248.91,-282.97C265.59,-271.29 289.48,-255.69 312.09,-245 322.68,-239.99 334.45,-235.53 345.69,-231.75"/>
</g>
<!-- A different family tree -->
<g id="node27" class="node">
<title>A different family tree</title>
<g id="a_node27"><a xlink:href="https://graphviz.org/Gallery/directed/kennedyanc.html" xlink:title="A different family tree">
<text text-anchor="middle" x="70" y="-552.3" font-family="Times,serif" font-size="14.00">A different family tree</text>
</a>
</g>
</g>
<!-- My\n nuclear family\n relationships -->
<g id="node28" class="node">
<title>My\n nuclear family\n relationships</title>
<text text-anchor="middle" x="70" y="-646" font-family="Times,serif" font-size="20.00">My</text>
<text text-anchor="middle" x="70" y="-624" font-family="Times,serif" font-size="20.00"> nuclear family</text>
<text text-anchor="middle" x="70" y="-602" font-family="Times,serif" font-size="20.00"> relationships</text>
</g>
</g>
</svg>
