<?xml version="1.0" encoding="UTF-8" standalone="no"?>
<!DOCTYPE svg PUBLIC "-//W3C//DTD SVG 1.1//EN"
 "http://www.w3.org/Graphics/SVG/1.1/DTD/svg11.dtd">
<!-- Generated by graphviz version 2.44.1 (20200629.0846)
 -->
<!-- Title: G Pages: 1 -->
<svg width="1798pt" height="251pt"
 viewBox="0.00 0.00 1797.50 250.89" xmlns="http://www.w3.org/2000/svg" xmlns:xlink="http://www.w3.org/1999/xlink">
<g id="graph0" class="graph" transform="scale(1 1) rotate(0) translate(4 246.89)">
<title>G</title>
<polygon fill="white" stroke="transparent" points="-4,4 -4,-246.89 1793.5,-246.89 1793.5,4 -4,4"/>
<g id="clust1" class="cluster">
<title>cluster_arrowType</title>
<polygon fill="none" stroke="black" points="91.5,-8 91.5,-194.95 1255.5,-194.95 1255.5,-8 91.5,-8"/>
<text text-anchor="middle" x="673.5" y="-179.75" font-family="Times,serif" font-size="14.00">arrow types</text>
</g>
<g id="clust3" class="cluster">
<title>cluster_style</title>
<polygon fill="none" stroke="black" points="1263.5,-119.95 1263.5,-194.95 1411.5,-194.95 1411.5,-119.95 1263.5,-119.95"/>
<text text-anchor="middle" x="1337.5" y="-179.75" font-family="Times,serif" font-size="14.00">[style=?]</text>
</g>
<g id="clust4" class="cluster">
<title>cluster_shape</title>
<polygon fill="none" stroke="black" points="1419.5,-80 1419.5,-234.89 1781.5,-234.89 1781.5,-80 1419.5,-80"/>
<text text-anchor="middle" x="1600.5" y="-219.69" font-family="Times,serif" font-size="14.00">[shape=?]</text>
</g>
<!-- pot of water -->
<g id="node1" class="node">
<title>pot of water</title>
<path fill="gray" stroke="black" d="M83,-160.67C83,-162.48 64.4,-163.95 41.5,-163.95 18.6,-163.95 0,-162.48 0,-160.67 0,-160.67 0,-131.22 0,-131.22 0,-129.41 18.6,-127.95 41.5,-127.95 64.4,-127.95 83,-129.41 83,-131.22 83,-131.22 83,-160.67 83,-160.67"/>
<path fill="none" stroke="black" d="M83,-160.67C83,-158.87 64.4,-157.4 41.5,-157.4 18.6,-157.4 0,-158.87 0,-160.67"/>
<text text-anchor="middle" x="41.5" y="-142.25" font-family="Times,serif" font-size="14.00">pot of water</text>
</g>
<!-- a -->
<g id="node2" class="node">
<title>a</title>
<ellipse fill="none" stroke="black" cx="810.5" cy="-145.95" rx="27" ry="18"/>
<text text-anchor="middle" x="810.5" y="-142.25" font-family="Times,serif" font-size="14.00">a</text>
</g>
<!-- b -->
<g id="node3" class="node">
<title>b</title>
<ellipse fill="none" stroke="black" cx="432.5" cy="-34" rx="27" ry="18"/>
<text text-anchor="middle" x="432.5" y="-30.3" font-family="Times,serif" font-size="14.00">b</text>
</g>
<!-- a&#45;&gt;b -->
<g id="edge1" class="edge">
<title>a&#45;&gt;b</title>
<path fill="none" stroke="black" d="M794.23,-131.39C774.88,-116.1 740.99,-91.83 707.5,-80 606.66,-44.37 571.32,-81.44 468.5,-52 466.56,-51.44 464.59,-50.79 462.62,-50.07"/>
<polygon fill="black" stroke="black" points="463.57,-46.68 452.99,-46.07 460.89,-53.14 463.57,-46.68"/>
</g>
<!-- [arrowhead=dot] -->
<g id="node4" class="node">
<title>[arrowhead=dot]</title>
<ellipse fill="none" stroke="black" cx="547.5" cy="-34" rx="70.39" ry="18"/>
<text text-anchor="middle" x="547.5" y="-30.3" font-family="Times,serif" font-size="14.00">[arrowhead=dot]</text>
</g>
<!-- a&#45;&gt;[arrowhead=dot] -->
<g id="edge2" class="edge">
<title>a&#45;&gt;[arrowhead=dot]</title>
<path fill="none" stroke="black" d="M793.15,-131.79C773.35,-117.33 739.57,-94.26 707.5,-80 676.03,-66.01 639.14,-55.28 608.71,-47.82"/>
<ellipse fill="black" stroke="black" cx="604.6" cy="-46.83" rx="4" ry="4"/>
</g>
<!-- [arrowhead=diamond] -->
<g id="node5" class="node">
<title>[arrowhead=diamond]</title>
<ellipse fill="none" stroke="black" cx="726.5" cy="-34" rx="90.18" ry="18"/>
<text text-anchor="middle" x="726.5" y="-30.3" font-family="Times,serif" font-size="14.00">[arrowhead=diamond]</text>
</g>
<!-- a&#45;&gt;[arrowhead=diamond] -->
<g id="edge3" class="edge">
<title>a&#45;&gt;[arrowhead=diamond]</title>
<path fill="none" stroke="black" d="M798.82,-129.66C785.42,-112.11 763.19,-83.02 746.91,-61.71"/>
<polygon fill="black" stroke="black" points="746.74,-61.5 739.92,-59.16 739.46,-51.96 746.28,-54.3 746.74,-61.5"/>
</g>
<!-- [arrowsize=2] -->
<g id="node6" class="node">
<title>[arrowsize=2]</title>
<ellipse fill="none" stroke="black" cx="895.5" cy="-34" rx="60.39" ry="18"/>
<text text-anchor="middle" x="895.5" y="-30.3" font-family="Times,serif" font-size="14.00">[arrowsize=2]</text>
</g>
<!-- a&#45;&gt;[arrowsize=2] -->
<g id="edge4" class="edge">
<title>a&#45;&gt;[arrowsize=2]</title>
<path fill="none" stroke="black" d="M822.32,-129.66C834.66,-113.7 854.39,-88.18 870.25,-67.66"/>
<polygon fill="black" stroke="black" points="875.98,-71.7 882.67,-51.59 864.9,-63.14 875.98,-71.7"/>
</g>
<!-- [arrowtail=2] -->
<g id="node7" class="node">
<title>[arrowtail=2]</title>
<ellipse fill="none" stroke="black" cx="1031.5" cy="-34" rx="57.69" ry="18"/>
<text text-anchor="middle" x="1031.5" y="-30.3" font-family="Times,serif" font-size="14.00">[arrowtail=2]</text>
</g>
<!-- a&#45;&gt;[arrowtail=2] -->
<g id="edge5" class="edge">
<title>a&#45;&gt;[arrowtail=2]</title>
<path fill="none" stroke="black" d="M831.69,-134.4C868.78,-115.95 945.98,-77.54 992.82,-54.24"/>
<polygon fill="none" stroke="black" points="1003.6,-52.79 993.09,-54.11 1000.48,-46.52 1003.6,-52.79"/>
</g>
<!-- [dir=both color= -->
<g id="node8" class="node">
<title>[dir=both color=</title>
<ellipse fill="none" stroke="black" cx="1177.5" cy="-34" rx="70.39" ry="18"/>
<text text-anchor="middle" x="1177.5" y="-30.3" font-family="Times,serif" font-size="14.00">[dir=both color=</text>
</g>
<!-- a&#45;&gt;[dir=both color= -->
<g id="edge6" class="edge">
<title>a&#45;&gt;[dir=both color=</title>
<path fill="none" stroke="black" d="M834.58,-137.73C892.85,-120.28 1042.58,-75.42 1123.57,-51.16"/>
<polygon fill="black" stroke="black" points="1125,-54.38 1133.57,-48.16 1122.99,-47.68 1125,-54.38"/>
</g>
<!-- red -->
<g id="node9" class="node">
<title>red</title>
<ellipse fill="none" stroke="black" cx="671.5" cy="-145.95" rx="27" ry="18"/>
<text text-anchor="middle" x="671.5" y="-142.25" font-family="Times,serif" font-size="14.00">red</text>
</g>
<!-- ] -->
<g id="node10" class="node">
<title>]</title>
<ellipse fill="none" stroke="red:blue" cx="466.5" cy="-145.95" rx="27" ry="18"/>
<text text-anchor="middle" x="466.5" y="-142.25" font-family="Times,serif" font-size="14.00">]</text>
</g>
<!-- c -->
<g id="node11" class="node">
<title>c</title>
<ellipse fill="none" stroke="black" cx="243.5" cy="-145.95" rx="27" ry="18"/>
<text text-anchor="middle" x="243.5" y="-142.25" font-family="Times,serif" font-size="14.00">c</text>
</g>
<!-- [dir=none color=green:red;0.25:blue] -->
<g id="node12" class="node">
<title>[dir=none color=green:red;0.25:blue]</title>
<ellipse fill="none" stroke="black" cx="243.5" cy="-34" rx="143.77" ry="18"/>
<text text-anchor="middle" x="243.5" y="-30.3" font-family="Times,serif" font-size="14.00">[dir=none color=green:red;0.25:blue]</text>
</g>
<!-- c&#45;&gt;[dir=none color=green:red;0.25:blue] -->
<g id="edge7" class="edge">
<title>c&#45;&gt;[dir=none color=green:red;0.25:blue]</title>
<path fill="none" stroke="green" d="M243.5,-127.77C243.5,-120.02 243.5,-110.33 243.5,-100.17"/>
<path fill="none" stroke="red" d="M243.5,-100.17C243.5,-93.39 243.5,-86.4 243.5,-79.62"/>
<path fill="none" stroke="blue" d="M243.5,-79.62C243.5,-69.46 243.5,-59.78 243.5,-52.06"/>
</g>
<!-- filled -->
<g id="node13" class="node">
<title>filled</title>
<ellipse fill="lightgrey" stroke="black" cx="1374.5" cy="-145.95" rx="28.7" ry="18"/>
<text text-anchor="middle" x="1374.5" y="-142.25" font-family="Times,serif" font-size="14.00">filled</text>
</g>
<!-- invis -->
<!-- box -->
<g id="node15" class="node">
<title>box</title>
<polygon fill="none" stroke="black" points="1773.5,-163.95 1719.5,-163.95 1719.5,-127.95 1773.5,-127.95 1773.5,-163.95"/>
<text text-anchor="middle" x="1746.5" y="-142.25" font-family="Times,serif" font-size="14.00">box</text>
</g>
<!-- circle -->
<g id="node16" class="node">
<title>circle</title>
<ellipse fill="none" stroke="black" cx="1670.5" cy="-145.95" rx="30.59" ry="30.59"/>
<text text-anchor="middle" x="1670.5" y="-142.25" font-family="Times,serif" font-size="14.00">circle</text>
</g>
<!-- doublecircle -->
<g id="node17" class="node">
<title>doublecircle</title>
<ellipse fill="none" stroke="black" cx="1564.5" cy="-145.95" rx="53.89" ry="53.89"/>
<ellipse fill="none" stroke="black" cx="1564.5" cy="-145.95" rx="57.89" ry="57.89"/>
<text text-anchor="middle" x="1564.5" y="-142.25" font-family="Times,serif" font-size="14.00">doublecircle</text>
</g>
<!-- cylinder -->
<g id="node18" class="node">
<title>cylinder</title>
<path fill="none" stroke="black" d="M1489,-160.67C1489,-162.48 1475.33,-163.95 1458.5,-163.95 1441.67,-163.95 1428,-162.48 1428,-160.67 1428,-160.67 1428,-131.22 1428,-131.22 1428,-129.41 1441.67,-127.95 1458.5,-127.95 1475.33,-127.95 1489,-129.41 1489,-131.22 1489,-131.22 1489,-160.67 1489,-160.67"/>
<path fill="none" stroke="black" d="M1489,-160.67C1489,-158.87 1475.33,-157.4 1458.5,-157.4 1441.67,-157.4 1428,-158.87 1428,-160.67"/>
<text text-anchor="middle" x="1458.5" y="-142.25" font-family="Times,serif" font-size="14.00">cylinder</text>
</g>
</g>
</svg>
