<?xml version="1.0" encoding="UTF-8" standalone="no"?>
<!DOCTYPE svg PUBLIC "-//W3C//DTD SVG 1.1//EN"
 "http://www.w3.org/Graphics/SVG/1.1/DTD/svg11.dtd">
<!-- Generated by graphviz version 2.44.1 (20200629.0846)
 -->
<!-- Title: G Pages: 1 -->
<svg width="546pt" height="420pt"
 viewBox="0.00 0.00 545.57 420.00" xmlns="http://www.w3.org/2000/svg" xmlns:xlink="http://www.w3.org/1999/xlink">
<g id="graph0" class="graph" transform="scale(1 1) rotate(0) translate(4 416)">
<title>G</title>
<polygon fill="white" stroke="transparent" points="-4,4 -4,-416 541.57,-416 541.57,4 -4,4"/>
<g id="clust1" class="cluster">
<title>cluster4</title>
<polygon fill="none" stroke="black" points="9.57,-152 9.57,-276 105.57,-276 105.57,-152 9.57,-152"/>
</g>
<g id="clust2" class="cluster">
<title>cluster3</title>
<polygon fill="none" stroke="black" points="35.57,-8 35.57,-132 155.57,-132 155.57,-8 35.57,-8"/>
</g>
<g id="clust3" class="cluster">
<title>cluster1</title>
<polygon fill="none" stroke="black" points="263.57,-152 263.57,-276 529.57,-276 529.57,-152 263.57,-152"/>
</g>
<g id="clust4" class="cluster">
<title>cluster2</title>
<polygon fill="none" stroke="black" points="114.57,-224 114.57,-348 194.57,-348 194.57,-224 114.57,-224"/>
</g>
<g id="clust5" class="cluster">
<title>cluster0</title>
<polygon fill="none" stroke="black" points="163.57,-8 163.57,-204 255.57,-204 255.57,-8 163.57,-8"/>
</g>
<!-- Server -->
<g id="node1" class="node">
<title>Server</title>
<ellipse fill="none" stroke="black" cx="154.57" cy="-394" rx="33.6" ry="18"/>
<text text-anchor="middle" x="154.57" y="-390.3" font-family="Times,serif" font-size="14.00">Server</text>
</g>
<!-- routes -->
<g id="node2" class="node">
<title>routes</title>
<ellipse fill="none" stroke="black" cx="154.57" cy="-322" rx="32.49" ry="18"/>
<text text-anchor="middle" x="154.57" y="-318.3" font-family="Times,serif" font-size="14.00">routes</text>
</g>
<!-- Server&#45;&gt;routes -->
<g id="edge1" class="edge">
<title>Server&#45;&gt;routes</title>
<path fill="none" stroke="black" d="M154.57,-375.7C154.57,-367.98 154.57,-358.71 154.57,-350.11"/>
<polygon fill="black" stroke="black" points="158.07,-350.1 154.57,-340.1 151.07,-350.1 158.07,-350.1"/>
</g>
<!-- gateway -->
<g id="node3" class="node">
<title>gateway</title>
<ellipse fill="none" stroke="black" cx="57.57" cy="-250" rx="40.09" ry="18"/>
<text text-anchor="middle" x="57.57" y="-246.3" font-family="Times,serif" font-size="14.00">gateway</text>
</g>
<!-- routes&#45;&gt;gateway -->
<g id="edge15" class="edge">
<title>routes&#45;&gt;gateway</title>
<path fill="none" stroke="black" d="M135.41,-307.17C121.43,-297.08 102.25,-283.24 86.43,-271.82"/>
<polygon fill="black" stroke="black" points="88.19,-268.78 78.04,-265.77 84.1,-274.46 88.19,-268.78"/>
</g>
<!-- meraki -->
<g id="node5" class="node">
<title>meraki</title>
<ellipse fill="none" stroke="black" cx="209.57" cy="-178" rx="36" ry="18"/>
<text text-anchor="middle" x="209.57" y="-174.3" font-family="Times,serif" font-size="14.00">meraki</text>
</g>
<!-- routes&#45;&gt;meraki -->
<g id="edge6" class="edge">
<title>routes&#45;&gt;meraki</title>
<path fill="none" stroke="black" d="M169.62,-306.02C177.02,-297.81 185.44,-287.07 190.57,-276 200.85,-253.83 205.57,-226.31 207.74,-206.25"/>
<polygon fill="black" stroke="black" points="211.23,-206.52 208.68,-196.23 204.26,-205.86 211.23,-206.52"/>
</g>
<!-- domain -->
<g id="node6" class="node">
<title>domain</title>
<ellipse fill="none" stroke="black" cx="309.57" cy="-250" rx="37.89" ry="18"/>
<text text-anchor="middle" x="309.57" y="-246.3" font-family="Times,serif" font-size="14.00">domain</text>
</g>
<!-- routes&#45;&gt;domain -->
<g id="edge7" class="edge">
<title>routes&#45;&gt;domain</title>
<path fill="none" stroke="black" d="M179.13,-309.91C204.59,-298.41 244.66,-280.31 273.67,-267.21"/>
<polygon fill="black" stroke="black" points="275.38,-270.28 283.05,-262.98 272.5,-263.9 275.38,-270.28"/>
</g>
<!-- exec -->
<g id="node7" class="node">
<title>exec</title>
<ellipse fill="none" stroke="black" cx="154.57" cy="-250" rx="27" ry="18"/>
<text text-anchor="middle" x="154.57" y="-246.3" font-family="Times,serif" font-size="14.00">exec</text>
</g>
<!-- routes&#45;&gt;exec -->
<g id="edge16" class="edge">
<title>routes&#45;&gt;exec</title>
<path fill="none" stroke="black" d="M154.57,-303.7C154.57,-295.98 154.57,-286.71 154.57,-278.11"/>
<polygon fill="black" stroke="black" points="158.07,-278.1 154.57,-268.1 151.07,-278.1 158.07,-278.1"/>
</g>
<!-- json -->
<g id="node4" class="node">
<title>json</title>
<ellipse fill="none" stroke="black" cx="107.57" cy="-106" rx="27" ry="18"/>
<text text-anchor="middle" x="107.57" y="-102.3" font-family="Times,serif" font-size="14.00">json</text>
</g>
<!-- gateway&#45;&gt;json -->
<g id="edge2" class="edge">
<title>gateway&#45;&gt;json</title>
<path fill="none" stroke="black" d="M71.1,-232.86C77.3,-224.69 84.23,-214.32 88.57,-204 98.05,-181.48 102.86,-154 105.27,-134.04"/>
<polygon fill="black" stroke="black" points="108.75,-134.4 106.34,-124.09 101.79,-133.65 108.75,-134.4"/>
</g>
<!-- gateway&#45;&gt;meraki -->
<g id="edge3" class="edge">
<title>gateway&#45;&gt;meraki</title>
<path fill="none" stroke="black" d="M84.23,-236.34C92.64,-232.36 101.99,-227.98 110.57,-224 131.82,-214.16 155.72,-203.29 174.72,-194.7"/>
<polygon fill="black" stroke="black" points="176.21,-197.86 183.89,-190.56 173.33,-191.48 176.21,-197.86"/>
</g>
<!-- linker -->
<g id="node8" class="node">
<title>linker</title>
<ellipse fill="none" stroke="black" cx="48.57" cy="-178" rx="31.4" ry="18"/>
<text text-anchor="middle" x="48.57" y="-174.3" font-family="Times,serif" font-size="14.00">linker</text>
</g>
<!-- gateway&#45;&gt;linker -->
<g id="edge11" class="edge">
<title>gateway&#45;&gt;linker</title>
<path fill="none" stroke="black" d="M55.35,-231.7C54.36,-223.98 53.16,-214.71 52.06,-206.11"/>
<polygon fill="black" stroke="black" points="55.52,-205.58 50.77,-196.1 48.57,-206.47 55.52,-205.58"/>
</g>
<!-- groovy.json -->
<g id="node9" class="node">
<title>groovy.json</title>
<ellipse fill="none" stroke="black" cx="95.57" cy="-34" rx="51.99" ry="18"/>
<text text-anchor="middle" x="95.57" y="-30.3" font-family="Times,serif" font-size="14.00">groovy.json</text>
</g>
<!-- json&#45;&gt;groovy.json -->
<g id="edge12" class="edge">
<title>json&#45;&gt;groovy.json</title>
<path fill="none" stroke="black" d="M104.67,-88.05C103.35,-80.35 101.75,-71.03 100.26,-62.36"/>
<polygon fill="black" stroke="black" points="103.67,-61.54 98.53,-52.28 96.77,-62.72 103.67,-61.54"/>
</g>
<!-- meraki&#45;&gt;json -->
<g id="edge17" class="edge">
<title>meraki&#45;&gt;json</title>
<path fill="none" stroke="black" d="M188.93,-162.83C173.17,-152.02 151.32,-137.02 134.23,-125.3"/>
<polygon fill="black" stroke="black" points="136.01,-122.27 125.79,-119.5 132.05,-128.05 136.01,-122.27"/>
</g>
<!-- http -->
<g id="node12" class="node">
<title>http</title>
<ellipse fill="none" stroke="black" cx="209.57" cy="-106" rx="27" ry="18"/>
<text text-anchor="middle" x="209.57" y="-102.3" font-family="Times,serif" font-size="14.00">http</text>
</g>
<!-- meraki&#45;&gt;http -->
<g id="edge18" class="edge">
<title>meraki&#45;&gt;http</title>
<path fill="none" stroke="black" d="M209.57,-159.7C209.57,-151.98 209.57,-142.71 209.57,-134.11"/>
<polygon fill="black" stroke="black" points="213.07,-134.1 209.57,-124.1 206.07,-134.1 213.07,-134.1"/>
</g>
<!-- domain&#45;&gt;json -->
<g id="edge4" class="edge">
<title>domain&#45;&gt;json</title>
<path fill="none" stroke="black" d="M275.54,-241.98C237.03,-233.49 177.36,-218.54 159.57,-204 137.35,-185.84 123.3,-155.59 115.49,-133.7"/>
<polygon fill="black" stroke="black" points="118.73,-132.37 112.24,-124.01 112.1,-134.6 118.73,-132.37"/>
</g>
<!-- domain&#45;&gt;meraki -->
<g id="edge5" class="edge">
<title>domain&#45;&gt;meraki</title>
<path fill="none" stroke="black" d="M288.85,-234.5C274.18,-224.22 254.31,-210.32 238.13,-198.99"/>
<polygon fill="black" stroke="black" points="239.78,-195.88 229.58,-193.01 235.77,-201.61 239.78,-195.88"/>
</g>
<!-- java.time -->
<g id="node10" class="node">
<title>java.time</title>
<ellipse fill="none" stroke="black" cx="315.57" cy="-178" rx="44.39" ry="18"/>
<text text-anchor="middle" x="315.57" y="-174.3" font-family="Times,serif" font-size="14.00">java.time</text>
</g>
<!-- domain&#45;&gt;java.time -->
<g id="edge13" class="edge">
<title>domain&#45;&gt;java.time</title>
<path fill="none" stroke="black" d="M311.05,-231.7C311.72,-223.98 312.51,-214.71 313.25,-206.11"/>
<polygon fill="black" stroke="black" points="316.74,-206.37 314.11,-196.1 309.76,-205.77 316.74,-206.37"/>
</g>
<!-- groovy.transform -->
<g id="node11" class="node">
<title>groovy.transform</title>
<ellipse fill="none" stroke="black" cx="449.57" cy="-178" rx="72.29" ry="18"/>
<text text-anchor="middle" x="449.57" y="-174.3" font-family="Times,serif" font-size="14.00">groovy.transform</text>
</g>
<!-- domain&#45;&gt;groovy.transform -->
<g id="edge14" class="edge">
<title>domain&#45;&gt;groovy.transform</title>
<path fill="none" stroke="black" d="M334.6,-236.49C355.52,-226.02 385.74,-210.92 409.95,-198.81"/>
<polygon fill="black" stroke="black" points="411.52,-201.94 418.9,-194.34 408.39,-195.68 411.52,-201.94"/>
</g>
<!-- exec&#45;&gt;meraki -->
<g id="edge8" class="edge">
<title>exec&#45;&gt;meraki</title>
<path fill="none" stroke="black" d="M166.51,-233.81C173.52,-224.89 182.54,-213.41 190.51,-203.26"/>
<polygon fill="black" stroke="black" points="193.47,-205.16 196.9,-195.13 187.96,-200.83 193.47,-205.16"/>
</g>
<!-- linker&#45;&gt;routes -->
<g id="edge10" class="edge">
<title>linker&#45;&gt;routes</title>
<path fill="none" stroke="black" d="M30.89,-193.28C22.4,-201.3 13.1,-212.08 8.57,-224 0.36,-245.6 -5.15,-257.41 8.57,-276 32.06,-307.81 77.7,-317.83 111.73,-320.66"/>
<polygon fill="black" stroke="black" points="111.68,-324.16 121.88,-321.32 112.13,-317.17 111.68,-324.16"/>
</g>
<!-- linker&#45;&gt;json -->
<g id="edge9" class="edge">
<title>linker&#45;&gt;json</title>
<path fill="none" stroke="black" d="M61.67,-161.46C69.49,-152.18 79.57,-140.23 88.29,-129.88"/>
<polygon fill="black" stroke="black" points="91.15,-131.91 94.92,-122.01 85.8,-127.4 91.15,-131.91"/>
</g>
<!-- java.net -->
<g id="node13" class="node">
<title>java.net</title>
<ellipse fill="none" stroke="black" cx="209.57" cy="-34" rx="38.19" ry="18"/>
<text text-anchor="middle" x="209.57" y="-30.3" font-family="Times,serif" font-size="14.00">java.net</text>
</g>
<!-- http&#45;&gt;java.net -->
<g id="edge19" class="edge">
<title>http&#45;&gt;java.net</title>
<path fill="none" stroke="black" d="M209.57,-87.7C209.57,-79.98 209.57,-70.71 209.57,-62.11"/>
<polygon fill="black" stroke="black" points="213.07,-62.1 209.57,-52.1 206.07,-62.1 213.07,-62.1"/>
</g>
</g>
</svg>
