<?xml version="1.0" encoding="UTF-8" standalone="no"?>
<!DOCTYPE svg PUBLIC "-//W3C//DTD SVG 1.1//EN"
 "http://www.w3.org/Graphics/SVG/1.1/DTD/svg11.dtd">
<!-- Generated by graphviz version 2.44.1 (20200629.0846)
 -->
<!-- Title: G Pages: 1 -->
<svg width="537pt" height="436pt"
 viewBox="0.00 0.00 537.33 436.00" xmlns="http://www.w3.org/2000/svg" xmlns:xlink="http://www.w3.org/1999/xlink">
<g id="graph0" class="graph" transform="scale(1 1) rotate(0) translate(4 432)">
<title>G</title>
<polygon fill="white" stroke="transparent" points="-4,4 -4,-432 533.33,-432 533.33,4 -4,4"/>
<g id="clust1" class="cluster">
<title>cluster_gateway</title>
<polygon fill="none" stroke="red" points="9.33,-152 9.33,-276 87.33,-276 87.33,-152 9.33,-152"/>
</g>
<g id="clust2" class="cluster">
<title>cluster3</title>
<polygon fill="none" stroke="black" points="27.33,-8 27.33,-132 147.33,-132 147.33,-8 27.33,-8"/>
</g>
<g id="clust3" class="cluster">
<title>cluster1</title>
<polygon fill="none" stroke="black" points="255.33,-152 255.33,-276 521.33,-276 521.33,-152 255.33,-152"/>
</g>
<g id="clust5" class="cluster">
<title>cluster2</title>
<polygon fill="none" stroke="black" points="106.33,-224 106.33,-348 186.33,-348 186.33,-224 106.33,-224"/>
</g>
<g id="clust7" class="cluster">
<title>cluster0</title>
<polygon fill="none" stroke="black" points="155.33,-8 155.33,-204 247.33,-204 247.33,-8 155.33,-8"/>
</g>
<g id="clust9" class="cluster">
<title>cluster_key</title>
<polygon fill="none" stroke="black" points="271.33,-368 271.33,-420 439.33,-420 439.33,-368 271.33,-368"/>
</g>
<!-- Server -->
<g id="node1" class="node">
<title>Server</title>
<ellipse fill="none" stroke="black" cx="146.33" cy="-394" rx="33.6" ry="18"/>
<text text-anchor="middle" x="146.33" y="-390.3" font-family="Times,serif" font-size="14.00">Server</text>
</g>
<!-- routes -->
<g id="node2" class="node">
<title>routes</title>
<ellipse fill="none" stroke="black" cx="146.33" cy="-322" rx="32.49" ry="18"/>
<text text-anchor="middle" x="146.33" y="-318.3" font-family="Times,serif" font-size="14.00">routes</text>
</g>
<!-- Server&#45;&gt;routes -->
<g id="edge1" class="edge">
<title>Server&#45;&gt;routes</title>
<path fill="none" stroke="black" d="M146.33,-375.7C146.33,-367.98 146.33,-358.71 146.33,-350.11"/>
<polygon fill="black" stroke="black" points="149.83,-350.1 146.33,-340.1 142.83,-350.1 149.83,-350.1"/>
</g>
<!-- gateway -->
<g id="node3" class="node">
<title>gateway</title>
<text text-anchor="middle" x="48.33" y="-246.3" font-family="Times,serif" font-size="14.00">gateway</text>
</g>
<!-- routes&#45;&gt;gateway -->
<g id="edge15" class="edge">
<title>routes&#45;&gt;gateway</title>
<path fill="none" stroke="black" d="M126.97,-307.17C113.7,-297.69 95.78,-284.89 80.39,-273.9"/>
<polygon fill="black" stroke="black" points="82.33,-270.98 72.16,-268.02 78.26,-276.68 82.33,-270.98"/>
</g>
<!-- meraki -->
<g id="node5" class="node">
<title>meraki</title>
<ellipse fill="none" stroke="black" cx="201.33" cy="-178" rx="36" ry="18"/>
<text text-anchor="middle" x="201.33" y="-174.3" font-family="Times,serif" font-size="14.00">meraki</text>
</g>
<!-- routes&#45;&gt;meraki -->
<g id="edge6" class="edge">
<title>routes&#45;&gt;meraki</title>
<path fill="none" stroke="black" d="M161.37,-306.02C168.78,-297.81 177.2,-287.07 182.33,-276 192.61,-253.83 197.33,-226.31 199.5,-206.25"/>
<polygon fill="black" stroke="black" points="202.99,-206.52 200.44,-196.23 196.02,-205.86 202.99,-206.52"/>
</g>
<!-- domain -->
<g id="node6" class="node">
<title>domain</title>
<ellipse fill="none" stroke="black" cx="301.33" cy="-250" rx="37.89" ry="18"/>
<text text-anchor="middle" x="301.33" y="-246.3" font-family="Times,serif" font-size="14.00">domain</text>
</g>
<!-- routes&#45;&gt;domain -->
<g id="edge7" class="edge">
<title>routes&#45;&gt;domain</title>
<path fill="none" stroke="black" d="M170.89,-309.91C196.35,-298.41 236.42,-280.31 265.43,-267.21"/>
<polygon fill="black" stroke="black" points="267.13,-270.28 274.81,-262.98 264.25,-263.9 267.13,-270.28"/>
</g>
<!-- exec -->
<g id="node7" class="node">
<title>exec</title>
<ellipse fill="none" stroke="black" cx="146.33" cy="-250" rx="27" ry="18"/>
<text text-anchor="middle" x="146.33" y="-246.3" font-family="Times,serif" font-size="14.00">exec</text>
</g>
<!-- routes&#45;&gt;exec -->
<g id="edge16" class="edge">
<title>routes&#45;&gt;exec</title>
<path fill="none" stroke="black" d="M146.33,-303.7C146.33,-295.98 146.33,-286.71 146.33,-278.11"/>
<polygon fill="black" stroke="black" points="149.83,-278.1 146.33,-268.1 142.83,-278.1 149.83,-278.1"/>
</g>
<!-- json -->
<g id="node4" class="node">
<title>json</title>
<ellipse fill="none" stroke="black" cx="99.33" cy="-106" rx="27" ry="18"/>
<text text-anchor="middle" x="99.33" y="-102.3" font-family="Times,serif" font-size="14.00">json</text>
</g>
<!-- gateway&#45;&gt;json -->
<g id="edge2" class="edge">
<title>gateway&#45;&gt;json</title>
<path fill="none" stroke="black" d="M63.29,-231.67C69.44,-223.71 76.09,-213.86 80.33,-204 89.98,-181.55 94.77,-154.06 97.12,-134.08"/>
<polygon fill="black" stroke="black" points="100.61,-134.43 98.17,-124.12 93.65,-133.7 100.61,-134.43"/>
</g>
<!-- gateway&#45;&gt;meraki -->
<g id="edge3" class="edge">
<title>gateway&#45;&gt;meraki</title>
<path fill="none" stroke="black" d="M79.44,-234.55C86.93,-231.09 94.91,-227.4 102.33,-224 123.62,-214.24 147.52,-203.37 166.5,-194.76"/>
<polygon fill="black" stroke="black" points="168,-197.92 175.67,-190.61 165.11,-191.55 168,-197.92"/>
</g>
<!-- linker -->
<g id="node8" class="node">
<title>linker</title>
<text text-anchor="middle" x="44.33" y="-174.3" font-family="Times,serif" font-size="14.00">linker</text>
</g>
<!-- gateway&#45;&gt;linker -->
<g id="edge11" class="edge">
<title>gateway&#45;&gt;linker</title>
<path fill="none" stroke="black" d="M47.34,-231.7C46.9,-223.98 46.37,-214.71 45.88,-206.11"/>
<polygon fill="black" stroke="black" points="49.37,-205.89 45.31,-196.1 42.38,-206.29 49.37,-205.89"/>
</g>
<!-- groovy.json -->
<g id="node9" class="node">
<title>groovy.json</title>
<ellipse fill="none" stroke="black" cx="87.33" cy="-34" rx="51.99" ry="18"/>
<text text-anchor="middle" x="87.33" y="-30.3" font-family="Times,serif" font-size="14.00">groovy.json</text>
</g>
<!-- json&#45;&gt;groovy.json -->
<g id="edge12" class="edge">
<title>json&#45;&gt;groovy.json</title>
<path fill="none" stroke="black" d="M96.42,-88.05C95.1,-80.35 93.51,-71.03 92.02,-62.36"/>
<polygon fill="black" stroke="black" points="95.43,-61.54 90.29,-52.28 88.53,-62.72 95.43,-61.54"/>
</g>
<!-- meraki&#45;&gt;json -->
<g id="edge17" class="edge">
<title>meraki&#45;&gt;json</title>
<path fill="none" stroke="black" d="M180.69,-162.83C164.92,-152.02 143.08,-137.02 125.99,-125.3"/>
<polygon fill="black" stroke="black" points="127.77,-122.27 117.55,-119.5 123.81,-128.05 127.77,-122.27"/>
</g>
<!-- http -->
<g id="node12" class="node">
<title>http</title>
<ellipse fill="none" stroke="black" cx="201.33" cy="-106" rx="27" ry="18"/>
<text text-anchor="middle" x="201.33" y="-102.3" font-family="Times,serif" font-size="14.00">http</text>
</g>
<!-- meraki&#45;&gt;http -->
<g id="edge18" class="edge">
<title>meraki&#45;&gt;http</title>
<path fill="none" stroke="black" d="M201.33,-159.7C201.33,-151.98 201.33,-142.71 201.33,-134.11"/>
<polygon fill="black" stroke="black" points="204.83,-134.1 201.33,-124.1 197.83,-134.1 204.83,-134.1"/>
</g>
<!-- domain&#45;&gt;json -->
<g id="edge4" class="edge">
<title>domain&#45;&gt;json</title>
<path fill="none" stroke="black" d="M267.3,-241.98C228.79,-233.49 169.12,-218.54 151.33,-204 129.1,-185.84 115.06,-155.59 107.24,-133.7"/>
<polygon fill="black" stroke="black" points="110.49,-132.37 103.99,-124.01 103.85,-134.6 110.49,-132.37"/>
</g>
<!-- domain&#45;&gt;meraki -->
<g id="edge5" class="edge">
<title>domain&#45;&gt;meraki</title>
<path fill="none" stroke="black" d="M280.61,-234.5C265.94,-224.22 246.07,-210.32 229.89,-198.99"/>
<polygon fill="black" stroke="black" points="231.54,-195.88 221.34,-193.01 227.53,-201.61 231.54,-195.88"/>
</g>
<!-- java.time -->
<g id="node10" class="node">
<title>java.time</title>
<ellipse fill="none" stroke="black" cx="307.33" cy="-178" rx="44.39" ry="18"/>
<text text-anchor="middle" x="307.33" y="-174.3" font-family="Times,serif" font-size="14.00">java.time</text>
</g>
<!-- domain&#45;&gt;java.time -->
<g id="edge13" class="edge">
<title>domain&#45;&gt;java.time</title>
<path fill="none" stroke="black" d="M302.81,-231.7C303.47,-223.98 304.27,-214.71 305.01,-206.11"/>
<polygon fill="black" stroke="black" points="308.5,-206.37 305.86,-196.1 301.52,-205.77 308.5,-206.37"/>
</g>
<!-- groovy.transform -->
<g id="node11" class="node">
<title>groovy.transform</title>
<ellipse fill="none" stroke="black" cx="441.33" cy="-178" rx="72.29" ry="18"/>
<text text-anchor="middle" x="441.33" y="-174.3" font-family="Times,serif" font-size="14.00">groovy.transform</text>
</g>
<!-- domain&#45;&gt;groovy.transform -->
<g id="edge14" class="edge">
<title>domain&#45;&gt;groovy.transform</title>
<path fill="none" stroke="black" d="M326.36,-236.49C347.28,-226.02 377.5,-210.92 401.7,-198.81"/>
<polygon fill="black" stroke="black" points="403.28,-201.94 410.65,-194.34 400.14,-195.68 403.28,-201.94"/>
</g>
<!-- exec&#45;&gt;meraki -->
<g id="edge8" class="edge">
<title>exec&#45;&gt;meraki</title>
<path fill="none" stroke="black" d="M158.26,-233.81C165.27,-224.89 174.3,-213.41 182.27,-203.26"/>
<polygon fill="black" stroke="black" points="185.23,-205.16 188.65,-195.13 179.72,-200.83 185.23,-205.16"/>
</g>
<!-- linker&#45;&gt;routes -->
<g id="edge10" class="edge">
<title>linker&#45;&gt;routes</title>
<path fill="none" stroke="black" d="M26.11,-196.08C19.13,-203.85 11.97,-213.62 8.33,-224 0.68,-245.81 -5.25,-257.3 8.33,-276 29.97,-305.81 71.89,-316.25 103.88,-319.72"/>
<polygon fill="black" stroke="black" points="103.6,-323.21 113.87,-320.62 104.23,-316.24 103.6,-323.21"/>
</g>
<!-- linker&#45;&gt;json -->
<g id="edge9" class="edge">
<title>linker&#45;&gt;json</title>
<path fill="none" stroke="black" d="M57.92,-159.7C64.91,-150.8 73.53,-139.84 81.08,-130.22"/>
<polygon fill="black" stroke="black" points="83.96,-132.23 87.38,-122.2 78.45,-127.9 83.96,-132.23"/>
</g>
<!-- java.net -->
<g id="node13" class="node">
<title>java.net</title>
<ellipse fill="none" stroke="black" cx="201.33" cy="-34" rx="38.19" ry="18"/>
<text text-anchor="middle" x="201.33" y="-30.3" font-family="Times,serif" font-size="14.00">java.net</text>
</g>
<!-- http&#45;&gt;java.net -->
<g id="edge19" class="edge">
<title>http&#45;&gt;java.net</title>
<path fill="none" stroke="black" d="M201.33,-87.7C201.33,-79.98 201.33,-70.71 201.33,-62.11"/>
<polygon fill="black" stroke="black" points="204.83,-62.1 201.33,-52.1 197.83,-62.1 204.83,-62.1"/>
</g>
<!-- package -->
<g id="node14" class="node">
<title>package</title>
<ellipse fill="none" stroke="black" cx="391.33" cy="-394" rx="39.79" ry="18"/>
<text text-anchor="middle" x="391.33" y="-390.3" font-family="Times,serif" font-size="14.00">package</text>
</g>
<!-- class -->
<g id="node15" class="node">
<title>class</title>
<text text-anchor="middle" x="306.33" y="-390.3" font-family="Times,serif" font-size="14.00">class</text>
</g>
</g>
</svg>
