<?xml version="1.0" encoding="UTF-8" standalone="no"?>
<!DOCTYPE svg PUBLIC "-//W3C//DTD SVG 1.1//EN"
 "http://www.w3.org/Graphics/SVG/1.1/DTD/svg11.dtd">
<!-- Generated by graphviz version 2.44.1 (20200629.0846)
 -->
<!-- Title: G Pages: 1 -->
<svg width="580pt" height="530pt"
 viewBox="0.00 0.00 579.70 529.77" xmlns="http://www.w3.org/2000/svg" xmlns:xlink="http://www.w3.org/1999/xlink">
<g id="graph0" class="graph" transform="scale(1 1) rotate(0) translate(4 525.77)">
<title>G</title>
<polygon fill="white" stroke="transparent" points="-4,4 -4,-525.77 575.7,-525.77 575.7,4 -4,4"/>
<!-- source -->
<g id="node1" class="node">
<title>source</title>
<ellipse fill="none" stroke="black" cx="159.7" cy="-503.77" rx="110.48" ry="18"/>
<text text-anchor="middle" x="159.7" y="-500.07" font-family="Times,serif" font-size="14.00">Go’s regexp package source</text>
</g>
<!-- go -->
<g id="node2" class="node">
<title>go</title>
<g id="a_node2"><a xlink:href="https://github.com/golang/gddo/blob/721e228c7686d830b5decc691a4dc7e6a6e94888/gddo-server/graph.go#L34" xlink:title="graph.go&#10;(very small go program)">
<polygon fill="cyan" stroke="cyan" points="235.2,-449.77 84.2,-449.77 84.2,-411.77 235.2,-411.77 235.2,-449.77"/>
<text text-anchor="middle" x="159.7" y="-434.57" font-family="Times,serif" font-size="14.00">graph.go</text>
<text text-anchor="middle" x="159.7" y="-419.57" font-family="Times,serif" font-size="14.00">(very small go program)</text>
</a>
</g>
</g>
<!-- source&#45;&gt;go -->
<g id="edge1" class="edge">
<title>source&#45;&gt;go</title>
<path fill="none" stroke="black" d="M159.7,-485.58C159.7,-477.88 159.7,-468.59 159.7,-459.92"/>
<polygon fill="black" stroke="black" points="163.2,-459.79 159.7,-449.79 156.2,-459.79 163.2,-459.79"/>
</g>
<!-- graphviz -->
<g id="node3" class="node">
<title>graphviz</title>
<ellipse fill="none" stroke="black" cx="159.7" cy="-357.77" rx="41.69" ry="18"/>
<text text-anchor="middle" x="159.7" y="-354.07" font-family="Times,serif" font-size="14.00">graphviz</text>
</g>
<!-- go&#45;&gt;graphviz -->
<g id="edge2" class="edge">
<title>go&#45;&gt;graphviz</title>
<path fill="none" stroke="black" d="M159.7,-411.48C159.7,-403.74 159.7,-394.56 159.7,-386.04"/>
<polygon fill="black" stroke="black" points="163.2,-385.77 159.7,-375.77 156.2,-385.77 163.2,-385.77"/>
</g>
<!-- dependencies -->
<g id="node4" class="node">
<title>dependencies</title>
<g id="a_node4"><a xlink:href="https://graphviz.org/Gallery/directed/go-package.svg" xlink:title="Dependency Graph">
<polygon fill="yellow" stroke="yellow" points="319.6,-187.71 197.45,-187.71 159.7,-303.65 121.95,-187.71 -0.2,-187.71 98.62,-116.06 60.88,-0.12 159.7,-71.77 258.52,-0.12 220.78,-116.06 319.6,-187.71"/>
<text text-anchor="middle" x="159.7" y="-148.18" font-family="Times,serif" font-size="14.00">Dependency Graph</text>
</a>
</g>
</g>
<!-- graphviz&#45;&gt;dependencies -->
<g id="edge3" class="edge">
<title>graphviz&#45;&gt;dependencies</title>
<path fill="none" stroke="black" d="M159.7,-339.74C159.7,-332.77 159.7,-324.02 159.7,-314.12"/>
<polygon fill="black" stroke="black" points="163.2,-313.86 159.7,-303.86 156.2,-313.86 163.2,-313.86"/>
</g>
<!-- Transitive import graph of Go’s regexp package. -->
<g id="node5" class="node">
<title>Transitive import graph of Go’s regexp package.</title>
<g id="a_node5"><a xlink:href="https://graphviz.org/Gallery/directed/go-package.html" xlink:title="Transitive import graph of Go’s regexp package.">
<text text-anchor="middle" x="429.7" y="-500.07" font-family="Times,serif" font-size="14.00">Transitive import graph of Go’s regexp package.</text>
</a>
</g>
</g>
</g>
</svg>
