<?xml version="1.0" encoding="UTF-8" standalone="no"?>
<!DOCTYPE svg PUBLIC "-//W3C//DTD SVG 1.1//EN"
 "http://www.w3.org/Graphics/SVG/1.1/DTD/svg11.dtd">
<!-- Generated by graphviz version 2.44.1 (20200629.0846)
 -->
<!-- Title: G Pages: 1 -->
<svg width="590pt" height="266pt"
 viewBox="0.00 0.00 590.50 266.00" xmlns="http://www.w3.org/2000/svg" xmlns:xlink="http://www.w3.org/1999/xlink">
<g id="graph0" class="graph" transform="scale(1 1) rotate(0) translate(4 262)">
<title>G</title>
<polygon fill="white" stroke="transparent" points="-4,4 -4,-262 586.5,-262 586.5,4 -4,4"/>
<!-- vertex -->
<g id="node1" class="node">
<title>vertex</title>
<ellipse fill="none" stroke="black" cx="32.5" cy="-209" rx="32.49" ry="18"/>
<text text-anchor="middle" x="32.5" y="-205.3" font-family="Times,serif" font-size="14.00">vertex</text>
</g>
<!-- node -->
<g id="node2" class="node">
<title>node</title>
<ellipse fill="none" stroke="black" cx="28.5" cy="-18" rx="27.9" ry="18"/>
<text text-anchor="middle" x="28.5" y="-14.3" font-family="Times,serif" font-size="14.00">node</text>
</g>
<!-- vertex&#45;&#45;node -->
<g id="edge1" class="edge">
<title>vertex&#45;&#45;node</title>
<path fill="none" stroke="black" d="M30.92,-190.85C29.18,-171.12 26.51,-137.76 25.5,-109 24.93,-93.01 25.05,-88.99 25.5,-73 25.84,-60.61 26.63,-46.64 27.31,-36.01"/>
<text text-anchor="middle" x="38.5" y="-87.3" font-family="Times,serif" font-size="14.00">edge</text>
</g>
<!-- point -->
<g id="node3" class="node">
<title>point</title>
<ellipse fill="none" stroke="black" cx="89.5" cy="-91" rx="28.7" ry="18"/>
<text text-anchor="middle" x="89.5" y="-87.3" font-family="Times,serif" font-size="14.00">point</text>
</g>
<!-- vertex&#45;&#45;point -->
<g id="edge2" class="edge">
<title>vertex&#45;&#45;point</title>
<path fill="none" stroke="black" d="M40.66,-191.38C51.5,-169.33 70.52,-130.63 81.35,-108.59"/>
<text text-anchor="middle" x="81" y="-130.8" font-family="Times,serif" font-size="14.00">line</text>
</g>
<!-- point&#45;&#45;node -->
<g id="edge3" class="edge">
<title>point&#45;&#45;node</title>
<path fill="none" stroke="black" d="M76.56,-74.94C66.21,-62.89 51.76,-46.08 41.41,-34.04"/>
</g>
<!-- 
 &#160;Graph: a collection of vertexes (also called nodes or points)
 &#160;&#160;connected by lines or edges.
 &#160; -->
<g id="node4" class="node">
<title>
 &#160;Graph: a collection of vertexes (also called nodes or points)
 &#160;&#160;connected by lines or edges.
 &#160;</title>
<text text-anchor="middle" x="332.5" y="-214" font-family="Times,serif" font-size="20.00"> &#160;Graph: a collection of vertexes (also called nodes or points)</text>
<text text-anchor="middle" x="332.5" y="-192" font-family="Times,serif" font-size="20.00"> &#160;&#160;connected by lines or edges.</text>
<text text-anchor="middle" x="332.5" y="-170" font-family="Times,serif" font-size="20.00"> &#160;</text>
</g>
</g>
</svg>
