<?xml version="1.0" encoding="UTF-8" standalone="no"?>
<!DOCTYPE svg PUBLIC "-//W3C//DTD SVG 1.1//EN"
 "http://www.w3.org/Graphics/SVG/1.1/DTD/svg11.dtd">
<!-- Generated by graphviz version 2.44.1 (20200629.0846)
 -->
<!-- Title: G Pages: 1 -->
<svg width="368pt" height="490pt"
 viewBox="0.00 0.00 367.93 490.05" xmlns="http://www.w3.org/2000/svg" xmlns:xlink="http://www.w3.org/1999/xlink">
<g id="graph0" class="graph" transform="scale(1 1) rotate(0) translate(4 486.05)">
<title>G</title>
<polygon fill="white" stroke="transparent" points="-4,4 -4,-486.05 363.93,-486.05 363.93,4 -4,4"/>
<!-- Source -->
<g id="node1" class="node">
<title>Source</title>
<polygon fill="none" stroke="black" points="216.14,-410.05 213.14,-414.05 192.14,-414.05 189.14,-410.05 116.14,-410.05 116.14,-369.05 216.14,-369.05 216.14,-410.05"/>
<text text-anchor="middle" x="166.14" y="-382.05" font-family="Times,serif" font-size="30.00">Source</text>
</g>
<!-- Graphviz -->
<g id="node2" class="node">
<title>Graphviz</title>
<polygon fill="none" stroke="transparent" points="267.64,-333.05 64.64,-333.05 64.64,-270.05 267.64,-270.05 267.64,-333.05"/>
<polyline fill="none" stroke="green" points="64.64,-270.05 267.64,-270.05 "/>
<text text-anchor="middle" x="166.14" y="-289.05" font-family="Times,serif" font-size="50.00" fill="green">Graphviz</text>
</g>
<!-- Source&#45;&gt;Graphviz -->
<g id="edge1" class="edge">
<title>Source&#45;&gt;Graphviz</title>
<path fill="none" stroke="blue" d="M166.14,-369.04C166.14,-367.21 166.14,-365.31 166.14,-363.34"/>
<polygon fill="blue" stroke="blue" points="166.14,-333.12 179.64,-363.12 166.14,-348.12 166.14,-363.12 166.14,-363.12 166.14,-363.12 166.14,-348.12 152.64,-363.12 166.14,-333.12 166.14,-333.12"/>
</g>
<!-- Diagrams -->
<g id="node3" class="node">
<title>Diagrams</title>
<polygon fill="yellow" stroke="yellow" points="289.24,-144.66 195.2,-144.66 166.14,-234.08 137.08,-144.66 43.05,-144.66 119.13,-89.39 90.07,0.03 166.14,-55.24 242.22,0.03 213.16,-89.39 289.24,-144.66"/>
<text text-anchor="middle" x="166.14" y="-112.03" font-family="Times,serif" font-size="20.00">Diagrams</text>
</g>
<!-- Graphviz&#45;&gt;Diagrams -->
<g id="edge2" class="edge">
<title>Graphviz&#45;&gt;Diagrams</title>
<path fill="none" stroke="blue" d="M166.14,-270C166.14,-268.22 166.14,-266.39 166.14,-264.5"/>
<polygon fill="blue" stroke="blue" points="166.14,-234.39 179.64,-264.39 166.14,-249.39 166.14,-264.39 166.14,-264.39 166.14,-264.39 166.14,-249.39 152.64,-264.39 166.14,-234.39 166.14,-234.39"/>
</g>
<!-- Human Readable -->
<g id="node4" class="node">
<title>Human Readable</title>
<ellipse fill="none" stroke="black" cx="72.14" cy="-464.05" rx="72.29" ry="18"/>
<text text-anchor="middle" x="72.14" y="-460.35" font-family="Times,serif" font-size="14.00">Human Readable</text>
</g>
<!-- Human Readable&#45;&gt;Source -->
<g id="edge3" class="edge">
<title>Human Readable&#45;&gt;Source</title>
<path fill="none" stroke="black" d="M93.47,-446.6C104.94,-437.76 119.34,-426.65 132.3,-416.66"/>
<polygon fill="black" stroke="black" points="134.77,-419.17 140.55,-410.29 130.5,-413.62 134.77,-419.17"/>
</g>
<!-- Version Control Friendly -->
<g id="node5" class="node">
<title>Version Control Friendly</title>
<ellipse fill="none" stroke="black" cx="261.14" cy="-464.05" rx="98.58" ry="18"/>
<text text-anchor="middle" x="261.14" y="-460.35" font-family="Times,serif" font-size="14.00">Version Control Friendly</text>
</g>
<!-- Version Control Friendly&#45;&gt;Source -->
<g id="edge4" class="edge">
<title>Version Control Friendly&#45;&gt;Source</title>
<path fill="none" stroke="black" d="M239.11,-446.24C227.51,-437.38 213.03,-426.33 200.04,-416.42"/>
<polygon fill="black" stroke="black" points="201.83,-413.38 191.76,-410.1 197.58,-418.95 201.83,-413.38"/>
</g>
</g>
</svg>
