<?xml version="1.0" encoding="UTF-8" standalone="no"?>
<!DOCTYPE svg PUBLIC "-//W3C//DTD SVG 1.1//EN"
 "http://www.w3.org/Graphics/SVG/1.1/DTD/svg11.dtd">
<!-- Generated by graphviz version 2.44.1 (20200629.0846)
 -->
<!-- Title: G Pages: 1 -->
<svg width="601pt" height="350pt"
 viewBox="0.00 0.00 600.98 350.00" xmlns="http://www.w3.org/2000/svg" xmlns:xlink="http://www.w3.org/1999/xlink">
<g id="graph0" class="graph" transform="scale(1 1) rotate(0) translate(4 346)">
<title>G</title>
<polygon fill="white" stroke="transparent" points="-4,4 -4,-346 596.98,-346 596.98,4 -4,4"/>
<!-- r -->
<g id="node1" class="node">
<title>r</title>
<polygon fill="none" stroke="black" points="233.5,-342 38.5,-342 38.5,-288 233.5,-288 233.5,-342"/>
<text text-anchor="middle" x="136" y="-310.8" font-family="Times,serif" font-size="14.00">&#45;r</text>
<text text-anchor="middle" x="136" y="-295.8" font-family="Times,serif" font-size="14.00">Recursively search the directory.</text>
</g>
<!-- grep -->
<g id="node6" class="node">
<title>grep</title>
<ellipse fill="none" stroke="black" cx="335" cy="-171" rx="27" ry="18"/>
<text text-anchor="middle" x="335" y="-167.3" font-family="Times,serif" font-size="14.00">grep</text>
</g>
<!-- r&#45;&gt;grep -->
<g id="edge1" class="edge">
<title>r&#45;&gt;grep</title>
<path fill="none" stroke="black" d="M233.63,-299.35C247.36,-294.33 260.65,-287.72 272,-279 298.67,-258.51 315.82,-223.04 325.17,-198.36"/>
<polygon fill="black" stroke="black" points="328.51,-199.44 328.6,-188.85 321.92,-197.07 328.51,-199.44"/>
</g>
<!-- i -->
<g id="node2" class="node">
<title>i</title>
<polygon fill="none" stroke="black" points="209,-270 63,-270 63,-216 209,-216 209,-270"/>
<text text-anchor="middle" x="136" y="-238.8" font-family="Times,serif" font-size="14.00">&#45;i</text>
<text text-anchor="middle" x="136" y="-223.8" font-family="Times,serif" font-size="14.00">Ignore case differences.</text>
</g>
<!-- i&#45;&gt;grep -->
<g id="edge2" class="edge">
<title>i&#45;&gt;grep</title>
<path fill="none" stroke="black" d="M209.29,-227.5C229.92,-222.07 252.17,-215.23 272,-207 283.83,-202.09 296.16,-195.32 306.68,-188.97"/>
<polygon fill="black" stroke="black" points="308.75,-191.8 315.4,-183.55 305.06,-185.85 308.75,-191.8"/>
</g>
<!-- I -->
<g id="node3" class="node">
<title>I</title>
<polygon fill="none" stroke="black" points="196,-198 76,-198 76,-144 196,-144 196,-198"/>
<text text-anchor="middle" x="136" y="-166.8" font-family="Times,serif" font-size="14.00">&#45;I</text>
<text text-anchor="middle" x="136" y="-151.8" font-family="Times,serif" font-size="14.00">Ignore binary files.</text>
</g>
<!-- I&#45;&gt;grep -->
<g id="edge3" class="edge">
<title>I&#45;&gt;grep</title>
<path fill="none" stroke="black" d="M196.11,-171C229.07,-171 269.08,-171 297.49,-171"/>
<polygon fill="black" stroke="black" points="297.78,-174.5 307.78,-171 297.78,-167.5 297.78,-174.5"/>
</g>
<!-- v -->
<g id="node4" class="node">
<title>v</title>
<polygon fill="none" stroke="black" points="219,-126 53,-126 53,-72 219,-72 219,-126"/>
<text text-anchor="middle" x="136" y="-94.8" font-family="Times,serif" font-size="14.00">&#45;v</text>
<text text-anchor="middle" x="136" y="-79.8" font-family="Times,serif" font-size="14.00">Reverse : exclude matches.</text>
</g>
<!-- v&#45;&gt;grep -->
<g id="edge4" class="edge">
<title>v&#45;&gt;grep</title>
<path fill="none" stroke="black" d="M219.19,-117.18C236.9,-122.13 255.31,-128.07 272,-135 283.83,-139.91 296.16,-146.68 306.68,-153.03"/>
<polygon fill="black" stroke="black" points="305.06,-156.15 315.4,-158.45 308.75,-150.2 305.06,-156.15"/>
</g>
<!-- color -->
<g id="node5" class="node">
<title>color</title>
<polygon fill="none" stroke="black" points="272,-54 0,-54 0,0 272,0 272,-54"/>
<text text-anchor="middle" x="136" y="-22.8" font-family="Times,serif" font-size="14.00">&#45;&#45;color</text>
<text text-anchor="middle" x="136" y="-7.8" font-family="Times,serif" font-size="14.00">Highlight matches : useful for visual scanning.</text>
</g>
<!-- color&#45;&gt;grep -->
<g id="edge5" class="edge">
<title>color&#45;&gt;grep</title>
<path fill="none" stroke="black" d="M258.57,-54.1C263.27,-56.79 267.77,-59.75 272,-63 298.67,-83.49 315.82,-118.96 325.17,-143.64"/>
<polygon fill="black" stroke="black" points="321.92,-144.93 328.6,-153.15 328.51,-142.56 321.92,-144.93"/>
</g>
<!-- stuff you are looking for -->
<g id="node7" class="node">
<title>stuff you are looking for</title>
<ellipse fill="none" stroke="black" cx="495.49" cy="-171" rx="97.48" ry="18"/>
<text text-anchor="middle" x="495.49" y="-167.3" font-family="Times,serif" font-size="14.00">stuff you are looking for</text>
</g>
<!-- grep&#45;&gt;stuff you are looking for -->
<g id="edge6" class="edge">
<title>grep&#45;&gt;stuff you are looking for</title>
<path fill="none" stroke="black" d="M362.17,-171C369.66,-171 378.32,-171 387.56,-171"/>
<polygon fill="black" stroke="black" points="387.77,-174.5 397.77,-171 387.77,-167.5 387.77,-174.5"/>
</g>
</g>
</svg>
