<?xml version="1.0" encoding="UTF-8" standalone="no"?>
<!DOCTYPE svg PUBLIC "-//W3C//DTD SVG 1.1//EN"
 "http://www.w3.org/Graphics/SVG/1.1/DTD/svg11.dtd">
<!-- Generated by graphviz version 2.44.1 (20200629.0846)
 -->
<!-- Title: G Pages: 1 -->
<svg width="1070pt" height="239pt"
 viewBox="0.00 0.00 1069.50 239.00" xmlns="http://www.w3.org/2000/svg" xmlns:xlink="http://www.w3.org/1999/xlink">
<g id="graph0" class="graph" transform="scale(1 1) rotate(0) translate(4 235)">
<title>G</title>
<polygon fill="white" stroke="transparent" points="-4,4 -4,-235 1065.5,-235 1065.5,4 -4,4"/>
<!-- e -->
<g id="node1" class="node">
<title>e</title>
<polygon fill="none" stroke="black" points="938.5,-141 747.5,-141 747.5,-72 938.5,-72 938.5,-141"/>
<text text-anchor="middle" x="843" y="-109.8" font-family="Times,serif" font-size="14.00"> &#160;&#45;e</text>
<text text-anchor="middle" x="843" y="-94.8" font-family="Times,serif" font-size="14.00"> &#160;Specify a command line script</text>
<text text-anchor="middle" x="843" y="-79.8" font-family="Times,serif" font-size="14.00"> &#160;</text>
</g>
<!-- groovy -->
<g id="node4" class="node">
<title>groovy</title>
<ellipse fill="none" stroke="black" cx="530" cy="-18" rx="36" ry="18"/>
<text text-anchor="middle" x="530" y="-14.3" font-family="Times,serif" font-size="14.00">groovy</text>
</g>
<!-- e&#45;&gt;groovy -->
<g id="edge1" class="edge">
<title>e&#45;&gt;groovy</title>
<path fill="none" stroke="black" d="M747.3,-74.42C744.51,-73.6 741.73,-72.79 739,-72 681.34,-55.42 613.95,-38.82 571.62,-28.73"/>
<polygon fill="black" stroke="black" points="572.22,-25.28 561.68,-26.37 570.6,-32.09 572.22,-25.28"/>
</g>
<!-- n -->
<g id="node2" class="node">
<title>n</title>
<polygon fill="none" stroke="black" points="312,-141 0,-141 0,-72 312,-72 312,-141"/>
<text text-anchor="middle" x="156" y="-109.8" font-family="Times,serif" font-size="14.00"> &#160;&#45;n</text>
<text text-anchor="middle" x="156" y="-94.8" font-family="Times,serif" font-size="14.00"> &#160;Process files line by line using implicit &#39;line&#39; variable</text>
<text text-anchor="middle" x="156" y="-79.8" font-family="Times,serif" font-size="14.00"> &#160;</text>
</g>
<!-- n&#45;&gt;groovy -->
<g id="edge2" class="edge">
<title>n&#45;&gt;groovy</title>
<path fill="none" stroke="black" d="M300.87,-71.99C368.1,-56.45 442.99,-39.12 488.29,-28.65"/>
<polygon fill="black" stroke="black" points="489.09,-32.05 498.04,-26.39 487.51,-25.23 489.09,-32.05"/>
</g>
<!-- a -->
<g id="node3" class="node">
<title>a</title>
<polygon fill="none" stroke="black" points="729.5,-141 330.5,-141 330.5,-72 729.5,-72 729.5,-141"/>
<text text-anchor="middle" x="530" y="-109.8" font-family="Times,serif" font-size="14.00"> &#160;&#45;a</text>
<text text-anchor="middle" x="530" y="-94.8" font-family="Times,serif" font-size="14.00"> &#160;Split lines using splitPattern (default &#39;s&#39;) using implicit &#39;split&#39; variable</text>
<text text-anchor="middle" x="530" y="-79.8" font-family="Times,serif" font-size="14.00"> &#160;</text>
</g>
<!-- a&#45;&gt;groovy -->
<g id="edge3" class="edge">
<title>a&#45;&gt;groovy</title>
<path fill="none" stroke="black" d="M530,-71.81C530,-63.37 530,-54.41 530,-46.32"/>
<polygon fill="black" stroke="black" points="533.5,-46.3 530,-36.3 526.5,-46.3 533.5,-46.3"/>
</g>
<!-- also -->
<g id="node5" class="node">
<title>also</title>
<text text-anchor="middle" x="843" y="-199.8" font-family="Times,serif" font-size="14.00"> &#160;Many langauges allow you to use &#45;e to specify a small program as a literal.</text>
<text text-anchor="middle" x="843" y="-184.8" font-family="Times,serif" font-size="14.00"> &#160;awk, scala, jrunscript, python, perl, no, ruby, &#160;...</text>
</g>
<!-- also&#45;&gt;e -->
<g id="edge4" class="edge">
<title>also&#45;&gt;e</title>
<path fill="none" stroke="black" d="M843,-176.9C843,-168.97 843,-160.01 843,-151.24"/>
<polygon fill="black" stroke="black" points="846.5,-151.1 843,-141.1 839.5,-151.1 846.5,-151.1"/>
</g>
</g>
</svg>
