<?xml version="1.0" encoding="UTF-8" standalone="no"?>
<!DOCTYPE svg PUBLIC "-//W3C//DTD SVG 1.1//EN"
 "http://www.w3.org/Graphics/SVG/1.1/DTD/svg11.dtd">
<!-- Generated by graphviz version 2.44.1 (20200629.0846)
 -->
<!-- Title: G Pages: 1 -->
<svg width="969pt" height="359pt"
 viewBox="0.00 0.00 968.50 358.74" xmlns="http://www.w3.org/2000/svg" xmlns:xlink="http://www.w3.org/1999/xlink">
<g id="graph0" class="graph" transform="scale(1 1) rotate(0) translate(4 354.74)">
<title>G</title>
<polygon fill="white" stroke="transparent" points="-4,4 -4,-354.74 964.5,-354.74 964.5,4 -4,4"/>
<!-- e -->
<g id="node1" class="node">
<title>e</title>
<polygon fill="none" stroke="black" points="938.5,-230.74 747.5,-230.74 747.5,-161.74 938.5,-161.74 938.5,-230.74"/>
<text text-anchor="middle" x="843" y="-199.54" font-family="Times,serif" font-size="14.00"> &#160;&#45;e</text>
<text text-anchor="middle" x="843" y="-184.54" font-family="Times,serif" font-size="14.00"> &#160;Specify a command line script</text>
<text text-anchor="middle" x="843" y="-169.54" font-family="Times,serif" font-size="14.00"> &#160;</text>
</g>
<!-- groovy -->
<g id="node4" class="node">
<title>groovy</title>
<ellipse fill="none" stroke="black" cx="530" cy="-107.74" rx="36" ry="18"/>
<text text-anchor="middle" x="530" y="-104.04" font-family="Times,serif" font-size="14.00">groovy</text>
</g>
<!-- e&#45;&gt;groovy -->
<g id="edge1" class="edge">
<title>e&#45;&gt;groovy</title>
<path fill="none" stroke="black" d="M747.3,-164.16C744.51,-163.34 741.73,-162.53 739,-161.74 681.34,-145.16 613.95,-128.56 571.62,-118.47"/>
<polygon fill="black" stroke="black" points="572.22,-115.02 561.68,-116.11 570.6,-121.83 572.22,-115.02"/>
</g>
<!-- n -->
<g id="node2" class="node">
<title>n</title>
<polygon fill="none" stroke="black" points="312,-230.74 0,-230.74 0,-161.74 312,-161.74 312,-230.74"/>
<text text-anchor="middle" x="156" y="-199.54" font-family="Times,serif" font-size="14.00"> &#160;&#45;n</text>
<text text-anchor="middle" x="156" y="-184.54" font-family="Times,serif" font-size="14.00"> &#160;Process files line by line using implicit &#39;line&#39; variable</text>
<text text-anchor="middle" x="156" y="-169.54" font-family="Times,serif" font-size="14.00"> &#160;</text>
</g>
<!-- n&#45;&gt;groovy -->
<g id="edge2" class="edge">
<title>n&#45;&gt;groovy</title>
<path fill="none" stroke="black" d="M300.87,-161.74C368.1,-146.19 442.99,-128.86 488.29,-118.39"/>
<polygon fill="black" stroke="black" points="489.09,-121.79 498.04,-116.13 487.51,-114.97 489.09,-121.79"/>
</g>
<!-- a -->
<g id="node3" class="node">
<title>a</title>
<polygon fill="none" stroke="black" points="729.5,-230.74 330.5,-230.74 330.5,-161.74 729.5,-161.74 729.5,-230.74"/>
<text text-anchor="middle" x="530" y="-199.54" font-family="Times,serif" font-size="14.00"> &#160;&#45;a</text>
<text text-anchor="middle" x="530" y="-184.54" font-family="Times,serif" font-size="14.00"> &#160;Split lines using splitPattern (default &#39;s&#39;) using implicit &#39;split&#39; variable</text>
<text text-anchor="middle" x="530" y="-169.54" font-family="Times,serif" font-size="14.00"> &#160;</text>
</g>
<!-- a&#45;&gt;groovy -->
<g id="edge3" class="edge">
<title>a&#45;&gt;groovy</title>
<path fill="none" stroke="black" d="M530,-161.55C530,-153.11 530,-144.15 530,-136.06"/>
<polygon fill="black" stroke="black" points="533.5,-136.04 530,-126.04 526.5,-136.04 533.5,-136.04"/>
</g>
<!-- Stuff you are looking for &#45;&#45;
 &#160;&#160;&#160;&#160;maybe with changes. -->
<g id="node5" class="node">
<title>Stuff you are looking for &#45;&#45;
 &#160;&#160;&#160;&#160;maybe with changes.</title>
<ellipse fill="none" stroke="black" cx="530" cy="-26.87" rx="116.85" ry="26.74"/>
<text text-anchor="middle" x="530" y="-30.67" font-family="Times,serif" font-size="14.00">Stuff you are looking for &#45;&#45;</text>
<text text-anchor="middle" x="530" y="-15.67" font-family="Times,serif" font-size="14.00"> &#160;&#160;&#160;&#160;maybe with changes.</text>
</g>
<!-- groovy&#45;&gt;Stuff you are looking for &#45;&#45;
 &#160;&#160;&#160;&#160;maybe with changes. -->
<g id="edge4" class="edge">
<title>groovy&#45;&gt;Stuff you are looking for &#45;&#45;
 &#160;&#160;&#160;&#160;maybe with changes.</title>
<path fill="none" stroke="black" d="M530,-89.63C530,-82.14 530,-73.05 530,-64.17"/>
<polygon fill="black" stroke="black" points="533.5,-63.95 530,-53.95 526.5,-63.95 533.5,-63.95"/>
</g>
<!-- also -->
<g id="node6" class="node">
<title>also</title>
<text text-anchor="middle" x="843" y="-319.54" font-family="Times,serif" font-size="14.00"> &#160;Many langauges allow you to use &#45;e</text>
<text text-anchor="middle" x="843" y="-304.54" font-family="Times,serif" font-size="14.00"> &#160;to specify a small program as a literal.</text>
<text text-anchor="middle" x="843" y="-289.54" font-family="Times,serif" font-size="14.00"> &#160;awk, scala, jrunscript, python, perl,</text>
<text text-anchor="middle" x="843" y="-274.54" font-family="Times,serif" font-size="14.00"> &#160;node, ruby, &#160;...</text>
</g>
<!-- also&#45;&gt;e -->
<g id="edge5" class="edge">
<title>also&#45;&gt;e</title>
<path fill="none" stroke="black" d="M843,-266.59C843,-258.22 843,-249.38 843,-240.92"/>
<polygon fill="black" stroke="black" points="846.5,-240.84 843,-230.84 839.5,-240.84 846.5,-240.84"/>
</g>
</g>
</svg>
