<?xml version="1.0" encoding="UTF-8" standalone="no"?>
<!DOCTYPE svg PUBLIC "-//W3C//DTD SVG 1.1//EN"
 "http://www.w3.org/Graphics/SVG/1.1/DTD/svg11.dtd">
<!-- Generated by graphviz version 2.44.1 (20200629.0846)
 -->
<!-- Title: G Pages: 1 -->
<svg width="709pt" height="204pt"
 viewBox="0.00 0.00 709.00 204.00" xmlns="http://www.w3.org/2000/svg" xmlns:xlink="http://www.w3.org/1999/xlink">
<g id="graph0" class="graph" transform="scale(1 1) rotate(0) translate(4 200)">
<title>G</title>
<polygon fill="white" stroke="transparent" points="-4,4 -4,-200 705,-200 705,4 -4,4"/>
<g id="clust2" class="cluster">
<title>cluster_wifi</title>
<polygon fill="none" stroke="black" points="8,-8 8,-60 693,-60 693,-8 8,-8"/>
</g>
<!-- modem -->
<g id="node1" class="node">
<title>modem</title>
<ellipse fill="none" stroke="black" cx="44" cy="-178" rx="38.19" ry="18"/>
<text text-anchor="middle" x="44" y="-174.3" font-family="Times,serif" font-size="14.00">modem</text>
</g>
<!-- router -->
<g id="node2" class="node">
<title>router</title>
<ellipse fill="none" stroke="black" cx="44" cy="-106" rx="31.7" ry="18"/>
<text text-anchor="middle" x="44" y="-102.3" font-family="Times,serif" font-size="14.00">router</text>
</g>
<!-- modem&#45;&gt;router -->
<g id="edge1" class="edge">
<title>modem&#45;&gt;router</title>
<path fill="none" stroke="black" d="M44,-159.7C44,-151.98 44,-142.71 44,-134.11"/>
<polygon fill="black" stroke="black" points="47.5,-134.1 44,-124.1 40.5,-134.1 47.5,-134.1"/>
</g>
<!-- wired_router -->
<g id="node3" class="node">
<title>wired_router</title>
<ellipse fill="none" stroke="black" cx="156" cy="-178" rx="55.79" ry="18"/>
<text text-anchor="middle" x="156" y="-174.3" font-family="Times,serif" font-size="14.00">wired_router</text>
</g>
<!-- switch1 -->
<g id="node4" class="node">
<title>switch1</title>
<ellipse fill="none" stroke="black" cx="156" cy="-106" rx="38.19" ry="18"/>
<text text-anchor="middle" x="156" y="-102.3" font-family="Times,serif" font-size="14.00">switch1</text>
</g>
<!-- wired_router&#45;&gt;switch1 -->
<g id="edge2" class="edge">
<title>wired_router&#45;&gt;switch1</title>
<path fill="none" stroke="black" d="M156,-159.7C156,-151.98 156,-142.71 156,-134.11"/>
<polygon fill="black" stroke="black" points="159.5,-134.1 156,-124.1 152.5,-134.1 159.5,-134.1"/>
</g>
<!-- wifi_router -->
<g id="node5" class="node">
<title>wifi_router</title>
<ellipse fill="none" stroke="black" cx="429" cy="-178" rx="50.09" ry="18"/>
<text text-anchor="middle" x="429" y="-174.3" font-family="Times,serif" font-size="14.00">wifi_router</text>
</g>
<!-- homeplug -->
<g id="node6" class="node">
<title>homeplug</title>
<ellipse fill="none" stroke="black" cx="258" cy="-106" rx="46.29" ry="18"/>
<text text-anchor="middle" x="258" y="-102.3" font-family="Times,serif" font-size="14.00">homeplug</text>
</g>
<!-- wifi_router&#45;&gt;homeplug -->
<g id="edge3" class="edge">
<title>wifi_router&#45;&gt;homeplug</title>
<path fill="none" stroke="black" d="M397.24,-164C369.26,-152.55 328.38,-135.81 298.14,-123.43"/>
<polygon fill="black" stroke="black" points="299.31,-120.13 288.73,-119.58 296.66,-126.61 299.31,-120.13"/>
</g>
<!-- livingroom_airport -->
<g id="node7" class="node">
<title>livingroom_airport</title>
<ellipse fill="none" stroke="black" cx="429" cy="-34" rx="77.99" ry="18"/>
<text text-anchor="middle" x="429" y="-30.3" font-family="Times,serif" font-size="14.00">livingroom_airport</text>
</g>
<!-- wifi_router&#45;&gt;livingroom_airport -->
<g id="edge4" class="edge">
<title>wifi_router&#45;&gt;livingroom_airport</title>
<path fill="none" stroke="black" d="M429,-159.87C429,-135.67 429,-91.21 429,-62.39"/>
<polygon fill="black" stroke="black" points="432.5,-62.19 429,-52.19 425.5,-62.19 432.5,-62.19"/>
</g>
<!-- diningroom_airport -->
<g id="node8" class="node">
<title>diningroom_airport</title>
<ellipse fill="none" stroke="black" cx="605" cy="-34" rx="79.89" ry="18"/>
<text text-anchor="middle" x="605" y="-30.3" font-family="Times,serif" font-size="14.00">diningroom_airport</text>
</g>
<!-- wifi_router&#45;&gt;diningroom_airport -->
<g id="edge5" class="edge">
<title>wifi_router&#45;&gt;diningroom_airport</title>
<path fill="none" stroke="black" d="M448.51,-161.26C479.58,-136.19 540.46,-87.07 576.45,-58.04"/>
<polygon fill="black" stroke="black" points="579.01,-60.47 584.59,-51.47 574.61,-55.02 579.01,-60.47"/>
</g>
<!-- upstairs_airport_1 -->
<g id="node9" class="node">
<title>upstairs_airport_1</title>
<ellipse fill="none" stroke="black" cx="258" cy="-34" rx="74.99" ry="18"/>
<text text-anchor="middle" x="258" y="-30.3" font-family="Times,serif" font-size="14.00">upstairs_airport_1</text>
</g>
<!-- homeplug&#45;&gt;upstairs_airport_1 -->
<g id="edge6" class="edge">
<title>homeplug&#45;&gt;upstairs_airport_1</title>
<path fill="none" stroke="black" d="M258,-87.7C258,-79.98 258,-70.71 258,-62.11"/>
<polygon fill="black" stroke="black" points="261.5,-62.1 258,-52.1 254.5,-62.1 261.5,-62.1"/>
</g>
<!-- upstairs_airport_2 -->
<g id="node10" class="node">
<title>upstairs_airport_2</title>
<ellipse fill="none" stroke="black" cx="91" cy="-34" rx="74.99" ry="18"/>
<text text-anchor="middle" x="91" y="-30.3" font-family="Times,serif" font-size="14.00">upstairs_airport_2</text>
</g>
<!-- homeplug&#45;&gt;upstairs_airport_2 -->
<g id="edge7" class="edge">
<title>homeplug&#45;&gt;upstairs_airport_2</title>
<path fill="none" stroke="black" d="M227.76,-92.32C202.17,-81.6 165.13,-66.07 136.05,-53.88"/>
<polygon fill="black" stroke="black" points="137.1,-50.53 126.52,-49.89 134.39,-56.98 137.1,-50.53"/>
</g>
</g>
</svg>
