<?xml version="1.0" encoding="UTF-8" standalone="no"?>
<!DOCTYPE svg PUBLIC "-//W3C//DTD SVG 1.1//EN"
 "http://www.w3.org/Graphics/SVG/1.1/DTD/svg11.dtd">
<!-- Generated by graphviz version 2.44.1 (20200629.0846)
 -->
<!-- Title: G Pages: 1 -->
<svg width="2856pt" height="564pt"
 viewBox="0.00 0.00 2856.00 564.00" xmlns="http://www.w3.org/2000/svg" xmlns:xlink="http://www.w3.org/1999/xlink">
<g id="graph0" class="graph" transform="scale(1 1) rotate(0) translate(4 560)">
<title>G</title>
<polygon fill="white" stroke="transparent" points="-4,4 -4,-560 2852,-560 2852,4 -4,4"/>
<g id="clust3" class="cluster">
<title>cluster_wired</title>
<polygon fill="none" stroke="black" points="8,-152 8,-420 1229,-420 1229,-152 8,-152"/>
</g>
<g id="clust9" class="cluster">
<title>cluster_wifi</title>
<polygon fill="none" stroke="black" points="1237,-8 1237,-420 2840,-420 2840,-8 1237,-8"/>
</g>
<!-- Wired Network Diagram -->
<g id="node1" class="node">
<title>Wired Network Diagram</title>
<text text-anchor="middle" x="1115" y="-533" font-family="Times,serif" font-size="20.00">Wired Network Diagram</text>
</g>
<!-- modem -->
<g id="node2" class="node">
<title>modem</title>
<ellipse fill="none" stroke="black" cx="1279" cy="-538" rx="38.19" ry="18"/>
<text text-anchor="middle" x="1279" y="-534.3" font-family="Times,serif" font-size="14.00">modem</text>
</g>
<!-- diagnostic cable -->
<g id="node3" class="node">
<title>diagnostic cable</title>
<ellipse fill="none" stroke="black" cx="1211" cy="-466" rx="67.69" ry="18"/>
<text text-anchor="middle" x="1211" y="-462.3" font-family="Times,serif" font-size="14.00">diagnostic cable</text>
</g>
<!-- modem&#45;&gt;diagnostic cable -->
<g id="edge1" class="edge">
<title>modem&#45;&gt;diagnostic cable</title>
<path fill="none" stroke="black" d="M1263.57,-521.12C1254.95,-512.24 1244.04,-501.01 1234.39,-491.08"/>
<polygon fill="black" stroke="black" points="1236.8,-488.53 1227.32,-483.8 1231.77,-493.41 1236.8,-488.53"/>
</g>
<!-- edge router -->
<g id="node4" class="node">
<title>edge router</title>
<ellipse fill="none" stroke="black" cx="1347" cy="-466" rx="50.89" ry="18"/>
<text text-anchor="middle" x="1347" y="-462.3" font-family="Times,serif" font-size="14.00">edge router</text>
</g>
<!-- modem&#45;&gt;edge router -->
<g id="edge2" class="edge">
<title>modem&#45;&gt;edge router</title>
<path fill="none" stroke="black" d="M1294.43,-521.12C1303.17,-512.12 1314.28,-500.68 1324.03,-490.65"/>
<polygon fill="black" stroke="black" points="1326.7,-492.92 1331.16,-483.31 1321.68,-488.04 1326.7,-492.92"/>
</g>
<!-- wired router -->
<g id="node5" class="node">
<title>wired router</title>
<ellipse fill="none" stroke="black" cx="954" cy="-394" rx="53.89" ry="18"/>
<text text-anchor="middle" x="954" y="-390.3" font-family="Times,serif" font-size="14.00">wired router</text>
</g>
<!-- edge router&#45;&gt;wired router -->
<g id="edge3" class="edge">
<title>edge router&#45;&gt;wired router</title>
<path fill="none" stroke="black" d="M1310.04,-453.6C1302.78,-451.57 1295.18,-449.6 1288,-448 1193.01,-426.86 1081.02,-410.88 1013.86,-402.24"/>
<polygon fill="black" stroke="black" points="1014.24,-398.76 1003.88,-400.96 1013.35,-405.7 1014.24,-398.76"/>
</g>
<!-- wifi router -->
<g id="node6" class="node">
<title>wifi router</title>
<ellipse fill="none" stroke="black" cx="1741" cy="-394" rx="48.19" ry="18"/>
<text text-anchor="middle" x="1741" y="-390.3" font-family="Times,serif" font-size="14.00">wifi router</text>
</g>
<!-- edge router&#45;&gt;wifi router -->
<g id="edge4" class="edge">
<title>edge router&#45;&gt;wifi router</title>
<path fill="none" stroke="black" d="M1391.43,-457.11C1464.62,-444.1 1610.2,-418.24 1688.41,-404.34"/>
<polygon fill="black" stroke="black" points="1689.29,-407.74 1698.53,-402.55 1688.07,-400.85 1689.29,-407.74"/>
</g>
<!-- wired switch 1 -->
<g id="node7" class="node">
<title>wired switch 1</title>
<ellipse fill="none" stroke="black" cx="418" cy="-322" rx="63.09" ry="18"/>
<text text-anchor="middle" x="418" y="-318.3" font-family="Times,serif" font-size="14.00">wired switch 1</text>
</g>
<!-- wired router&#45;&gt;wired switch 1 -->
<g id="edge5" class="edge">
<title>wired router&#45;&gt;wired switch 1</title>
<path fill="none" stroke="red" d="M904.54,-386.54C807.75,-373.9 593.31,-345.89 484.34,-331.66"/>
<polygon fill="red" stroke="red" points="484.5,-328.15 474.13,-330.33 483.59,-335.1 484.5,-328.15"/>
</g>
<!-- wired switch 2 -->
<g id="node8" class="node">
<title>wired switch 2</title>
<ellipse fill="none" stroke="black" cx="954" cy="-322" rx="63.09" ry="18"/>
<text text-anchor="middle" x="954" y="-318.3" font-family="Times,serif" font-size="14.00">wired switch 2</text>
</g>
<!-- wired router&#45;&gt;wired switch 2 -->
<g id="edge6" class="edge">
<title>wired router&#45;&gt;wired switch 2</title>
<path fill="none" stroke="green" d="M954,-375.7C954,-367.98 954,-358.71 954,-350.11"/>
<polygon fill="green" stroke="green" points="957.5,-350.1 954,-340.1 950.5,-350.1 957.5,-350.1"/>
</g>
<!-- wifi fing box -->
<g id="node27" class="node">
<title>wifi fing box</title>
<ellipse fill="none" stroke="black" cx="1676" cy="-322" rx="55.79" ry="18"/>
<text text-anchor="middle" x="1676" y="-318.3" font-family="Times,serif" font-size="14.00">wifi fing box</text>
</g>
<!-- wifi router&#45;&gt;wifi fing box -->
<g id="edge25" class="edge">
<title>wifi router&#45;&gt;wifi fing box</title>
<path fill="none" stroke="black" d="M1725.92,-376.76C1717.76,-367.97 1707.5,-356.93 1698.42,-347.14"/>
<polygon fill="black" stroke="black" points="1700.81,-344.58 1691.45,-339.63 1695.69,-349.34 1700.81,-344.58"/>
</g>
<!-- wifi switch 1 -->
<g id="node28" class="node">
<title>wifi switch 1</title>
<ellipse fill="none" stroke="black" cx="1806" cy="-322" rx="56.59" ry="18"/>
<text text-anchor="middle" x="1806" y="-318.3" font-family="Times,serif" font-size="14.00">wifi switch 1</text>
</g>
<!-- wifi router&#45;&gt;wifi switch 1 -->
<g id="edge26" class="edge">
<title>wifi router&#45;&gt;wifi switch 1</title>
<path fill="none" stroke="black" d="M1756.08,-376.76C1764.24,-367.97 1774.5,-356.93 1783.58,-347.14"/>
<polygon fill="black" stroke="black" points="1786.31,-349.34 1790.55,-339.63 1781.19,-344.58 1786.31,-349.34"/>
</g>
<!-- wifi switch 2 -->
<g id="node29" class="node">
<title>wifi switch 2</title>
<ellipse fill="none" stroke="black" cx="2091" cy="-322" rx="56.59" ry="18"/>
<text text-anchor="middle" x="2091" y="-318.3" font-family="Times,serif" font-size="14.00">wifi switch 2</text>
</g>
<!-- wifi router&#45;&gt;wifi switch 2 -->
<g id="edge27" class="edge">
<title>wifi router&#45;&gt;wifi switch 2</title>
<path fill="none" stroke="black" d="M1782.52,-384.7C1845.17,-372.17 1964.01,-348.4 2034.5,-334.3"/>
<polygon fill="black" stroke="black" points="2035.41,-337.69 2044.53,-332.29 2034.04,-330.82 2035.41,-337.69"/>
</g>
<!-- breaker box -->
<g id="node9" class="node">
<title>breaker box</title>
<ellipse fill="none" stroke="black" cx="69" cy="-250" rx="52.79" ry="18"/>
<text text-anchor="middle" x="69" y="-246.3" font-family="Times,serif" font-size="14.00">breaker box</text>
</g>
<!-- wired switch 1&#45;&gt;breaker box -->
<g id="edge7" class="edge">
<title>wired switch 1&#45;&gt;breaker box</title>
<path fill="none" stroke="black" d="M364.3,-312.48C306.42,-302.98 211.75,-286.49 131,-268 126.66,-267.01 122.17,-265.91 117.67,-264.77"/>
<polygon fill="black" stroke="black" points="118.46,-261.35 107.9,-262.21 116.69,-268.13 118.46,-261.35"/>
</g>
<!-- wired fing box -->
<g id="node10" class="node">
<title>wired fing box</title>
<ellipse fill="none" stroke="black" cx="202" cy="-250" rx="62.29" ry="18"/>
<text text-anchor="middle" x="202" y="-246.3" font-family="Times,serif" font-size="14.00">wired fing box</text>
</g>
<!-- wired switch 1&#45;&gt;wired fing box -->
<g id="edge8" class="edge">
<title>wired switch 1&#45;&gt;wired fing box</title>
<path fill="none" stroke="black" d="M377.88,-308C342.26,-296.46 290.09,-279.55 251.81,-267.14"/>
<polygon fill="black" stroke="black" points="252.5,-263.69 241.91,-263.93 250.34,-270.35 252.5,-263.69"/>
</g>
<!-- hallway canary -->
<g id="node11" class="node">
<title>hallway canary</title>
<ellipse fill="none" stroke="black" cx="347" cy="-250" rx="64.19" ry="18"/>
<text text-anchor="middle" x="347" y="-246.3" font-family="Times,serif" font-size="14.00">hallway canary</text>
</g>
<!-- wired switch 1&#45;&gt;hallway canary -->
<g id="edge9" class="edge">
<title>wired switch 1&#45;&gt;hallway canary</title>
<path fill="none" stroke="gray" d="M401.17,-304.41C392.15,-295.52 380.89,-284.41 370.97,-274.63"/>
<polygon fill="gray" stroke="gray" points="373.28,-272 363.71,-267.47 368.37,-276.98 373.28,-272"/>
</g>
<!-- printer switch -->
<g id="node12" class="node">
<title>printer switch</title>
<ellipse fill="none" stroke="black" cx="489" cy="-250" rx="59.59" ry="18"/>
<text text-anchor="middle" x="489" y="-246.3" font-family="Times,serif" font-size="14.00">printer switch</text>
</g>
<!-- wired switch 1&#45;&gt;printer switch -->
<g id="edge10" class="edge">
<title>wired switch 1&#45;&gt;printer switch</title>
<path fill="none" stroke="blue" d="M434.83,-304.41C443.85,-295.52 455.11,-284.41 465.03,-274.63"/>
<polygon fill="blue" stroke="blue" points="467.63,-276.98 472.29,-267.47 462.72,-272 467.63,-276.98"/>
</g>
<!-- linux switch -->
<g id="node13" class="node">
<title>linux switch</title>
<ellipse fill="none" stroke="black" cx="621" cy="-250" rx="53.89" ry="18"/>
<text text-anchor="middle" x="621" y="-246.3" font-family="Times,serif" font-size="14.00">linux switch</text>
</g>
<!-- wired switch 1&#45;&gt;linux switch -->
<g id="edge11" class="edge">
<title>wired switch 1&#45;&gt;linux switch</title>
<path fill="none" stroke="black" d="M456.66,-307.67C490.41,-296.03 539.45,-279.12 575.17,-266.8"/>
<polygon fill="black" stroke="black" points="576.56,-270.03 584.87,-263.46 574.27,-263.41 576.56,-270.03"/>
</g>
<!-- 2008 MacPro -->
<g id="node16" class="node">
<title>2008 MacPro</title>
<ellipse fill="none" stroke="black" cx="752" cy="-250" rx="59.29" ry="18"/>
<text text-anchor="middle" x="752" y="-246.3" font-family="Times,serif" font-size="14.00">2008 MacPro</text>
</g>
<!-- wired switch 2&#45;&gt;2008 MacPro -->
<g id="edge14" class="edge">
<title>wired switch 2&#45;&gt;2008 MacPro</title>
<path fill="none" stroke="black" d="M915.53,-307.67C882.47,-296.21 834.66,-279.65 799.27,-267.38"/>
<polygon fill="black" stroke="black" points="800.24,-264.01 789.64,-264.04 797.95,-270.63 800.24,-264.01"/>
</g>
<!-- 2012 MacPro -->
<g id="node17" class="node">
<title>2012 MacPro</title>
<ellipse fill="none" stroke="black" cx="888" cy="-250" rx="59.29" ry="18"/>
<text text-anchor="middle" x="888" y="-246.3" font-family="Times,serif" font-size="14.00">2012 MacPro</text>
</g>
<!-- wired switch 2&#45;&gt;2012 MacPro -->
<g id="edge15" class="edge">
<title>wired switch 2&#45;&gt;2012 MacPro</title>
<path fill="none" stroke="black" d="M938.36,-304.41C930.06,-295.61 919.71,-284.63 910.55,-274.92"/>
<polygon fill="black" stroke="black" points="912.94,-272.34 903.53,-267.47 907.84,-277.15 912.94,-272.34"/>
</g>
<!-- Sun Ultra 40 -->
<g id="node18" class="node">
<title>Sun Ultra 40</title>
<ellipse fill="none" stroke="black" cx="1021" cy="-250" rx="55.79" ry="18"/>
<text text-anchor="middle" x="1021" y="-246.3" font-family="Times,serif" font-size="14.00">Sun Ultra 40</text>
</g>
<!-- wired switch 2&#45;&gt;Sun Ultra 40 -->
<g id="edge16" class="edge">
<title>wired switch 2&#45;&gt;Sun Ultra 40</title>
<path fill="none" stroke="black" d="M969.88,-304.41C978.31,-295.61 988.81,-284.63 998.11,-274.92"/>
<polygon fill="black" stroke="black" points="1000.85,-277.11 1005.24,-267.47 995.79,-272.27 1000.85,-277.11"/>
</g>
<!-- wired switch 3 -->
<g id="node19" class="node">
<title>wired switch 3</title>
<ellipse fill="none" stroke="black" cx="1158" cy="-250" rx="63.09" ry="18"/>
<text text-anchor="middle" x="1158" y="-246.3" font-family="Times,serif" font-size="14.00">wired switch 3</text>
</g>
<!-- wired switch 2&#45;&gt;wired switch 3 -->
<g id="edge17" class="edge">
<title>wired switch 2&#45;&gt;wired switch 3</title>
<path fill="none" stroke="blue" d="M992.85,-307.67C1026.03,-296.28 1073.91,-279.85 1109.58,-267.62"/>
<polygon fill="blue" stroke="blue" points="1110.97,-270.84 1119.29,-264.28 1108.7,-264.22 1110.97,-270.84"/>
</g>
<!-- WWT laptop -->
<g id="node22" class="node">
<title>WWT laptop</title>
<ellipse fill="none" stroke="black" cx="74" cy="-178" rx="57.69" ry="18"/>
<text text-anchor="middle" x="74" y="-174.3" font-family="Times,serif" font-size="14.00">WWT laptop</text>
</g>
<!-- printer switch&#45;&gt;WWT laptop -->
<g id="edge20" class="edge">
<title>printer switch&#45;&gt;WWT laptop</title>
<path fill="none" stroke="black" d="M445.73,-237.55C437.24,-235.52 428.37,-233.57 420,-232 297.1,-209.01 263.82,-219.42 141,-196 136.04,-195.05 130.91,-193.96 125.79,-192.79"/>
<polygon fill="black" stroke="black" points="126.54,-189.38 116,-190.48 124.93,-196.19 126.54,-189.38"/>
</g>
<!-- Client Laptop -->
<g id="node23" class="node">
<title>Client Laptop</title>
<ellipse fill="none" stroke="black" cx="210" cy="-178" rx="59.59" ry="18"/>
<text text-anchor="middle" x="210" y="-174.3" font-family="Times,serif" font-size="14.00">Client Laptop</text>
</g>
<!-- printer switch&#45;&gt;Client Laptop -->
<g id="edge21" class="edge">
<title>printer switch&#45;&gt;Client Laptop</title>
<path fill="none" stroke="black" d="M444.48,-237.83C395.49,-225.54 316.72,-205.78 264.18,-192.59"/>
<polygon fill="black" stroke="black" points="264.91,-189.17 254.36,-190.13 263.21,-195.96 264.91,-189.17"/>
</g>
<!-- Basement Chromebook -->
<g id="node24" class="node">
<title>Basement Chromebook</title>
<ellipse fill="none" stroke="black" cx="383" cy="-178" rx="94.78" ry="18"/>
<text text-anchor="middle" x="383" y="-174.3" font-family="Times,serif" font-size="14.00">Basement Chromebook</text>
</g>
<!-- printer switch&#45;&gt;Basement Chromebook -->
<g id="edge22" class="edge">
<title>printer switch&#45;&gt;Basement Chromebook</title>
<path fill="none" stroke="black" d="M465.21,-233.29C450.79,-223.77 432.17,-211.47 416.3,-200.99"/>
<polygon fill="black" stroke="black" points="418.09,-197.98 407.81,-195.39 414.23,-203.82 418.09,-197.98"/>
</g>
<!-- Printer 1 -->
<g id="node25" class="node">
<title>Printer 1</title>
<ellipse fill="none" stroke="black" cx="537" cy="-178" rx="41.69" ry="18"/>
<text text-anchor="middle" x="537" y="-174.3" font-family="Times,serif" font-size="14.00">Printer 1</text>
</g>
<!-- printer switch&#45;&gt;Printer 1 -->
<g id="edge23" class="edge">
<title>printer switch&#45;&gt;Printer 1</title>
<path fill="none" stroke="black" d="M500.62,-232.05C506.34,-223.71 513.35,-213.49 519.68,-204.25"/>
<polygon fill="black" stroke="black" points="522.72,-206.02 525.49,-195.79 516.95,-202.06 522.72,-206.02"/>
</g>
<!-- Printer 2 -->
<g id="node26" class="node">
<title>Printer 2</title>
<ellipse fill="none" stroke="black" cx="638" cy="-178" rx="41.69" ry="18"/>
<text text-anchor="middle" x="638" y="-174.3" font-family="Times,serif" font-size="14.00">Printer 2</text>
</g>
<!-- printer switch&#45;&gt;Printer 2 -->
<g id="edge24" class="edge">
<title>printer switch&#45;&gt;Printer 2</title>
<path fill="none" stroke="black" d="M519.87,-234.5C543.61,-223.35 576.46,-207.91 601.5,-196.15"/>
<polygon fill="black" stroke="black" points="603.11,-199.26 610.67,-191.84 600.13,-192.92 603.11,-199.26"/>
</g>
<!-- linux nuc -->
<g id="node14" class="node">
<title>linux nuc</title>
<ellipse fill="none" stroke="black" cx="742" cy="-178" rx="44.39" ry="18"/>
<text text-anchor="middle" x="742" y="-174.3" font-family="Times,serif" font-size="14.00">linux nuc</text>
</g>
<!-- linux switch&#45;&gt;linux nuc -->
<g id="edge12" class="edge">
<title>linux switch&#45;&gt;linux nuc</title>
<path fill="none" stroke="black" d="M646.66,-234.15C664.75,-223.69 689.13,-209.58 708.72,-198.26"/>
<polygon fill="black" stroke="black" points="710.71,-201.14 717.61,-193.11 707.21,-195.09 710.71,-201.14"/>
</g>
<!-- rotating linux -->
<g id="node15" class="node">
<title>rotating linux</title>
<ellipse fill="none" stroke="black" cx="863" cy="-178" rx="58.49" ry="18"/>
<text text-anchor="middle" x="863" y="-174.3" font-family="Times,serif" font-size="14.00">rotating linux</text>
</g>
<!-- linux switch&#45;&gt;rotating linux -->
<g id="edge13" class="edge">
<title>linux switch&#45;&gt;rotating linux</title>
<path fill="none" stroke="black" d="M660.42,-237.6C701.85,-225.61 767.15,-206.72 812.37,-193.65"/>
<polygon fill="black" stroke="black" points="813.34,-197.01 821.98,-190.87 811.4,-190.28 813.34,-197.01"/>
</g>
<!-- mac mini -->
<g id="node20" class="node">
<title>mac mini</title>
<ellipse fill="none" stroke="black" cx="1042" cy="-178" rx="44.69" ry="18"/>
<text text-anchor="middle" x="1042" y="-174.3" font-family="Times,serif" font-size="14.00">mac mini</text>
</g>
<!-- wired switch 3&#45;&gt;mac mini -->
<g id="edge18" class="edge">
<title>wired switch 3&#45;&gt;mac mini</title>
<path fill="none" stroke="black" d="M1132.26,-233.46C1115.16,-223.15 1092.59,-209.53 1074.29,-198.49"/>
<polygon fill="black" stroke="black" points="1076.07,-195.47 1065.7,-193.3 1072.45,-201.46 1076.07,-195.47"/>
</g>
<!-- rotating slots -->
<g id="node21" class="node">
<title>rotating slots</title>
<ellipse fill="none" stroke="black" cx="1161" cy="-178" rx="56.59" ry="18"/>
<text text-anchor="middle" x="1161" y="-174.3" font-family="Times,serif" font-size="14.00">rotating slots</text>
</g>
<!-- wired switch 3&#45;&gt;rotating slots -->
<g id="edge19" class="edge">
<title>wired switch 3&#45;&gt;rotating slots</title>
<path fill="none" stroke="black" d="M1158.74,-231.7C1159.07,-223.98 1159.47,-214.71 1159.84,-206.11"/>
<polygon fill="black" stroke="black" points="1163.34,-206.25 1160.27,-196.1 1156.34,-205.95 1163.34,-206.25"/>
</g>
<!-- homeplug -->
<g id="node30" class="node">
<title>homeplug</title>
<ellipse fill="none" stroke="black" cx="1637" cy="-250" rx="46.29" ry="18"/>
<text text-anchor="middle" x="1637" y="-246.3" font-family="Times,serif" font-size="14.00">homeplug</text>
</g>
<!-- wifi switch 1&#45;&gt;homeplug -->
<g id="edge28" class="edge">
<title>wifi switch 1&#45;&gt;homeplug</title>
<path fill="none" stroke="gray" d="M1773.01,-307.34C1745.48,-295.93 1706.16,-279.64 1676.86,-267.51"/>
<polygon fill="gray" stroke="gray" points="1677.93,-264.16 1667.35,-263.57 1675.25,-270.63 1677.93,-264.16"/>
</g>
<!-- sub livinging room switch -->
<g id="node31" class="node">
<title>sub livinging room switch</title>
<ellipse fill="none" stroke="black" cx="1891" cy="-250" rx="103.98" ry="18"/>
<text text-anchor="middle" x="1891" y="-246.3" font-family="Times,serif" font-size="14.00">sub livinging room switch</text>
</g>
<!-- wifi switch 1&#45;&gt;sub livinging room switch -->
<g id="edge29" class="edge">
<title>wifi switch 1&#45;&gt;sub livinging room switch</title>
<path fill="none" stroke="black" d="M1825.71,-304.76C1836.63,-295.77 1850.4,-284.44 1862.47,-274.49"/>
<polygon fill="black" stroke="black" points="1865.01,-276.94 1870.51,-267.88 1860.56,-271.53 1865.01,-276.94"/>
</g>
<!-- wifi debug laptop -->
<g id="node32" class="node">
<title>wifi debug laptop</title>
<ellipse fill="none" stroke="black" cx="2091" cy="-250" rx="72.59" ry="18"/>
<text text-anchor="middle" x="2091" y="-246.3" font-family="Times,serif" font-size="14.00">wifi debug laptop</text>
</g>
<!-- wifi switch 2&#45;&gt;wifi debug laptop -->
<g id="edge30" class="edge">
<title>wifi switch 2&#45;&gt;wifi debug laptop</title>
<path fill="none" stroke="black" d="M2091,-303.7C2091,-295.98 2091,-286.71 2091,-278.11"/>
<polygon fill="black" stroke="black" points="2094.5,-278.1 2091,-268.1 2087.5,-278.1 2094.5,-278.1"/>
</g>
<!-- dining room switch -->
<g id="node33" class="node">
<title>dining room switch</title>
<ellipse fill="none" stroke="black" cx="2354" cy="-250" rx="79.89" ry="18"/>
<text text-anchor="middle" x="2354" y="-246.3" font-family="Times,serif" font-size="14.00">dining room switch</text>
</g>
<!-- wifi switch 2&#45;&gt;dining room switch -->
<g id="edge31" class="edge">
<title>wifi switch 2&#45;&gt;dining room switch</title>
<path fill="none" stroke="black" d="M2132.96,-309.83C2176.65,-298.2 2245.45,-279.89 2294.68,-266.79"/>
<polygon fill="black" stroke="black" points="2295.8,-270.11 2304.57,-264.16 2294,-263.35 2295.8,-270.11"/>
</g>
<!-- upstairs office airport -->
<g id="node48" class="node">
<title>upstairs office airport</title>
<ellipse fill="none" stroke="black" cx="1341" cy="-178" rx="86.38" ry="18"/>
<text text-anchor="middle" x="1341" y="-174.3" font-family="Times,serif" font-size="14.00">upstairs office airport</text>
</g>
<!-- homeplug&#45;&gt;upstairs office airport -->
<g id="edge50" class="edge">
<title>homeplug&#45;&gt;upstairs office airport</title>
<path fill="none" stroke="black" d="M1598.61,-239.92C1549.81,-228.38 1464.84,-208.29 1405.9,-194.35"/>
<polygon fill="black" stroke="black" points="1406.48,-190.89 1395.94,-191.99 1404.87,-197.7 1406.48,-190.89"/>
</g>
<!-- upstairs bedroom airport -->
<g id="node50" class="node">
<title>upstairs bedroom airport</title>
<ellipse fill="none" stroke="black" cx="1553" cy="-178" rx="98.28" ry="18"/>
<text text-anchor="middle" x="1553" y="-174.3" font-family="Times,serif" font-size="14.00">upstairs bedroom airport</text>
</g>
<!-- homeplug&#45;&gt;upstairs bedroom airport -->
<g id="edge51" class="edge">
<title>homeplug&#45;&gt;upstairs bedroom airport</title>
<path fill="none" stroke="black" d="M1618.36,-233.46C1607.34,-224.28 1593.17,-212.47 1580.84,-202.2"/>
<polygon fill="black" stroke="black" points="1582.98,-199.43 1573.06,-195.71 1578.5,-204.8 1582.98,-199.43"/>
</g>
<!-- kitchen canary -->
<g id="node54" class="node">
<title>kitchen canary</title>
<ellipse fill="none" stroke="black" cx="1732" cy="-178" rx="62.29" ry="18"/>
<text text-anchor="middle" x="1732" y="-174.3" font-family="Times,serif" font-size="14.00">kitchen canary</text>
</g>
<!-- homeplug&#45;&gt;kitchen canary -->
<g id="edge52" class="edge">
<title>homeplug&#45;&gt;kitchen canary</title>
<path fill="none" stroke="black" d="M1657.61,-233.81C1670.57,-224.26 1687.5,-211.79 1701.94,-201.15"/>
<polygon fill="black" stroke="black" points="1704.13,-203.88 1710.1,-195.13 1699.98,-198.25 1704.13,-203.88"/>
</g>
<!-- living room airport -->
<g id="node42" class="node">
<title>living room airport</title>
<ellipse fill="none" stroke="black" cx="1891" cy="-178" rx="78.79" ry="18"/>
<text text-anchor="middle" x="1891" y="-174.3" font-family="Times,serif" font-size="14.00">living room airport</text>
</g>
<!-- sub livinging room switch&#45;&gt;living room airport -->
<g id="edge40" class="edge">
<title>sub livinging room switch&#45;&gt;living room airport</title>
<path fill="none" stroke="black" d="M1891,-231.7C1891,-223.98 1891,-214.71 1891,-206.11"/>
<polygon fill="black" stroke="black" points="1894.5,-206.1 1891,-196.1 1887.5,-206.1 1894.5,-206.1"/>
</g>
<!-- living room switch -->
<g id="node43" class="node">
<title>living room switch</title>
<ellipse fill="none" stroke="black" cx="2066" cy="-178" rx="77.99" ry="18"/>
<text text-anchor="middle" x="2066" y="-174.3" font-family="Times,serif" font-size="14.00">living room switch</text>
</g>
<!-- sub livinging room switch&#45;&gt;living room switch -->
<g id="edge41" class="edge">
<title>sub livinging room switch&#45;&gt;living room switch</title>
<path fill="none" stroke="black" d="M1930.27,-233.29C1956.6,-222.76 1991.39,-208.85 2019.15,-197.74"/>
<polygon fill="black" stroke="black" points="2020.67,-200.9 2028.66,-193.94 2018.07,-194.4 2020.67,-200.9"/>
</g>
<!-- Dining room Chromebook -->
<g id="node34" class="node">
<title>Dining room Chromebook</title>
<ellipse fill="none" stroke="black" cx="2267" cy="-178" rx="105.08" ry="18"/>
<text text-anchor="middle" x="2267" y="-174.3" font-family="Times,serif" font-size="14.00">Dining room Chromebook</text>
</g>
<!-- dining room switch&#45;&gt;Dining room Chromebook -->
<g id="edge32" class="edge">
<title>dining room switch&#45;&gt;Dining room Chromebook</title>
<path fill="none" stroke="black" d="M2333.38,-232.41C2322.09,-223.32 2307.92,-211.92 2295.57,-201.99"/>
<polygon fill="black" stroke="black" points="2297.76,-199.25 2287.77,-195.71 2293.37,-204.71 2297.76,-199.25"/>
</g>
<!-- VoIP phone -->
<g id="node35" class="node">
<title>VoIP phone</title>
<ellipse fill="none" stroke="black" cx="2442" cy="-178" rx="51.99" ry="18"/>
<text text-anchor="middle" x="2442" y="-174.3" font-family="Times,serif" font-size="14.00">VoIP phone</text>
</g>
<!-- dining room switch&#45;&gt;VoIP phone -->
<g id="edge33" class="edge">
<title>dining room switch&#45;&gt;VoIP phone</title>
<path fill="none" stroke="black" d="M2374.85,-232.41C2386.61,-223.06 2401.45,-211.25 2414.19,-201.12"/>
<polygon fill="black" stroke="black" points="2416.55,-203.71 2422.2,-194.75 2412.2,-198.24 2416.55,-203.71"/>
</g>
<!-- dining room airport -->
<g id="node36" class="node">
<title>dining room airport</title>
<ellipse fill="none" stroke="black" cx="2593" cy="-178" rx="80.69" ry="18"/>
<text text-anchor="middle" x="2593" y="-174.3" font-family="Times,serif" font-size="14.00">dining room airport</text>
</g>
<!-- dining room switch&#45;&gt;dining room airport -->
<g id="edge34" class="edge">
<title>dining room switch&#45;&gt;dining room airport</title>
<path fill="none" stroke="black" d="M2400.65,-235.34C2439.51,-223.96 2494.99,-207.71 2536.39,-195.58"/>
<polygon fill="black" stroke="black" points="2537.45,-198.92 2546.06,-192.75 2535.48,-192.2 2537.45,-198.92"/>
</g>
<!-- dining room canary 1 -->
<g id="node37" class="node">
<title>dining room canary 1</title>
<ellipse fill="none" stroke="black" cx="2423" cy="-106" rx="87.18" ry="18"/>
<text text-anchor="middle" x="2423" y="-102.3" font-family="Times,serif" font-size="14.00">dining room canary 1</text>
</g>
<!-- dining room airport&#45;&gt;dining room canary 1 -->
<g id="edge35" class="edge">
<title>dining room airport&#45;&gt;dining room canary 1</title>
<path fill="none" stroke="black" d="M2556.11,-161.81C2530.78,-151.38 2496.95,-137.45 2469.73,-126.24"/>
<polygon fill="black" stroke="black" points="2470.98,-122.97 2460.4,-122.4 2468.32,-129.44 2470.98,-122.97"/>
</g>
<!-- nest mini -->
<g id="node38" class="node">
<title>nest mini</title>
<ellipse fill="none" stroke="black" cx="2572" cy="-106" rx="44.39" ry="18"/>
<text text-anchor="middle" x="2572" y="-102.3" font-family="Times,serif" font-size="14.00">nest mini</text>
</g>
<!-- dining room airport&#45;&gt;nest mini -->
<g id="edge36" class="edge">
<title>dining room airport&#45;&gt;nest mini</title>
<path fill="none" stroke="black" d="M2587.81,-159.7C2585.47,-151.9 2582.65,-142.51 2580.05,-133.83"/>
<polygon fill="black" stroke="black" points="2583.36,-132.68 2577.13,-124.1 2576.65,-134.69 2583.36,-132.68"/>
</g>
<!-- dining room desk switch -->
<g id="node39" class="node">
<title>dining room desk switch</title>
<ellipse fill="none" stroke="black" cx="2733" cy="-106" rx="98.58" ry="18"/>
<text text-anchor="middle" x="2733" y="-102.3" font-family="Times,serif" font-size="14.00">dining room desk switch</text>
</g>
<!-- dining room airport&#45;&gt;dining room desk switch -->
<g id="edge37" class="edge">
<title>dining room airport&#45;&gt;dining room desk switch</title>
<path fill="none" stroke="black" d="M2624.42,-161.29C2644.22,-151.39 2670.02,-138.49 2691.5,-127.75"/>
<polygon fill="black" stroke="black" points="2693.34,-130.75 2700.72,-123.14 2690.21,-124.48 2693.34,-130.75"/>
</g>
<!-- dining room canary 2 -->
<g id="node40" class="node">
<title>dining room canary 2</title>
<ellipse fill="none" stroke="black" cx="2513" cy="-34" rx="87.18" ry="18"/>
<text text-anchor="middle" x="2513" y="-30.3" font-family="Times,serif" font-size="14.00">dining room canary 2</text>
</g>
<!-- dining room desk switch&#45;&gt;dining room canary 2 -->
<g id="edge38" class="edge">
<title>dining room desk switch&#45;&gt;dining room canary 2</title>
<path fill="none" stroke="black" d="M2686.07,-90.07C2651.58,-79.1 2604.6,-64.15 2568.29,-52.59"/>
<polygon fill="black" stroke="black" points="2568.94,-49.13 2558.35,-49.43 2566.82,-55.8 2568.94,-49.13"/>
</g>
<!-- dining room desk laptop(s) -->
<g id="node41" class="node">
<title>dining room desk laptop(s)</title>
<ellipse fill="none" stroke="black" cx="2725" cy="-34" rx="106.68" ry="18"/>
<text text-anchor="middle" x="2725" y="-30.3" font-family="Times,serif" font-size="14.00">dining room desk laptop(s)</text>
</g>
<!-- dining room desk switch&#45;&gt;dining room desk laptop(s) -->
<g id="edge39" class="edge">
<title>dining room desk switch&#45;&gt;dining room desk laptop(s)</title>
<path fill="none" stroke="black" d="M2731.02,-87.7C2730.14,-79.98 2729.08,-70.71 2728.1,-62.11"/>
<polygon fill="black" stroke="black" points="2731.57,-61.64 2726.95,-52.1 2724.61,-62.44 2731.57,-61.64"/>
</g>
<!-- FireTV -->
<g id="node44" class="node">
<title>FireTV</title>
<ellipse fill="none" stroke="black" cx="1967" cy="-106" rx="36.29" ry="18"/>
<text text-anchor="middle" x="1967" y="-102.3" font-family="Times,serif" font-size="14.00">FireTV</text>
</g>
<!-- living room switch&#45;&gt;FireTV -->
<g id="edge42" class="edge">
<title>living room switch&#45;&gt;FireTV</title>
<path fill="none" stroke="black" d="M2043.04,-160.76C2028.9,-150.77 2010.67,-137.88 1995.6,-127.23"/>
<polygon fill="black" stroke="black" points="1997.34,-124.17 1987.15,-121.25 1993.3,-129.88 1997.34,-124.17"/>
</g>
<!-- AppleTV -->
<g id="node45" class="node">
<title>AppleTV</title>
<ellipse fill="none" stroke="black" cx="2066" cy="-106" rx="44.39" ry="18"/>
<text text-anchor="middle" x="2066" y="-102.3" font-family="Times,serif" font-size="14.00">AppleTV</text>
</g>
<!-- living room switch&#45;&gt;AppleTV -->
<g id="edge43" class="edge">
<title>living room switch&#45;&gt;AppleTV</title>
<path fill="none" stroke="black" d="M2066,-159.7C2066,-151.98 2066,-142.71 2066,-134.11"/>
<polygon fill="black" stroke="black" points="2069.5,-134.1 2066,-124.1 2062.5,-134.1 2069.5,-134.1"/>
</g>
<!-- Roku -->
<g id="node46" class="node">
<title>Roku</title>
<ellipse fill="none" stroke="black" cx="2158" cy="-106" rx="29.8" ry="18"/>
<text text-anchor="middle" x="2158" y="-102.3" font-family="Times,serif" font-size="14.00">Roku</text>
</g>
<!-- living room switch&#45;&gt;Roku -->
<g id="edge44" class="edge">
<title>living room switch&#45;&gt;Roku</title>
<path fill="none" stroke="black" d="M2087.8,-160.41C2101,-150.37 2117.92,-137.49 2131.84,-126.9"/>
<polygon fill="black" stroke="black" points="2134.22,-129.49 2140.06,-120.65 2129.98,-123.92 2134.22,-129.49"/>
</g>
<!-- Windwos 10 -->
<g id="node47" class="node">
<title>Windwos 10</title>
<ellipse fill="none" stroke="black" cx="2262" cy="-106" rx="55.79" ry="18"/>
<text text-anchor="middle" x="2262" y="-102.3" font-family="Times,serif" font-size="14.00">Windwos 10</text>
</g>
<!-- living room switch&#45;&gt;Windwos 10 -->
<g id="edge45" class="edge">
<title>living room switch&#45;&gt;Windwos 10</title>
<path fill="none" stroke="black" d="M2106.61,-162.5C2138.66,-151.05 2183.34,-135.09 2216.57,-123.22"/>
<polygon fill="black" stroke="black" points="2217.81,-126.5 2226.05,-119.84 2215.46,-119.91 2217.81,-126.5"/>
</g>
<!-- upstairs office laptop -->
<g id="node49" class="node">
<title>upstairs office laptop</title>
<ellipse fill="none" stroke="black" cx="1330" cy="-106" rx="85.29" ry="18"/>
<text text-anchor="middle" x="1330" y="-102.3" font-family="Times,serif" font-size="14.00">upstairs office laptop</text>
</g>
<!-- upstairs office airport&#45;&gt;upstairs office laptop -->
<g id="edge46" class="edge">
<title>upstairs office airport&#45;&gt;upstairs office laptop</title>
<path fill="none" stroke="black" d="M1338.28,-159.7C1337.07,-151.98 1335.61,-142.71 1334.26,-134.11"/>
<polygon fill="black" stroke="black" points="1337.7,-133.44 1332.69,-124.1 1330.78,-134.53 1337.7,-133.44"/>
</g>
<!-- upstairs bedroom Chromebook -->
<g id="node51" class="node">
<title>upstairs bedroom Chromebook</title>
<ellipse fill="none" stroke="black" cx="1554" cy="-106" rx="120.78" ry="18"/>
<text text-anchor="middle" x="1554" y="-102.3" font-family="Times,serif" font-size="14.00">upstairs bedroom Chromebook</text>
</g>
<!-- upstairs bedroom airport&#45;&gt;upstairs bedroom Chromebook -->
<g id="edge47" class="edge">
<title>upstairs bedroom airport&#45;&gt;upstairs bedroom Chromebook</title>
<path fill="none" stroke="black" d="M1553.25,-159.7C1553.36,-151.98 1553.49,-142.71 1553.61,-134.11"/>
<polygon fill="black" stroke="black" points="1557.11,-134.15 1553.76,-124.1 1550.11,-134.05 1557.11,-134.15"/>
</g>
<!-- FireTV DVR -->
<g id="node52" class="node">
<title>FireTV DVR</title>
<ellipse fill="none" stroke="black" cx="1751" cy="-106" rx="57.69" ry="18"/>
<text text-anchor="middle" x="1751" y="-102.3" font-family="Times,serif" font-size="14.00">FireTV DVR</text>
</g>
<!-- upstairs bedroom airport&#45;&gt;FireTV DVR -->
<g id="edge48" class="edge">
<title>upstairs bedroom airport&#45;&gt;FireTV DVR</title>
<path fill="none" stroke="black" d="M1595.96,-161.81C1627.92,-150.51 1671.48,-135.11 1704.3,-123.51"/>
<polygon fill="black" stroke="black" points="1705.85,-126.68 1714.11,-120.04 1703.51,-120.08 1705.85,-126.68"/>
</g>
<!-- Hue Hub -->
<g id="node53" class="node">
<title>Hue Hub</title>
<ellipse fill="none" stroke="black" cx="1870" cy="-106" rx="42.79" ry="18"/>
<text text-anchor="middle" x="1870" y="-102.3" font-family="Times,serif" font-size="14.00">Hue Hub</text>
</g>
<!-- upstairs bedroom airport&#45;&gt;Hue Hub -->
<g id="edge49" class="edge">
<title>upstairs bedroom airport&#45;&gt;Hue Hub</title>
<path fill="none" stroke="black" d="M1609.77,-163.29C1626.26,-159.46 1644.31,-155.42 1661,-152 1730.44,-137.78 1749.26,-141.28 1818,-124 1821.42,-123.14 1824.94,-122.17 1828.46,-121.15"/>
<polygon fill="black" stroke="black" points="1829.76,-124.41 1838.3,-118.14 1827.72,-117.71 1829.76,-124.41"/>
</g>
</g>
</svg>
