<?xml version="1.0" encoding="UTF-8" standalone="no"?>
<!DOCTYPE svg PUBLIC "-//W3C//DTD SVG 1.1//EN"
 "http://www.w3.org/Graphics/SVG/1.1/DTD/svg11.dtd">
<!-- Generated by graphviz version 2.44.1 (20200629.0846)
 -->
<!-- Title: G Pages: 1 -->
<svg width="1941pt" height="1452pt"
 viewBox="0.00 0.00 1940.67 1452.38" xmlns="http://www.w3.org/2000/svg" xmlns:xlink="http://www.w3.org/1999/xlink">
<g id="graph0" class="graph" transform="scale(1 1) rotate(0) translate(4 1448.38)">
<title>G</title>
<polygon fill="white" stroke="transparent" points="-4,4 -4,-1448.38 1936.67,-1448.38 1936.67,4 -4,4"/>
<g id="clust3" class="cluster">
<title>cluster_wired</title>
<polygon fill="purple" stroke="purple" points="414.39,-944.38 414.39,-1436.38 1146.13,-1436.38 1146.13,-944.38 414.39,-944.38"/>
</g>
<g id="clust4" class="cluster">
<title>cluster_wired_infrastructure</title>
<polygon fill="gray" stroke="gray" points="422.39,-952.38 422.39,-1112.38 896.05,-1112.38 896.05,-952.38 422.39,-952.38"/>
</g>
<g id="clust10" class="cluster">
<title>cluster_wifi</title>
<polygon fill="pink" stroke="pink" points="422.66,-34.38 422.66,-936.38 1924.67,-936.38 1924.67,-34.38 422.66,-34.38"/>
</g>
<g id="clust11" class="cluster">
<title>cluster_wifi_infrastructure</title>
<polygon fill="gray" stroke="gray" points="430.66,-282.38 430.66,-762.38 1379.02,-762.38 1379.02,-282.38 430.66,-282.38"/>
</g>
<g id="clust15" class="cluster">
<title>cluster_dining_room</title>
<polygon fill="orange" stroke="orange" points="1443.91,-42.38 1443.91,-364.38 1673.09,-364.38 1673.09,-42.38 1443.91,-42.38"/>
</g>
<g id="clust22" class="cluster">
<title>cluster_upstairs_bedroom</title>
<polygon fill="gold" stroke="gold" points="1166.13,-114.38 1166.13,-274.38 1423.91,-274.38 1423.91,-114.38 1166.13,-114.38"/>
</g>
<g id="clust24" class="cluster">
<title>cluster_livingroom</title>
<polygon fill="tan" stroke="tan" points="1250.62,-770.38 1250.62,-822.38 1916.67,-822.38 1916.67,-770.38 1250.62,-770.38"/>
</g>
<!-- Wired Network Diagram -->
<g id="node1" class="node">
<title>Wired Network Diagram</title>
<text text-anchor="middle" x="107.5" y="-852.38" font-family="Times,serif" font-size="20.00">Wired Network Diagram</text>
</g>
<!-- modem -->
<g id="node2" class="node">
<title>modem</title>
<ellipse fill="none" stroke="black" cx="107.5" cy="-911.38" rx="38.19" ry="18"/>
<text text-anchor="middle" x="107.5" y="-907.68" font-family="Times,serif" font-size="14.00">modem</text>
</g>
<!-- diagnostic cable -->
<g id="node3" class="node">
<title>diagnostic cable</title>
<ellipse fill="none" stroke="black" cx="322.69" cy="-938.38" rx="67.69" ry="18"/>
<text text-anchor="middle" x="322.69" y="-934.68" font-family="Times,serif" font-size="14.00">diagnostic cable</text>
</g>
<!-- modem&#45;&gt;diagnostic cable -->
<g id="edge1" class="edge">
<title>modem&#45;&gt;diagnostic cable</title>
<path fill="none" stroke="black" d="M144.67,-915.96C173.64,-919.63 215.19,-924.89 250.75,-929.39"/>
<polygon fill="black" stroke="black" points="250.73,-932.92 261.09,-930.7 251.61,-925.97 250.73,-932.92"/>
</g>
<!-- edge router -->
<g id="node4" class="node">
<title>edge router</title>
<polygon fill="none" stroke="black" points="364.68,-902.38 280.71,-902.38 250.81,-866.38 394.58,-866.38 364.68,-902.38"/>
<text text-anchor="middle" x="322.69" y="-880.68" font-family="Times,serif" font-size="14.00">edge router</text>
</g>
<!-- modem&#45;&gt;edge router -->
<g id="edge2" class="edge">
<title>modem&#45;&gt;edge router</title>
<path fill="none" stroke="black" d="M144.67,-906.8C176.37,-902.78 223.13,-896.86 260.63,-892.11"/>
<polygon fill="black" stroke="black" points="261.46,-895.53 270.94,-890.81 260.58,-888.59 261.46,-895.53"/>
</g>
<!-- wired router -->
<g id="node5" class="node">
<title>wired router</title>
<polygon fill="none" stroke="black" points="551.11,-1050.38 462.25,-1050.38 430.6,-1014.38 582.76,-1014.38 551.11,-1050.38"/>
<text text-anchor="middle" x="506.68" y="-1028.68" font-family="Times,serif" font-size="14.00">wired router</text>
</g>
<!-- edge router&#45;&gt;wired router -->
<g id="edge3" class="edge">
<title>edge router&#45;&gt;wired router</title>
<path fill="none" stroke="black" d="M368.63,-897.94C377.54,-901.61 386.56,-906.07 394.39,-911.38 432.75,-937.4 467.23,-979.11 487.32,-1006.13"/>
<polygon fill="black" stroke="black" points="484.59,-1008.33 493.32,-1014.34 490.25,-1004.2 484.59,-1008.33"/>
</g>
<!-- wifi router -->
<g id="node6" class="node">
<title>wifi router</title>
<polygon fill="none" stroke="black" points="546.41,-753.38 466.94,-753.38 438.64,-717.38 574.71,-717.38 546.41,-753.38"/>
<text text-anchor="middle" x="506.68" y="-731.68" font-family="Times,serif" font-size="14.00">wifi router</text>
</g>
<!-- edge router&#45;&gt;wifi router -->
<g id="edge4" class="edge">
<title>edge router&#45;&gt;wifi router</title>
<path fill="none" stroke="black" d="M346.01,-866.11C378.57,-839.45 439.18,-789.83 475.63,-759.98"/>
<polygon fill="black" stroke="black" points="477.95,-762.61 483.47,-753.56 473.51,-757.19 477.95,-762.61"/>
</g>
<!-- wired switch 1 -->
<g id="node7" class="node">
<title>wired switch 1</title>
<polygon fill="none" stroke="black" points="723.36,-1050.38 626.36,-1050.38 626.36,-1014.38 723.36,-1014.38 723.36,-1050.38"/>
<text text-anchor="middle" x="674.86" y="-1028.68" font-family="Times,serif" font-size="14.00">wired switch 1</text>
</g>
<!-- wired router&#45;&gt;wired switch 1 -->
<g id="edge5" class="edge">
<title>wired router&#45;&gt;wired switch 1</title>
<path fill="none" stroke="red" d="M567.21,-1032.38C583.1,-1032.38 600.24,-1032.38 616.04,-1032.38"/>
<polygon fill="red" stroke="red" points="616.2,-1035.88 626.2,-1032.38 616.2,-1028.88 616.2,-1035.88"/>
</g>
<!-- wired switch 2 -->
<g id="node8" class="node">
<title>wired switch 2</title>
<polygon fill="none" stroke="black" points="723.36,-1104.38 626.36,-1104.38 626.36,-1068.38 723.36,-1068.38 723.36,-1104.38"/>
<text text-anchor="middle" x="674.86" y="-1082.68" font-family="Times,serif" font-size="14.00">wired switch 2</text>
</g>
<!-- wired router&#45;&gt;wired switch 2 -->
<g id="edge6" class="edge">
<title>wired router&#45;&gt;wired switch 2</title>
<path fill="none" stroke="green" d="M553.97,-1047.42C573.37,-1053.72 596.13,-1061.12 616.57,-1067.76"/>
<polygon fill="green" stroke="green" points="615.49,-1071.09 626.09,-1070.85 617.66,-1064.43 615.49,-1071.09"/>
</g>
<!-- wifi switch 1 -->
<g id="node27" class="node">
<title>wifi switch 1</title>
<polygon fill="none" stroke="black" points="718.36,-752.38 631.36,-752.38 631.36,-716.38 718.36,-716.38 718.36,-752.38"/>
<text text-anchor="middle" x="674.86" y="-730.68" font-family="Times,serif" font-size="14.00">wifi switch 1</text>
</g>
<!-- wifi router&#45;&gt;wifi switch 1 -->
<g id="edge30" class="edge">
<title>wifi router&#45;&gt;wifi switch 1</title>
<path fill="none" stroke="black" d="M561.18,-735.06C580.4,-734.94 602.05,-734.81 621.2,-734.69"/>
<polygon fill="black" stroke="black" points="621.28,-738.19 631.26,-734.63 621.24,-731.19 621.28,-738.19"/>
</g>
<!-- wifi switch 2 -->
<g id="node28" class="node">
<title>wifi switch 2</title>
<polygon fill="none" stroke="black" points="718.36,-698.38 631.36,-698.38 631.36,-662.38 718.36,-662.38 718.36,-698.38"/>
<text text-anchor="middle" x="674.86" y="-676.68" font-family="Times,serif" font-size="14.00">wifi switch 2</text>
</g>
<!-- wifi router&#45;&gt;wifi switch 2 -->
<g id="edge31" class="edge">
<title>wifi router&#45;&gt;wifi switch 2</title>
<path fill="none" stroke="black" d="M562.09,-717.37C581.2,-711.05 602.61,-703.96 621.54,-697.7"/>
<polygon fill="black" stroke="black" points="622.79,-700.97 631.18,-694.5 620.59,-694.32 622.79,-700.97"/>
</g>
<!-- wifi fing box -->
<g id="node39" class="node">
<title>wifi fing box</title>
<ellipse fill="none" stroke="black" cx="674.86" cy="-788.38" rx="55.79" ry="18"/>
<text text-anchor="middle" x="674.86" y="-784.68" font-family="Times,serif" font-size="14.00">wifi fing box</text>
</g>
<!-- wifi router&#45;&gt;wifi fing box -->
<g id="edge32" class="edge">
<title>wifi router&#45;&gt;wifi fing box</title>
<path fill="none" stroke="black" d="M550.04,-748.89C572.86,-756.17 601.13,-765.18 624.89,-772.76"/>
<polygon fill="black" stroke="black" points="623.84,-776.1 634.43,-775.8 625.97,-769.43 623.84,-776.1"/>
</g>
<!-- printer switch -->
<g id="node10" class="node">
<title>printer switch</title>
<polygon fill="none" stroke="black" points="885.55,-996.38 793.55,-996.38 793.55,-960.38 885.55,-960.38 885.55,-996.38"/>
<text text-anchor="middle" x="839.55" y="-974.68" font-family="Times,serif" font-size="14.00">printer switch</text>
</g>
<!-- wired switch 1&#45;&gt;printer switch -->
<g id="edge11" class="edge">
<title>wired switch 1&#45;&gt;printer switch</title>
<path fill="none" stroke="blue" d="M723.8,-1016.47C742.64,-1010.21 764.38,-1003 783.83,-996.54"/>
<polygon fill="blue" stroke="blue" points="785.08,-999.81 793.47,-993.34 782.88,-993.17 785.08,-999.81"/>
</g>
<!-- linux switch -->
<g id="node11" class="node">
<title>linux switch</title>
<polygon fill="none" stroke="black" points="881.05,-1050.38 798.05,-1050.38 798.05,-1014.38 881.05,-1014.38 881.05,-1050.38"/>
<text text-anchor="middle" x="839.55" y="-1028.68" font-family="Times,serif" font-size="14.00">linux switch</text>
</g>
<!-- wired switch 1&#45;&gt;linux switch -->
<g id="edge12" class="edge">
<title>wired switch 1&#45;&gt;linux switch</title>
<path fill="none" stroke="black" d="M723.8,-1032.38C743.92,-1032.38 767.35,-1032.38 787.77,-1032.38"/>
<polygon fill="black" stroke="black" points="787.83,-1035.88 797.83,-1032.38 787.83,-1028.88 787.83,-1035.88"/>
</g>
<!-- breaker box -->
<g id="node12" class="node">
<title>breaker box</title>
<ellipse fill="none" stroke="black" cx="839.55" cy="-1248.38" rx="52.79" ry="18"/>
<text text-anchor="middle" x="839.55" y="-1244.68" font-family="Times,serif" font-size="14.00">breaker box</text>
</g>
<!-- wired switch 1&#45;&gt;breaker box -->
<g id="edge8" class="edge">
<title>wired switch 1&#45;&gt;breaker box</title>
<path fill="none" stroke="black" d="M721.55,-1050.47C724.99,-1053.08 728.13,-1056.04 730.76,-1059.38 776.34,-1117.36 718.41,-1165.68 766.76,-1221.38 771.62,-1226.98 777.76,-1231.42 784.4,-1234.94"/>
<polygon fill="black" stroke="black" points="783.14,-1238.21 793.69,-1239.2 786.05,-1231.85 783.14,-1238.21"/>
</g>
<!-- wired fing box -->
<g id="node13" class="node">
<title>wired fing box</title>
<ellipse fill="none" stroke="black" cx="839.55" cy="-1140.38" rx="62.29" ry="18"/>
<text text-anchor="middle" x="839.55" y="-1136.68" font-family="Times,serif" font-size="14.00">wired fing box</text>
</g>
<!-- wired switch 1&#45;&gt;wired fing box -->
<g id="edge9" class="edge">
<title>wired switch 1&#45;&gt;wired fing box</title>
<path fill="none" stroke="black" d="M718.74,-1050.48C723.03,-1053.15 727.13,-1056.11 730.76,-1059.38 753.04,-1079.41 743.18,-1097.89 766.76,-1116.38 771.09,-1119.77 775.92,-1122.7 780.98,-1125.22"/>
<polygon fill="black" stroke="black" points="779.71,-1128.49 790.27,-1129.33 782.54,-1122.08 779.71,-1128.49"/>
</g>
<!-- hallway canary -->
<g id="node14" class="node">
<title>hallway canary</title>
<ellipse fill="none" stroke="black" cx="839.55" cy="-1194.38" rx="64.19" ry="18"/>
<text text-anchor="middle" x="839.55" y="-1190.68" font-family="Times,serif" font-size="14.00">hallway canary</text>
</g>
<!-- wired switch 1&#45;&gt;hallway canary -->
<g id="edge10" class="edge">
<title>wired switch 1&#45;&gt;hallway canary</title>
<path fill="none" stroke="gray" d="M720.66,-1050.39C724.38,-1053.03 727.83,-1056.02 730.76,-1059.38 764.03,-1097.49 731.67,-1130.93 766.76,-1167.38 770.84,-1171.62 775.65,-1175.2 780.82,-1178.22"/>
<polygon fill="gray" stroke="gray" points="779.3,-1181.37 789.8,-1182.8 782.48,-1175.14 779.3,-1181.37"/>
</g>
<!-- wired switch 3 -->
<g id="node9" class="node">
<title>wired switch 3</title>
<polygon fill="none" stroke="black" points="888.05,-1104.38 791.05,-1104.38 791.05,-1068.38 888.05,-1068.38 888.05,-1104.38"/>
<text text-anchor="middle" x="839.55" y="-1082.68" font-family="Times,serif" font-size="14.00">wired switch 3</text>
</g>
<!-- wired switch 2&#45;&gt;wired switch 3 -->
<g id="edge7" class="edge">
<title>wired switch 2&#45;&gt;wired switch 3</title>
<path fill="none" stroke="blue" d="M723.8,-1086.38C741.67,-1086.38 762.15,-1086.38 780.81,-1086.38"/>
<polygon fill="blue" stroke="blue" points="780.96,-1089.88 790.96,-1086.38 780.96,-1082.88 780.96,-1089.88"/>
</g>
<!-- 2008 MacPro -->
<g id="node17" class="node">
<title>2008 MacPro</title>
<ellipse fill="none" stroke="black" cx="839.55" cy="-1410.38" rx="59.29" ry="18"/>
<text text-anchor="middle" x="839.55" y="-1406.68" font-family="Times,serif" font-size="14.00">2008 MacPro</text>
</g>
<!-- wired switch 2&#45;&gt;2008 MacPro -->
<g id="edge15" class="edge">
<title>wired switch 2&#45;&gt;2008 MacPro</title>
<path fill="none" stroke="black" d="M676.13,-1104.43C677.85,-1155.26 689.61,-1301.23 766.76,-1383.38 771.19,-1388.09 776.52,-1391.99 782.25,-1395.21"/>
<polygon fill="black" stroke="black" points="780.99,-1398.49 791.52,-1399.73 784.07,-1392.2 780.99,-1398.49"/>
</g>
<!-- 2012 MacPro -->
<g id="node18" class="node">
<title>2012 MacPro</title>
<ellipse fill="none" stroke="black" cx="839.55" cy="-1302.38" rx="59.29" ry="18"/>
<text text-anchor="middle" x="839.55" y="-1298.68" font-family="Times,serif" font-size="14.00">2012 MacPro</text>
</g>
<!-- wired switch 2&#45;&gt;2012 MacPro -->
<g id="edge16" class="edge">
<title>wired switch 2&#45;&gt;2012 MacPro</title>
<path fill="none" stroke="black" d="M679.76,-1104.43C688.67,-1141.57 713.98,-1227.08 766.76,-1275.38 771.77,-1279.97 777.65,-1283.8 783.83,-1287"/>
<polygon fill="black" stroke="black" points="782.51,-1290.24 793.06,-1291.24 785.43,-1283.88 782.51,-1290.24"/>
</g>
<!-- Sun Ultra 40 -->
<g id="node19" class="node">
<title>Sun Ultra 40</title>
<ellipse fill="none" stroke="black" cx="839.55" cy="-1356.38" rx="55.79" ry="18"/>
<text text-anchor="middle" x="839.55" y="-1352.68" font-family="Times,serif" font-size="14.00">Sun Ultra 40</text>
</g>
<!-- wired switch 2&#45;&gt;Sun Ultra 40 -->
<g id="edge17" class="edge">
<title>wired switch 2&#45;&gt;Sun Ultra 40</title>
<path fill="none" stroke="black" d="M677.59,-1104.66C682.76,-1149.22 702,-1264.51 766.76,-1329.38 771.69,-1334.32 777.61,-1338.37 783.91,-1341.68"/>
<polygon fill="black" stroke="black" points="782.79,-1345.02 793.34,-1346.03 785.72,-1338.66 782.79,-1345.02"/>
</g>
<!-- mac mini -->
<g id="node20" class="node">
<title>mac mini</title>
<ellipse fill="none" stroke="black" cx="1043.24" cy="-1402.38" rx="44.69" ry="18"/>
<text text-anchor="middle" x="1043.24" y="-1398.68" font-family="Times,serif" font-size="14.00">mac mini</text>
</g>
<!-- wired switch 3&#45;&gt;mac mini -->
<g id="edge18" class="edge">
<title>wired switch 3&#45;&gt;mac mini</title>
<path fill="none" stroke="black" d="M888.35,-1092.77C897.47,-1096.08 906.1,-1101.02 912.35,-1108.38 989.83,-1199.67 870.08,-1284.76 948.35,-1375.38 958.53,-1387.17 973.5,-1393.98 988.51,-1397.86"/>
<polygon fill="black" stroke="black" points="987.8,-1401.29 998.32,-1400.01 989.3,-1394.45 987.8,-1401.29"/>
</g>
<!-- rotating slots -->
<g id="node21" class="node">
<title>rotating slots</title>
<ellipse fill="none" stroke="black" cx="1043.24" cy="-1348.38" rx="56.59" ry="18"/>
<text text-anchor="middle" x="1043.24" y="-1344.68" font-family="Times,serif" font-size="14.00">rotating slots</text>
</g>
<!-- wired switch 3&#45;&gt;rotating slots -->
<g id="edge19" class="edge">
<title>wired switch 3&#45;&gt;rotating slots</title>
<path fill="none" stroke="black" d="M888.17,-1092.93C897.3,-1096.23 905.98,-1101.13 912.35,-1108.38 975.68,-1180.53 884.38,-1249.78 948.35,-1321.38 956.38,-1330.37 967.19,-1336.45 978.62,-1340.54"/>
<polygon fill="black" stroke="black" points="977.73,-1343.93 988.32,-1343.53 979.79,-1337.24 977.73,-1343.93"/>
</g>
<!-- WWT laptop -->
<g id="node22" class="node">
<title>WWT laptop</title>
<ellipse fill="none" stroke="black" cx="1043.24" cy="-1132.38" rx="57.69" ry="18"/>
<text text-anchor="middle" x="1043.24" y="-1128.68" font-family="Times,serif" font-size="14.00">WWT laptop</text>
</g>
<!-- printer switch&#45;&gt;WWT laptop -->
<g id="edge20" class="edge">
<title>printer switch&#45;&gt;WWT laptop</title>
<path fill="none" stroke="black" d="M885.84,-988.66C895.54,-992.59 905.05,-997.98 912.35,-1005.38 945.51,-1039.02 913.87,-1073.09 948.35,-1105.38 956.87,-1113.36 967.6,-1119 978.73,-1122.98"/>
<polygon fill="black" stroke="black" points="977.98,-1126.42 988.57,-1126.07 980.07,-1119.74 977.98,-1126.42"/>
</g>
<!-- Client Laptop -->
<g id="node23" class="node">
<title>Client Laptop</title>
<ellipse fill="none" stroke="black" cx="1043.24" cy="-1186.38" rx="59.59" ry="18"/>
<text text-anchor="middle" x="1043.24" y="-1182.68" font-family="Times,serif" font-size="14.00">Client Laptop</text>
</g>
<!-- printer switch&#45;&gt;Client Laptop -->
<g id="edge21" class="edge">
<title>printer switch&#45;&gt;Client Laptop</title>
<path fill="none" stroke="black" d="M885.73,-987.76C895.67,-991.73 905.32,-997.37 912.35,-1005.38 958.71,-1058.21 899.91,-1108.44 948.35,-1159.38 956.04,-1167.47 965.99,-1173.19 976.52,-1177.21"/>
<polygon fill="black" stroke="black" points="975.72,-1180.63 986.31,-1180.46 977.92,-1173.99 975.72,-1180.63"/>
</g>
<!-- Basement Chromebook -->
<g id="node24" class="node">
<title>Basement Chromebook</title>
<ellipse fill="none" stroke="black" cx="1043.24" cy="-970.38" rx="94.78" ry="18"/>
<text text-anchor="middle" x="1043.24" y="-966.68" font-family="Times,serif" font-size="14.00">Basement Chromebook</text>
</g>
<!-- printer switch&#45;&gt;Basement Chromebook -->
<g id="edge22" class="edge">
<title>printer switch&#45;&gt;Basement Chromebook</title>
<path fill="none" stroke="black" d="M885.56,-976.59C901.88,-975.95 921.03,-975.19 940.25,-974.42"/>
<polygon fill="black" stroke="black" points="940.43,-977.92 950.29,-974.03 940.16,-970.92 940.43,-977.92"/>
</g>
<!-- Printer 1 -->
<g id="node25" class="node">
<title>Printer 1</title>
<ellipse fill="none" stroke="black" cx="1043.24" cy="-1024.38" rx="41.69" ry="18"/>
<text text-anchor="middle" x="1043.24" y="-1020.68" font-family="Times,serif" font-size="14.00">Printer 1</text>
</g>
<!-- printer switch&#45;&gt;Printer 1 -->
<g id="edge23" class="edge">
<title>printer switch&#45;&gt;Printer 1</title>
<path fill="none" stroke="black" d="M885.56,-988.64C918.49,-996.16 963.03,-1006.31 996.2,-1013.88"/>
<polygon fill="black" stroke="black" points="995.57,-1017.32 1006.1,-1016.14 997.13,-1010.5 995.57,-1017.32"/>
</g>
<!-- Printer 2 -->
<g id="node26" class="node">
<title>Printer 2</title>
<ellipse fill="none" stroke="black" cx="1043.24" cy="-1078.38" rx="41.69" ry="18"/>
<text text-anchor="middle" x="1043.24" y="-1074.68" font-family="Times,serif" font-size="14.00">Printer 2</text>
</g>
<!-- printer switch&#45;&gt;Printer 2 -->
<g id="edge24" class="edge">
<title>printer switch&#45;&gt;Printer 2</title>
<path fill="none" stroke="black" d="M885.77,-991.07C895.05,-994.83 904.4,-999.55 912.35,-1005.38 933.27,-1020.74 926.82,-1036.86 948.35,-1051.38 961.73,-1060.4 978.13,-1066.45 993.47,-1070.48"/>
<polygon fill="black" stroke="black" points="992.8,-1073.92 1003.34,-1072.86 994.44,-1067.12 992.8,-1073.92"/>
</g>
<!-- linux nuc -->
<g id="node15" class="node">
<title>linux nuc</title>
<ellipse fill="none" stroke="black" cx="1043.24" cy="-1294.38" rx="44.39" ry="18"/>
<text text-anchor="middle" x="1043.24" y="-1290.68" font-family="Times,serif" font-size="14.00">linux nuc</text>
</g>
<!-- linux switch&#45;&gt;linux nuc -->
<g id="edge13" class="edge">
<title>linux switch&#45;&gt;linux nuc</title>
<path fill="none" stroke="black" d="M881.2,-1039.67C892.82,-1043.66 904.45,-1049.84 912.35,-1059.38 972.15,-1131.66 885.71,-1197.53 948.35,-1267.38 958.84,-1279.08 974.05,-1285.85 989.18,-1289.72"/>
<polygon fill="black" stroke="black" points="988.54,-1293.17 999.06,-1291.87 990.03,-1286.33 988.54,-1293.17"/>
</g>
<!-- rotating linux -->
<g id="node16" class="node">
<title>rotating linux</title>
<ellipse fill="none" stroke="black" cx="1043.24" cy="-1240.38" rx="58.49" ry="18"/>
<text text-anchor="middle" x="1043.24" y="-1236.68" font-family="Times,serif" font-size="14.00">rotating linux</text>
</g>
<!-- linux switch&#45;&gt;rotating linux -->
<g id="edge14" class="edge">
<title>linux switch&#45;&gt;rotating linux</title>
<path fill="none" stroke="black" d="M881.24,-1040.09C892.72,-1044.09 904.26,-1050.17 912.35,-1059.38 958.71,-1112.21 899.91,-1162.44 948.35,-1213.38 956.3,-1221.74 966.66,-1227.57 977.59,-1231.62"/>
<polygon fill="black" stroke="black" points="976.7,-1235.01 987.29,-1234.73 978.84,-1228.34 976.7,-1235.01"/>
</g>
<!-- sub living room switch -->
<g id="node32" class="node">
<title>sub living room switch</title>
<polygon fill="none" stroke="black" points="911.05,-752.38 768.05,-752.38 768.05,-716.38 911.05,-716.38 911.05,-752.38"/>
<text text-anchor="middle" x="839.55" y="-730.68" font-family="Times,serif" font-size="14.00">sub living room switch</text>
</g>
<!-- wifi switch 1&#45;&gt;sub living room switch -->
<g id="edge28" class="edge">
<title>wifi switch 1&#45;&gt;sub living room switch</title>
<path fill="none" stroke="black" d="M718.61,-734.38C730.61,-734.38 744.07,-734.38 757.53,-734.38"/>
<polygon fill="black" stroke="black" points="757.79,-737.88 767.79,-734.38 757.79,-730.88 757.79,-737.88"/>
</g>
<!-- homeplug -->
<g id="node37" class="node">
<title>homeplug</title>
<ellipse fill="none" stroke="black" cx="839.55" cy="-617.38" rx="46.29" ry="18"/>
<text text-anchor="middle" x="839.55" y="-613.68" font-family="Times,serif" font-size="14.00">homeplug</text>
</g>
<!-- wifi switch 1&#45;&gt;homeplug -->
<g id="edge25" class="edge">
<title>wifi switch 1&#45;&gt;homeplug</title>
<path fill="none" stroke="black" d="M715.48,-716.31C720.73,-713.51 725.95,-710.5 730.76,-707.38 761.21,-687.58 792.72,-660.35 813.75,-641.04"/>
<polygon fill="black" stroke="black" points="816.32,-643.43 821.27,-634.06 811.56,-638.3 816.32,-643.43"/>
</g>
<!-- dining room switch -->
<g id="node29" class="node">
<title>dining room switch</title>
<polygon fill="none" stroke="black" points="901.05,-338.38 778.05,-338.38 778.05,-302.38 901.05,-302.38 901.05,-338.38"/>
<text text-anchor="middle" x="839.55" y="-316.68" font-family="Times,serif" font-size="14.00">dining room switch</text>
</g>
<!-- wifi switch 2&#45;&gt;dining room switch -->
<g id="edge33" class="edge">
<title>wifi switch 2&#45;&gt;dining room switch</title>
<path fill="none" stroke="black" d="M684.16,-662.03C710.81,-603.05 794.4,-418.07 826.15,-347.82"/>
<polygon fill="black" stroke="black" points="829.35,-349.24 830.28,-338.69 822.97,-346.36 829.35,-349.24"/>
</g>
<!-- wifi debug laptop -->
<g id="node40" class="node">
<title>wifi debug laptop</title>
<ellipse fill="none" stroke="black" cx="839.55" cy="-788.38" rx="72.59" ry="18"/>
<text text-anchor="middle" x="839.55" y="-784.68" font-family="Times,serif" font-size="14.00">wifi debug laptop</text>
</g>
<!-- wifi switch 2&#45;&gt;wifi debug laptop -->
<g id="edge34" class="edge">
<title>wifi switch 2&#45;&gt;wifi debug laptop</title>
<path fill="none" stroke="black" d="M718.52,-698.25C722.89,-700.97 727.07,-704.01 730.76,-707.38 753.44,-728.09 742.49,-747.54 766.76,-766.38 769.38,-768.42 772.2,-770.27 775.14,-771.95"/>
<polygon fill="black" stroke="black" points="773.76,-775.17 784.27,-776.49 776.88,-768.9 773.76,-775.17"/>
</g>
<!-- dining\nroom\nairport -->
<g id="node34" class="node">
<title>dining\nroom\nairport</title>
<ellipse fill="none" stroke="black" cx="1043.24" cy="-331.38" rx="37.46" ry="37.46"/>
<ellipse fill="none" stroke="black" cx="1043.24" cy="-331.38" rx="41.45" ry="41.45"/>
<text text-anchor="middle" x="1043.24" y="-342.68" font-family="Times,serif" font-size="14.00">dining</text>
<text text-anchor="middle" x="1043.24" y="-327.68" font-family="Times,serif" font-size="14.00">room</text>
<text text-anchor="middle" x="1043.24" y="-312.68" font-family="Times,serif" font-size="14.00">airport</text>
</g>
<!-- dining room switch&#45;&gt;dining\nroom\nairport -->
<g id="edge35" class="edge">
<title>dining room switch&#45;&gt;dining\nroom\nairport</title>
<path fill="none" stroke="black" d="M901.06,-323.68C929.87,-325.25 963.94,-327.11 991.39,-328.6"/>
<polygon fill="black" stroke="black" points="991.38,-332.11 1001.56,-329.16 991.77,-325.12 991.38,-332.11"/>
</g>
<!-- Dining room Chromebook -->
<g id="node41" class="node">
<title>Dining room Chromebook</title>
<ellipse fill="none" stroke="black" cx="1558.5" cy="-122.38" rx="105.08" ry="18"/>
<text text-anchor="middle" x="1558.5" y="-118.68" font-family="Times,serif" font-size="14.00">Dining room Chromebook</text>
</g>
<!-- dining room switch&#45;&gt;Dining room Chromebook -->
<g id="edge36" class="edge">
<title>dining room switch&#45;&gt;Dining room Chromebook</title>
<path fill="none" stroke="black" d="M855.76,-302.19C898.44,-252.77 1025.45,-116.46 1166.13,-68.38 1220.33,-49.85 1372.75,-42.61 1423.91,-68.38 1437.24,-75.1 1431.44,-87.15 1443.91,-95.38 1451.22,-100.2 1459.3,-104.17 1467.69,-107.43"/>
<polygon fill="black" stroke="black" points="1466.66,-110.78 1477.26,-110.82 1469,-104.18 1466.66,-110.78"/>
</g>
<!-- VoIP phone -->
<g id="node42" class="node">
<title>VoIP phone</title>
<ellipse fill="none" stroke="black" cx="1558.5" cy="-68.38" rx="51.99" ry="18"/>
<text text-anchor="middle" x="1558.5" y="-64.68" font-family="Times,serif" font-size="14.00">VoIP phone</text>
</g>
<!-- dining room switch&#45;&gt;VoIP phone -->
<g id="edge37" class="edge">
<title>dining room switch&#45;&gt;VoIP phone</title>
<path fill="none" stroke="black" d="M842.41,-302.35C848.28,-255.7 870.85,-130.69 948.35,-73.38 1120.68,54.08 1401.94,-17.14 1511.65,-52.35"/>
<polygon fill="black" stroke="black" points="1510.82,-55.76 1521.41,-55.53 1512.99,-49.1 1510.82,-55.76"/>
</g>
<!-- dining room desk switch -->
<g id="node30" class="node">
<title>dining room desk switch</title>
<polygon fill="none" stroke="black" points="1371.02,-349.38 1219.02,-349.38 1219.02,-313.38 1371.02,-313.38 1371.02,-349.38"/>
<text text-anchor="middle" x="1295.02" y="-327.68" font-family="Times,serif" font-size="14.00">dining room desk switch</text>
</g>
<!-- dining room canary 2 -->
<g id="node45" class="node">
<title>dining room canary 2</title>
<ellipse fill="none" stroke="black" cx="1558.5" cy="-338.38" rx="87.18" ry="18"/>
<text text-anchor="middle" x="1558.5" y="-334.68" font-family="Times,serif" font-size="14.00">dining room canary 2</text>
</g>
<!-- dining room desk switch&#45;&gt;dining room canary 2 -->
<g id="edge41" class="edge">
<title>dining room desk switch&#45;&gt;dining room canary 2</title>
<path fill="none" stroke="black" d="M1371.3,-333.39C1399.49,-334.15 1431.91,-335.02 1461.71,-335.81"/>
<polygon fill="black" stroke="black" points="1461.62,-339.31 1471.71,-336.08 1461.81,-332.32 1461.62,-339.31"/>
</g>
<!-- dining room desk laptop(s) -->
<g id="node46" class="node">
<title>dining room desk laptop(s)</title>
<ellipse fill="none" stroke="black" cx="1558.5" cy="-284.38" rx="106.68" ry="18"/>
<text text-anchor="middle" x="1558.5" y="-280.68" font-family="Times,serif" font-size="14.00">dining room desk laptop(s)</text>
</g>
<!-- dining room desk switch&#45;&gt;dining room desk laptop(s) -->
<g id="edge42" class="edge">
<title>dining room desk switch&#45;&gt;dining room desk laptop(s)</title>
<path fill="none" stroke="black" d="M1371.3,-317.85C1403.57,-312.05 1441.37,-305.25 1474.45,-299.31"/>
<polygon fill="black" stroke="black" points="1475.33,-302.7 1484.55,-297.49 1474.09,-295.81 1475.33,-302.7"/>
</g>
<!-- living room switch -->
<g id="node31" class="node">
<title>living room switch</title>
<polygon fill="none" stroke="black" points="1103.24,-754.38 983.24,-754.38 983.24,-718.38 1103.24,-718.38 1103.24,-754.38"/>
<text text-anchor="middle" x="1043.24" y="-732.68" font-family="Times,serif" font-size="14.00">living room switch</text>
</g>
<!-- FireTV -->
<g id="node47" class="node">
<title>FireTV</title>
<ellipse fill="none" stroke="black" cx="1295.02" cy="-796.38" rx="36.29" ry="18"/>
<text text-anchor="middle" x="1295.02" y="-792.68" font-family="Times,serif" font-size="14.00">FireTV</text>
</g>
<!-- living room switch&#45;&gt;FireTV -->
<g id="edge45" class="edge">
<title>living room switch&#45;&gt;FireTV</title>
<path fill="none" stroke="black" d="M1103.4,-747.39C1117.52,-750.51 1132.46,-754.2 1146.13,-758.38 1155.28,-761.18 1157,-763.5 1166.13,-766.38 1193.94,-775.15 1225.88,-782.64 1250.88,-787.95"/>
<polygon fill="black" stroke="black" points="1250.29,-791.4 1260.79,-790.01 1251.72,-784.55 1250.29,-791.4"/>
</g>
<!-- AppleTV -->
<g id="node48" class="node">
<title>AppleTV</title>
<ellipse fill="none" stroke="black" cx="1558.5" cy="-796.38" rx="44.39" ry="18"/>
<text text-anchor="middle" x="1558.5" y="-792.68" font-family="Times,serif" font-size="14.00">AppleTV</text>
</g>
<!-- living room switch&#45;&gt;AppleTV -->
<g id="edge46" class="edge">
<title>living room switch&#45;&gt;AppleTV</title>
<path fill="none" stroke="black" d="M1103.33,-737.28C1119.18,-740.4 1134.98,-746.63 1146.13,-758.38 1184.55,-798.88 1123.63,-846.18 1166.13,-882.38 1187.93,-900.95 1396.43,-890.46 1423.91,-882.38 1465.46,-870.16 1506.29,-840.58 1531.66,-819.53"/>
<polygon fill="black" stroke="black" points="1533.96,-822.16 1539.33,-813.03 1529.44,-816.82 1533.96,-822.16"/>
</g>
<!-- Roku -->
<g id="node49" class="node">
<title>Roku</title>
<ellipse fill="none" stroke="black" cx="1730.99" cy="-796.38" rx="29.8" ry="18"/>
<text text-anchor="middle" x="1730.99" y="-792.68" font-family="Times,serif" font-size="14.00">Roku</text>
</g>
<!-- living room switch&#45;&gt;Roku -->
<g id="edge47" class="edge">
<title>living room switch&#45;&gt;Roku</title>
<path fill="none" stroke="black" d="M1103.42,-737.2C1119.27,-740.32 1135.05,-746.56 1146.13,-758.38 1187.31,-802.31 1120.52,-853.07 1166.13,-892.38 1252.25,-966.6 1566.55,-863.07 1673.09,-823.38 1681.56,-820.22 1690.49,-816.29 1698.7,-812.41"/>
<polygon fill="black" stroke="black" points="1700.47,-815.44 1707.94,-807.93 1697.42,-809.15 1700.47,-815.44"/>
</g>
<!-- Windwos 10 -->
<g id="node50" class="node">
<title>Windwos 10</title>
<ellipse fill="none" stroke="black" cx="1852.78" cy="-796.38" rx="55.79" ry="18"/>
<text text-anchor="middle" x="1852.78" y="-792.68" font-family="Times,serif" font-size="14.00">Windwos 10</text>
</g>
<!-- living room switch&#45;&gt;Windwos 10 -->
<g id="edge48" class="edge">
<title>living room switch&#45;&gt;Windwos 10</title>
<path fill="none" stroke="black" d="M1103.28,-737.02C1119.22,-740.12 1135.09,-746.4 1146.13,-758.38 1192.3,-808.49 1114.9,-865.45 1166.13,-910.38 1360.7,-1081.03 1710.49,-885.73 1818.86,-817.88"/>
<polygon fill="black" stroke="black" points="1820.84,-820.77 1827.42,-812.47 1817.1,-814.85 1820.84,-820.77"/>
</g>
<!-- sub living room switch&#45;&gt;living room switch -->
<g id="edge43" class="edge">
<title>sub living room switch&#45;&gt;living room switch</title>
<path fill="none" stroke="black" d="M911.09,-735.08C931.12,-735.28 952.9,-735.49 972.85,-735.69"/>
<polygon fill="black" stroke="black" points="973.07,-739.19 983.1,-735.79 973.14,-732.19 973.07,-739.19"/>
</g>
<!-- living\nroom\nairport -->
<g id="node33" class="node">
<title>living\nroom\nairport</title>
<ellipse fill="none" stroke="black" cx="1043.24" cy="-659.38" rx="37.46" ry="37.46"/>
<ellipse fill="none" stroke="black" cx="1043.24" cy="-659.38" rx="41.45" ry="41.45"/>
<text text-anchor="middle" x="1043.24" y="-670.68" font-family="Times,serif" font-size="14.00">living</text>
<text text-anchor="middle" x="1043.24" y="-655.68" font-family="Times,serif" font-size="14.00">room</text>
<text text-anchor="middle" x="1043.24" y="-640.68" font-family="Times,serif" font-size="14.00">airport</text>
</g>
<!-- sub living room switch&#45;&gt;living\nroom\nairport -->
<g id="edge44" class="edge">
<title>sub living room switch&#45;&gt;living\nroom\nairport</title>
<path fill="none" stroke="black" d="M889.12,-716.32C921.12,-704.42 962.84,-688.9 994.65,-677.07"/>
<polygon fill="black" stroke="black" points="996.03,-680.3 1004.18,-673.53 993.59,-673.74 996.03,-680.3"/>
</g>
<!-- dining\nroom\nairport&#45;&gt;dining room desk switch -->
<g id="edge38" class="edge">
<title>dining\nroom\nairport&#45;&gt;dining room desk switch</title>
<path fill="none" stroke="black" d="M1084.92,-331.38C1118.32,-331.38 1166.75,-331.38 1208.6,-331.38"/>
<polygon fill="black" stroke="black" points="1208.8,-334.88 1218.8,-331.38 1208.8,-327.88 1208.8,-334.88"/>
</g>
<!-- dining room canary 1 -->
<g id="node43" class="node">
<title>dining room canary 1</title>
<ellipse fill="none" stroke="black" cx="1558.5" cy="-176.38" rx="87.18" ry="18"/>
<text text-anchor="middle" x="1558.5" y="-172.68" font-family="Times,serif" font-size="14.00">dining room canary 1</text>
</g>
<!-- dining\nroom\nairport&#45;&gt;dining room canary 1 -->
<g id="edge39" class="edge">
<title>dining\nroom\nairport&#45;&gt;dining room canary 1</title>
<path fill="none" stroke="black" d="M1051.71,-290.73C1064.36,-235.1 1095.83,-137.28 1166.13,-94.38 1215.03,-64.54 1376.99,-61.51 1423.91,-94.38 1445.21,-109.3 1424.49,-132.08 1443.91,-149.38 1451.46,-156.1 1460.38,-161.23 1469.84,-165.13"/>
<polygon fill="black" stroke="black" points="1468.87,-168.5 1479.47,-168.64 1471.27,-161.93 1468.87,-168.5"/>
</g>
<!-- nest mini -->
<g id="node44" class="node">
<title>nest mini</title>
<ellipse fill="none" stroke="black" cx="1558.5" cy="-230.38" rx="44.39" ry="18"/>
<text text-anchor="middle" x="1558.5" y="-226.68" font-family="Times,serif" font-size="14.00">nest mini</text>
</g>
<!-- dining\nroom\nairport&#45;&gt;nest mini -->
<g id="edge40" class="edge">
<title>dining\nroom\nairport&#45;&gt;nest mini</title>
<path fill="none" stroke="black" d="M1053.29,-290.71C1067.39,-238.32 1100.1,-149.37 1166.13,-110.38 1190.79,-95.82 1401.63,-92.38 1423.91,-110.38 1456.8,-136.95 1414.34,-173.16 1443.91,-203.38 1459.51,-219.32 1482.7,-226.55 1504.06,-229.6"/>
<polygon fill="black" stroke="black" points="1503.7,-233.09 1514.03,-230.76 1504.5,-226.13 1503.7,-233.09"/>
</g>
<!-- upstairs\nbedroom\nairport -->
<g id="node35" class="node">
<title>upstairs\nbedroom\nairport</title>
<ellipse fill="none" stroke="black" cx="1043.24" cy="-440.38" rx="45.93" ry="45.93"/>
<ellipse fill="none" stroke="black" cx="1043.24" cy="-440.38" rx="49.92" ry="49.92"/>
<text text-anchor="middle" x="1043.24" y="-451.68" font-family="Times,serif" font-size="14.00">upstairs</text>
<text text-anchor="middle" x="1043.24" y="-436.68" font-family="Times,serif" font-size="14.00">bedroom</text>
<text text-anchor="middle" x="1043.24" y="-421.68" font-family="Times,serif" font-size="14.00">airport</text>
</g>
<!-- upstairs bedroom Chromebook -->
<g id="node52" class="node">
<title>upstairs bedroom Chromebook</title>
<ellipse fill="none" stroke="black" cx="1295.02" cy="-194.38" rx="120.78" ry="18"/>
<text text-anchor="middle" x="1295.02" y="-190.68" font-family="Times,serif" font-size="14.00">upstairs bedroom Chromebook</text>
</g>
<!-- upstairs\nbedroom\nairport&#45;&gt;upstairs bedroom Chromebook -->
<g id="edge50" class="edge">
<title>upstairs\nbedroom\nairport&#45;&gt;upstairs bedroom Chromebook</title>
<path fill="none" stroke="black" d="M1090.84,-424.36C1111.07,-414.99 1133.09,-401.06 1146.13,-381.38 1185.71,-321.64 1117.62,-274.13 1166.13,-221.38 1170.82,-216.27 1176.22,-212 1182.09,-208.44"/>
<polygon fill="black" stroke="black" points="1183.8,-211.49 1190.99,-203.71 1180.52,-205.31 1183.8,-211.49"/>
</g>
<!-- FireTV DVR -->
<g id="node53" class="node">
<title>FireTV DVR</title>
<ellipse fill="none" stroke="black" cx="1295.02" cy="-140.38" rx="57.69" ry="18"/>
<text text-anchor="middle" x="1295.02" y="-136.68" font-family="Times,serif" font-size="14.00">FireTV DVR</text>
</g>
<!-- upstairs\nbedroom\nairport&#45;&gt;FireTV DVR -->
<g id="edge51" class="edge">
<title>upstairs\nbedroom\nairport&#45;&gt;FireTV DVR</title>
<path fill="none" stroke="black" d="M1090.85,-424.66C1111.22,-415.33 1133.34,-401.35 1146.13,-381.38 1171.89,-341.16 1134.35,-203.03 1166.13,-167.38 1181.52,-150.11 1204.92,-142.31 1227.52,-139.18"/>
<polygon fill="black" stroke="black" points="1227.92,-142.66 1237.47,-138.08 1227.15,-135.7 1227.92,-142.66"/>
</g>
<!-- Hue Hub -->
<g id="node54" class="node">
<title>Hue Hub</title>
<ellipse fill="none" stroke="black" cx="1295.02" cy="-248.38" rx="42.79" ry="18"/>
<text text-anchor="middle" x="1295.02" y="-244.68" font-family="Times,serif" font-size="14.00">Hue Hub</text>
</g>
<!-- upstairs\nbedroom\nairport&#45;&gt;Hue Hub -->
<g id="edge52" class="edge">
<title>upstairs\nbedroom\nairport&#45;&gt;Hue Hub</title>
<path fill="none" stroke="black" d="M1090.51,-423.83C1110.55,-414.38 1132.49,-400.53 1146.13,-381.38 1173.18,-343.39 1133.8,-311.98 1166.13,-278.38 1185.53,-258.21 1215.72,-250.48 1241.89,-247.91"/>
<polygon fill="black" stroke="black" points="1242.36,-251.38 1252.07,-247.13 1241.83,-244.4 1242.36,-251.38"/>
</g>
<!-- upstairs\noffice\nairport -->
<g id="node36" class="node">
<title>upstairs\noffice\nairport</title>
<ellipse fill="none" stroke="black" cx="1043.24" cy="-554.38" rx="41.92" ry="41.92"/>
<ellipse fill="none" stroke="black" cx="1043.24" cy="-554.38" rx="45.94" ry="45.94"/>
<text text-anchor="middle" x="1043.24" y="-565.68" font-family="Times,serif" font-size="14.00">upstairs</text>
<text text-anchor="middle" x="1043.24" y="-550.68" font-family="Times,serif" font-size="14.00">office</text>
<text text-anchor="middle" x="1043.24" y="-535.68" font-family="Times,serif" font-size="14.00">airport</text>
</g>
<!-- upstairs office laptop -->
<g id="node51" class="node">
<title>upstairs office laptop</title>
<ellipse fill="none" stroke="black" cx="1295.02" cy="-850.38" rx="85.29" ry="18"/>
<text text-anchor="middle" x="1295.02" y="-846.68" font-family="Times,serif" font-size="14.00">upstairs office laptop</text>
</g>
<!-- upstairs\noffice\nairport&#45;&gt;upstairs office laptop -->
<g id="edge49" class="edge">
<title>upstairs\noffice\nairport&#45;&gt;upstairs office laptop</title>
<path fill="none" stroke="black" d="M1087.39,-566.89C1108.64,-575.36 1132.55,-588.83 1146.13,-609.38 1172.82,-649.78 1133.53,-790.57 1166.13,-826.38 1175.22,-836.36 1187.03,-842.99 1199.81,-847.29"/>
<polygon fill="black" stroke="black" points="1199.16,-850.74 1209.73,-850.14 1201.09,-844.02 1199.16,-850.74"/>
</g>
<!-- homeplug&#45;&gt;upstairs\nbedroom\nairport -->
<g id="edge26" class="edge">
<title>homeplug&#45;&gt;upstairs\nbedroom\nairport</title>
<path fill="none" stroke="black" d="M853.92,-600.01C873.13,-575.72 910.44,-531.04 948.35,-499.38 961.19,-488.65 976.15,-478.4 990.29,-469.54"/>
<polygon fill="black" stroke="black" points="992.28,-472.43 998.97,-464.22 988.61,-466.47 992.28,-472.43"/>
</g>
<!-- homeplug&#45;&gt;upstairs\noffice\nairport -->
<g id="edge27" class="edge">
<title>homeplug&#45;&gt;upstairs\noffice\nairport</title>
<path fill="none" stroke="black" d="M876.15,-606.26C907.57,-596.44 953.81,-582 989.52,-570.84"/>
<polygon fill="black" stroke="black" points="990.79,-574.11 999.3,-567.79 988.71,-567.43 990.79,-574.11"/>
</g>
<!-- kitchen canary -->
<g id="node38" class="node">
<title>kitchen canary</title>
<ellipse fill="none" stroke="black" cx="1043.24" cy="-790.38" rx="62.29" ry="18"/>
<text text-anchor="middle" x="1043.24" y="-786.68" font-family="Times,serif" font-size="14.00">kitchen canary</text>
</g>
<!-- homeplug&#45;&gt;kitchen canary -->
<g id="edge29" class="edge">
<title>homeplug&#45;&gt;kitchen canary</title>
<path fill="none" stroke="black" d="M855.25,-634.47C870.26,-652.21 893.9,-681.01 912.35,-707.38 929.96,-732.55 923.64,-748.12 948.35,-766.38 956.46,-772.38 965.93,-776.89 975.68,-780.27"/>
<polygon fill="black" stroke="black" points="974.88,-783.69 985.47,-783.29 976.95,-777 974.88,-783.69"/>
</g>
<!-- FireTV&#45;&gt;AppleTV -->
<!-- AppleTV&#45;&gt;Roku -->
<!-- Roku&#45;&gt;Windwos 10 -->
</g>
</svg>
