<?xml version="1.0" encoding="UTF-8" standalone="no"?>
<!DOCTYPE svg PUBLIC "-//W3C//DTD SVG 1.1//EN"
 "http://www.w3.org/Graphics/SVG/1.1/DTD/svg11.dtd">
<!-- Generated by graphviz version 2.44.1 (20200629.0846)
 -->
<!-- Title: G Pages: 1 -->
<svg width="100pt" height="548pt"
 viewBox="0.00 0.00 100.29 548.00" xmlns="http://www.w3.org/2000/svg" xmlns:xlink="http://www.w3.org/1999/xlink">
<g id="graph0" class="graph" transform="scale(1 1) rotate(0) translate(4 544)">
<title>G</title>
<polygon fill="white" stroke="transparent" points="-4,4 -4,-544 96.29,-544 96.29,4 -4,4"/>
<!-- me -->
<g id="node1" class="node">
<title>me</title>
<ellipse fill="blue" stroke="blue" cx="46.15" cy="-18" rx="46.29" ry="18"/>
<text text-anchor="middle" x="46.15" y="-14.3" font-family="Times,serif" font-size="14.00" fill="white">Curt (me)</text>
</g>
<!-- Alex -->
<g id="node2" class="node">
<title>Alex</title>
<ellipse fill="none" stroke="black" cx="46.15" cy="-90" rx="27.9" ry="18"/>
<text text-anchor="middle" x="46.15" y="-86.3" font-family="Times,serif" font-size="14.00">Alex</text>
</g>
<!-- me&#45;&gt;Alex -->
<g id="edge1" class="edge">
<title>me&#45;&gt;Alex</title>
<path fill="none" stroke="black" d="M46.15,-36.3C46.15,-44.02 46.15,-53.29 46.15,-61.89"/>
<polygon fill="black" stroke="black" points="42.65,-61.9 46.15,-71.9 49.65,-61.9 42.65,-61.9"/>
</g>
<!-- Eric -->
<g id="node3" class="node">
<title>Eric</title>
<ellipse fill="none" stroke="black" cx="46.15" cy="-162" rx="27" ry="18"/>
<text text-anchor="middle" x="46.15" y="-158.3" font-family="Times,serif" font-size="14.00">Eric</text>
</g>
<!-- Alex&#45;&gt;Eric -->
<g id="edge2" class="edge">
<title>Alex&#45;&gt;Eric</title>
<path fill="none" stroke="black" d="M46.15,-108.3C46.15,-116.02 46.15,-125.29 46.15,-133.89"/>
<polygon fill="black" stroke="black" points="42.65,-133.9 46.15,-143.9 49.65,-133.9 42.65,-133.9"/>
</g>
<!-- Nick -->
<g id="node4" class="node">
<title>Nick</title>
<ellipse fill="none" stroke="black" cx="46.15" cy="-234" rx="27.9" ry="18"/>
<text text-anchor="middle" x="46.15" y="-230.3" font-family="Times,serif" font-size="14.00">Nick</text>
</g>
<!-- Eric&#45;&gt;Nick -->
<g id="edge3" class="edge">
<title>Eric&#45;&gt;Nick</title>
<path fill="none" stroke="black" d="M46.15,-180.3C46.15,-188.02 46.15,-197.29 46.15,-205.89"/>
<polygon fill="black" stroke="black" points="42.65,-205.9 46.15,-215.9 49.65,-205.9 42.65,-205.9"/>
</g>
<!-- Ben -->
<g id="node5" class="node">
<title>Ben</title>
<ellipse fill="none" stroke="black" cx="46.15" cy="-306" rx="27" ry="18"/>
<text text-anchor="middle" x="46.15" y="-302.3" font-family="Times,serif" font-size="14.00">Ben</text>
</g>
<!-- Nick&#45;&gt;Ben -->
<g id="edge4" class="edge">
<title>Nick&#45;&gt;Ben</title>
<path fill="none" stroke="black" d="M46.15,-252.3C46.15,-260.02 46.15,-269.29 46.15,-277.89"/>
<polygon fill="black" stroke="black" points="42.65,-277.9 46.15,-287.9 49.65,-277.9 42.65,-277.9"/>
</g>
<!-- Nate -->
<g id="node6" class="node">
<title>Nate</title>
<ellipse fill="none" stroke="black" cx="46.15" cy="-378" rx="27.1" ry="18"/>
<text text-anchor="middle" x="46.15" y="-374.3" font-family="Times,serif" font-size="14.00">Nate</text>
</g>
<!-- Ben&#45;&gt;Nate -->
<g id="edge5" class="edge">
<title>Ben&#45;&gt;Nate</title>
<path fill="none" stroke="black" d="M46.15,-324.3C46.15,-332.02 46.15,-341.29 46.15,-349.89"/>
<polygon fill="black" stroke="black" points="42.65,-349.9 46.15,-359.9 49.65,-349.9 42.65,-349.9"/>
</g>
<!-- Mike -->
<g id="node7" class="node">
<title>Mike</title>
<ellipse fill="none" stroke="black" cx="46.15" cy="-450" rx="29.8" ry="18"/>
<text text-anchor="middle" x="46.15" y="-446.3" font-family="Times,serif" font-size="14.00">Mike</text>
</g>
<!-- Nate&#45;&gt;Mike -->
<g id="edge6" class="edge">
<title>Nate&#45;&gt;Mike</title>
<path fill="none" stroke="black" d="M46.15,-396.3C46.15,-404.02 46.15,-413.29 46.15,-421.89"/>
<polygon fill="black" stroke="black" points="42.65,-421.9 46.15,-431.9 49.65,-421.9 42.65,-421.9"/>
</g>
<!-- Jim -->
<g id="node8" class="node">
<title>Jim</title>
<ellipse fill="none" stroke="black" cx="46.15" cy="-522" rx="27" ry="18"/>
<text text-anchor="middle" x="46.15" y="-518.3" font-family="Times,serif" font-size="14.00">Jim</text>
</g>
<!-- Mike&#45;&gt;Jim -->
<g id="edge7" class="edge">
<title>Mike&#45;&gt;Jim</title>
<path fill="none" stroke="black" d="M46.15,-468.3C46.15,-476.02 46.15,-485.29 46.15,-493.89"/>
<polygon fill="black" stroke="black" points="42.65,-493.9 46.15,-503.9 49.65,-493.9 42.65,-493.9"/>
</g>
</g>
</svg>
