<?xml version="1.0" encoding="UTF-8" standalone="no"?>
<!DOCTYPE svg PUBLIC "-//W3C//DTD SVG 1.1//EN"
 "http://www.w3.org/Graphics/SVG/1.1/DTD/svg11.dtd">
<!-- Generated by graphviz version 2.44.1 (20200629.0846)
 -->
<!-- Title: G Pages: 1 -->
<svg width="459pt" height="420pt"
 viewBox="0.00 0.00 459.00 420.00" xmlns="http://www.w3.org/2000/svg" xmlns:xlink="http://www.w3.org/1999/xlink">
<g id="graph0" class="graph" transform="scale(1 1) rotate(0) translate(4 416)">
<title>G</title>
<polygon fill="white" stroke="transparent" points="-4,4 -4,-416 455,-416 455,4 -4,4"/>
<g id="clust1" class="cluster">
<title>cluster3</title>
<polygon fill="none" stroke="black" points="108,-8 108,-132 228,-132 228,-8 108,-8"/>
</g>
<g id="clust2" class="cluster">
<title>cluster1</title>
<polygon fill="none" stroke="black" points="177,-152 177,-276 443,-276 443,-152 177,-152"/>
</g>
<g id="clust3" class="cluster">
<title>cluster2</title>
<polygon fill="none" stroke="black" points="72,-224 72,-348 168,-348 168,-224 72,-224"/>
</g>
<g id="clust4" class="cluster">
<title>cluster0</title>
<polygon fill="none" stroke="black" points="8,-8 8,-204 100,-204 100,-8 8,-8"/>
</g>
<!-- Server -->
<g id="node1" class="node">
<title>Server</title>
<ellipse fill="none" stroke="black" cx="120" cy="-394" rx="33.6" ry="18"/>
<text text-anchor="middle" x="120" y="-390.3" font-family="Times,serif" font-size="14.00">Server</text>
</g>
<!-- routes -->
<g id="node2" class="node">
<title>routes</title>
<ellipse fill="none" stroke="black" cx="120" cy="-322" rx="32.49" ry="18"/>
<text text-anchor="middle" x="120" y="-318.3" font-family="Times,serif" font-size="14.00">routes</text>
</g>
<!-- Server&#45;&gt;routes -->
<g id="edge1" class="edge">
<title>Server&#45;&gt;routes</title>
<path fill="none" stroke="black" d="M120,-375.7C120,-367.98 120,-358.71 120,-350.11"/>
<polygon fill="black" stroke="black" points="123.5,-350.1 120,-340.1 116.5,-350.1 123.5,-350.1"/>
</g>
<!-- gateway -->
<g id="node3" class="node">
<title>gateway</title>
<ellipse fill="none" stroke="black" cx="120" cy="-250" rx="40.09" ry="18"/>
<text text-anchor="middle" x="120" y="-246.3" font-family="Times,serif" font-size="14.00">gateway</text>
</g>
<!-- routes&#45;&gt;gateway -->
<g id="edge11" class="edge">
<title>routes&#45;&gt;gateway</title>
<path fill="none" stroke="black" d="M114.12,-304.05C113.3,-296.35 113.06,-287.03 113.39,-278.36"/>
<polygon fill="black" stroke="black" points="116.89,-278.49 114.09,-268.28 109.91,-278.01 116.89,-278.49"/>
</g>
<!-- meraki -->
<g id="node5" class="node">
<title>meraki</title>
<ellipse fill="none" stroke="black" cx="55" cy="-178" rx="36" ry="18"/>
<text text-anchor="middle" x="55" y="-174.3" font-family="Times,serif" font-size="14.00">meraki</text>
</g>
<!-- routes&#45;&gt;meraki -->
<g id="edge6" class="edge">
<title>routes&#45;&gt;meraki</title>
<path fill="none" stroke="black" d="M99.79,-307.49C89.52,-299.55 77.81,-288.6 71,-276 59.37,-254.49 55.75,-226.68 54.81,-206.36"/>
<polygon fill="black" stroke="black" points="58.3,-206.1 54.53,-196.2 51.31,-206.29 58.3,-206.1"/>
</g>
<!-- domain -->
<g id="node6" class="node">
<title>domain</title>
<ellipse fill="none" stroke="black" cx="223" cy="-250" rx="37.89" ry="18"/>
<text text-anchor="middle" x="223" y="-246.3" font-family="Times,serif" font-size="14.00">domain</text>
</g>
<!-- routes&#45;&gt;domain -->
<g id="edge7" class="edge">
<title>routes&#45;&gt;domain</title>
<path fill="none" stroke="black" d="M139.86,-307.5C155.09,-297.15 176.36,-282.7 193.56,-271"/>
<polygon fill="black" stroke="black" points="195.84,-273.69 202.14,-265.18 191.9,-267.9 195.84,-273.69"/>
</g>
<!-- gateway&#45;&gt;routes -->
<g id="edge12" class="edge">
<title>gateway&#45;&gt;routes</title>
<path fill="none" stroke="black" d="M125.91,-268.28C126.71,-276.03 126.94,-285.36 126.59,-294.01"/>
<polygon fill="black" stroke="black" points="123.09,-293.83 125.88,-304.05 130.08,-294.33 123.09,-293.83"/>
</g>
<!-- json -->
<g id="node4" class="node">
<title>json</title>
<ellipse fill="none" stroke="black" cx="150" cy="-106" rx="27" ry="18"/>
<text text-anchor="middle" x="150" y="-102.3" font-family="Times,serif" font-size="14.00">json</text>
</g>
<!-- gateway&#45;&gt;json -->
<g id="edge2" class="edge">
<title>gateway&#45;&gt;json</title>
<path fill="none" stroke="black" d="M123.62,-231.87C128.75,-207.56 138.21,-162.82 144.29,-134.01"/>
<polygon fill="black" stroke="black" points="147.73,-134.7 146.37,-124.19 140.88,-133.25 147.73,-134.7"/>
</g>
<!-- gateway&#45;&gt;meraki -->
<g id="edge3" class="edge">
<title>gateway&#45;&gt;meraki</title>
<path fill="none" stroke="black" d="M105.25,-233.12C96.77,-223.99 85.97,-212.36 76.56,-202.22"/>
<polygon fill="black" stroke="black" points="79.06,-199.77 69.69,-194.82 73.93,-204.53 79.06,-199.77"/>
</g>
<!-- groovy.json -->
<g id="node7" class="node">
<title>groovy.json</title>
<ellipse fill="none" stroke="black" cx="168" cy="-34" rx="51.99" ry="18"/>
<text text-anchor="middle" x="168" y="-30.3" font-family="Times,serif" font-size="14.00">groovy.json</text>
</g>
<!-- json&#45;&gt;groovy.json -->
<g id="edge8" class="edge">
<title>json&#45;&gt;groovy.json</title>
<path fill="none" stroke="black" d="M154.36,-88.05C156.36,-80.26 158.79,-70.82 161.04,-62.08"/>
<polygon fill="black" stroke="black" points="164.46,-62.83 163.56,-52.28 157.68,-61.09 164.46,-62.83"/>
</g>
<!-- meraki&#45;&gt;json -->
<g id="edge13" class="edge">
<title>meraki&#45;&gt;json</title>
<path fill="none" stroke="black" d="M74.68,-162.5C89.08,-151.89 108.75,-137.4 124.37,-125.88"/>
<polygon fill="black" stroke="black" points="126.6,-128.59 132.58,-119.84 122.45,-122.95 126.6,-128.59"/>
</g>
<!-- http -->
<g id="node10" class="node">
<title>http</title>
<ellipse fill="none" stroke="black" cx="54" cy="-106" rx="27" ry="18"/>
<text text-anchor="middle" x="54" y="-102.3" font-family="Times,serif" font-size="14.00">http</text>
</g>
<!-- meraki&#45;&gt;http -->
<g id="edge14" class="edge">
<title>meraki&#45;&gt;http</title>
<path fill="none" stroke="black" d="M54.75,-159.7C54.64,-151.98 54.51,-142.71 54.39,-134.11"/>
<polygon fill="black" stroke="black" points="57.89,-134.05 54.24,-124.1 50.89,-134.15 57.89,-134.05"/>
</g>
<!-- domain&#45;&gt;json -->
<g id="edge4" class="edge">
<title>domain&#45;&gt;json</title>
<path fill="none" stroke="black" d="M203.15,-234.27C193.66,-226.28 182.91,-215.67 176,-204 163.28,-182.51 156.65,-154.69 153.28,-134.37"/>
<polygon fill="black" stroke="black" points="156.71,-133.58 151.77,-124.21 149.78,-134.62 156.71,-133.58"/>
</g>
<!-- domain&#45;&gt;meraki -->
<g id="edge5" class="edge">
<title>domain&#45;&gt;meraki</title>
<path fill="none" stroke="black" d="M198.3,-236.35C190.02,-232.25 180.68,-227.79 172,-224 145.99,-212.65 116.13,-201.19 93.09,-192.68"/>
<polygon fill="black" stroke="black" points="94.25,-189.37 83.66,-189.22 91.84,-195.95 94.25,-189.37"/>
</g>
<!-- java.time -->
<g id="node8" class="node">
<title>java.time</title>
<ellipse fill="none" stroke="black" cx="229" cy="-178" rx="44.39" ry="18"/>
<text text-anchor="middle" x="229" y="-174.3" font-family="Times,serif" font-size="14.00">java.time</text>
</g>
<!-- domain&#45;&gt;java.time -->
<g id="edge9" class="edge">
<title>domain&#45;&gt;java.time</title>
<path fill="none" stroke="black" d="M224.48,-231.7C225.14,-223.98 225.94,-214.71 226.68,-206.11"/>
<polygon fill="black" stroke="black" points="230.17,-206.37 227.53,-196.1 223.19,-205.77 230.17,-206.37"/>
</g>
<!-- groovy.transform -->
<g id="node9" class="node">
<title>groovy.transform</title>
<ellipse fill="none" stroke="black" cx="363" cy="-178" rx="72.29" ry="18"/>
<text text-anchor="middle" x="363" y="-174.3" font-family="Times,serif" font-size="14.00">groovy.transform</text>
</g>
<!-- domain&#45;&gt;groovy.transform -->
<g id="edge10" class="edge">
<title>domain&#45;&gt;groovy.transform</title>
<path fill="none" stroke="black" d="M248.03,-236.49C268.95,-226.02 299.17,-210.92 323.37,-198.81"/>
<polygon fill="black" stroke="black" points="324.95,-201.94 332.33,-194.34 321.82,-195.68 324.95,-201.94"/>
</g>
<!-- java.net -->
<g id="node11" class="node">
<title>java.net</title>
<ellipse fill="none" stroke="black" cx="54" cy="-34" rx="38.19" ry="18"/>
<text text-anchor="middle" x="54" y="-30.3" font-family="Times,serif" font-size="14.00">java.net</text>
</g>
<!-- http&#45;&gt;java.net -->
<g id="edge15" class="edge">
<title>http&#45;&gt;java.net</title>
<path fill="none" stroke="black" d="M54,-87.7C54,-79.98 54,-70.71 54,-62.11"/>
<polygon fill="black" stroke="black" points="57.5,-62.1 54,-52.1 50.5,-62.1 57.5,-62.1"/>
</g>
</g>
</svg>
