<?xml version="1.0" encoding="UTF-8" standalone="no"?>
<!DOCTYPE svg PUBLIC "-//W3C//DTD SVG 1.1//EN"
 "http://www.w3.org/Graphics/SVG/1.1/DTD/svg11.dtd">
<!-- Generated by graphviz version 2.44.1 (20200629.0846)
 -->
<!-- Title: G Pages: 1 -->
<svg width="1688pt" height="587pt"
 viewBox="0.00 0.00 1687.58 587.00" xmlns="http://www.w3.org/2000/svg" xmlns:xlink="http://www.w3.org/1999/xlink">
<g id="graph0" class="graph" transform="scale(1 1) rotate(0) translate(4 583)">
<title>G</title>
<polygon fill="white" stroke="transparent" points="-4,4 -4,-583 1683.58,-583 1683.58,4 -4,4"/>
<g id="clust1" class="cluster">
<title>cluster_1</title>
<polygon fill="lightgray" stroke="lightgray" points="199.58,-260.5 199.58,-359.5 1314.58,-359.5 1314.58,-260.5 199.58,-260.5"/>
<text text-anchor="middle" x="757.08" y="-331.5" font-family="Times,serif" font-size="30.00">Pipeline</text>
</g>
<!-- imports -->
<g id="node1" class="node">
<title>imports</title>
<g id="a_node1"><a xlink:href="https://explainshell.com/explain?cmd=grep+-riI+import+." xlink:title="grep &#45;riI import .">
<text text-anchor="middle" x="316.08" y="-282" font-family="Times,serif" font-size="30.00">grep &#45;riI import .</text>
</a>
</g>
</g>
<!-- no_tests -->
<g id="node2" class="node">
<title>no_tests</title>
<text text-anchor="middle" x="570.08" y="-282" font-family="Times,serif" font-size="30.00">grep &#45;v &quot;[T|t]est&quot;</text>
</g>
<!-- imports&#45;&gt;no_tests -->
<g id="edge1" class="edge">
<title>imports&#45;&gt;no_tests</title>
<path fill="none" stroke="black" d="M424.69,-289.5C433.06,-289.5 441.54,-289.5 449.97,-289.5"/>
<polygon fill="black" stroke="black" points="450.24,-293 460.24,-289.5 450.24,-286 450.24,-293"/>
</g>
<!-- no_folder -->
<g id="node3" class="node">
<title>no_folder</title>
<g id="a_node3"><a xlink:href="https://explainshell.com/explain?cmd=sed+%27s%7C.%2Fgroovy%2F%7C%7C%27" xlink:title="sed &#39;s|./groovy/||&#39;">
<text text-anchor="middle" x="822.58" y="-282" font-family="Times,serif" font-size="30.00">sed &#39;s|./groovy/||&#39;</text>
</a>
</g>
</g>
<!-- no_tests&#45;&gt;no_folder -->
<g id="edge2" class="edge">
<title>no_tests&#45;&gt;no_folder</title>
<path fill="none" stroke="black" d="M679.86,-289.5C688.22,-289.5 696.67,-289.5 705.07,-289.5"/>
<polygon fill="black" stroke="black" points="705.29,-293 715.29,-289.5 705.29,-286 705.29,-293"/>
</g>
<!-- arrow -->
<g id="node4" class="node">
<title>arrow</title>
<text text-anchor="middle" x="1136.08" y="-282" font-family="Times,serif" font-size="30.00">sed &#39;s/.groovy:import / &#45;&gt; /&#39;</text>
</g>
<!-- no_folder&#45;&gt;arrow -->
<g id="edge3" class="edge">
<title>no_folder&#45;&gt;arrow</title>
<path fill="none" stroke="black" d="M929.91,-289.5C938.21,-289.5 946.72,-289.5 955.32,-289.5"/>
<polygon fill="black" stroke="black" points="955.47,-293 965.47,-289.5 955.47,-286 955.47,-293"/>
</g>
<!-- all_imports -->
<g id="node9" class="node">
<title>all_imports</title>
<text text-anchor="middle" x="1511.08" y="-547.8" font-family="Times,serif" font-size="14.00">Server &#45;&gt; server.*</text>
<text text-anchor="middle" x="1511.08" y="-532.8" font-family="Times,serif" font-size="14.00">Server &#45;&gt; routes.*</text>
<text text-anchor="middle" x="1511.08" y="-517.8" font-family="Times,serif" font-size="14.00">server/JettyLauncher &#45;&gt; org.eclipse.jetty.server.*</text>
<text text-anchor="middle" x="1511.08" y="-502.8" font-family="Times,serif" font-size="14.00">server/JettyLauncher &#45;&gt; org.eclipse.jetty.servlet.*</text>
<text text-anchor="middle" x="1511.08" y="-487.8" font-family="Times,serif" font-size="14.00">server/JettyLauncher &#45;&gt; javax.servlet.http.*</text>
<text text-anchor="middle" x="1511.08" y="-472.8" font-family="Times,serif" font-size="14.00">server/JettyLauncher &#45;&gt; javax.servlet.*</text>
<text text-anchor="middle" x="1511.08" y="-457.8" font-family="Times,serif" font-size="14.00">server/GroovyServletAdapter &#45;&gt; groovy.servlet.*</text>
<text text-anchor="middle" x="1511.08" y="-442.8" font-family="Times,serif" font-size="14.00">server/GroovyServletAdapter &#45;&gt; javax.servlet.http.*</text>
<text text-anchor="middle" x="1511.08" y="-427.8" font-family="Times,serif" font-size="14.00">server/GroovyServletAdapter &#45;&gt; javax.servlet.*</text>
<text text-anchor="middle" x="1511.08" y="-412.8" font-family="Times,serif" font-size="14.00">json/Json &#45;&gt; groovy.json.*</text>
<text text-anchor="middle" x="1511.08" y="-397.8" font-family="Times,serif" font-size="14.00">meraki/Meraki &#45;&gt; json.*</text>
<text text-anchor="middle" x="1511.08" y="-382.8" font-family="Times,serif" font-size="14.00">meraki/Meraki &#45;&gt; http.*</text>
<text text-anchor="middle" x="1511.08" y="-367.8" font-family="Times,serif" font-size="14.00">meraki/MerakiHttp &#45;&gt; http.*</text>
<text text-anchor="middle" x="1511.08" y="-352.8" font-family="Times,serif" font-size="14.00">http/Http &#45;&gt; java.net.*</text>
<text text-anchor="middle" x="1511.08" y="-337.8" font-family="Times,serif" font-size="14.00">domain/Clients &#45;&gt; json.*</text>
<text text-anchor="middle" x="1511.08" y="-322.8" font-family="Times,serif" font-size="14.00">domain/Clients &#45;&gt; meraki.*</text>
<text text-anchor="middle" x="1511.08" y="-307.8" font-family="Times,serif" font-size="14.00">domain/Devices &#45;&gt; json.*</text>
<text text-anchor="middle" x="1511.08" y="-292.8" font-family="Times,serif" font-size="14.00">domain/Devices &#45;&gt; meraki.*</text>
<text text-anchor="middle" x="1511.08" y="-277.8" font-family="Times,serif" font-size="14.00">domain/ClientConnectionsSnapshot &#45;&gt; java.time.*</text>
<text text-anchor="middle" x="1511.08" y="-262.8" font-family="Times,serif" font-size="14.00">domain/ClientConnectionsSnapshot &#45;&gt; groovy.transform.*</text>
<text text-anchor="middle" x="1511.08" y="-247.8" font-family="Times,serif" font-size="14.00">domain/Organizations &#45;&gt; meraki.*</text>
<text text-anchor="middle" x="1511.08" y="-232.8" font-family="Times,serif" font-size="14.00">domain/Networks &#45;&gt; json.*</text>
<text text-anchor="middle" x="1511.08" y="-217.8" font-family="Times,serif" font-size="14.00">domain/Networks &#45;&gt; meraki.*</text>
<text text-anchor="middle" x="1511.08" y="-202.8" font-family="Times,serif" font-size="14.00">domain/ClientConnections &#45;&gt; json.*</text>
<text text-anchor="middle" x="1511.08" y="-187.8" font-family="Times,serif" font-size="14.00">domain/ClientConnections &#45;&gt; meraki.*</text>
<text text-anchor="middle" x="1511.08" y="-172.8" font-family="Times,serif" font-size="14.00">domain/ClientConnections &#45;&gt; java.time.*</text>
<text text-anchor="middle" x="1511.08" y="-157.8" font-family="Times,serif" font-size="14.00">domain/ClientConnections &#45;&gt; java.time.temporal.*</text>
<text text-anchor="middle" x="1511.08" y="-142.8" font-family="Times,serif" font-size="14.00">domain/TimeRange &#45;&gt; java.time.*</text>
<text text-anchor="middle" x="1511.08" y="-127.8" font-family="Times,serif" font-size="14.00">domain/TimeRange &#45;&gt; groovy.transform.*</text>
<text text-anchor="middle" x="1511.08" y="-112.8" font-family="Times,serif" font-size="14.00">routes/Router &#45;&gt; gateway.*</text>
<text text-anchor="middle" x="1511.08" y="-97.8" font-family="Times,serif" font-size="14.00">routes/Router &#45;&gt; domain.*</text>
<text text-anchor="middle" x="1511.08" y="-82.8" font-family="Times,serif" font-size="14.00">routes/Router &#45;&gt; javax.servlet.http.*</text>
<text text-anchor="middle" x="1511.08" y="-67.8" font-family="Times,serif" font-size="14.00">routes/Exec &#45;&gt; meraki.*</text>
<text text-anchor="middle" x="1511.08" y="-52.8" font-family="Times,serif" font-size="14.00">gateway/Gateway &#45;&gt; json.*</text>
<text text-anchor="middle" x="1511.08" y="-37.8" font-family="Times,serif" font-size="14.00">gateway/Gateway &#45;&gt; meraki.*</text>
<text text-anchor="middle" x="1511.08" y="-22.8" font-family="Times,serif" font-size="14.00">gateway/Linker &#45;&gt; json.*</text>
<text text-anchor="middle" x="1511.08" y="-7.8" font-family="Times,serif" font-size="14.00">gateway/Linker &#45;&gt; routes.*</text>
</g>
<!-- arrow&#45;&gt;all_imports -->
<g id="edge8" class="edge">
<title>arrow&#45;&gt;all_imports</title>
<path fill="none" stroke="black" d="M1306.67,-289.5C1315.24,-289.5 1323.87,-289.5 1332.47,-289.5"/>
<polygon fill="black" stroke="black" points="1332.54,-293 1342.54,-289.5 1332.54,-286 1332.54,-293"/>
</g>
<!-- all import statements -->
<g id="node5" class="node">
<title>all import statements</title>
<ellipse fill="none" stroke="black" cx="85.79" cy="-289.5" rx="85.59" ry="18"/>
<text text-anchor="middle" x="85.79" y="-285.8" font-family="Times,serif" font-size="14.00">all import statements</text>
</g>
<!-- all import statements&#45;&gt;imports -->
<g id="edge4" class="edge">
<title>all import statements&#45;&gt;imports</title>
<path fill="none" stroke="black" d="M171.8,-289.5C180.18,-289.5 188.79,-289.5 197.42,-289.5"/>
<polygon fill="black" stroke="black" points="197.56,-293 207.56,-289.5 197.56,-286 197.56,-293"/>
</g>
<!-- no test files -->
<g id="node6" class="node">
<title>no test files</title>
<ellipse fill="none" stroke="black" cx="316.08" cy="-232.5" rx="51.19" ry="18"/>
<text text-anchor="middle" x="316.08" y="-228.8" font-family="Times,serif" font-size="14.00">no test files</text>
</g>
<!-- no test files&#45;&gt;no_tests -->
<g id="edge5" class="edge">
<title>no test files&#45;&gt;no_tests</title>
<path fill="none" stroke="black" d="M359.99,-242.03C379.68,-246.41 403.32,-251.7 424.58,-256.5 439.1,-259.78 454.43,-263.26 469.47,-266.68"/>
<polygon fill="black" stroke="black" points="468.77,-270.11 479.3,-268.92 470.33,-263.29 468.77,-270.11"/>
</g>
<!-- drop containing folder -->
<g id="node7" class="node">
<title>drop containing folder</title>
<ellipse fill="none" stroke="black" cx="570.08" cy="-232.5" rx="89.88" ry="18"/>
<text text-anchor="middle" x="570.08" y="-228.8" font-family="Times,serif" font-size="14.00">drop containing folder</text>
</g>
<!-- drop containing folder&#45;&gt;no_folder -->
<g id="edge6" class="edge">
<title>drop containing folder&#45;&gt;no_folder</title>
<path fill="none" stroke="black" d="M631.37,-245.72C647.07,-249.19 663.97,-252.96 679.58,-256.5 693.82,-259.73 708.86,-263.18 723.6,-266.59"/>
<polygon fill="black" stroke="black" points="723.22,-270.09 733.75,-268.93 724.8,-263.27 723.22,-270.09"/>
</g>
<!-- change imports to &#45;&gt; -->
<g id="node8" class="node">
<title>change imports to &#45;&gt;</title>
<ellipse fill="none" stroke="black" cx="822.58" cy="-385.5" rx="85.29" ry="18"/>
<text text-anchor="middle" x="822.58" y="-381.8" font-family="Times,serif" font-size="14.00">change imports to &#45;&gt;</text>
</g>
<!-- change imports to &#45;&gt;&#45;&gt;arrow -->
<g id="edge7" class="edge">
<title>change imports to &#45;&gt;&#45;&gt;arrow</title>
<path fill="none" stroke="black" d="M887.56,-373.74C901.5,-370.76 916.11,-367.3 929.58,-363.5 979.25,-349.48 1034.18,-329.45 1074.75,-313.77"/>
<polygon fill="black" stroke="black" points="1076.17,-316.97 1084.22,-310.09 1073.63,-310.45 1076.17,-316.97"/>
</g>
</g>
</svg>
