<?xml version="1.0" encoding="UTF-8" standalone="no"?>
<!DOCTYPE svg PUBLIC "-//W3C//DTD SVG 1.1//EN"
 "http://www.w3.org/Graphics/SVG/1.1/DTD/svg11.dtd">
<!-- Generated by graphviz version 2.44.1 (20200629.0846)
 -->
<!-- Title: G Pages: 1 -->
<svg width="496pt" height="473pt"
 viewBox="0.00 0.00 496.30 473.40" xmlns="http://www.w3.org/2000/svg" xmlns:xlink="http://www.w3.org/1999/xlink">
<g id="graph0" class="graph" transform="scale(1 1) rotate(0) translate(4 469.4)">
<title>G</title>
<polygon fill="white" stroke="transparent" points="-4,4 -4,-469.4 492.3,-469.4 492.3,4 -4,4"/>
<!-- Practical -->
<g id="node1" class="node">
<title>Practical</title>
<polygon fill="yellow" stroke="yellow" points="438.95,-243.18 281.08,-243.18 232.3,-393.61 183.51,-243.18 25.65,-243.18 153.36,-150.22 104.58,0.2 232.3,-92.76 360.01,0.2 311.23,-150.22 438.95,-243.18"/>
<text text-anchor="middle" x="232.3" y="-186.7" font-family="Times,serif" font-size="40.00">Practical</text>
</g>
<!-- Iterative -->
<g id="node2" class="node">
<title>Iterative</title>
<ellipse fill="none" stroke="black" cx="40.3" cy="-447.4" rx="40.09" ry="18"/>
<text text-anchor="middle" x="40.3" y="-443.7" font-family="Times,serif" font-size="14.00">Iterative</text>
</g>
<!-- Iterative&#45;&gt;Practical -->
<g id="edge1" class="edge">
<title>Iterative&#45;&gt;Practical</title>
<path fill="none" stroke="black" d="M52.89,-430.09C78.46,-396.97 137.68,-320.26 181.12,-263.99"/>
<polygon fill="black" stroke="black" points="184.07,-265.9 187.41,-255.84 178.53,-261.62 184.07,-265.9"/>
</g>
<!-- Quick -->
<g id="node3" class="node">
<title>Quick</title>
<ellipse fill="none" stroke="black" cx="131.3" cy="-447.4" rx="32.49" ry="18"/>
<text text-anchor="middle" x="131.3" y="-443.7" font-family="Times,serif" font-size="14.00">Quick</text>
</g>
<!-- Quick&#45;&gt;Practical -->
<g id="edge2" class="edge">
<title>Quick&#45;&gt;Practical</title>
<path fill="none" stroke="black" d="M138.08,-429.7C149.3,-402.07 172.54,-344.85 193.12,-294.16"/>
<polygon fill="black" stroke="black" points="196.41,-295.36 196.93,-284.78 189.93,-292.73 196.41,-295.36"/>
</g>
<!-- Automated -->
<g id="node4" class="node">
<title>Automated</title>
<ellipse fill="none" stroke="black" cx="232.3" cy="-447.4" rx="50.09" ry="18"/>
<text text-anchor="middle" x="232.3" y="-443.7" font-family="Times,serif" font-size="14.00">Automated</text>
</g>
<!-- Automated&#45;&gt;Practical -->
<g id="edge3" class="edge">
<title>Automated&#45;&gt;Practical</title>
<path fill="none" stroke="black" d="M232.3,-429.31C232.3,-422.44 232.3,-413.78 232.3,-403.88"/>
<polygon fill="black" stroke="black" points="235.8,-403.58 232.3,-393.58 228.8,-403.58 235.8,-403.58"/>
</g>
<!-- Maintainable -->
<g id="node5" class="node">
<title>Maintainable</title>
<ellipse fill="none" stroke="black" cx="358.3" cy="-447.4" rx="57.69" ry="18"/>
<text text-anchor="middle" x="358.3" y="-443.7" font-family="Times,serif" font-size="14.00">Maintainable</text>
</g>
<!-- Maintainable&#45;&gt;Practical -->
<g id="edge4" class="edge">
<title>Maintainable&#45;&gt;Practical</title>
<path fill="none" stroke="black" d="M349.64,-429.31C334.55,-399.54 302.51,-336.28 275.71,-283.39"/>
<polygon fill="black" stroke="black" points="278.76,-281.66 271.12,-274.33 272.51,-284.83 278.76,-281.66"/>
</g>
<!-- Text -->
<g id="node6" class="node">
<title>Text</title>
<ellipse fill="none" stroke="black" cx="461.3" cy="-447.4" rx="27" ry="18"/>
<text text-anchor="middle" x="461.3" y="-443.7" font-family="Times,serif" font-size="14.00">Text</text>
</g>
<!-- Text&#45;&gt;Practical -->
<g id="edge5" class="edge">
<title>Text&#45;&gt;Practical</title>
<path fill="none" stroke="black" d="M447.66,-431.59C416.65,-397.91 339.45,-314.07 286.43,-256.49"/>
<polygon fill="black" stroke="black" points="288.79,-253.89 279.44,-248.9 283.64,-258.63 288.79,-253.89"/>
</g>
</g>
</svg>
