<?xml version="1.0" encoding="UTF-8" standalone="no"?>
<!DOCTYPE svg PUBLIC "-//W3C//DTD SVG 1.1//EN"
 "http://www.w3.org/Graphics/SVG/1.1/DTD/svg11.dtd">
<!-- Generated by graphviz version 2.44.1 (20200629.0846)
 -->
<!-- Title: G Pages: 1 -->
<svg width="1600pt" height="846pt"
 viewBox="0.00 0.00 1600.27 846.00" xmlns="http://www.w3.org/2000/svg" xmlns:xlink="http://www.w3.org/1999/xlink">
<g id="graph0" class="graph" transform="scale(1 1) rotate(0) translate(4 842)">
<title>G</title>
<polygon fill="white" stroke="transparent" points="-4,4 -4,-842 1596.27,-842 1596.27,4 -4,4"/>
<g id="clust1" class="cluster">
<title>cluster_unbox</title>
</g>
<g id="clust6" class="cluster">
<title>cluster_chop</title>
<polygon fill="tan" stroke="tan" points="271.84,-338 271.84,-575 416.53,-575 416.53,-338 271.84,-338"/>
<text text-anchor="middle" x="344.18" y="-559.8" font-family="Times,serif" font-size="14.00">chop</text>
</g>
<g id="clust7" class="cluster">
<title>cluster_oven</title>
<polygon fill="tan" stroke="tan" points="484.61,-91 484.61,-184 1483.92,-184 1483.92,-91 484.61,-91"/>
<text text-anchor="middle" x="984.26" y="-156" font-family="Times,serif" font-size="30.00">pork (20 minutes)</text>
</g>
<g id="clust8" class="cluster">
<title>cluster_bowl</title>
<polygon fill="pink" stroke="pink" points="292.68,-192 292.68,-267 742.92,-267 742.92,-192 292.68,-192"/>
<text text-anchor="middle" x="517.8" y="-251.8" font-family="Times,serif" font-size="14.00">slaw</text>
</g>
<g id="clust9" class="cluster">
<title>cluster_pot</title>
<polygon fill="lightgray" stroke="lightgray" points="497.05,-406 497.05,-577 1484.37,-577 1484.37,-406 497.05,-406"/>
<text text-anchor="middle" x="990.71" y="-549" font-family="Times,serif" font-size="30.00">mashed potatos (25 minutes)</text>
</g>
<g id="clust10" class="cluster">
<title>cluster_sauce_bowl</title>
<polygon fill="pink" stroke="pink" points="240.59,-683 240.59,-830 1190.94,-830 1190.94,-683 240.59,-683"/>
<text text-anchor="middle" x="715.77" y="-802" font-family="Times,serif" font-size="30.00">sauce (1 minute)</text>
</g>
<g id="clust12" class="cluster">
<title>cluster_plate</title>
</g>
<!-- box -->
<g id="node1" class="node">
<title>box</title>
<polygon fill="tan" stroke="black" points="70,-409 16,-409 16,-373 70,-373 70,-409"/>
<text text-anchor="middle" x="43" y="-387.3" font-family="Times,serif" font-size="14.00">box</text>
</g>
<!-- apple -->
<g id="node2" class="node">
<title>apple</title>
<ellipse fill="red" stroke="black" cx="159.3" cy="-418" rx="29.8" ry="18"/>
<text text-anchor="middle" x="159.3" y="-414.3" font-family="Times,serif" font-size="14.00">apple</text>
</g>
<!-- box&#45;&gt;apple -->
<g id="edge1" class="edge">
<title>box&#45;&gt;apple</title>
<path fill="none" stroke="black" d="M70.22,-397.19C85.29,-400.75 104.45,-405.28 121.06,-409.2"/>
<polygon fill="black" stroke="black" points="120.47,-412.66 131,-411.55 122.08,-405.85 120.47,-412.66"/>
</g>
<!-- pork -->
<g id="node3" class="node">
<title>pork</title>
<ellipse fill="brown" stroke="black" cx="159.3" cy="-202" rx="27" ry="18"/>
<text text-anchor="middle" x="159.3" y="-198.3" font-family="Times,serif" font-size="14.00">pork</text>
</g>
<!-- box&#45;&gt;pork -->
<g id="edge2" class="edge">
<title>box&#45;&gt;pork</title>
<path fill="none" stroke="black" d="M45.84,-372.87C50.59,-338.51 65.84,-264.89 106,-220 110.71,-214.73 116.7,-210.34 122.93,-206.91"/>
<polygon fill="black" stroke="black" points="124.55,-210.01 132.1,-202.59 121.57,-203.68 124.55,-210.01"/>
</g>
<!-- box&#45;&gt;pork -->
<g id="edge10" class="edge">
<title>box&#45;&gt;pork</title>
<path fill="none" stroke="brown" d="M47.65,-372.94C53.98,-341.72 69.96,-278.29 106,-238 112.88,-230.31 122.46,-224.49 131.55,-219.71"/>
<polygon fill="brown" stroke="brown" points="133.37,-222.71 140.7,-215.06 130.2,-216.46 133.37,-222.71"/>
</g>
<!-- jam -->
<g id="node4" class="node">
<title>jam</title>
<path fill="red" stroke="black" d="M186.3,-648.73C186.3,-650.53 174.19,-652 159.3,-652 144.4,-652 132.3,-650.53 132.3,-648.73 132.3,-648.73 132.3,-619.27 132.3,-619.27 132.3,-617.47 144.4,-616 159.3,-616 174.19,-616 186.3,-617.47 186.3,-619.27 186.3,-619.27 186.3,-648.73 186.3,-648.73"/>
<path fill="none" stroke="black" d="M186.3,-648.73C186.3,-646.92 174.19,-645.45 159.3,-645.45 144.4,-645.45 132.3,-646.92 132.3,-648.73"/>
<text text-anchor="middle" x="159.3" y="-630.3" font-family="Times,serif" font-size="14.00">jam</text>
</g>
<!-- box&#45;&gt;jam -->
<g id="edge3" class="edge">
<title>box&#45;&gt;jam</title>
<path fill="none" stroke="black" d="M44.51,-409.13C46.56,-449.26 56.64,-546.82 106,-607 110.57,-612.57 116.59,-617.13 122.92,-620.8"/>
<polygon fill="black" stroke="black" points="121.78,-624.14 132.28,-625.56 124.95,-617.9 121.78,-624.14"/>
</g>
<!-- mayonnaise -->
<g id="node5" class="node">
<title>mayonnaise</title>
<ellipse fill="none" stroke="black" cx="159.3" cy="-256" rx="53.09" ry="18"/>
<text text-anchor="middle" x="159.3" y="-252.3" font-family="Times,serif" font-size="14.00">mayonnaise</text>
</g>
<!-- box&#45;&gt;mayonnaise -->
<g id="edge4" class="edge">
<title>box&#45;&gt;mayonnaise</title>
<path fill="none" stroke="black" d="M50.64,-372.86C59.94,-349.55 78.81,-309 106,-283 109.03,-280.1 112.44,-277.44 116.02,-275.01"/>
<polygon fill="black" stroke="black" points="117.89,-277.96 124.6,-269.76 114.24,-271.99 117.89,-277.96"/>
</g>
<!-- vinegar -->
<g id="node6" class="node">
<title>vinegar</title>
<path fill="none" stroke="black" d="M187.8,-540.73C187.8,-542.53 175.02,-544 159.3,-544 143.57,-544 130.8,-542.53 130.8,-540.73 130.8,-540.73 130.8,-511.27 130.8,-511.27 130.8,-509.47 143.57,-508 159.3,-508 175.02,-508 187.8,-509.47 187.8,-511.27 187.8,-511.27 187.8,-540.73 187.8,-540.73"/>
<path fill="none" stroke="black" d="M187.8,-540.73C187.8,-538.92 175.02,-537.45 159.3,-537.45 143.57,-537.45 130.8,-538.92 130.8,-540.73"/>
<text text-anchor="middle" x="159.3" y="-522.3" font-family="Times,serif" font-size="14.00">vinegar</text>
</g>
<!-- box&#45;&gt;vinegar -->
<g id="edge5" class="edge">
<title>box&#45;&gt;vinegar</title>
<path fill="none" stroke="black" d="M50.64,-409.14C59.94,-432.45 78.81,-473 106,-499 110.6,-503.4 116.07,-507.26 121.7,-510.58"/>
<polygon fill="black" stroke="black" points="120.12,-513.71 130.58,-515.36 123.43,-507.54 120.12,-513.71"/>
</g>
<!-- carrots -->
<g id="node7" class="node">
<title>carrots</title>
<ellipse fill="orange" stroke="black" cx="159.3" cy="-310" rx="34.39" ry="18"/>
<text text-anchor="middle" x="159.3" y="-306.3" font-family="Times,serif" font-size="14.00">carrots</text>
</g>
<!-- box&#45;&gt;carrots -->
<g id="edge6" class="edge">
<title>box&#45;&gt;carrots</title>
<path fill="none" stroke="orange" d="M62.31,-372.97C74.17,-361.82 90.29,-347.67 106,-337 111.49,-333.27 117.56,-329.7 123.57,-326.44"/>
<polygon fill="orange" stroke="orange" points="125.6,-329.32 132.86,-321.6 122.37,-323.11 125.6,-329.32"/>
</g>
<!-- scallions -->
<g id="node8" class="node">
<title>scallions</title>
<ellipse fill="darkgreen" stroke="black" cx="159.3" cy="-472" rx="41.69" ry="18"/>
<text text-anchor="middle" x="159.3" y="-468.3" font-family="Times,serif" font-size="14.00">scallions</text>
</g>
<!-- box&#45;&gt;scallions -->
<g id="edge7" class="edge">
<title>box&#45;&gt;scallions</title>
<path fill="none" stroke="green" d="M62.31,-409.03C74.17,-420.18 90.29,-434.33 106,-445 110.7,-448.19 115.83,-451.27 120.98,-454.14"/>
<polygon fill="green" stroke="green" points="119.7,-457.43 130.17,-459.04 122.99,-451.25 119.7,-457.43"/>
</g>
<!-- C&amp;P -->
<g id="node9" class="node">
<title>C&amp;P</title>
<polygon fill="brown" stroke="black" points="182.88,-382 135.71,-382 118.91,-346 199.68,-346 182.88,-382"/>
<text text-anchor="middle" x="159.3" y="-360.3" font-family="Times,serif" font-size="14.00">C&amp;P</text>
</g>
<!-- box&#45;&gt;C&amp;P -->
<g id="edge8" class="edge">
<title>box&#45;&gt;C&amp;P</title>
<path fill="none" stroke="red" d="M70.22,-384.81C85.07,-381.3 103.9,-376.85 120.33,-372.97"/>
<polygon fill="red" stroke="red" points="121.27,-376.34 130.2,-370.64 119.66,-369.53 121.27,-376.34"/>
</g>
<!-- potatos -->
<g id="node10" class="node">
<title>potatos</title>
<ellipse fill="brown" stroke="black" cx="159.3" cy="-580" rx="36.29" ry="18"/>
<text text-anchor="middle" x="159.3" y="-576.3" font-family="Times,serif" font-size="14.00">potatos</text>
</g>
<!-- box&#45;&gt;potatos -->
<g id="edge9" class="edge">
<title>box&#45;&gt;potatos</title>
<path fill="none" stroke="brown" d="M46.63,-409.25C52.18,-441.78 67.85,-510.36 106,-553 110.06,-557.54 115.06,-561.42 120.35,-564.72"/>
<polygon fill="brown" stroke="brown" points="118.95,-567.95 129.4,-569.71 122.33,-561.82 118.95,-567.95"/>
</g>
<!-- sliced apple -->
<g id="node31" class="node">
<title>sliced apple</title>
<ellipse fill="red" stroke="white" cx="344.18" cy="-418" rx="52.79" ry="18"/>
<text text-anchor="middle" x="344.18" y="-414.3" font-family="Times,serif" font-size="14.00">sliced apple</text>
</g>
<!-- apple&#45;&gt;sliced apple -->
<g id="edge29" class="edge">
<title>apple&#45;&gt;sliced apple</title>
<path fill="none" stroke="black" d="M189.27,-418C213.89,-418 250.07,-418 281.17,-418"/>
<polygon fill="black" stroke="black" points="281.49,-421.5 291.49,-418 281.49,-414.5 281.49,-421.5"/>
</g>
<!-- rubbed pork -->
<g id="node12" class="node">
<title>rubbed pork</title>
<ellipse fill="brown" stroke="black" cx="546.55" cy="-117" rx="53.89" ry="18"/>
<text text-anchor="middle" x="546.55" y="-113.3" font-family="Times,serif" font-size="14.00">rubbed pork</text>
</g>
<!-- pork&#45;&gt;rubbed pork -->
<g id="edge20" class="edge">
<title>pork&#45;&gt;rubbed pork</title>
<path fill="none" stroke="brown" d="M173.61,-186.72C188.26,-171.09 213.37,-147.65 240.59,-137 320.74,-105.63 421.77,-105.99 485.03,-110.46"/>
<polygon fill="brown" stroke="brown" points="484.99,-113.97 495.23,-111.24 485.53,-106.99 484.99,-113.97"/>
</g>
<!-- sauce bowl -->
<g id="node43" class="node">
<title>sauce bowl</title>
<polygon fill="orange" stroke="white" points="505.35,-738 587.75,-738 617.1,-774 476,-774 505.35,-738"/>
<text text-anchor="middle" x="546.55" y="-752.3" font-family="Times,serif" font-size="14.00">sauce bowl</text>
</g>
<!-- jam&#45;&gt;sauce bowl -->
<g id="edge50" class="edge">
<title>jam&#45;&gt;sauce bowl</title>
<path fill="none" stroke="black" d="M163.37,-652.13C170.25,-686.27 190.4,-759.39 240.59,-790 320.84,-838.95 435.33,-804.27 498.75,-777.99"/>
<polygon fill="black" stroke="black" points="500.26,-781.15 508.1,-774.02 497.53,-774.71 500.26,-781.15"/>
</g>
<!-- slaw bowl -->
<g id="node16" class="node">
<title>slaw bowl</title>
<polygon fill="orange" stroke="black" points="507.8,-200 585.31,-200 612.91,-236 480.19,-236 507.8,-200"/>
<text text-anchor="middle" x="546.55" y="-214.3" font-family="Times,serif" font-size="14.00">slaw bowl</text>
</g>
<!-- mayonnaise&#45;&gt;slaw bowl -->
<g id="edge22" class="edge">
<title>mayonnaise&#45;&gt;slaw bowl</title>
<path fill="none" stroke="black" d="M212.62,-257.21C269,-257.76 361.21,-256.44 439.78,-245 450.94,-243.37 462.64,-241.04 474.02,-238.42"/>
<polygon fill="black" stroke="black" points="475,-241.79 483.91,-236.06 473.37,-234.98 475,-241.79"/>
</g>
<!-- 4 tsp vinegar -->
<g id="node21" class="node">
<title>4 tsp vinegar</title>
<path fill="white" stroke="black" d="M387.68,-232.73C387.68,-234.53 368.19,-236 344.18,-236 320.18,-236 300.68,-234.53 300.68,-232.73 300.68,-232.73 300.68,-203.27 300.68,-203.27 300.68,-201.47 320.18,-200 344.18,-200 368.19,-200 387.68,-201.47 387.68,-203.27 387.68,-203.27 387.68,-232.73 387.68,-232.73"/>
<path fill="none" stroke="black" d="M387.68,-232.73C387.68,-230.92 368.19,-229.45 344.18,-229.45 320.18,-229.45 300.68,-230.92 300.68,-232.73"/>
<text text-anchor="middle" x="344.18" y="-214.3" font-family="Times,serif" font-size="14.00">4 tsp vinegar</text>
</g>
<!-- vinegar&#45;&gt;4 tsp vinegar -->
<g id="edge17" class="edge">
<title>vinegar&#45;&gt;4 tsp vinegar</title>
<path fill="none" stroke="black" d="M188.03,-520.21C199.97,-516.26 212.92,-509.73 220.59,-499 276.69,-420.59 190.26,-365.23 240.59,-283 252.42,-263.67 272.4,-249.11 291.6,-238.73"/>
<polygon fill="black" stroke="black" points="293.32,-241.78 300.63,-234.11 290.13,-235.55 293.32,-241.78"/>
</g>
<!-- remaining vinegar -->
<g id="node22" class="node">
<title>remaining vinegar</title>
<path fill="white" stroke="black" d="M402.18,-777.73C402.18,-779.53 376.19,-781 344.18,-781 312.18,-781 286.18,-779.53 286.18,-777.73 286.18,-777.73 286.18,-748.27 286.18,-748.27 286.18,-746.47 312.18,-745 344.18,-745 376.19,-745 402.18,-746.47 402.18,-748.27 402.18,-748.27 402.18,-777.73 402.18,-777.73"/>
<path fill="none" stroke="black" d="M402.18,-777.73C402.18,-775.92 376.19,-774.45 344.18,-774.45 312.18,-774.45 286.18,-775.92 286.18,-777.73"/>
<text text-anchor="middle" x="344.18" y="-759.3" font-family="Times,serif" font-size="14.00">remaining vinegar</text>
</g>
<!-- vinegar&#45;&gt;remaining vinegar -->
<g id="edge18" class="edge">
<title>vinegar&#45;&gt;remaining vinegar</title>
<path fill="none" stroke="black" d="M187.95,-531.85C199.87,-535.81 212.83,-542.34 220.59,-553 268.75,-619.14 187.19,-674.01 240.59,-736 249.78,-746.67 262.63,-753.37 276.13,-757.53"/>
<polygon fill="black" stroke="black" points="275.48,-760.97 286.04,-760.12 277.25,-754.2 275.48,-760.97"/>
</g>
<!-- grated carrots -->
<g id="node30" class="node">
<title>grated carrots</title>
<ellipse fill="orange" stroke="white" cx="344.18" cy="-364" rx="59.29" ry="18"/>
<text text-anchor="middle" x="344.18" y="-360.3" font-family="Times,serif" font-size="14.00">grated carrots</text>
</g>
<!-- carrots&#45;&gt;grated carrots -->
<g id="edge28" class="edge">
<title>carrots&#45;&gt;grated carrots</title>
<path fill="none" stroke="orange" d="M188.39,-319.96C203.73,-325.27 223.12,-331.77 240.59,-337 255.86,-341.57 272.53,-346.14 287.91,-350.18"/>
<polygon fill="orange" stroke="orange" points="287.24,-353.62 297.8,-352.75 289.01,-346.85 287.24,-353.62"/>
</g>
<!-- sliced scallions -->
<g id="node29" class="node">
<title>sliced scallions</title>
<ellipse fill="darkgreen" stroke="white" cx="344.18" cy="-472" rx="64.19" ry="18"/>
<text text-anchor="middle" x="344.18" y="-468.3" font-family="Times,serif" font-size="14.00">sliced scallions</text>
</g>
<!-- scallions&#45;&gt;sliced scallions -->
<g id="edge27" class="edge">
<title>scallions&#45;&gt;sliced scallions</title>
<path fill="none" stroke="green" d="M201.34,-472C221.43,-472 246.24,-472 269.47,-472"/>
<polygon fill="green" stroke="green" points="269.65,-475.5 279.65,-472 269.65,-468.5 269.65,-475.5"/>
</g>
<!-- 1/4 tsp C&amp;P -->
<g id="node19" class="node">
<title>1/4 tsp C&amp;P</title>
<polygon fill="brown" stroke="black" points="389.89,-182 298.48,-182 265.93,-146 422.44,-146 389.89,-182"/>
<text text-anchor="middle" x="344.18" y="-160.3" font-family="Times,serif" font-size="14.00">1/4 tsp C&amp;P</text>
</g>
<!-- C&amp;P&#45;&gt;1/4 tsp C&amp;P -->
<g id="edge15" class="edge">
<title>C&amp;P&#45;&gt;1/4 tsp C&amp;P</title>
<path fill="none" stroke="red" d="M195.68,-355.1C205.13,-351.06 214.41,-345.27 220.59,-337 260.58,-283.47 195.67,-237.47 240.59,-188 249.41,-178.29 261.34,-172.13 273.94,-168.31"/>
<polygon fill="red" stroke="red" points="274.86,-171.69 283.67,-165.81 273.12,-164.9 274.86,-171.69"/>
</g>
<!-- remaining C&amp;P -->
<g id="node20" class="node">
<title>remaining C&amp;P</title>
<polygon fill="brown" stroke="black" points="400.06,-727 288.3,-727 248.5,-691 439.87,-691 400.06,-727"/>
<text text-anchor="middle" x="344.18" y="-705.3" font-family="Times,serif" font-size="14.00">remaining C&amp;P</text>
</g>
<!-- C&amp;P&#45;&gt;remaining C&amp;P -->
<g id="edge16" class="edge">
<title>C&amp;P&#45;&gt;remaining C&amp;P</title>
<path fill="none" stroke="red" d="M188.78,-369.91C200.56,-373.86 213.17,-380.37 220.59,-391 257.68,-444.16 199.28,-632.05 240.59,-682 241.1,-682.61 241.62,-683.21 242.14,-683.8"/>
<polygon fill="red" stroke="red" points="239.92,-686.51 249.64,-690.73 244.67,-681.37 239.92,-686.51"/>
</g>
<!-- diced potatos -->
<g id="node32" class="node">
<title>diced potatos</title>
<ellipse fill="brown" stroke="white" cx="344.18" cy="-526" rx="57.69" ry="18"/>
<text text-anchor="middle" x="344.18" y="-522.3" font-family="Times,serif" font-size="14.00">diced potatos</text>
</g>
<!-- potatos&#45;&gt;diced potatos -->
<g id="edge30" class="edge">
<title>potatos&#45;&gt;diced potatos</title>
<path fill="none" stroke="brown" d="M190.91,-570.96C218.37,-562.85 259.23,-550.79 291.71,-541.2"/>
<polygon fill="brown" stroke="brown" points="292.9,-544.5 301.5,-538.31 290.91,-537.78 292.9,-544.5"/>
</g>
<!-- S&amp;P 1 -->
<g id="node11" class="node">
<title>S&amp;P 1</title>
<polygon fill="gray" stroke="black" points="372.76,-90 315.61,-90 295.25,-54 393.11,-54 372.76,-90"/>
<text text-anchor="middle" x="344.18" y="-68.3" font-family="Times,serif" font-size="14.00">S&amp;P 1</text>
</g>
<!-- S&amp;P 1&#45;&gt;rubbed pork -->
<g id="edge11" class="edge">
<title>S&amp;P 1&#45;&gt;rubbed pork</title>
<path fill="none" stroke="black" stroke-dasharray="5,2" d="M378.72,-79.53C409.47,-86.44 455.56,-96.79 491.51,-104.86"/>
<polygon fill="black" stroke="black" points="490.83,-108.3 501.36,-107.07 492.37,-101.47 490.83,-108.3"/>
</g>
<!-- baking sheet -->
<g id="node33" class="node">
<title>baking sheet</title>
<polygon fill="gray" stroke="white" points="750.42,-135 665.42,-135 665.42,-99 750.42,-99 750.42,-135"/>
<text text-anchor="middle" x="707.92" y="-113.3" font-family="Times,serif" font-size="14.00">baking sheet</text>
</g>
<!-- rubbed pork&#45;&gt;baking sheet -->
<g id="edge31" class="edge">
<title>rubbed pork&#45;&gt;baking sheet</title>
<path fill="none" stroke="black" d="M600.62,-117C618.25,-117 637.86,-117 655.38,-117"/>
<polygon fill="black" stroke="black" points="655.42,-120.5 665.42,-117 655.42,-113.5 655.42,-120.5"/>
</g>
<!-- S&amp;P 3 -->
<g id="node13" class="node">
<title>S&amp;P 3</title>
<polygon fill="gray" stroke="black" points="1307.74,-396 1250.58,-396 1230.23,-360 1328.09,-360 1307.74,-396"/>
<text text-anchor="middle" x="1279.16" y="-374.3" font-family="Times,serif" font-size="14.00">S&amp;P 3</text>
</g>
<!-- mashed potatos -->
<g id="node14" class="node">
<title>mashed potatos</title>
<path fill="gray" stroke="black" d="M1476.37,-446.73C1476.37,-448.53 1453.74,-450 1425.87,-450 1398.01,-450 1375.37,-448.53 1375.37,-446.73 1375.37,-446.73 1375.37,-417.27 1375.37,-417.27 1375.37,-415.47 1398.01,-414 1425.87,-414 1453.74,-414 1476.37,-415.47 1476.37,-417.27 1476.37,-417.27 1476.37,-446.73 1476.37,-446.73"/>
<path fill="none" stroke="black" d="M1476.37,-446.73C1476.37,-444.92 1453.74,-443.45 1425.87,-443.45 1398.01,-443.45 1375.37,-444.92 1375.37,-446.73"/>
<text text-anchor="middle" x="1425.87" y="-428.3" font-family="Times,serif" font-size="14.00">mashed potatos</text>
</g>
<!-- S&amp;P 3&#45;&gt;mashed potatos -->
<g id="edge12" class="edge">
<title>S&amp;P 3&#45;&gt;mashed potatos</title>
<path fill="none" stroke="black" stroke-dasharray="5,2" d="M1311.56,-389.72C1328.63,-396.09 1350.24,-404.15 1370,-411.53"/>
<polygon fill="black" stroke="black" points="1368.94,-414.86 1379.53,-415.08 1371.38,-408.3 1368.94,-414.86"/>
</g>
<!-- plate -->
<g id="node46" class="node">
<title>plate</title>
<ellipse fill="none" stroke="black" cx="1544.32" cy="-330" rx="27.9" ry="27.9"/>
<ellipse fill="none" stroke="black" cx="1544.32" cy="-330" rx="31.9" ry="31.9"/>
<text text-anchor="middle" x="1544.32" y="-326.3" font-family="Times,serif" font-size="14.00">plate</text>
</g>
<!-- mashed potatos&#45;&gt;plate -->
<g id="edge54" class="edge">
<title>mashed potatos&#45;&gt;plate</title>
<path fill="none" stroke="black" d="M1447.42,-414C1465.37,-398.28 1491.69,-375.23 1512.22,-357.25"/>
<polygon fill="black" stroke="black" points="1514.56,-359.85 1519.77,-350.63 1509.94,-354.58 1514.56,-359.85"/>
</g>
<!-- S&amp;P 4 -->
<g id="node15" class="node">
<title>S&amp;P 4</title>
<polygon fill="gray" stroke="black" points="372.76,-328 315.61,-328 295.25,-292 393.11,-292 372.76,-328"/>
<text text-anchor="middle" x="344.18" y="-306.3" font-family="Times,serif" font-size="14.00">S&amp;P 4</text>
</g>
<!-- S&amp;P 4&#45;&gt;slaw bowl -->
<g id="edge13" class="edge">
<title>S&amp;P 4&#45;&gt;slaw bowl</title>
<path fill="none" stroke="black" stroke-dasharray="5,2" d="M391.18,-291.83C406.72,-285.48 424.1,-278.15 439.78,-271 460.49,-261.55 483.1,-250.35 502.08,-240.68"/>
<polygon fill="black" stroke="black" points="503.78,-243.75 511.08,-236.07 500.59,-237.52 503.78,-243.75"/>
</g>
<!-- slaw -->
<g id="node38" class="node">
<title>slaw</title>
<ellipse fill="orange" stroke="white" cx="707.92" cy="-218" rx="27" ry="18"/>
<text text-anchor="middle" x="707.92" y="-214.3" font-family="Times,serif" font-size="14.00">slaw</text>
</g>
<!-- slaw bowl&#45;&gt;slaw -->
<g id="edge40" class="edge">
<title>slaw bowl&#45;&gt;slaw</title>
<path fill="none" stroke="black" d="M599.29,-218C622.62,-218 649.6,-218 670.72,-218"/>
<polygon fill="black" stroke="black" points="670.87,-221.5 680.87,-218 670.87,-214.5 670.87,-221.5"/>
</g>
<!-- S&amp;P 2 -->
<g id="node17" class="node">
<title>S&amp;P 2</title>
<polygon fill="gray" stroke="black" points="892.85,-621 835.69,-621 815.34,-585 913.2,-585 892.85,-621"/>
<text text-anchor="middle" x="864.27" y="-599.3" font-family="Times,serif" font-size="14.00">S&amp;P 2</text>
</g>
<!-- microwaved sauce -->
<g id="node18" class="node">
<title>microwaved sauce</title>
<polygon fill="orange" stroke="black" points="1011.16,-691 1137.8,-691 1182.91,-727 966.06,-727 1011.16,-691"/>
<text text-anchor="middle" x="1074.48" y="-705.3" font-family="Times,serif" font-size="14.00">microwaved sauce</text>
</g>
<!-- S&amp;P 2&#45;&gt;microwaved sauce -->
<g id="edge14" class="edge">
<title>S&amp;P 2&#45;&gt;microwaved sauce</title>
<path fill="none" stroke="black" stroke-dasharray="5,2" d="M896.21,-615.1C907.02,-619.54 919.16,-624.76 930.02,-630 965.96,-647.32 1005.6,-669.39 1034.09,-685.8"/>
<polygon fill="black" stroke="black" points="1032.52,-688.93 1042.93,-690.91 1036.03,-682.87 1032.52,-688.93"/>
</g>
<!-- microwaved sauce&#45;&gt;plate -->
<g id="edge55" class="edge">
<title>microwaved sauce&#45;&gt;plate</title>
<path fill="none" stroke="black" d="M1157.46,-706.43C1250.22,-698.96 1399.41,-672.38 1484.37,-581 1512.31,-550.96 1530.46,-435.26 1538.52,-371.97"/>
<polygon fill="black" stroke="black" points="1542.01,-372.26 1539.77,-361.91 1535.06,-371.4 1542.01,-372.26"/>
</g>
<!-- 1/4 tsp C&amp;P&#45;&gt;rubbed pork -->
<g id="edge19" class="edge">
<title>1/4 tsp C&amp;P&#45;&gt;rubbed pork</title>
<path fill="none" stroke="red" d="M422.08,-145.96C445.42,-140.49 470.55,-134.59 492,-129.56"/>
<polygon fill="red" stroke="red" points="492.96,-132.93 501.9,-127.24 491.36,-126.12 492.96,-132.93"/>
</g>
<!-- remaining C&amp;P&#45;&gt;sauce bowl -->
<g id="edge48" class="edge">
<title>remaining C&amp;P&#45;&gt;sauce bowl</title>
<path fill="none" stroke="black" d="M404.76,-722.97C431.56,-729.26 463.02,-736.64 489.4,-742.83"/>
<polygon fill="black" stroke="black" points="488.71,-746.26 499.25,-745.14 490.31,-739.45 488.71,-746.26"/>
</g>
<!-- 4 tsp vinegar&#45;&gt;slaw bowl -->
<g id="edge39" class="edge">
<title>4 tsp vinegar&#45;&gt;slaw bowl</title>
<path fill="none" stroke="black" d="M388.17,-218C415.96,-218 452.58,-218 483.5,-218"/>
<polygon fill="black" stroke="black" points="483.75,-221.5 493.75,-218 483.75,-214.5 483.75,-221.5"/>
</g>
<!-- remaining vinegar&#45;&gt;sauce bowl -->
<g id="edge49" class="edge">
<title>remaining vinegar&#45;&gt;sauce bowl</title>
<path fill="none" stroke="black" d="M402.33,-761C426.22,-760.17 454.15,-759.19 478.96,-758.33"/>
<polygon fill="black" stroke="black" points="479.15,-761.82 489.02,-757.97 478.9,-754.83 479.15,-761.82"/>
</g>
<!-- oil -->
<g id="node23" class="node">
<title>oil</title>
<ellipse fill="none" stroke="black" cx="344.18" cy="-18" rx="27" ry="18"/>
<text text-anchor="middle" x="344.18" y="-14.3" font-family="Times,serif" font-size="14.00">oil</text>
</g>
<!-- oil&#45;&gt;rubbed pork -->
<g id="edge21" class="edge">
<title>oil&#45;&gt;rubbed pork</title>
<path fill="none" stroke="black" d="M370.46,-22.9C389.98,-27.23 417.35,-34.5 439.78,-45 467.89,-58.16 496.83,-78.41 517.32,-94.08"/>
<polygon fill="black" stroke="black" points="515.23,-96.9 525.28,-100.27 519.53,-91.37 515.23,-96.9"/>
</g>
<!-- water -->
<g id="node24" class="node">
<title>water</title>
<ellipse fill="lightblue" stroke="black" cx="344.18" cy="-655" rx="30.59" ry="18"/>
<text text-anchor="middle" x="344.18" y="-651.3" font-family="Times,serif" font-size="14.00">water</text>
</g>
<!-- pot of water -->
<g id="node26" class="node">
<title>pot of water</title>
<path fill="gray" stroke="black" d="M588.05,-524.73C588.05,-526.53 569.45,-528 546.55,-528 523.65,-528 505.05,-526.53 505.05,-524.73 505.05,-524.73 505.05,-495.27 505.05,-495.27 505.05,-493.47 523.65,-492 546.55,-492 569.45,-492 588.05,-493.47 588.05,-495.27 588.05,-495.27 588.05,-524.73 588.05,-524.73"/>
<path fill="none" stroke="black" d="M588.05,-524.73C588.05,-522.92 569.45,-521.45 546.55,-521.45 523.65,-521.45 505.05,-522.92 505.05,-524.73"/>
<text text-anchor="middle" x="546.55" y="-506.3" font-family="Times,serif" font-size="14.00">pot of water</text>
</g>
<!-- water&#45;&gt;pot of water -->
<g id="edge23" class="edge">
<title>water&#45;&gt;pot of water</title>
<path fill="none" stroke="black" d="M374.21,-651.05C393.87,-647.37 419.79,-640.5 439.78,-628 477.49,-604.4 509.77,-563.53 528.43,-536.62"/>
<polygon fill="black" stroke="black" points="531.5,-538.32 534.22,-528.08 525.71,-534.39 531.5,-538.32"/>
</g>
<!-- salt -->
<g id="node25" class="node">
<title>salt</title>
<polygon fill="none" stroke="black" points="363.07,-619 325.29,-619 311.84,-583 376.52,-583 363.07,-619"/>
<text text-anchor="middle" x="344.18" y="-597.3" font-family="Times,serif" font-size="14.00">salt</text>
</g>
<!-- salt&#45;&gt;pot of water -->
<g id="edge24" class="edge">
<title>salt&#45;&gt;pot of water</title>
<path fill="none" stroke="black" d="M371.24,-597.46C390.68,-594.22 417.6,-588.46 439.78,-579 466.77,-567.48 494.46,-549.14 514.73,-534.26"/>
<polygon fill="black" stroke="black" points="517.03,-536.92 522.94,-528.13 512.84,-531.31 517.03,-536.92"/>
</g>
<!-- bring to boil -->
<g id="node39" class="node">
<title>bring to boil</title>
<ellipse fill="white" stroke="white" cx="707.92" cy="-491" rx="54.69" ry="18"/>
<text text-anchor="middle" x="707.92" y="-487.3" font-family="Times,serif" font-size="14.00">bring to boil</text>
</g>
<!-- pot of water&#45;&gt;bring to boil -->
<g id="edge42" class="edge">
<title>pot of water&#45;&gt;bring to boil</title>
<path fill="none" stroke="black" d="M588.18,-505.16C605.85,-503.05 626.92,-500.54 646.38,-498.22"/>
<polygon fill="black" stroke="black" points="646.86,-501.68 656.38,-497.03 646.03,-494.73 646.86,-501.68"/>
</g>
<!-- 2Tbsp butter -->
<g id="node27" class="node">
<title>2Tbsp butter</title>
<polygon fill="yellow" stroke="black" points="1322.16,-304 1236.16,-304 1236.16,-268 1322.16,-268 1322.16,-304"/>
<text text-anchor="middle" x="1279.16" y="-282.3" font-family="Times,serif" font-size="14.00">2Tbsp butter</text>
</g>
<!-- 2Tbsp butter&#45;&gt;mashed potatos -->
<g id="edge25" class="edge">
<title>2Tbsp butter&#45;&gt;mashed potatos</title>
<path fill="none" stroke="black" d="M1319.32,-304.03C1326.36,-308.12 1333.36,-312.81 1339.37,-318 1368.75,-343.32 1394.21,-380.37 1409.53,-405.3"/>
<polygon fill="black" stroke="black" points="1406.55,-407.13 1414.71,-413.89 1412.54,-403.52 1406.55,-407.13"/>
</g>
<!-- 1Tbsp butter -->
<g id="node28" class="node">
<title>1Tbsp butter</title>
<polygon fill="yellow" stroke="black" points="907.27,-675 821.27,-675 821.27,-639 907.27,-639 907.27,-675"/>
<text text-anchor="middle" x="864.27" y="-653.3" font-family="Times,serif" font-size="14.00">1Tbsp butter</text>
</g>
<!-- 1Tbsp butter&#45;&gt;microwaved sauce -->
<g id="edge26" class="edge">
<title>1Tbsp butter&#45;&gt;microwaved sauce</title>
<path fill="none" stroke="black" d="M907.41,-667.52C933.57,-674.06 967.94,-682.64 998.63,-690.3"/>
<polygon fill="black" stroke="black" points="997.89,-693.73 1008.44,-692.76 999.59,-686.94 997.89,-693.73"/>
</g>
<!-- sliced scallions&#45;&gt;mashed potatos -->
<g id="edge47" class="edge">
<title>sliced scallions&#45;&gt;mashed potatos</title>
<path fill="none" stroke="green" d="M392.21,-459.8C407.5,-455.51 424.47,-450.4 439.78,-445 561.35,-402.12 578,-332 706.92,-332 706.92,-332 706.92,-332 1075.48,-332 1193.07,-332 1231.77,-303.58 1339.37,-351 1366.27,-362.85 1389.91,-386.93 1405.48,-405.77"/>
<polygon fill="green" stroke="green" points="1402.87,-408.1 1411.85,-413.73 1408.34,-403.73 1402.87,-408.1"/>
</g>
<!-- sliced scallions&#45;&gt;slaw bowl -->
<g id="edge37" class="edge">
<title>sliced scallions&#45;&gt;slaw bowl</title>
<path fill="none" stroke="green" d="M403.66,-465.12C416.94,-461.09 430,-454.79 439.78,-445 481.22,-403.48 450.64,-371.01 475.78,-318 488.57,-291.01 508.46,-263.39 523.74,-244.03"/>
<polygon fill="green" stroke="green" points="526.65,-246 530.18,-236.01 521.19,-241.62 526.65,-246"/>
</g>
<!-- grated carrots&#45;&gt;slaw bowl -->
<g id="edge38" class="edge">
<title>grated carrots&#45;&gt;slaw bowl</title>
<path fill="none" stroke="orange" d="M396.02,-355.12C410.86,-351.07 426.62,-345.27 439.78,-337 477.62,-313.21 509.86,-271.99 528.48,-244.85"/>
<polygon fill="orange" stroke="orange" points="531.59,-246.49 534.26,-236.24 525.78,-242.59 531.59,-246.49"/>
</g>
<!-- sliced apple&#45;&gt;slaw bowl -->
<g id="edge36" class="edge">
<title>sliced apple&#45;&gt;slaw bowl</title>
<path fill="none" stroke="black" d="M394.12,-412.09C410.05,-408.19 426.92,-401.72 439.78,-391 467.55,-367.82 457.37,-349.14 475.78,-318 491.07,-292.12 510.86,-264.19 525.46,-244.44"/>
<polygon fill="black" stroke="black" points="528.4,-246.35 531.57,-236.24 522.78,-242.17 528.4,-246.35"/>
</g>
<!-- diced potatos&#45;&gt;pot of water -->
<g id="edge41" class="edge">
<title>diced potatos&#45;&gt;pot of water</title>
<path fill="none" stroke="black" d="M400.46,-521.59C429.87,-519.24 465.77,-516.37 494.51,-514.08"/>
<polygon fill="black" stroke="black" points="495.06,-517.54 504.75,-513.26 494.5,-510.57 495.06,-517.54"/>
</g>
<!-- 450°F oven -->
<g id="node34" class="node">
<title>450°F oven</title>
<polygon fill="white" stroke="white" points="904.27,-135 824.27,-135 824.27,-99 904.27,-99 904.27,-135"/>
<text text-anchor="middle" x="864.27" y="-113.3" font-family="Times,serif" font-size="14.00">450°F oven</text>
</g>
<!-- baking sheet&#45;&gt;450°F oven -->
<g id="edge32" class="edge">
<title>baking sheet&#45;&gt;450°F oven</title>
<path fill="none" stroke="black" d="M750.69,-117C770.24,-117 793.67,-117 814.07,-117"/>
<polygon fill="black" stroke="black" points="814.12,-120.5 824.12,-117 814.12,-113.5 814.12,-120.5"/>
</g>
<!-- 18&#45;20 minutes -->
<g id="node35" class="node">
<title>18&#45;20 minutes</title>
<polygon fill="white" stroke="white" points="1080.55,-99.05 1084.56,-99.15 1088.53,-99.3 1092.45,-99.49 1096.29,-99.74 1100.04,-100.03 1103.69,-100.36 1107.22,-100.75 1110.62,-101.18 1113.87,-101.65 1116.97,-102.16 1119.9,-102.71 1122.66,-103.31 1125.23,-103.94 1127.61,-104.61 1129.79,-105.31 1131.76,-106.04 1133.53,-106.8 1135.08,-107.59 1136.42,-108.41 1137.54,-109.25 1138.46,-110.11 1139.15,-110.99 1139.64,-111.89 1139.92,-112.8 1139.99,-113.72 1139.87,-114.65 1139.55,-115.59 1139.05,-116.53 1138.37,-117.47 1137.51,-118.41 1136.49,-119.35 1135.31,-120.28 1133.99,-121.2 1132.53,-122.11 1130.94,-123.01 1129.22,-123.89 1127.4,-124.75 1125.47,-125.59 1123.44,-126.41 1121.33,-127.2 1119.15,-127.96 1116.89,-128.69 1114.57,-129.39 1112.19,-130.06 1109.76,-130.69 1107.29,-131.29 1104.78,-131.84 1102.23,-132.35 1099.66,-132.82 1097.07,-133.25 1094.45,-133.64 1091.82,-133.97 1089.17,-134.26 1086.52,-134.51 1083.85,-134.7 1081.18,-134.85 1078.5,-134.95 1075.82,-135 1073.14,-135 1070.47,-134.95 1067.79,-134.85 1065.12,-134.7 1062.45,-134.51 1059.79,-134.26 1057.15,-133.97 1054.52,-133.64 1051.9,-133.25 1049.31,-132.82 1046.73,-132.35 1044.19,-131.84 1041.68,-131.29 1039.21,-130.69 1036.78,-130.06 1034.4,-129.39 1032.08,-128.69 1029.82,-127.96 1027.63,-127.2 1025.52,-126.41 1023.5,-125.59 1021.57,-124.75 1019.75,-123.89 1018.03,-123.01 1016.44,-122.11 1014.98,-121.2 1013.66,-120.28 1012.48,-119.35 1011.46,-118.41 1010.6,-117.47 1009.92,-116.53 1009.42,-115.59 1009.1,-114.65 1008.98,-113.72 1009.05,-112.8 1009.33,-111.89 1009.82,-110.99 1010.51,-110.11 1011.42,-109.25 1012.55,-108.41 1013.89,-107.59 1015.44,-106.8 1017.21,-106.04 1019.18,-105.31 1021.36,-104.61 1023.74,-103.94 1026.31,-103.31 1029.07,-102.71 1032,-102.16 1035.1,-101.65 1038.35,-101.18 1041.75,-100.75 1045.28,-100.36 1048.93,-100.03 1052.68,-99.74 1056.52,-99.49 1060.44,-99.3 1064.41,-99.15 1068.42,-99.05 1072.46,-99 1076.51,-99 1080.55,-99.05"/>
<text text-anchor="middle" x="1074.48" y="-113.3" font-family="Times,serif" font-size="14.00">18&#45;20 minutes</text>
</g>
<!-- 450°F oven&#45;&gt;18&#45;20 minutes -->
<g id="edge33" class="edge">
<title>450°F oven&#45;&gt;18&#45;20 minutes</title>
<path fill="none" stroke="black" d="M904.43,-117C931.22,-117 967.56,-117 999.68,-117"/>
<polygon fill="black" stroke="black" points="999.94,-120.5 1009.94,-117 999.94,-113.5 999.94,-120.5"/>
</g>
<!-- roasted pork -->
<g id="node36" class="node">
<title>roasted pork</title>
<ellipse fill="brown" stroke="white" cx="1279.16" cy="-117" rx="54.69" ry="18"/>
<text text-anchor="middle" x="1279.16" y="-113.3" font-family="Times,serif" font-size="14.00">roasted pork</text>
</g>
<!-- 18&#45;20 minutes&#45;&gt;roasted pork -->
<g id="edge34" class="edge">
<title>18&#45;20 minutes&#45;&gt;roasted pork</title>
<path fill="none" stroke="black" d="M1138.78,-117C1162.86,-117 1190.3,-117 1214.43,-117"/>
<polygon fill="black" stroke="black" points="1214.55,-120.5 1224.55,-117 1214.55,-113.5 1214.55,-120.5"/>
</g>
<!-- sliced pork -->
<g id="node37" class="node">
<title>sliced pork</title>
<ellipse fill="brown" stroke="white" cx="1425.87" cy="-117" rx="50.09" ry="18"/>
<text text-anchor="middle" x="1425.87" y="-113.3" font-family="Times,serif" font-size="14.00">sliced pork</text>
</g>
<!-- roasted pork&#45;&gt;sliced pork -->
<g id="edge35" class="edge">
<title>roasted pork&#45;&gt;sliced pork</title>
<path fill="none" stroke="black" d="M1334.05,-117C1344.29,-117 1355.07,-117 1365.47,-117"/>
<polygon fill="black" stroke="black" points="1365.72,-120.5 1375.72,-117 1365.72,-113.5 1365.72,-120.5"/>
</g>
<!-- sliced pork&#45;&gt;plate -->
<g id="edge56" class="edge">
<title>sliced pork&#45;&gt;plate</title>
<path fill="none" stroke="black" d="M1437.57,-134.53C1449.35,-154.01 1468.71,-186.47 1484.37,-215 1498.36,-240.47 1513.28,-269.6 1524.61,-292.17"/>
<polygon fill="black" stroke="black" points="1521.63,-294.03 1529.23,-301.41 1527.89,-290.9 1521.63,-294.03"/>
</g>
<!-- slaw&#45;&gt;plate -->
<g id="edge57" class="edge">
<title>slaw&#45;&gt;plate</title>
<path fill="none" stroke="black" d="M734.99,-219.33C794.81,-222.25 946.53,-229 1073.48,-229 1073.48,-229 1073.48,-229 1280.16,-229 1367,-229 1459.9,-277.53 1508.73,-307.31"/>
<polygon fill="black" stroke="black" points="1506.98,-310.34 1517.32,-312.64 1510.67,-304.39 1506.98,-310.34"/>
</g>
<!-- 15&#45;20 minutes -->
<g id="node40" class="node">
<title>15&#45;20 minutes</title>
<polygon fill="white" stroke="white" points="870.33,-468.05 874.35,-468.15 878.32,-468.3 882.23,-468.49 886.07,-468.74 889.82,-469.03 893.47,-469.36 897,-469.75 900.4,-470.18 903.66,-470.65 906.75,-471.16 909.69,-471.71 912.44,-472.31 915.01,-472.94 917.39,-473.61 919.57,-474.31 921.55,-475.04 923.31,-475.8 924.87,-476.59 926.21,-477.41 927.33,-478.25 928.24,-479.11 928.94,-479.99 929.43,-480.89 929.7,-481.8 929.78,-482.72 929.65,-483.65 929.34,-484.59 928.83,-485.53 928.15,-486.47 927.3,-487.41 926.28,-488.35 925.1,-489.28 923.78,-490.2 922.31,-491.11 920.72,-492.01 919.01,-492.89 917.18,-493.75 915.25,-494.59 913.23,-495.41 911.12,-496.2 908.93,-496.96 906.67,-497.69 904.35,-498.39 901.97,-499.06 899.54,-499.69 897.07,-500.29 894.56,-500.84 892.02,-501.35 889.45,-501.82 886.85,-502.25 884.24,-502.64 881.61,-502.97 878.96,-503.26 876.3,-503.51 873.64,-503.7 870.97,-503.85 868.29,-503.95 865.61,-504 862.93,-504 860.25,-503.95 857.57,-503.85 854.9,-503.7 852.24,-503.51 849.58,-503.26 846.93,-502.97 844.3,-502.64 841.69,-502.25 839.09,-501.82 836.52,-501.35 833.98,-500.84 831.47,-500.29 828.99,-499.69 826.57,-499.06 824.19,-498.39 821.87,-497.69 819.61,-496.96 817.42,-496.2 815.31,-495.41 813.29,-494.59 811.36,-493.75 809.53,-492.89 807.82,-492.01 806.23,-491.11 804.76,-490.2 803.44,-489.28 802.26,-488.35 801.24,-487.41 800.39,-486.47 799.71,-485.53 799.2,-484.59 798.88,-483.65 798.76,-482.72 798.84,-481.8 799.11,-480.89 799.6,-479.99 800.3,-479.11 801.21,-478.25 802.33,-477.41 803.67,-476.59 805.23,-475.8 806.99,-475.04 808.97,-474.31 811.15,-473.61 813.53,-472.94 816.1,-472.31 818.85,-471.71 821.79,-471.16 824.88,-470.65 828.14,-470.18 831.54,-469.75 835.07,-469.36 838.72,-469.03 842.47,-468.74 846.31,-468.49 850.22,-468.3 854.19,-468.15 858.21,-468.05 862.25,-468 866.29,-468 870.33,-468.05"/>
<text text-anchor="middle" x="864.27" y="-482.3" font-family="Times,serif" font-size="14.00">15&#45;20 minutes</text>
</g>
<!-- bring to boil&#45;&gt;15&#45;20 minutes -->
<g id="edge43" class="edge">
<title>bring to boil&#45;&gt;15&#45;20 minutes</title>
<path fill="none" stroke="black" d="M762.47,-489.27C771.84,-488.96 781.73,-488.64 791.49,-488.33"/>
<polygon fill="black" stroke="black" points="791.72,-491.82 801.61,-488 791.5,-484.82 791.72,-491.82"/>
</g>
<!-- drain -->
<g id="node41" class="node">
<title>drain</title>
<ellipse fill="white" stroke="white" cx="1074.48" cy="-481" rx="28.7" ry="18"/>
<text text-anchor="middle" x="1074.48" y="-477.3" font-family="Times,serif" font-size="14.00">drain</text>
</g>
<!-- 15&#45;20 minutes&#45;&gt;drain -->
<g id="edge44" class="edge">
<title>15&#45;20 minutes&#45;&gt;drain</title>
<path fill="none" stroke="black" d="M929.44,-484.46C964.13,-483.63 1005.8,-482.63 1035.38,-481.92"/>
<polygon fill="black" stroke="black" points="1035.78,-485.41 1045.69,-481.67 1035.61,-478.41 1035.78,-485.41"/>
</g>
<!-- mash -->
<g id="node42" class="node">
<title>mash</title>
<polygon fill="white" stroke="white" points="1339.59,-484.46 1293.43,-484.46 1279.16,-528.04 1264.89,-484.46 1218.73,-484.46 1256.08,-457.54 1241.81,-413.96 1279.16,-440.89 1316.51,-413.96 1302.24,-457.54 1339.59,-484.46"/>
<text text-anchor="middle" x="1279.16" y="-467.3" font-family="Times,serif" font-size="14.00">mash</text>
</g>
<!-- drain&#45;&gt;mash -->
<g id="edge45" class="edge">
<title>drain&#45;&gt;mash</title>
<path fill="none" stroke="black" d="M1103.24,-479.63C1134.29,-478.1 1185.34,-475.58 1224.29,-473.66"/>
<polygon fill="black" stroke="black" points="1224.61,-477.15 1234.42,-473.16 1224.26,-470.16 1224.61,-477.15"/>
</g>
<!-- mash&#45;&gt;mashed potatos -->
<g id="edge46" class="edge">
<title>mash&#45;&gt;mashed potatos</title>
<path fill="none" stroke="black" d="M1309.79,-463.01C1325.85,-458.69 1346.28,-453.18 1365.45,-448.01"/>
<polygon fill="black" stroke="black" points="1366.59,-451.33 1375.33,-445.35 1364.77,-444.57 1366.59,-451.33"/>
</g>
<!-- microwave -->
<g id="node44" class="node">
<title>microwave</title>
<polygon fill="white" stroke="white" points="746.42,-768 669.42,-768 669.42,-732 746.42,-732 746.42,-768"/>
<text text-anchor="middle" x="707.92" y="-746.3" font-family="Times,serif" font-size="14.00">microwave</text>
</g>
<!-- sauce bowl&#45;&gt;microwave -->
<g id="edge51" class="edge">
<title>sauce bowl&#45;&gt;microwave</title>
<path fill="none" stroke="black" d="M601.06,-753.99C619.9,-753.28 640.92,-752.48 659.25,-751.79"/>
<polygon fill="black" stroke="black" points="659.54,-755.29 669.4,-751.41 659.27,-748.29 659.54,-755.29"/>
</g>
<!-- 45 seconds -->
<g id="node45" class="node">
<title>45 seconds</title>
<polygon fill="white" stroke="white" points="869.18,-719.05 872.44,-719.15 875.65,-719.3 878.83,-719.49 881.94,-719.74 884.98,-720.03 887.94,-720.36 890.8,-720.75 893.55,-721.18 896.19,-721.65 898.7,-722.16 901.08,-722.71 903.31,-723.31 905.39,-723.94 907.32,-724.61 909.09,-725.31 910.69,-726.04 912.12,-726.8 913.38,-727.59 914.47,-728.41 915.38,-729.25 916.12,-730.11 916.68,-730.99 917.07,-731.89 917.3,-732.8 917.36,-733.72 917.26,-734.65 917,-735.59 916.6,-736.53 916.04,-737.47 915.35,-738.41 914.52,-739.35 913.57,-740.28 912.5,-741.2 911.31,-742.11 910.02,-743.01 908.63,-743.89 907.15,-744.75 905.59,-745.59 903.95,-746.41 902.24,-747.2 900.47,-747.96 898.64,-748.69 896.75,-749.39 894.83,-750.06 892.86,-750.69 890.86,-751.29 888.82,-751.84 886.76,-752.35 884.68,-752.82 882.57,-753.25 880.45,-753.64 878.32,-753.97 876.18,-754.26 874.02,-754.51 871.86,-754.7 869.7,-754.85 867.53,-754.95 865.36,-755 863.18,-755 861.01,-754.95 858.84,-754.85 856.68,-754.7 854.52,-754.51 852.36,-754.26 850.22,-753.97 848.09,-753.64 845.97,-753.25 843.86,-752.82 841.78,-752.35 839.72,-751.84 837.68,-751.29 835.68,-750.69 833.71,-750.06 831.79,-749.39 829.9,-748.69 828.07,-747.96 826.3,-747.2 824.59,-746.41 822.95,-745.59 821.39,-744.75 819.91,-743.89 818.52,-743.01 817.23,-742.11 816.04,-741.2 814.97,-740.28 814.02,-739.35 813.19,-738.41 812.5,-737.47 811.94,-736.53 811.54,-735.59 811.28,-734.65 811.18,-733.72 811.24,-732.8 811.46,-731.89 811.86,-730.99 812.42,-730.11 813.16,-729.25 814.07,-728.41 815.16,-727.59 816.42,-726.8 817.85,-726.04 819.45,-725.31 821.22,-724.61 823.14,-723.94 825.23,-723.31 827.46,-722.71 829.84,-722.16 832.35,-721.65 834.99,-721.18 837.74,-720.75 840.6,-720.36 843.56,-720.03 846.6,-719.74 849.71,-719.49 852.89,-719.3 856.1,-719.15 859.36,-719.05 862.63,-719 865.91,-719 869.18,-719.05"/>
<text text-anchor="middle" x="864.27" y="-733.3" font-family="Times,serif" font-size="14.00">45 seconds</text>
</g>
<!-- microwave&#45;&gt;45 seconds -->
<g id="edge52" class="edge">
<title>microwave&#45;&gt;45 seconds</title>
<path fill="none" stroke="black" d="M746.68,-746.82C764.39,-745.33 785.88,-743.52 805.56,-741.86"/>
<polygon fill="black" stroke="black" points="805.99,-745.34 815.66,-741.01 805.4,-738.36 805.99,-745.34"/>
</g>
<!-- 45 seconds&#45;&gt;microwaved sauce -->
<g id="edge53" class="edge">
<title>45 seconds&#45;&gt;microwaved sauce</title>
<path fill="none" stroke="black" d="M916.2,-730.15C929.93,-728.3 945.35,-726.23 961.01,-724.12"/>
<polygon fill="black" stroke="black" points="961.89,-727.54 971.33,-722.74 960.95,-720.6 961.89,-727.54"/>
</g>
</g>
</svg>
