<?xml version="1.0" encoding="UTF-8" standalone="no"?>
<!DOCTYPE svg PUBLIC "-//W3C//DTD SVG 1.1//EN"
 "http://www.w3.org/Graphics/SVG/1.1/DTD/svg11.dtd">
<!-- Generated by graphviz version 2.44.1 (20200629.0846)
 -->
<!-- Title: G Pages: 1 -->
<svg width="1592pt" height="951pt"
 viewBox="0.00 0.00 1592.25 951.00" xmlns="http://www.w3.org/2000/svg" xmlns:xlink="http://www.w3.org/1999/xlink">
<g id="graph0" class="graph" transform="scale(1 1) rotate(0) translate(4 947)">
<title>G</title>
<polygon fill="white" stroke="transparent" points="-4,4 -4,-947 1588.25,-947 1588.25,4 -4,4"/>
<g id="clust1" class="cluster">
<title>cluster_6</title>
</g>
<g id="clust2" class="cluster">
<title>cluster_5</title>
<polygon fill="tan" stroke="tan" points="271.84,-530 271.84,-767 416.53,-767 416.53,-530 271.84,-530"/>
<text text-anchor="middle" x="344.18" y="-751.8" font-family="Times,serif" font-size="14.00">chop</text>
</g>
<g id="clust3" class="cluster">
<title>cluster_0</title>
<polygon fill="tan" stroke="tan" points="484.61,-263 484.61,-356 1475.9,-356 1475.9,-263 484.61,-263"/>
<text text-anchor="middle" x="980.25" y="-328" font-family="Times,serif" font-size="30.00">pork (20 minutes)</text>
</g>
<g id="clust4" class="cluster">
<title>cluster_1</title>
<polygon fill="pink" stroke="pink" points="292.68,-447 292.68,-522 742.92,-522 742.92,-447 292.68,-447"/>
<text text-anchor="middle" x="517.8" y="-506.8" font-family="Times,serif" font-size="14.00">slaw</text>
</g>
<g id="clust5" class="cluster">
<title>cluster_2</title>
<polygon fill="lightgray" stroke="lightgray" points="497.05,-728 497.05,-899 1476.36,-899 1476.36,-728 497.05,-728"/>
<text text-anchor="middle" x="986.7" y="-871" font-family="Times,serif" font-size="30.00">mashed potatos (25 minutes)</text>
</g>
<g id="clust6" class="cluster">
<title>cluster_3</title>
<polygon fill="pink" stroke="pink" points="240.59,-8 240.59,-155 1182.93,-155 1182.93,-8 240.59,-8"/>
<text text-anchor="middle" x="711.76" y="-127" font-family="Times,serif" font-size="30.00">sauce (1 minute)</text>
</g>
<g id="clust7" class="cluster">
<title>cluster_4</title>
</g>
<!-- box -->
<g id="node1" class="node">
<title>box</title>
<polygon fill="tan" stroke="black" points="70,-469 16,-469 16,-433 70,-433 70,-469"/>
<text text-anchor="middle" x="43" y="-447.3" font-family="Times,serif" font-size="14.00">box</text>
</g>
<!-- potatos -->
<g id="node2" class="node">
<title>potatos</title>
<ellipse fill="brown" stroke="black" cx="159.3" cy="-667" rx="36.29" ry="18"/>
<text text-anchor="middle" x="159.3" y="-663.3" font-family="Times,serif" font-size="14.00">potatos</text>
</g>
<!-- box&#45;&gt;potatos -->
<g id="edge1" class="edge">
<title>box&#45;&gt;potatos</title>
<path fill="none" stroke="black" d="M45.42,-469.07C49.15,-505.49 62.22,-588.61 106,-640 109.91,-644.58 114.78,-648.49 119.98,-651.78"/>
<polygon fill="black" stroke="black" points="118.47,-654.95 128.91,-656.77 121.88,-648.84 118.47,-654.95"/>
</g>
<!-- scallions -->
<g id="node3" class="node">
<title>scallions</title>
<ellipse fill="darkgreen" stroke="black" cx="159.3" cy="-613" rx="41.69" ry="18"/>
<text text-anchor="middle" x="159.3" y="-609.3" font-family="Times,serif" font-size="14.00">scallions</text>
</g>
<!-- box&#45;&gt;scallions -->
<g id="edge2" class="edge">
<title>box&#45;&gt;scallions</title>
<path fill="none" stroke="black" d="M48.3,-469.35C55.73,-497.55 73.4,-551.87 106,-586 109.66,-589.83 113.97,-593.21 118.53,-596.17"/>
<polygon fill="black" stroke="black" points="117.09,-599.38 127.5,-601.36 120.59,-593.32 117.09,-599.38"/>
</g>
<!-- carrots -->
<g id="node4" class="node">
<title>carrots</title>
<ellipse fill="orange" stroke="black" cx="159.3" cy="-559" rx="34.39" ry="18"/>
<text text-anchor="middle" x="159.3" y="-555.3" font-family="Times,serif" font-size="14.00">carrots</text>
</g>
<!-- box&#45;&gt;carrots -->
<g id="edge3" class="edge">
<title>box&#45;&gt;carrots</title>
<path fill="none" stroke="black" d="M54.66,-469.29C65.72,-487.06 84.41,-513.92 106,-532 110.99,-536.18 116.73,-539.94 122.54,-543.25"/>
<polygon fill="black" stroke="black" points="121.15,-546.48 131.63,-548.05 124.42,-540.29 121.15,-546.48"/>
</g>
<!-- apple -->
<g id="node5" class="node">
<title>apple</title>
<ellipse fill="red" stroke="black" cx="159.3" cy="-505" rx="29.8" ry="18"/>
<text text-anchor="middle" x="159.3" y="-501.3" font-family="Times,serif" font-size="14.00">apple</text>
</g>
<!-- box&#45;&gt;apple -->
<g id="edge4" class="edge">
<title>box&#45;&gt;apple</title>
<path fill="none" stroke="black" d="M70.22,-463.39C86.79,-471.22 108.33,-481.39 125.96,-489.72"/>
<polygon fill="black" stroke="black" points="124.75,-493.02 135.29,-494.13 127.75,-486.7 124.75,-493.02"/>
</g>
<!-- pork -->
<g id="node6" class="node">
<title>pork</title>
<ellipse fill="brown" stroke="black" cx="159.3" cy="-397" rx="27" ry="18"/>
<text text-anchor="middle" x="159.3" y="-393.3" font-family="Times,serif" font-size="14.00">pork</text>
</g>
<!-- box&#45;&gt;pork -->
<g id="edge5" class="edge">
<title>box&#45;&gt;pork</title>
<path fill="none" stroke="black" d="M70.22,-438.61C87.24,-430.57 109.49,-420.06 127.37,-411.61"/>
<polygon fill="black" stroke="black" points="129.24,-414.6 136.79,-407.16 126.25,-408.27 129.24,-414.6"/>
</g>
<!-- C&amp;P -->
<g id="node7" class="node">
<title>C&amp;P</title>
<polygon fill="brown" stroke="black" points="182.88,-307 135.71,-307 118.91,-271 199.68,-271 182.88,-307"/>
<text text-anchor="middle" x="159.3" y="-285.3" font-family="Times,serif" font-size="14.00">C&amp;P</text>
</g>
<!-- box&#45;&gt;C&amp;P -->
<g id="edge6" class="edge">
<title>box&#45;&gt;C&amp;P</title>
<path fill="none" stroke="black" d="M48.3,-432.65C55.73,-404.45 73.4,-350.13 106,-316 110.74,-311.04 116.6,-306.82 122.65,-303.29"/>
<polygon fill="black" stroke="black" points="124.33,-306.37 131.57,-298.63 121.08,-300.17 124.33,-306.37"/>
</g>
<!-- jam -->
<g id="node8" class="node">
<title>jam</title>
<path fill="red" stroke="black" d="M186.3,-249.73C186.3,-251.53 174.19,-253 159.3,-253 144.4,-253 132.3,-251.53 132.3,-249.73 132.3,-249.73 132.3,-220.27 132.3,-220.27 132.3,-218.47 144.4,-217 159.3,-217 174.19,-217 186.3,-218.47 186.3,-220.27 186.3,-220.27 186.3,-249.73 186.3,-249.73"/>
<path fill="none" stroke="black" d="M186.3,-249.73C186.3,-247.92 174.19,-246.45 159.3,-246.45 144.4,-246.45 132.3,-247.92 132.3,-249.73"/>
<text text-anchor="middle" x="159.3" y="-231.3" font-family="Times,serif" font-size="14.00">jam</text>
</g>
<!-- box&#45;&gt;jam -->
<g id="edge7" class="edge">
<title>box&#45;&gt;jam</title>
<path fill="none" stroke="black" d="M45.42,-432.93C49.15,-396.51 62.22,-313.39 106,-262 110.63,-256.57 116.63,-252.09 122.9,-248.44"/>
<polygon fill="black" stroke="black" points="124.86,-251.37 132.17,-243.7 121.67,-245.14 124.86,-251.37"/>
</g>
<!-- mayonnaise -->
<g id="node9" class="node">
<title>mayonnaise</title>
<ellipse fill="none" stroke="black" cx="159.3" cy="-451" rx="53.09" ry="18"/>
<text text-anchor="middle" x="159.3" y="-447.3" font-family="Times,serif" font-size="14.00">mayonnaise</text>
</g>
<!-- box&#45;&gt;mayonnaise -->
<g id="edge8" class="edge">
<title>box&#45;&gt;mayonnaise</title>
<path fill="none" stroke="black" d="M70.22,-451C77.88,-451 86.61,-451 95.51,-451"/>
<polygon fill="black" stroke="black" points="95.6,-454.5 105.6,-451 95.6,-447.5 95.6,-454.5"/>
</g>
<!-- vinegar -->
<g id="node10" class="node">
<title>vinegar</title>
<path fill="none" stroke="black" d="M187.8,-357.73C187.8,-359.53 175.02,-361 159.3,-361 143.57,-361 130.8,-359.53 130.8,-357.73 130.8,-357.73 130.8,-328.27 130.8,-328.27 130.8,-326.47 143.57,-325 159.3,-325 175.02,-325 187.8,-326.47 187.8,-328.27 187.8,-328.27 187.8,-357.73 187.8,-357.73"/>
<path fill="none" stroke="black" d="M187.8,-357.73C187.8,-355.92 175.02,-354.45 159.3,-354.45 143.57,-354.45 130.8,-355.92 130.8,-357.73"/>
<text text-anchor="middle" x="159.3" y="-339.3" font-family="Times,serif" font-size="14.00">vinegar</text>
</g>
<!-- box&#45;&gt;vinegar -->
<g id="edge9" class="edge">
<title>box&#45;&gt;vinegar</title>
<path fill="none" stroke="black" d="M54.66,-432.71C65.72,-414.94 84.41,-388.08 106,-370 110.67,-366.09 115.99,-362.54 121.42,-359.39"/>
<polygon fill="black" stroke="black" points="123.4,-362.3 130.55,-354.48 120.09,-356.14 123.4,-362.3"/>
</g>
<!-- diced potatos -->
<g id="node32" class="node">
<title>diced potatos</title>
<ellipse fill="brown" stroke="white" cx="344.18" cy="-718" rx="57.69" ry="18"/>
<text text-anchor="middle" x="344.18" y="-714.3" font-family="Times,serif" font-size="14.00">diced potatos</text>
</g>
<!-- potatos&#45;&gt;diced potatos -->
<g id="edge29" class="edge">
<title>potatos&#45;&gt;diced potatos</title>
<path fill="none" stroke="black" d="M190.73,-676.36C205.71,-680.89 224.06,-686.36 240.59,-691 256.23,-695.39 273.26,-699.96 288.88,-704.07"/>
<polygon fill="black" stroke="black" points="288.35,-707.55 298.91,-706.69 290.12,-700.77 288.35,-707.55"/>
</g>
<!-- sliced scallions -->
<g id="node29" class="node">
<title>sliced scallions</title>
<ellipse fill="darkgreen" stroke="white" cx="344.18" cy="-664" rx="64.19" ry="18"/>
<text text-anchor="middle" x="344.18" y="-660.3" font-family="Times,serif" font-size="14.00">sliced scallions</text>
</g>
<!-- scallions&#45;&gt;sliced scallions -->
<g id="edge26" class="edge">
<title>scallions&#45;&gt;sliced scallions</title>
<path fill="none" stroke="black" d="M193.82,-623.29C208.19,-627.63 225.18,-632.67 240.59,-637 255.29,-641.13 271.22,-645.41 286.05,-649.32"/>
<polygon fill="black" stroke="black" points="285.55,-652.81 296.11,-651.96 287.32,-646.04 285.55,-652.81"/>
</g>
<!-- grated carrots -->
<g id="node30" class="node">
<title>grated carrots</title>
<ellipse fill="orange" stroke="white" cx="344.18" cy="-610" rx="59.29" ry="18"/>
<text text-anchor="middle" x="344.18" y="-606.3" font-family="Times,serif" font-size="14.00">grated carrots</text>
</g>
<!-- carrots&#45;&gt;grated carrots -->
<g id="edge27" class="edge">
<title>carrots&#45;&gt;grated carrots</title>
<path fill="none" stroke="black" d="M189.59,-568.01C204.78,-572.62 223.64,-578.24 240.59,-583 256.08,-587.35 272.95,-591.88 288.45,-595.95"/>
<polygon fill="black" stroke="black" points="287.84,-599.41 298.4,-598.56 289.62,-592.64 287.84,-599.41"/>
</g>
<!-- sliced apple -->
<g id="node31" class="node">
<title>sliced apple</title>
<ellipse fill="red" stroke="white" cx="344.18" cy="-556" rx="52.79" ry="18"/>
<text text-anchor="middle" x="344.18" y="-552.3" font-family="Times,serif" font-size="14.00">sliced apple</text>
</g>
<!-- apple&#45;&gt;sliced apple -->
<g id="edge28" class="edge">
<title>apple&#45;&gt;sliced apple</title>
<path fill="none" stroke="black" d="M186.89,-512.42C214.57,-520.14 258.59,-532.41 292.87,-541.97"/>
<polygon fill="black" stroke="black" points="292.13,-545.4 302.71,-544.71 294.01,-538.66 292.13,-545.4"/>
</g>
<!-- rubbed pork -->
<g id="node12" class="node">
<title>rubbed pork</title>
<ellipse fill="brown" stroke="black" cx="546.55" cy="-289" rx="53.89" ry="18"/>
<text text-anchor="middle" x="546.55" y="-285.3" font-family="Times,serif" font-size="14.00">rubbed pork</text>
</g>
<!-- pork&#45;&gt;rubbed pork -->
<g id="edge19" class="edge">
<title>pork&#45;&gt;rubbed pork</title>
<path fill="none" stroke="black" d="M183.32,-388.31C194.86,-383.55 208.84,-377.17 220.59,-370 230.31,-364.07 230.25,-358.76 240.59,-354 322.45,-316.3 351.81,-335.6 439.78,-316 457.56,-312.04 476.9,-307.24 494.13,-302.8"/>
<polygon fill="black" stroke="black" points="495.2,-306.14 503.99,-300.24 493.44,-299.37 495.2,-306.14"/>
</g>
<!-- 1/4 tsp C&amp;P -->
<g id="node19" class="node">
<title>1/4 tsp C&amp;P</title>
<polygon fill="brown" stroke="black" points="389.89,-307 298.48,-307 265.93,-271 422.44,-271 389.89,-307"/>
<text text-anchor="middle" x="344.18" y="-285.3" font-family="Times,serif" font-size="14.00">1/4 tsp C&amp;P</text>
</g>
<!-- C&amp;P&#45;&gt;1/4 tsp C&amp;P -->
<g id="edge14" class="edge">
<title>C&amp;P&#45;&gt;1/4 tsp C&amp;P</title>
<path fill="none" stroke="black" d="M191.32,-289C213.38,-289 243.92,-289 271.83,-289"/>
<polygon fill="black" stroke="black" points="271.98,-292.5 281.98,-289 271.98,-285.5 271.98,-292.5"/>
</g>
<!-- remaining C&amp;P -->
<g id="node20" class="node">
<title>remaining C&amp;P</title>
<polygon fill="brown" stroke="black" points="400.06,-52 288.3,-52 248.5,-16 439.87,-16 400.06,-52"/>
<text text-anchor="middle" x="344.18" y="-30.3" font-family="Times,serif" font-size="14.00">remaining C&amp;P</text>
</g>
<!-- C&amp;P&#45;&gt;remaining C&amp;P -->
<g id="edge15" class="edge">
<title>C&amp;P&#45;&gt;remaining C&amp;P</title>
<path fill="none" stroke="black" d="M195.55,-280.36C205.11,-276.33 214.49,-270.47 220.59,-262 246.83,-225.58 211.46,-95.15 240.59,-61 247.22,-53.22 255.8,-47.55 265.17,-43.43"/>
<polygon fill="black" stroke="black" points="266.64,-46.62 274.76,-39.81 264.17,-40.07 266.64,-46.62"/>
</g>
<!-- sauce bowl -->
<g id="node43" class="node">
<title>sauce bowl</title>
<polygon fill="red" stroke="white" points="505.35,-70 587.75,-70 617.1,-106 476,-106 505.35,-70"/>
<text text-anchor="middle" x="546.55" y="-84.3" font-family="Times,serif" font-size="14.00">sauce bowl</text>
</g>
<!-- jam&#45;&gt;sauce bowl -->
<g id="edge49" class="edge">
<title>jam&#45;&gt;sauce bowl</title>
<path fill="none" stroke="black" d="M173.12,-216.73C187.36,-197.91 212.14,-169.23 240.59,-154 320.12,-111.42 351.77,-134.83 439.78,-115 448.67,-113 457.95,-110.79 467.17,-108.53"/>
<polygon fill="black" stroke="black" points="468.26,-111.87 477.12,-106.07 466.58,-105.08 468.26,-111.87"/>
</g>
<!-- slaw bowl -->
<g id="node16" class="node">
<title>slaw bowl</title>
<polygon fill="orange" stroke="black" points="507.8,-455 585.31,-455 612.91,-491 480.19,-491 507.8,-455"/>
<text text-anchor="middle" x="546.55" y="-469.3" font-family="Times,serif" font-size="14.00">slaw bowl</text>
</g>
<!-- mayonnaise&#45;&gt;slaw bowl -->
<g id="edge21" class="edge">
<title>mayonnaise&#45;&gt;slaw bowl</title>
<path fill="none" stroke="black" d="M210.51,-445.81C266.63,-441.01 360.09,-435.99 439.78,-446 457.77,-448.26 477.1,-452.61 494.25,-457.16"/>
<polygon fill="black" stroke="black" points="493.49,-460.58 504.06,-459.85 495.34,-453.83 493.49,-460.58"/>
</g>
<!-- 4 tsp vinegar -->
<g id="node21" class="node">
<title>4 tsp vinegar</title>
<path fill="white" stroke="black" d="M387.68,-487.73C387.68,-489.53 368.19,-491 344.18,-491 320.18,-491 300.68,-489.53 300.68,-487.73 300.68,-487.73 300.68,-458.27 300.68,-458.27 300.68,-456.47 320.18,-455 344.18,-455 368.19,-455 387.68,-456.47 387.68,-458.27 387.68,-458.27 387.68,-487.73 387.68,-487.73"/>
<path fill="none" stroke="black" d="M387.68,-487.73C387.68,-485.92 368.19,-484.45 344.18,-484.45 320.18,-484.45 300.68,-485.92 300.68,-487.73"/>
<text text-anchor="middle" x="344.18" y="-469.3" font-family="Times,serif" font-size="14.00">4 tsp vinegar</text>
</g>
<!-- vinegar&#45;&gt;4 tsp vinegar -->
<g id="edge16" class="edge">
<title>vinegar&#45;&gt;4 tsp vinegar</title>
<path fill="none" stroke="black" d="M188.09,-351.02C199.19,-355.28 211.47,-361.44 220.59,-370 234.51,-383.06 227.65,-393.97 240.59,-408 256.64,-425.39 278.33,-440.02 297.64,-450.98"/>
<polygon fill="black" stroke="black" points="296.15,-454.15 306.6,-455.9 299.52,-448.02 296.15,-454.15"/>
</g>
<!-- remaining vinegar -->
<g id="node22" class="node">
<title>remaining vinegar</title>
<path fill="white" stroke="black" d="M402.18,-102.73C402.18,-104.53 376.19,-106 344.18,-106 312.18,-106 286.18,-104.53 286.18,-102.73 286.18,-102.73 286.18,-73.27 286.18,-73.27 286.18,-71.47 312.18,-70 344.18,-70 376.19,-70 402.18,-71.47 402.18,-73.27 402.18,-73.27 402.18,-102.73 402.18,-102.73"/>
<path fill="none" stroke="black" d="M402.18,-102.73C402.18,-100.92 376.19,-99.45 344.18,-99.45 312.18,-99.45 286.18,-100.92 286.18,-102.73"/>
<text text-anchor="middle" x="344.18" y="-84.3" font-family="Times,serif" font-size="14.00">remaining vinegar</text>
</g>
<!-- vinegar&#45;&gt;remaining vinegar -->
<g id="edge17" class="edge">
<title>vinegar&#45;&gt;remaining vinegar</title>
<path fill="none" stroke="black" d="M187.89,-337.11C199.79,-333.13 212.75,-326.61 220.59,-316 263.7,-257.65 201.99,-215.43 240.59,-154 252.46,-135.11 271.92,-120.6 290.73,-110.05"/>
<polygon fill="black" stroke="black" points="292.4,-113.13 299.58,-105.34 289.11,-106.95 292.4,-113.13"/>
</g>
<!-- S&amp;P 1 -->
<g id="node11" class="node">
<title>S&amp;P 1</title>
<polygon fill="gray" stroke="black" points="372.76,-253 315.61,-253 295.25,-217 393.11,-217 372.76,-253"/>
<text text-anchor="middle" x="344.18" y="-231.3" font-family="Times,serif" font-size="14.00">S&amp;P 1</text>
</g>
<!-- S&amp;P 1&#45;&gt;rubbed pork -->
<g id="edge10" class="edge">
<title>S&amp;P 1&#45;&gt;rubbed pork</title>
<path fill="none" stroke="black" d="M378.27,-243.92C409.77,-252.41 457.64,-265.31 494.11,-275.14"/>
<polygon fill="black" stroke="black" points="493.51,-278.6 504.07,-277.82 495.33,-271.84 493.51,-278.6"/>
</g>
<!-- baking sheet -->
<g id="node33" class="node">
<title>baking sheet</title>
<polygon fill="gray" stroke="white" points="750.42,-307 665.42,-307 665.42,-271 750.42,-271 750.42,-307"/>
<text text-anchor="middle" x="707.92" y="-285.3" font-family="Times,serif" font-size="14.00">baking sheet</text>
</g>
<!-- rubbed pork&#45;&gt;baking sheet -->
<g id="edge30" class="edge">
<title>rubbed pork&#45;&gt;baking sheet</title>
<path fill="none" stroke="black" d="M600.62,-289C618.25,-289 637.86,-289 655.38,-289"/>
<polygon fill="black" stroke="black" points="655.42,-292.5 665.42,-289 655.42,-285.5 655.42,-292.5"/>
</g>
<!-- S&amp;P 3 -->
<g id="node13" class="node">
<title>S&amp;P 3</title>
<polygon fill="gray" stroke="black" points="1299.72,-718 1242.56,-718 1222.21,-682 1320.07,-682 1299.72,-718"/>
<text text-anchor="middle" x="1271.14" y="-696.3" font-family="Times,serif" font-size="14.00">S&amp;P 3</text>
</g>
<!-- mashed potatos -->
<g id="node14" class="node">
<title>mashed potatos</title>
<path fill="gray" stroke="black" d="M1468.36,-768.73C1468.36,-770.53 1445.72,-772 1417.86,-772 1389.99,-772 1367.36,-770.53 1367.36,-768.73 1367.36,-768.73 1367.36,-739.27 1367.36,-739.27 1367.36,-737.47 1389.99,-736 1417.86,-736 1445.72,-736 1468.36,-737.47 1468.36,-739.27 1468.36,-739.27 1468.36,-768.73 1468.36,-768.73"/>
<path fill="none" stroke="black" d="M1468.36,-768.73C1468.36,-766.92 1445.72,-765.45 1417.86,-765.45 1389.99,-765.45 1367.36,-766.92 1367.36,-768.73"/>
<text text-anchor="middle" x="1417.86" y="-750.3" font-family="Times,serif" font-size="14.00">mashed potatos</text>
</g>
<!-- S&amp;P 3&#45;&gt;mashed potatos -->
<g id="edge11" class="edge">
<title>S&amp;P 3&#45;&gt;mashed potatos</title>
<path fill="none" stroke="black" d="M1303.54,-711.72C1320.62,-718.09 1342.23,-726.15 1361.99,-733.53"/>
<polygon fill="black" stroke="black" points="1360.92,-736.86 1371.51,-737.08 1363.36,-730.3 1360.92,-736.86"/>
</g>
<!-- plate -->
<g id="node46" class="node">
<title>plate</title>
<ellipse fill="none" stroke="black" cx="1536.3" cy="-423" rx="27.9" ry="27.9"/>
<ellipse fill="none" stroke="black" cx="1536.3" cy="-423" rx="31.9" ry="31.9"/>
<text text-anchor="middle" x="1536.3" y="-419.3" font-family="Times,serif" font-size="14.00">plate</text>
</g>
<!-- mashed potatos&#45;&gt;plate -->
<g id="edge53" class="edge">
<title>mashed potatos&#45;&gt;plate</title>
<path fill="none" stroke="black" d="M1425.28,-735.73C1443.54,-683.83 1496.05,-534.59 1521.34,-462.68"/>
<polygon fill="black" stroke="black" points="1524.71,-463.65 1524.73,-453.06 1518.11,-461.33 1524.71,-463.65"/>
</g>
<!-- S&amp;P 4 -->
<g id="node15" class="node">
<title>S&amp;P 4</title>
<polygon fill="gray" stroke="black" points="372.76,-399 315.61,-399 295.25,-363 393.11,-363 372.76,-399"/>
<text text-anchor="middle" x="344.18" y="-377.3" font-family="Times,serif" font-size="14.00">S&amp;P 4</text>
</g>
<!-- S&amp;P 4&#45;&gt;slaw bowl -->
<g id="edge12" class="edge">
<title>S&amp;P 4&#45;&gt;slaw bowl</title>
<path fill="none" stroke="black" d="M377.73,-390.33C396.24,-396.05 419.68,-404 439.78,-413 463.33,-423.55 488.52,-437.71 508.4,-449.63"/>
<polygon fill="black" stroke="black" points="506.77,-452.73 517.14,-454.92 510.4,-446.75 506.77,-452.73"/>
</g>
<!-- slaw -->
<g id="node38" class="node">
<title>slaw</title>
<ellipse fill="orange" stroke="white" cx="707.92" cy="-473" rx="27" ry="18"/>
<text text-anchor="middle" x="707.92" y="-469.3" font-family="Times,serif" font-size="14.00">slaw</text>
</g>
<!-- slaw bowl&#45;&gt;slaw -->
<g id="edge39" class="edge">
<title>slaw bowl&#45;&gt;slaw</title>
<path fill="none" stroke="black" d="M599.29,-473C622.62,-473 649.6,-473 670.72,-473"/>
<polygon fill="black" stroke="black" points="670.87,-476.5 680.87,-473 670.87,-469.5 670.87,-476.5"/>
</g>
<!-- S&amp;P 2 -->
<g id="node17" class="node">
<title>S&amp;P 2</title>
<polygon fill="gray" stroke="black" points="888.84,-199 831.68,-199 811.33,-163 909.19,-163 888.84,-199"/>
<text text-anchor="middle" x="860.26" y="-177.3" font-family="Times,serif" font-size="14.00">S&amp;P 2</text>
</g>
<!-- microwaved sauce -->
<g id="node18" class="node">
<title>microwaved sauce</title>
<polygon fill="red" stroke="black" points="1003.15,-70 1129.79,-70 1174.89,-106 958.04,-106 1003.15,-70"/>
<text text-anchor="middle" x="1066.47" y="-84.3" font-family="Times,serif" font-size="14.00">microwaved sauce</text>
</g>
<!-- S&amp;P 2&#45;&gt;microwaved sauce -->
<g id="edge13" class="edge">
<title>S&amp;P 2&#45;&gt;microwaved sauce</title>
<path fill="none" stroke="black" d="M908.55,-164.46C913.13,-162.68 917.67,-160.85 922,-159 956.45,-144.29 994.38,-125.4 1022.59,-110.79"/>
<polygon fill="black" stroke="black" points="1024.51,-113.74 1031.76,-106.02 1021.28,-107.53 1024.51,-113.74"/>
</g>
<!-- microwaved sauce&#45;&gt;plate -->
<g id="edge54" class="edge">
<title>microwaved sauce&#45;&gt;plate</title>
<path fill="none" stroke="black" d="M1082.78,-106.28C1107.23,-136.32 1155.17,-198.82 1182.93,-259 1202.44,-301.3 1176.72,-328.38 1210.93,-360 1289.5,-432.63 1425.78,-432.87 1493.96,-427.65"/>
<polygon fill="black" stroke="black" points="1494.63,-431.1 1504.3,-426.77 1494.04,-424.13 1494.63,-431.1"/>
</g>
<!-- 1/4 tsp C&amp;P&#45;&gt;rubbed pork -->
<g id="edge18" class="edge">
<title>1/4 tsp C&amp;P&#45;&gt;rubbed pork</title>
<path fill="none" stroke="black" d="M406.39,-289C430.46,-289 458.08,-289 482.34,-289"/>
<polygon fill="black" stroke="black" points="482.51,-292.5 492.51,-289 482.51,-285.5 482.51,-292.5"/>
</g>
<!-- remaining C&amp;P&#45;&gt;sauce bowl -->
<g id="edge48" class="edge">
<title>remaining C&amp;P&#45;&gt;sauce bowl</title>
<path fill="none" stroke="black" d="M402.87,-49.55C430.46,-56.98 463.34,-65.84 490.57,-73.18"/>
<polygon fill="black" stroke="black" points="489.77,-76.59 500.33,-75.81 491.59,-69.83 489.77,-76.59"/>
</g>
<!-- 4 tsp vinegar&#45;&gt;slaw bowl -->
<g id="edge38" class="edge">
<title>4 tsp vinegar&#45;&gt;slaw bowl</title>
<path fill="none" stroke="black" d="M388.17,-473C415.96,-473 452.58,-473 483.5,-473"/>
<polygon fill="black" stroke="black" points="483.75,-476.5 493.75,-473 483.75,-469.5 483.75,-476.5"/>
</g>
<!-- remaining vinegar&#45;&gt;sauce bowl -->
<g id="edge47" class="edge">
<title>remaining vinegar&#45;&gt;sauce bowl</title>
<path fill="none" stroke="black" d="M402.33,-88C426.63,-88 455.1,-88 480.22,-88"/>
<polygon fill="black" stroke="black" points="480.4,-91.5 490.4,-88 480.4,-84.5 480.4,-91.5"/>
</g>
<!-- oil -->
<g id="node23" class="node">
<title>oil</title>
<ellipse fill="none" stroke="black" cx="344.18" cy="-181" rx="27" ry="18"/>
<text text-anchor="middle" x="344.18" y="-177.3" font-family="Times,serif" font-size="14.00">oil</text>
</g>
<!-- oil&#45;&gt;rubbed pork -->
<g id="edge20" class="edge">
<title>oil&#45;&gt;rubbed pork</title>
<path fill="none" stroke="black" d="M370.63,-185.55C390.24,-189.69 417.65,-196.88 439.78,-208 469.88,-223.13 499.97,-247.27 520.32,-265.26"/>
<polygon fill="black" stroke="black" points="518.11,-267.98 527.88,-272.07 522.79,-262.78 518.11,-267.98"/>
</g>
<!-- water -->
<g id="node24" class="node">
<title>water</title>
<ellipse fill="lightblue" stroke="black" cx="344.18" cy="-847" rx="30.59" ry="18"/>
<text text-anchor="middle" x="344.18" y="-843.3" font-family="Times,serif" font-size="14.00">water</text>
</g>
<!-- pot of water -->
<g id="node25" class="node">
<title>pot of water</title>
<path fill="gray" stroke="black" d="M588.05,-807.73C588.05,-809.53 569.45,-811 546.55,-811 523.65,-811 505.05,-809.53 505.05,-807.73 505.05,-807.73 505.05,-778.27 505.05,-778.27 505.05,-776.47 523.65,-775 546.55,-775 569.45,-775 588.05,-776.47 588.05,-778.27 588.05,-778.27 588.05,-807.73 588.05,-807.73"/>
<path fill="none" stroke="black" d="M588.05,-807.73C588.05,-805.92 569.45,-804.45 546.55,-804.45 523.65,-804.45 505.05,-805.92 505.05,-807.73"/>
<text text-anchor="middle" x="546.55" y="-789.3" font-family="Times,serif" font-size="14.00">pot of water</text>
</g>
<!-- water&#45;&gt;pot of water -->
<g id="edge22" class="edge">
<title>water&#45;&gt;pot of water</title>
<path fill="none" stroke="black" d="M372.21,-839.72C403.49,-831.29 455.69,-817.22 494.65,-806.72"/>
<polygon fill="black" stroke="black" points="496.01,-809.98 504.75,-804 494.19,-803.22 496.01,-809.98"/>
</g>
<!-- bring to boil -->
<g id="node39" class="node">
<title>bring to boil</title>
<ellipse fill="white" stroke="white" cx="707.92" cy="-793" rx="54.69" ry="18"/>
<text text-anchor="middle" x="707.92" y="-789.3" font-family="Times,serif" font-size="14.00">bring to boil</text>
</g>
<!-- pot of water&#45;&gt;bring to boil -->
<g id="edge41" class="edge">
<title>pot of water&#45;&gt;bring to boil</title>
<path fill="none" stroke="black" d="M588.18,-793C604.83,-793 624.51,-793 643,-793"/>
<polygon fill="black" stroke="black" points="643.13,-796.5 653.13,-793 643.13,-789.5 643.13,-796.5"/>
</g>
<!-- salt -->
<g id="node26" class="node">
<title>salt</title>
<polygon fill="none" stroke="black" points="363.07,-811 325.29,-811 311.84,-775 376.52,-775 363.07,-811"/>
<text text-anchor="middle" x="344.18" y="-789.3" font-family="Times,serif" font-size="14.00">salt</text>
</g>
<!-- salt&#45;&gt;pot of water -->
<g id="edge23" class="edge">
<title>salt&#45;&gt;pot of water</title>
<path fill="none" stroke="black" d="M370.15,-793C401.23,-793 455.06,-793 494.91,-793"/>
<polygon fill="black" stroke="black" points="494.97,-796.5 504.97,-793 494.97,-789.5 494.97,-796.5"/>
</g>
<!-- 2Tbsp butter -->
<g id="node27" class="node">
<title>2Tbsp butter</title>
<polygon fill="yellow" stroke="black" points="1314.14,-943 1228.14,-943 1228.14,-907 1314.14,-907 1314.14,-943"/>
<text text-anchor="middle" x="1271.14" y="-921.3" font-family="Times,serif" font-size="14.00">2Tbsp butter</text>
</g>
<!-- 2Tbsp butter&#45;&gt;mashed potatos -->
<g id="edge24" class="edge">
<title>2Tbsp butter&#45;&gt;mashed potatos</title>
<path fill="none" stroke="black" d="M1314.29,-913.54C1320.41,-910.72 1326.33,-907.25 1331.36,-903 1370.13,-870.16 1395.16,-815.03 1407.57,-781.83"/>
<polygon fill="black" stroke="black" points="1410.92,-782.88 1411.02,-772.28 1404.33,-780.5 1410.92,-782.88"/>
</g>
<!-- 1Tbsp butter -->
<g id="node28" class="node">
<title>1Tbsp butter</title>
<polygon fill="yellow" stroke="black" points="903.26,-253 817.26,-253 817.26,-217 903.26,-217 903.26,-253"/>
<text text-anchor="middle" x="860.26" y="-231.3" font-family="Times,serif" font-size="14.00">1Tbsp butter</text>
</g>
<!-- 1Tbsp butter&#45;&gt;microwaved sauce -->
<g id="edge25" class="edge">
<title>1Tbsp butter&#45;&gt;microwaved sauce</title>
<path fill="none" stroke="black" d="M903.55,-218.04C909.89,-214.98 916.23,-211.6 922,-208 966.84,-180.05 1012.63,-139.16 1040.06,-113.06"/>
<polygon fill="black" stroke="black" points="1042.5,-115.57 1047.29,-106.12 1037.65,-110.52 1042.5,-115.57"/>
</g>
<!-- sliced scallions&#45;&gt;mashed potatos -->
<g id="edge46" class="edge">
<title>sliced scallions&#45;&gt;mashed potatos</title>
<path fill="none" stroke="black" d="M407.9,-661.21C480.03,-658.26 602,-654 706.92,-654 706.92,-654 706.92,-654 1067.47,-654 1185.05,-654 1223.75,-625.58 1331.36,-673 1358.25,-684.85 1381.89,-708.93 1397.46,-727.77"/>
<polygon fill="black" stroke="black" points="1394.85,-730.1 1403.83,-735.73 1400.32,-725.73 1394.85,-730.1"/>
</g>
<!-- sliced scallions&#45;&gt;slaw bowl -->
<g id="edge36" class="edge">
<title>sliced scallions&#45;&gt;slaw bowl</title>
<path fill="none" stroke="black" d="M400.79,-655.24C414.44,-651.25 428.39,-645.44 439.78,-637 487.66,-601.49 519.69,-537.32 535.04,-500.66"/>
<polygon fill="black" stroke="black" points="538.4,-501.68 538.93,-491.1 531.92,-499.04 538.4,-501.68"/>
</g>
<!-- grated carrots&#45;&gt;slaw bowl -->
<g id="edge37" class="edge">
<title>grated carrots&#45;&gt;slaw bowl</title>
<path fill="none" stroke="black" d="M395.33,-600.93C410.31,-596.86 426.31,-591.1 439.78,-583 475.72,-561.38 507.67,-524.42 526.81,-499.37"/>
<polygon fill="black" stroke="black" points="529.84,-501.16 533.03,-491.06 524.24,-496.97 529.84,-501.16"/>
</g>
<!-- sliced apple&#45;&gt;slaw bowl -->
<g id="edge35" class="edge">
<title>sliced apple&#45;&gt;slaw bowl</title>
<path fill="none" stroke="black" d="M385.72,-544.67C402.65,-539.55 422.38,-533.07 439.78,-526 461.36,-517.23 484.59,-505.83 503.76,-495.85"/>
<polygon fill="black" stroke="black" points="505.6,-498.83 512.82,-491.08 502.34,-492.64 505.6,-498.83"/>
</g>
<!-- diced potatos&#45;&gt;pot of water -->
<g id="edge40" class="edge">
<title>diced potatos&#45;&gt;pot of water</title>
<path fill="none" stroke="black" d="M381.93,-731.76C413.74,-743.66 460.04,-760.99 495.27,-774.18"/>
<polygon fill="black" stroke="black" points="494.31,-777.56 504.9,-777.78 496.76,-771 494.31,-777.56"/>
</g>
<!-- 450°F oven -->
<g id="node34" class="node">
<title>450°F oven</title>
<polygon fill="white" stroke="white" points="900.26,-307 820.26,-307 820.26,-271 900.26,-271 900.26,-307"/>
<text text-anchor="middle" x="860.26" y="-285.3" font-family="Times,serif" font-size="14.00">450°F oven</text>
</g>
<!-- baking sheet&#45;&gt;450°F oven -->
<g id="edge31" class="edge">
<title>baking sheet&#45;&gt;450°F oven</title>
<path fill="none" stroke="black" d="M750.8,-289C769.21,-289 790.96,-289 810.13,-289"/>
<polygon fill="black" stroke="black" points="810.19,-292.5 820.19,-289 810.19,-285.5 810.19,-292.5"/>
</g>
<!-- 18&#45;20 minutes -->
<g id="node35" class="node">
<title>18&#45;20 minutes</title>
<ellipse fill="white" stroke="white" cx="1066.47" cy="-289" rx="61.99" ry="18"/>
<text text-anchor="middle" x="1066.47" y="-285.3" font-family="Times,serif" font-size="14.00">18&#45;20 minutes</text>
</g>
<!-- 450°F oven&#45;&gt;18&#45;20 minutes -->
<g id="edge32" class="edge">
<title>450°F oven&#45;&gt;18&#45;20 minutes</title>
<path fill="none" stroke="black" d="M900.63,-289C927.2,-289 963.01,-289 994.47,-289"/>
<polygon fill="black" stroke="black" points="994.51,-292.5 1004.51,-289 994.51,-285.5 994.51,-292.5"/>
</g>
<!-- roasted pork -->
<g id="node36" class="node">
<title>roasted pork</title>
<ellipse fill="brown" stroke="white" cx="1271.14" cy="-289" rx="54.69" ry="18"/>
<text text-anchor="middle" x="1271.14" y="-285.3" font-family="Times,serif" font-size="14.00">roasted pork</text>
</g>
<!-- 18&#45;20 minutes&#45;&gt;roasted pork -->
<g id="edge33" class="edge">
<title>18&#45;20 minutes&#45;&gt;roasted pork</title>
<path fill="none" stroke="black" d="M1128.27,-289C1152.87,-289 1181.28,-289 1206.18,-289"/>
<polygon fill="black" stroke="black" points="1206.26,-292.5 1216.26,-289 1206.26,-285.5 1206.26,-292.5"/>
</g>
<!-- sliced pork -->
<g id="node37" class="node">
<title>sliced pork</title>
<ellipse fill="brown" stroke="white" cx="1417.86" cy="-289" rx="50.09" ry="18"/>
<text text-anchor="middle" x="1417.86" y="-285.3" font-family="Times,serif" font-size="14.00">sliced pork</text>
</g>
<!-- roasted pork&#45;&gt;sliced pork -->
<g id="edge34" class="edge">
<title>roasted pork&#45;&gt;sliced pork</title>
<path fill="none" stroke="black" d="M1326.03,-289C1336.27,-289 1347.05,-289 1357.45,-289"/>
<polygon fill="black" stroke="black" points="1357.7,-292.5 1367.7,-289 1357.7,-285.5 1357.7,-292.5"/>
</g>
<!-- sliced pork&#45;&gt;plate -->
<g id="edge55" class="edge">
<title>sliced pork&#45;&gt;plate</title>
<path fill="none" stroke="black" d="M1433.84,-306.24C1452.51,-327.73 1484.78,-364.86 1507.92,-391.49"/>
<polygon fill="black" stroke="black" points="1505.28,-393.79 1514.48,-399.04 1510.56,-389.19 1505.28,-393.79"/>
</g>
<!-- slaw&#45;&gt;plate -->
<g id="edge56" class="edge">
<title>slaw&#45;&gt;plate</title>
<path fill="none" stroke="black" d="M734.85,-471.04C793.63,-466.77 941.54,-457 1065.47,-457 1065.47,-457 1065.47,-457 1272.14,-457 1363.15,-457 1387.03,-459.42 1476.36,-442 1482.8,-440.74 1489.52,-439.01 1496.02,-437.09"/>
<polygon fill="black" stroke="black" points="1497.48,-440.3 1505.98,-433.97 1495.39,-433.62 1497.48,-440.3"/>
</g>
<!-- 15&#45;20 minutes -->
<g id="node40" class="node">
<title>15&#45;20 minutes</title>
<ellipse fill="white" stroke="white" cx="860.26" cy="-793" rx="61.99" ry="18"/>
<text text-anchor="middle" x="860.26" y="-789.3" font-family="Times,serif" font-size="14.00">15&#45;20 minutes</text>
</g>
<!-- bring to boil&#45;&gt;15&#45;20 minutes -->
<g id="edge42" class="edge">
<title>bring to boil&#45;&gt;15&#45;20 minutes</title>
<path fill="none" stroke="black" d="M762.77,-793C771.07,-793 779.74,-793 788.34,-793"/>
<polygon fill="black" stroke="black" points="788.38,-796.5 798.38,-793 788.38,-789.5 788.38,-796.5"/>
</g>
<!-- drain -->
<g id="node41" class="node">
<title>drain</title>
<ellipse fill="white" stroke="white" cx="1066.47" cy="-793" rx="28.7" ry="18"/>
<text text-anchor="middle" x="1066.47" y="-789.3" font-family="Times,serif" font-size="14.00">drain</text>
</g>
<!-- 15&#45;20 minutes&#45;&gt;drain -->
<g id="edge43" class="edge">
<title>15&#45;20 minutes&#45;&gt;drain</title>
<path fill="none" stroke="black" d="M922.25,-793C956.37,-793 997.85,-793 1027.37,-793"/>
<polygon fill="black" stroke="black" points="1027.67,-796.5 1037.67,-793 1027.67,-789.5 1027.67,-796.5"/>
</g>
<!-- mash -->
<g id="node42" class="node">
<title>mash</title>
<polygon fill="white" stroke="white" points="1331.57,-806.46 1285.41,-806.46 1271.14,-850.04 1256.88,-806.46 1210.71,-806.46 1248.06,-779.54 1233.79,-735.96 1271.14,-762.89 1308.49,-735.96 1294.22,-779.54 1331.57,-806.46"/>
<text text-anchor="middle" x="1271.14" y="-789.3" font-family="Times,serif" font-size="14.00">mash</text>
</g>
<!-- drain&#45;&gt;mash -->
<g id="edge44" class="edge">
<title>drain&#45;&gt;mash</title>
<path fill="none" stroke="black" d="M1095.22,-793C1127.07,-793 1179.95,-793 1219.25,-793"/>
<polygon fill="black" stroke="black" points="1219.43,-796.5 1229.43,-793 1219.43,-789.5 1219.43,-796.5"/>
</g>
<!-- mash&#45;&gt;mashed potatos -->
<g id="edge45" class="edge">
<title>mash&#45;&gt;mashed potatos</title>
<path fill="none" stroke="black" d="M1301.78,-785.01C1317.83,-780.69 1338.26,-775.18 1357.43,-770.01"/>
<polygon fill="black" stroke="black" points="1358.57,-773.33 1367.32,-767.35 1356.75,-766.57 1358.57,-773.33"/>
</g>
<!-- microwave -->
<g id="node44" class="node">
<title>microwave</title>
<polygon fill="white" stroke="white" points="746.42,-106 669.42,-106 669.42,-70 746.42,-70 746.42,-106"/>
<text text-anchor="middle" x="707.92" y="-84.3" font-family="Times,serif" font-size="14.00">microwave</text>
</g>
<!-- sauce bowl&#45;&gt;microwave -->
<g id="edge50" class="edge">
<title>sauce bowl&#45;&gt;microwave</title>
<path fill="none" stroke="black" d="M602.84,-88C621.18,-88 641.42,-88 659.15,-88"/>
<polygon fill="black" stroke="black" points="659.26,-91.5 669.26,-88 659.26,-84.5 659.26,-91.5"/>
</g>
<!-- 45 seconds -->
<g id="node45" class="node">
<title>45 seconds</title>
<ellipse fill="white" stroke="white" cx="860.26" cy="-88" rx="50.09" ry="18"/>
<text text-anchor="middle" x="860.26" y="-84.3" font-family="Times,serif" font-size="14.00">45 seconds</text>
</g>
<!-- microwave&#45;&gt;45 seconds -->
<g id="edge51" class="edge">
<title>microwave&#45;&gt;45 seconds</title>
<path fill="none" stroke="black" d="M746.47,-88C762.61,-88 781.87,-88 799.87,-88"/>
<polygon fill="black" stroke="black" points="800,-91.5 810,-88 800,-84.5 800,-91.5"/>
</g>
<!-- 45 seconds&#45;&gt;microwaved sauce -->
<g id="edge52" class="edge">
<title>45 seconds&#45;&gt;microwaved sauce</title>
<path fill="none" stroke="black" d="M910.43,-88C928.49,-88 949.59,-88 970.31,-88"/>
<polygon fill="black" stroke="black" points="970.44,-91.5 980.44,-88 970.44,-84.5 970.44,-91.5"/>
</g>
</g>
</svg>
