<?xml version="1.0" encoding="UTF-8" standalone="no"?>
<!DOCTYPE svg PUBLIC "-//W3C//DTD SVG 1.1//EN"
 "http://www.w3.org/Graphics/SVG/1.1/DTD/svg11.dtd">
<!-- Generated by graphviz version 2.44.1 (20200629.0846)
 -->
<!-- Title: G Pages: 1 -->
<svg width="1783pt" height="240pt"
 viewBox="0.00 0.00 1783.10 240.00" xmlns="http://www.w3.org/2000/svg" xmlns:xlink="http://www.w3.org/1999/xlink">
<g id="graph0" class="graph" transform="scale(1 1) rotate(0) translate(4 236)">
<title>G</title>
<polygon fill="white" stroke="transparent" points="-4,4 -4,-236 1779.1,-236 1779.1,4 -4,4"/>
<g id="clust1" class="cluster">
<title>cluster_sed</title>
<polygon fill="lightgray" stroke="lightgray" points="334.42,-46 334.42,-98 1767.1,-98 1767.1,-46 334.42,-46"/>
</g>
<!-- sed -->
<g id="node1" class="node">
<title>sed</title>
<text text-anchor="middle" x="369.42" y="-68.3" font-family="Times,serif" font-size="14.00">sed</text>
</g>
<!-- q1 -->
<g id="node2" class="node">
<title>q1</title>
<text text-anchor="middle" x="566.61" y="-68.3" font-family="Times,serif" font-size="14.00">&quot;</text>
</g>
<!-- sed&#45;&gt;q1 -->
<!-- s -->
<g id="node3" class="node">
<title>s</title>
<text text-anchor="middle" x="811.59" y="-68.3" font-family="Times,serif" font-size="14.00">s</text>
</g>
<!-- q1&#45;&gt;s -->
<!-- d1 -->
<g id="node4" class="node">
<title>d1</title>
<text text-anchor="middle" x="1007.52" y="-68.3" font-family="Times,serif" font-size="14.00">/</text>
</g>
<!-- s&#45;&gt;d1 -->
<!-- find -->
<g id="node5" class="node">
<title>find</title>
<text text-anchor="middle" x="1097.52" y="-68.3" font-family="Times,serif" font-size="14.00">find</text>
</g>
<!-- d1&#45;&gt;find -->
<!-- d2 -->
<g id="node6" class="node">
<title>d2</title>
<text text-anchor="middle" x="1187.52" y="-68.3" font-family="Times,serif" font-size="14.00">/</text>
</g>
<!-- find&#45;&gt;d2 -->
<!-- replace -->
<g id="node7" class="node">
<title>replace</title>
<text text-anchor="middle" x="1278.52" y="-68.3" font-family="Times,serif" font-size="14.00">replace</text>
</g>
<!-- d2&#45;&gt;replace -->
<!-- d3 -->
<g id="node8" class="node">
<title>d3</title>
<text text-anchor="middle" x="1460.81" y="-68.3" font-family="Times,serif" font-size="14.00">/</text>
</g>
<!-- replace&#45;&gt;d3 -->
<!-- g -->
<g id="node9" class="node">
<title>g</title>
<text text-anchor="middle" x="1642.1" y="-68.3" font-family="Times,serif" font-size="14.00">g</text>
</g>
<!-- d3&#45;&gt;g -->
<!-- q2 -->
<g id="node10" class="node">
<title>q2</title>
<text text-anchor="middle" x="1732.1" y="-68.3" font-family="Times,serif" font-size="14.00">&quot;</text>
</g>
<!-- g&#45;&gt;q2 -->
<!-- Edit text in a scriptable manner. -->
<g id="node11" class="node">
<title>Edit text in a scriptable manner.</title>
<ellipse fill="none" stroke="black" cx="124.14" cy="-72" rx="124.28" ry="18"/>
<text text-anchor="middle" x="124.14" y="-68.3" font-family="Times,serif" font-size="14.00">Edit text in a scriptable manner.</text>
</g>
<!-- Edit text in a scriptable manner.&#45;&gt;sed -->
<g id="edge10" class="edge">
<title>Edit text in a scriptable manner.&#45;&gt;sed</title>
<path fill="none" stroke="black" d="M248.56,-72C279.23,-72 309.74,-72 332.3,-72"/>
<polygon fill="black" stroke="black" points="332.4,-75.5 342.4,-72 332.4,-68.5 332.4,-75.5"/>
</g>
<!-- command to execute -->
<g id="node12" class="node">
<title>command to execute</title>
<ellipse fill="none" stroke="black" cx="369.42" cy="-179" rx="85.29" ry="18"/>
<text text-anchor="middle" x="369.42" y="-175.3" font-family="Times,serif" font-size="14.00">command to execute</text>
</g>
<!-- command to execute&#45;&gt;q1 -->
<g id="edge11" class="edge">
<title>command to execute&#45;&gt;q1</title>
<path fill="none" stroke="black" d="M401.35,-162.05C436.53,-142.76 493.84,-111.34 530.63,-91.18"/>
<polygon fill="black" stroke="black" points="532.42,-94.18 539.51,-86.31 529.06,-88.04 532.42,-94.18"/>
</g>
<!-- command to execute&#45;&gt;q2 -->
<g id="edge12" class="edge">
<title>command to execute&#45;&gt;q2</title>
<path fill="none" stroke="black" d="M432.46,-191.23C517.43,-206.88 674.93,-232 810.59,-232 810.59,-232 810.59,-232 1461.81,-232 1565.91,-232 1664.9,-142.54 1708.21,-97.4"/>
<polygon fill="black" stroke="black" points="1710.84,-99.72 1715.16,-90.04 1705.75,-94.91 1710.84,-99.72"/>
</g>
<!-- delimiter :
 &#160;/ is traditional,
 &#160;but | is often more convenient
 &#160; -->
<g id="node13" class="node">
<title>delimiter :
 &#160;/ is traditional,
 &#160;but | is often more convenient
 &#160;</title>
<ellipse fill="none" stroke="black" cx="811.59" cy="-156" rx="132.87" ry="48.17"/>
<text text-anchor="middle" x="811.59" y="-174.8" font-family="Times,serif" font-size="14.00">delimiter :</text>
<text text-anchor="middle" x="811.59" y="-159.8" font-family="Times,serif" font-size="14.00"> &#160;/ is traditional,</text>
<text text-anchor="middle" x="811.59" y="-144.8" font-family="Times,serif" font-size="14.00"> &#160;but | is often more convenient</text>
<text text-anchor="middle" x="811.59" y="-129.8" font-family="Times,serif" font-size="14.00"> &#160;</text>
</g>
<!-- delimiter :
 &#160;/ is traditional,
 &#160;but | is often more convenient
 &#160;&#45;&gt;d1 -->
<g id="edge13" class="edge">
<title>delimiter :
 &#160;/ is traditional,
 &#160;but | is often more convenient
 &#160;&#45;&gt;d1</title>
<path fill="none" stroke="black" d="M901.62,-120.44C916.03,-114.44 930.73,-108.15 944.52,-102 953.26,-98.1 962.6,-93.71 971.3,-89.51"/>
<polygon fill="black" stroke="black" points="972.98,-92.58 980.44,-85.06 969.92,-86.29 972.98,-92.58"/>
</g>
<!-- delimiter :
 &#160;/ is traditional,
 &#160;but | is often more convenient
 &#160;&#45;&gt;d2 -->
<g id="edge14" class="edge">
<title>delimiter :
 &#160;/ is traditional,
 &#160;but | is often more convenient
 &#160;&#45;&gt;d2</title>
<path fill="none" stroke="black" d="M937.12,-139.96C994.86,-130.83 1063.96,-117.45 1124.52,-99 1133.33,-96.32 1142.57,-92.74 1151.14,-89.07"/>
<polygon fill="black" stroke="black" points="1152.75,-92.19 1160.48,-84.93 1149.92,-85.79 1152.75,-92.19"/>
</g>
<!-- delimiter :
 &#160;/ is traditional,
 &#160;but | is often more convenient
 &#160;&#45;&gt;d3 -->
<g id="edge15" class="edge">
<title>delimiter :
 &#160;/ is traditional,
 &#160;but | is often more convenient
 &#160;&#45;&gt;d3</title>
<path fill="none" stroke="black" d="M944.76,-156C992.58,-156 1046.98,-156 1096.52,-156 1096.52,-156 1096.52,-156 1188.52,-156 1276.53,-156 1373.7,-115.16 1424.47,-90.44"/>
<polygon fill="black" stroke="black" points="1426.28,-93.44 1433.69,-85.87 1423.18,-87.17 1426.28,-93.44"/>
</g>
<!-- search and replace -->
<g id="node14" class="node">
<title>search and replace</title>
<ellipse fill="none" stroke="black" cx="566.61" cy="-18" rx="76.09" ry="18"/>
<text text-anchor="middle" x="566.61" y="-14.3" font-family="Times,serif" font-size="14.00">search and replace</text>
</g>
<!-- search and replace&#45;&gt;s -->
<g id="edge16" class="edge">
<title>search and replace&#45;&gt;s</title>
<path fill="none" stroke="black" d="M622.74,-30.25C669.24,-40.59 734.45,-55.08 774.53,-63.99"/>
<polygon fill="black" stroke="black" points="773.88,-67.43 784.4,-66.18 775.39,-60.59 773.88,-67.43"/>
</g>
<!-- globally (not just the first one) -->
<g id="node15" class="node">
<title>globally (not just the first one)</title>
<ellipse fill="none" stroke="black" cx="1460.81" cy="-18" rx="118.08" ry="18"/>
<text text-anchor="middle" x="1460.81" y="-14.3" font-family="Times,serif" font-size="14.00">globally (not just the first one)</text>
</g>
<!-- globally (not just the first one)&#45;&gt;g -->
<g id="edge17" class="edge">
<title>globally (not just the first one)&#45;&gt;g</title>
<path fill="none" stroke="black" d="M1540.76,-31.34C1553.72,-34.33 1566.89,-37.87 1579.1,-42 1588,-45.01 1597.28,-49 1605.86,-53.08"/>
<polygon fill="black" stroke="black" points="1604.34,-56.23 1614.86,-57.51 1607.43,-49.95 1604.34,-56.23"/>
</g>
</g>
</svg>
