<?xml version="1.0" encoding="UTF-8" standalone="no"?>
<!DOCTYPE svg PUBLIC "-//W3C//DTD SVG 1.1//EN"
 "http://www.w3.org/Graphics/SVG/1.1/DTD/svg11.dtd">
<!-- Generated by graphviz version 2.44.1 (20200629.0846)
 -->
<!-- Title: G Pages: 1 -->
<svg width="244pt" height="442pt"
 viewBox="0.00 0.00 244.00 442.00" xmlns="http://www.w3.org/2000/svg" xmlns:xlink="http://www.w3.org/1999/xlink">
<g id="graph0" class="graph" transform="scale(1 1) rotate(0) translate(4 438)">
<title>G</title>
<polygon fill="white" stroke="transparent" points="-4,4 -4,-438 240,-438 240,4 -4,4"/>
<text text-anchor="middle" x="118" y="-7.8" font-family="Times,serif" font-size="14.00">[shape=?]</text>
<!-- title -->
<g id="node1" class="node">
<title>title</title>
<g id="a_node1"><a xlink:href="http://graphviz.org/doc/info/shapes.html" xlink:title="http://graphviz.org/doc/info/shapes.html">
<text text-anchor="middle" x="118" y="-37.3" font-family="Times,serif" font-size="14.00" fill="blue">http://graphviz.org/doc/info/shapes.html</text>
</a>
</g>
</g>
<!-- box -->
<g id="node2" class="node">
<title>box</title>
<polygon fill="none" stroke="black" points="145,-113 91,-113 91,-77 145,-77 145,-113"/>
<text text-anchor="middle" x="118" y="-91.3" font-family="Times,serif" font-size="14.00">box</text>
</g>
<!-- circle -->
<g id="node3" class="node">
<title>circle</title>
<ellipse fill="none" stroke="black" cx="118" cy="-162" rx="30.59" ry="30.59"/>
<text text-anchor="middle" x="118" y="-158.3" font-family="Times,serif" font-size="14.00">circle</text>
</g>
<!-- doublecircle -->
<g id="node4" class="node">
<title>doublecircle</title>
<ellipse fill="none" stroke="black" cx="118" cy="-268" rx="53.89" ry="53.89"/>
<ellipse fill="none" stroke="black" cx="118" cy="-268" rx="57.89" ry="57.89"/>
<text text-anchor="middle" x="118" y="-264.3" font-family="Times,serif" font-size="14.00">doublecircle</text>
</g>
<!-- cylinder -->
<g id="node5" class="node">
<title>cylinder</title>
<path fill="none" stroke="black" d="M148.5,-376.73C148.5,-378.53 134.83,-380 118,-380 101.17,-380 87.5,-378.53 87.5,-376.73 87.5,-376.73 87.5,-347.27 87.5,-347.27 87.5,-345.47 101.17,-344 118,-344 134.83,-344 148.5,-345.47 148.5,-347.27 148.5,-347.27 148.5,-376.73 148.5,-376.73"/>
<path fill="none" stroke="black" d="M148.5,-376.73C148.5,-374.92 134.83,-373.45 118,-373.45 101.17,-373.45 87.5,-374.92 87.5,-376.73"/>
<text text-anchor="middle" x="118" y="-358.3" font-family="Times,serif" font-size="14.00">cylinder</text>
</g>
<!-- folder -->
<g id="node6" class="node">
<title>folder</title>
<polygon fill="none" stroke="black" points="145,-434 142,-438 121,-438 118,-434 91,-434 91,-398 145,-398 145,-434"/>
<text text-anchor="middle" x="118" y="-412.3" font-family="Times,serif" font-size="14.00">folder</text>
</g>
</g>
</svg>
