<?xml version="1.0" encoding="UTF-8" standalone="no"?>
<!DOCTYPE svg PUBLIC "-//W3C//DTD SVG 1.1//EN"
 "http://www.w3.org/Graphics/SVG/1.1/DTD/svg11.dtd">
<!-- Generated by graphviz version 2.44.1 (20200629.0846)
 -->
<!-- Title: G Pages: 1 -->
<svg width="2232pt" height="962pt"
 viewBox="0.00 0.00 2232.00 961.50" xmlns="http://www.w3.org/2000/svg" xmlns:xlink="http://www.w3.org/1999/xlink">
<g id="graph0" class="graph" transform="scale(1 1) rotate(0) translate(4 957.5)">
<title>G</title>
<polygon fill="white" stroke="transparent" points="-4,4 -4,-957.5 2228,-957.5 2228,4 -4,4"/>
<g id="clust1" class="cluster">
<title>cluster_a</title>
<polygon fill="none" stroke="black" points="117.5,-8 117.5,-518 2216,-518 2216,-8 117.5,-8"/>
</g>
<g id="clust2" class="cluster">
<title>cluster_b</title>
<polygon fill="none" stroke="black" points="125.5,-350 125.5,-510 195.5,-510 195.5,-350 125.5,-350"/>
</g>
<g id="clust3" class="cluster">
<title>cluster_c</title>
<polygon fill="none" stroke="black" points="125.5,-290 125.5,-342 986.5,-342 986.5,-290 125.5,-290"/>
</g>
<g id="clust4" class="cluster">
<title>cluster_d</title>
<polygon fill="none" stroke="blue" points="125.5,-230 125.5,-282 986.5,-282 986.5,-230 125.5,-230"/>
</g>
<g id="clust5" class="cluster">
<title>cluster_e</title>
<polygon fill="none" stroke="black" points="125.5,-170 125.5,-222 986.5,-222 986.5,-170 125.5,-170"/>
</g>
<!-- a1 -->
<g id="node1" class="node">
<title>a1</title>
<ellipse fill="none" stroke="black" cx="160.5" cy="-142" rx="27" ry="18"/>
<text text-anchor="middle" x="160.5" y="-138.3" font-family="Times,serif" font-size="14.00">a1</text>
</g>
<!-- a2 -->
<g id="node2" class="node">
<title>a2</title>
<ellipse fill="none" stroke="black" cx="541" cy="-142" rx="27" ry="18"/>
<text text-anchor="middle" x="541" y="-138.3" font-family="Times,serif" font-size="14.00">a2</text>
</g>
<!-- a1&#45;&gt;a2 -->
<g id="edge1" class="edge">
<title>a1&#45;&gt;a2</title>
<path fill="none" stroke="black" d="M187.52,-142C253.56,-142 427.82,-142 503.76,-142"/>
<polygon fill="black" stroke="black" points="503.8,-145.5 513.8,-142 503.8,-138.5 503.8,-145.5"/>
</g>
<!-- a3 -->
<g id="node3" class="node">
<title>a3</title>
<ellipse fill="none" stroke="black" cx="951.5" cy="-142" rx="27" ry="18"/>
<text text-anchor="middle" x="951.5" y="-138.3" font-family="Times,serif" font-size="14.00">a3</text>
</g>
<!-- a2&#45;&gt;a3 -->
<g id="edge2" class="edge">
<title>a2&#45;&gt;a3</title>
<path fill="none" stroke="black" d="M568.17,-142C638.7,-142 832.85,-142 914.05,-142"/>
<polygon fill="black" stroke="black" points="914.28,-145.5 924.28,-142 914.28,-138.5 914.28,-145.5"/>
</g>
<!-- b1 -->
<g id="node4" class="node">
<title>b1</title>
<ellipse fill="none" stroke="black" cx="160.5" cy="-484" rx="27" ry="18"/>
<text text-anchor="middle" x="160.5" y="-480.3" font-family="Times,serif" font-size="14.00">b1</text>
</g>
<!-- b2 -->
<g id="node5" class="node">
<title>b2</title>
<ellipse fill="none" stroke="black" cx="160.5" cy="-430" rx="27" ry="18"/>
<text text-anchor="middle" x="160.5" y="-426.3" font-family="Times,serif" font-size="14.00">b2</text>
</g>
<!-- b3 -->
<g id="node6" class="node">
<title>b3</title>
<ellipse fill="none" stroke="black" cx="160.5" cy="-376" rx="27" ry="18"/>
<text text-anchor="middle" x="160.5" y="-372.3" font-family="Times,serif" font-size="14.00">b3</text>
</g>
<!-- c1 -->
<g id="node7" class="node">
<title>c1</title>
<ellipse fill="none" stroke="black" cx="160.5" cy="-316" rx="27" ry="18"/>
<text text-anchor="middle" x="160.5" y="-312.3" font-family="Times,serif" font-size="14.00">c1</text>
</g>
<!-- c2 -->
<g id="node8" class="node">
<title>c2</title>
<ellipse fill="none" stroke="black" cx="541" cy="-316" rx="27" ry="18"/>
<text text-anchor="middle" x="541" y="-312.3" font-family="Times,serif" font-size="14.00">c2</text>
</g>
<!-- c1&#45;&gt;c2 -->
<g id="edge3" class="edge">
<title>c1&#45;&gt;c2</title>
<path fill="none" stroke="black" d="M187.52,-316C253.56,-316 427.82,-316 503.76,-316"/>
<polygon fill="black" stroke="black" points="503.8,-319.5 513.8,-316 503.8,-312.5 503.8,-319.5"/>
</g>
<!-- c3 -->
<g id="node9" class="node">
<title>c3</title>
<ellipse fill="none" stroke="black" cx="951.5" cy="-316" rx="27" ry="18"/>
<text text-anchor="middle" x="951.5" y="-312.3" font-family="Times,serif" font-size="14.00">c3</text>
</g>
<!-- c2&#45;&gt;c3 -->
<g id="edge4" class="edge">
<title>c2&#45;&gt;c3</title>
<path fill="none" stroke="black" d="M568.17,-316C638.7,-316 832.85,-316 914.05,-316"/>
<polygon fill="black" stroke="black" points="914.28,-319.5 924.28,-316 914.28,-312.5 914.28,-319.5"/>
</g>
<!-- d1 -->
<g id="node10" class="node">
<title>d1</title>
<ellipse fill="none" stroke="black" cx="160.5" cy="-256" rx="27" ry="18"/>
<text text-anchor="middle" x="160.5" y="-252.3" font-family="Times,serif" font-size="14.00">d1</text>
</g>
<!-- d2 -->
<g id="node11" class="node">
<title>d2</title>
<ellipse fill="none" stroke="black" cx="541" cy="-256" rx="27" ry="18"/>
<text text-anchor="middle" x="541" y="-252.3" font-family="Times,serif" font-size="14.00">d2</text>
</g>
<!-- d1&#45;&gt;d2 -->
<!-- d3 -->
<g id="node12" class="node">
<title>d3</title>
<ellipse fill="none" stroke="black" cx="951.5" cy="-256" rx="27" ry="18"/>
<text text-anchor="middle" x="951.5" y="-252.3" font-family="Times,serif" font-size="14.00">d3</text>
</g>
<!-- d2&#45;&gt;d3 -->
<!-- e1 -->
<g id="node13" class="node">
<title>e1</title>
<ellipse fill="none" stroke="black" cx="160.5" cy="-196" rx="27" ry="18"/>
<text text-anchor="middle" x="160.5" y="-192.3" font-family="Times,serif" font-size="14.00">e1</text>
</g>
<!-- e2 -->
<g id="node14" class="node">
<title>e2</title>
<ellipse fill="none" stroke="black" cx="541" cy="-196" rx="27" ry="18"/>
<text text-anchor="middle" x="541" y="-192.3" font-family="Times,serif" font-size="14.00">e2</text>
</g>
<!-- e1&#45;&gt;e2 -->
<g id="edge7" class="edge">
<title>e1&#45;&gt;e2</title>
<path fill="none" stroke="black" d="M187.52,-196C253.56,-196 427.82,-196 503.76,-196"/>
<polygon fill="black" stroke="black" points="503.8,-199.5 513.8,-196 503.8,-192.5 503.8,-199.5"/>
</g>
<!-- e3 -->
<g id="node15" class="node">
<title>e3</title>
<ellipse fill="none" stroke="black" cx="951.5" cy="-196" rx="27" ry="18"/>
<text text-anchor="middle" x="951.5" y="-192.3" font-family="Times,serif" font-size="14.00">e3</text>
</g>
<!-- e2&#45;&gt;e3 -->
<g id="edge8" class="edge">
<title>e2&#45;&gt;e3</title>
<path fill="none" stroke="black" d="M568.17,-196C638.7,-196 832.85,-196 914.05,-196"/>
<polygon fill="black" stroke="black" points="914.28,-199.5 924.28,-196 914.28,-192.5 914.28,-199.5"/>
</g>
<!-- f1 -->
<g id="node16" class="node">
<title>f1</title>
<ellipse fill="none" stroke="black" cx="160.5" cy="-34" rx="27" ry="18"/>
<text text-anchor="middle" x="160.5" y="-30.3" font-family="Times,serif" font-size="14.00">f1</text>
</g>
<!-- f2 -->
<g id="node17" class="node">
<title>f2</title>
<ellipse fill="none" stroke="black" cx="160.5" cy="-88" rx="27" ry="18"/>
<text text-anchor="middle" x="160.5" y="-84.3" font-family="Times,serif" font-size="14.00">f2</text>
</g>
<!-- f1&#45;&gt;f2 -->
<g id="edge9" class="edge">
<title>f1&#45;&gt;f2</title>
<path fill="none" stroke="black" d="M160.5,-52.14C160.5,-54.62 160.5,-57.1 160.5,-59.59"/>
<polygon fill="black" stroke="black" points="157,-59.79 160.5,-69.79 164,-59.79 157,-59.79"/>
</g>
<!-- f3 -->
<g id="node18" class="node">
<title>f3</title>
<ellipse fill="none" stroke="black" cx="541" cy="-88" rx="27" ry="18"/>
<text text-anchor="middle" x="541" y="-84.3" font-family="Times,serif" font-size="14.00">f3</text>
</g>
<!-- f2&#45;&gt;f3 -->
<g id="edge10" class="edge">
<title>f2&#45;&gt;f3</title>
<path fill="none" stroke="black" d="M187.52,-88C253.56,-88 427.82,-88 503.76,-88"/>
<polygon fill="black" stroke="black" points="503.8,-91.5 513.8,-88 503.8,-84.5 503.8,-91.5"/>
</g>
<!-- f4 -->
<g id="node19" class="node">
<title>f4</title>
<ellipse fill="none" stroke="black" cx="1372.5" cy="-88" rx="27" ry="18"/>
<text text-anchor="middle" x="1372.5" y="-84.3" font-family="Times,serif" font-size="14.00">f4</text>
</g>
<!-- f3&#45;&gt;f4 -->
<g id="edge11" class="edge">
<title>f3&#45;&gt;f4</title>
<path fill="none" stroke="black" d="M568.2,-88C689.24,-88 1194.5,-88 1335.07,-88"/>
<polygon fill="black" stroke="black" points="1335.3,-91.5 1345.3,-88 1335.3,-84.5 1335.3,-91.5"/>
</g>
<!-- f5 -->
<g id="node20" class="node">
<title>f5</title>
<ellipse fill="none" stroke="black" cx="2181" cy="-88" rx="27" ry="18"/>
<text text-anchor="middle" x="2181" y="-84.3" font-family="Times,serif" font-size="14.00">f5</text>
</g>
<!-- f4&#45;&gt;f5 -->
<g id="edge12" class="edge">
<title>f4&#45;&gt;f5</title>
<path fill="none" stroke="black" d="M1399.88,-88C1518.94,-88 2006.44,-88 2143.81,-88"/>
<polygon fill="black" stroke="black" points="2143.83,-91.5 2153.83,-88 2143.83,-84.5 2143.83,-91.5"/>
</g>
<!-- s1 -->
<g id="node21" class="node">
<title>s1</title>
<text text-anchor="start" x="8" y="-836" font-family="Times,serif" font-size="30.00">subgraph cluster_prefix {</text>
<text text-anchor="start" x="8" y="-767" font-family="Times,serif" font-size="30.00"> &#160;&quot;used for grouping&quot;</text>
<text text-anchor="start" x="8" y="-698" font-family="Times,serif" font-size="30.00"> &#160;&quot;can be nested&quot;</text>
<text text-anchor="start" x="8" y="-629" font-family="Times,serif" font-size="30.00">}</text>
</g>
<!-- s2 -->
<g id="node22" class="node">
<title>s2</title>
<text text-anchor="start" x="365" y="-922.3" font-family="Times,serif" font-size="14.00">subgraph cluster_a {</text>
<text text-anchor="start" x="365" y="-891.3" font-family="Times,serif" font-size="14.00"> &#160;a1 &#45;&gt; a2 &#45;&gt; a3</text>
<text text-anchor="start" x="365" y="-860.3" font-family="Times,serif" font-size="14.00"> &#160;subgraph cluster_b { b1 &#160;b2 &#160;b3 }</text>
<text text-anchor="start" x="365" y="-829.3" font-family="Times,serif" font-size="14.00"> &#160;subgraph cluster_c { c1 &#45;&gt; c2 &#45;&gt; c3 }</text>
<text text-anchor="start" x="365" y="-798.3" font-family="Times,serif" font-size="14.00"> &#160;subgraph cluster_d { color=blue d1 &#45;&gt; d2 &#45;&gt; d3 [style=invis] }</text>
<text text-anchor="start" x="365" y="-767.3" font-family="Times,serif" font-size="14.00"> &#160;subgraph cluster_e { e1 &#45;&gt; e2 &#45;&gt; e3 }</text>
<text text-anchor="start" x="365" y="-736.3" font-family="Times,serif" font-size="14.00"> &#160;subgraph f {</text>
<text text-anchor="start" x="365" y="-705.3" font-family="Times,serif" font-size="14.00"> &#160;&#160;&#160;f1 &#45;&gt; f2 [minlen=0]</text>
<text text-anchor="start" x="365" y="-674.3" font-family="Times,serif" font-size="14.00"> &#160;&#160;&#160;f2 &#45;&gt; f3 [minlen=1]</text>
<text text-anchor="start" x="365" y="-643.3" font-family="Times,serif" font-size="14.00"> &#160;&#160;&#160;f3 &#45;&gt; f4 [minlen=2]</text>
<text text-anchor="start" x="365" y="-612.3" font-family="Times,serif" font-size="14.00"> &#160;&#160;&#160;f4 &#45;&gt; f5 [minlen=3]</text>
<text text-anchor="start" x="365" y="-581.3" font-family="Times,serif" font-size="14.00"> &#160;}</text>
<text text-anchor="start" x="365" y="-550.3" font-family="Times,serif" font-size="14.00">}</text>
</g>
<!-- s1&#45;&gt;s2 -->
<!-- n1 -->
<g id="node23" class="node">
<title>n1</title>
<text text-anchor="middle" x="951.5" y="-832" font-family="Times,serif" font-size="25.00">Some layout control is possible, via:</text>
<text text-anchor="middle" x="951.5" y="-774" font-family="Times,serif" font-size="25.00">&#45; rankdir</text>
<text text-anchor="middle" x="951.5" y="-746" font-family="Times,serif" font-size="25.00">&#45; subgraph</text>
<text text-anchor="middle" x="951.5" y="-718" font-family="Times,serif" font-size="25.00">&#45; rank</text>
<text text-anchor="middle" x="951.5" y="-690" font-family="Times,serif" font-size="25.00">&#45; weight</text>
<text text-anchor="middle" x="951.5" y="-662" font-family="Times,serif" font-size="25.00">&#45; hidden edges</text>
<text text-anchor="middle" x="951.5" y="-634" font-family="Times,serif" font-size="25.00">&#45; minlen</text>
<text text-anchor="middle" x="951.5" y="-606" font-family="Times,serif" font-size="25.00"> ...</text>
</g>
<!-- s2&#45;&gt;n1 -->
<!-- n2 -->
<g id="node24" class="node">
<title>n2</title>
<g id="a_node24"><a xlink:href="https://www.graphviz.org/pdf/dotguide.pdf" xlink:title="&quot;Drawing graphs with dot&quot;&#10;contains info about using these&#10;to give layout hints to dot.&#10;">
<text text-anchor="middle" x="1372.5" y="-765.5" font-family="Times,serif" font-size="30.00">&quot;Drawing graphs with dot&quot;</text>
<text text-anchor="middle" x="1372.5" y="-732.5" font-family="Times,serif" font-size="30.00">contains info about using these</text>
<text text-anchor="middle" x="1372.5" y="-699.5" font-family="Times,serif" font-size="30.00">to give layout hints to dot.</text>
</a>
</g>
</g>
<!-- n1&#45;&gt;n2 -->
<!-- n3 -->
<g id="node25" class="node">
<title>n3</title>
<text text-anchor="middle" x="1842" y="-764" font-family="Times,serif" font-size="30.00" fill="red">But if you need precise layout control,</text>
<text text-anchor="middle" x="1842" y="-731" font-family="Times,serif" font-size="30.00" fill="red">you will likely need to export to a</text>
<text text-anchor="middle" x="1842" y="-698" font-family="Times,serif" font-size="30.00" fill="red">file and use another editor.</text>
<text text-anchor="middle" x="1842" y="-665" font-family="Times,serif" font-size="30.00" fill="red">(That&#39;s another presentation)</text>
</g>
<!-- n2&#45;&gt;n3 -->
</g>
</svg>
