<?xml version="1.0" encoding="UTF-8" standalone="no"?>
<!DOCTYPE svg PUBLIC "-//W3C//DTD SVG 1.1//EN"
 "http://www.w3.org/Graphics/SVG/1.1/DTD/svg11.dtd">
<!-- Generated by graphviz version 2.44.1 (20200629.0846)
 -->
<!-- Title: G Pages: 1 -->
<svg width="484pt" height="548pt"
 viewBox="0.00 0.00 484.00 548.00" xmlns="http://www.w3.org/2000/svg" xmlns:xlink="http://www.w3.org/1999/xlink">
<g id="graph0" class="graph" transform="scale(1 1) rotate(0) translate(4 544)">
<title>G</title>
<polygon fill="white" stroke="transparent" points="-4,4 -4,-544 480,-544 480,4 -4,4"/>
<!-- Java -->
<g id="node1" class="node">
<title>Java</title>
<ellipse fill="none" stroke="black" cx="165" cy="-522" rx="27" ry="18"/>
<text text-anchor="middle" x="165" y="-518.3" font-family="Times,serif" font-size="14.00">Java</text>
</g>
<!-- C# -->
<g id="node2" class="node">
<title>C#</title>
<ellipse fill="none" stroke="black" cx="157" cy="-162" rx="27" ry="18"/>
<text text-anchor="middle" x="157" y="-158.3" font-family="Times,serif" font-size="14.00">C#</text>
</g>
<!-- Java&#45;&gt;C# -->
<g id="edge1" class="edge">
<title>Java&#45;&gt;C#</title>
<path fill="none" stroke="black" d="M159.34,-504.39C156,-477.87 156,-424.36 156,-379 156,-379 156,-379 156,-305 156,-264.93 152.79,-218.61 152.72,-190.05"/>
<polygon fill="black" stroke="black" points="156.22,-190.08 152.87,-180.03 149.22,-189.98 156.22,-190.08"/>
</g>
<!-- Objective C -->
<g id="node3" class="node">
<title>Objective C</title>
<ellipse fill="none" stroke="black" cx="186" cy="-90" rx="53.09" ry="18"/>
<text text-anchor="middle" x="186" y="-86.3" font-family="Times,serif" font-size="14.00">Objective C</text>
</g>
<!-- Java&#45;&gt;Objective C -->
<g id="edge4" class="edge">
<title>Java&#45;&gt;Objective C</title>
<path fill="none" stroke="black" d="M174.06,-504.96C187.72,-479.23 212,-426.78 212,-379 212,-379 212,-379 212,-233 212,-192.55 201.67,-146.67 194.03,-118.28"/>
<polygon fill="black" stroke="black" points="197.31,-117 191.26,-108.3 190.56,-118.87 197.31,-117"/>
</g>
<!-- Groovy -->
<g id="node5" class="node">
<title>Groovy</title>
<ellipse fill="none" stroke="black" cx="80" cy="-450" rx="37.89" ry="18"/>
<text text-anchor="middle" x="80" y="-446.3" font-family="Times,serif" font-size="14.00">Groovy</text>
</g>
<!-- Java&#45;&gt;Groovy -->
<g id="edge7" class="edge">
<title>Java&#45;&gt;Groovy</title>
<path fill="none" stroke="black" d="M148.61,-507.5C136.51,-497.54 119.81,-483.78 105.91,-472.34"/>
<polygon fill="black" stroke="black" points="108.05,-469.56 98.1,-465.91 103.6,-474.97 108.05,-469.56"/>
</g>
<!-- C#&#45;&gt;Java -->
<g id="edge2" class="edge">
<title>C#&#45;&gt;Java</title>
<path fill="none" stroke="black" d="M164.2,-179.6C169.87,-206.09 174,-259.57 174,-305 174,-379 174,-379 174,-379 174,-419.22 174,-465.85 171.67,-494.39"/>
<polygon fill="black" stroke="black" points="168.18,-494.08 170.66,-504.39 175.15,-494.79 168.18,-494.08"/>
</g>
<!-- C#&#45;&gt;Objective C -->
<g id="edge3" class="edge">
<title>C#&#45;&gt;Objective C</title>
<path fill="none" stroke="black" d="M163.87,-144.41C167.22,-136.34 171.32,-126.43 175.08,-117.35"/>
<polygon fill="black" stroke="black" points="178.38,-118.53 178.98,-107.96 171.91,-115.86 178.38,-118.53"/>
</g>
<!-- Scala -->
<g id="node9" class="node">
<title>Scala</title>
<ellipse fill="none" stroke="black" cx="85" cy="-90" rx="29.8" ry="18"/>
<text text-anchor="middle" x="85" y="-86.3" font-family="Times,serif" font-size="14.00">Scala</text>
</g>
<!-- C#&#45;&gt;Scala -->
<g id="edge13" class="edge">
<title>C#&#45;&gt;Scala</title>
<path fill="none" stroke="black" d="M142.43,-146.83C132.41,-137.1 118.92,-123.98 107.53,-112.9"/>
<polygon fill="black" stroke="black" points="109.65,-110.09 100.04,-105.63 104.77,-115.11 109.65,-110.09"/>
</g>
<!-- Swift -->
<g id="node4" class="node">
<title>Swift</title>
<ellipse fill="none" stroke="black" cx="106" cy="-18" rx="29.8" ry="18"/>
<text text-anchor="middle" x="106" y="-14.3" font-family="Times,serif" font-size="14.00">Swift</text>
</g>
<!-- Objective C&#45;&gt;Swift -->
<g id="edge5" class="edge">
<title>Objective C&#45;&gt;Swift</title>
<path fill="none" stroke="black" d="M167.45,-72.76C156.34,-63.05 142.11,-50.6 130.15,-40.13"/>
<polygon fill="black" stroke="black" points="132.12,-37.2 122.29,-33.25 127.51,-42.47 132.12,-37.2"/>
</g>
<!-- Swift&#45;&gt;Java -->
<g id="edge6" class="edge">
<title>Swift&#45;&gt;Java</title>
<path fill="none" stroke="black" d="M86.56,-32.21C55.96,-54.75 0,-103.78 0,-161 0,-379 0,-379 0,-379 0,-421.19 3.57,-437.77 33,-468 58.81,-494.51 99.63,-508.14 129.04,-514.89"/>
<polygon fill="black" stroke="black" points="128.42,-518.34 138.93,-517 129.88,-511.49 128.42,-518.34"/>
</g>
<!-- JavaScript -->
<g id="node6" class="node">
<title>JavaScript</title>
<ellipse fill="none" stroke="black" cx="80" cy="-378" rx="47.39" ry="18"/>
<text text-anchor="middle" x="80" y="-374.3" font-family="Times,serif" font-size="14.00">JavaScript</text>
</g>
<!-- Groovy&#45;&gt;JavaScript -->
<g id="edge9" class="edge">
<title>Groovy&#45;&gt;JavaScript</title>
<path fill="none" stroke="black" d="M74.12,-432.05C73.3,-424.35 73.06,-415.03 73.39,-406.36"/>
<polygon fill="black" stroke="black" points="76.89,-406.49 74.09,-396.28 69.91,-406.01 76.89,-406.49"/>
</g>
<!-- JavaScript&#45;&gt;Groovy -->
<g id="edge8" class="edge">
<title>JavaScript&#45;&gt;Groovy</title>
<path fill="none" stroke="black" d="M85.91,-396.28C86.71,-404.03 86.94,-413.36 86.59,-422.01"/>
<polygon fill="black" stroke="black" points="83.09,-421.83 85.88,-432.05 90.08,-422.33 83.09,-421.83"/>
</g>
<!-- Go -->
<g id="node7" class="node">
<title>Go</title>
<ellipse fill="none" stroke="black" cx="79" cy="-306" rx="27" ry="18"/>
<text text-anchor="middle" x="79" y="-302.3" font-family="Times,serif" font-size="14.00">Go</text>
</g>
<!-- JavaScript&#45;&gt;Go -->
<g id="edge10" class="edge">
<title>JavaScript&#45;&gt;Go</title>
<path fill="none" stroke="black" d="M79.75,-359.7C79.64,-351.98 79.51,-342.71 79.39,-334.11"/>
<polygon fill="black" stroke="black" points="82.89,-334.05 79.24,-324.1 75.89,-334.15 82.89,-334.05"/>
</g>
<!-- TypeScript -->
<g id="node8" class="node">
<title>TypeScript</title>
<ellipse fill="none" stroke="black" cx="78" cy="-234" rx="50.09" ry="18"/>
<text text-anchor="middle" x="78" y="-230.3" font-family="Times,serif" font-size="14.00">TypeScript</text>
</g>
<!-- Go&#45;&gt;TypeScript -->
<g id="edge11" class="edge">
<title>Go&#45;&gt;TypeScript</title>
<path fill="none" stroke="black" d="M78.75,-287.7C78.64,-279.98 78.51,-270.71 78.39,-262.11"/>
<polygon fill="black" stroke="black" points="81.89,-262.05 78.24,-252.1 74.89,-262.15 81.89,-262.05"/>
</g>
<!-- TypeScript&#45;&gt;C# -->
<g id="edge12" class="edge">
<title>TypeScript&#45;&gt;C#</title>
<path fill="none" stroke="black" d="M95.93,-217.12C107.13,-207.19 121.67,-194.3 133.76,-183.6"/>
<polygon fill="black" stroke="black" points="136.12,-186.18 141.28,-176.93 131.48,-180.94 136.12,-186.18"/>
</g>
<!-- My Recent Primary Languages -->
<g id="node10" class="node">
<title>My Recent Primary Languages</title>
<text text-anchor="middle" x="343" y="-517" font-family="Times,serif" font-size="20.00">My Recent Primary Languages</text>
</g>
</g>
</svg>
