<?xml version="1.0" encoding="UTF-8" standalone="no"?>
<!DOCTYPE svg PUBLIC "-//W3C//DTD SVG 1.1//EN"
 "http://www.w3.org/Graphics/SVG/1.1/DTD/svg11.dtd">
<!-- Generated by graphviz version 2.44.1 (20200629.0846)
 -->
<!-- Title: G Pages: 1 -->
<svg width="322pt" height="476pt"
 viewBox="0.00 0.00 322.34 476.00" xmlns="http://www.w3.org/2000/svg" xmlns:xlink="http://www.w3.org/1999/xlink">
<g id="graph0" class="graph" transform="scale(1 1) rotate(0) translate(4 472)">
<title>G</title>
<polygon fill="white" stroke="transparent" points="-4,4 -4,-472 318.34,-472 318.34,4 -4,4"/>
<!-- Java -->
<g id="node1" class="node">
<title>Java</title>
<ellipse fill="none" stroke="black" cx="119.9" cy="-450" rx="27" ry="18"/>
<text text-anchor="middle" x="119.9" y="-446.3" font-family="Times,serif" font-size="14.00">Java</text>
</g>
<!-- C# -->
<g id="node2" class="node">
<title>C#</title>
<ellipse fill="none" stroke="black" cx="29.9" cy="-90" rx="27" ry="18"/>
<text text-anchor="middle" x="29.9" y="-86.3" font-family="Times,serif" font-size="14.00">C#</text>
</g>
<!-- Java&#45;&gt;C# -->
<g id="edge1" class="edge">
<title>Java&#45;&gt;C#</title>
<path fill="none" stroke="black" d="M97.52,-439.49C81.44,-430.08 61.08,-414.43 48.9,-396 26.03,-361.41 20.9,-348.47 20.9,-307 20.9,-307 20.9,-307 20.9,-233 20.9,-192.78 20.9,-146.15 23.23,-117.61"/>
<polygon fill="black" stroke="black" points="26.71,-117.92 24.24,-107.61 19.75,-117.21 26.71,-117.92"/>
</g>
<!-- Objective C -->
<g id="node3" class="node">
<title>Objective C</title>
<ellipse fill="none" stroke="black" cx="119.9" cy="-378" rx="53.09" ry="18"/>
<text text-anchor="middle" x="119.9" y="-374.3" font-family="Times,serif" font-size="14.00">Objective C</text>
</g>
<!-- Java&#45;&gt;Objective C -->
<g id="edge3" class="edge">
<title>Java&#45;&gt;Objective C</title>
<path fill="none" stroke="black" d="M119.9,-431.7C119.9,-423.98 119.9,-414.71 119.9,-406.11"/>
<polygon fill="black" stroke="black" points="123.4,-406.1 119.9,-396.1 116.4,-406.1 123.4,-406.1"/>
</g>
<!-- Groovy -->
<g id="node5" class="node">
<title>Groovy</title>
<ellipse fill="none" stroke="black" cx="266.9" cy="-378" rx="37.89" ry="18"/>
<text text-anchor="middle" x="266.9" y="-374.3" font-family="Times,serif" font-size="14.00">Groovy</text>
</g>
<!-- Java&#45;&gt;Groovy -->
<g id="edge6" class="edge">
<title>Java&#45;&gt;Groovy</title>
<path fill="none" stroke="black" d="M141.27,-438.82C165.02,-427.51 203.74,-409.08 231.92,-395.66"/>
<polygon fill="black" stroke="black" points="233.51,-398.77 241.04,-391.31 230.5,-392.45 233.51,-398.77"/>
</g>
<!-- C#&#45;&gt;Java -->
<g id="edge2" class="edge">
<title>C#&#45;&gt;Java</title>
<path fill="none" stroke="black" d="M35.56,-107.61C38.9,-134.13 38.9,-187.64 38.9,-233 38.9,-307 38.9,-307 38.9,-307 38.9,-348.47 44.03,-361.41 66.9,-396 75.03,-408.3 86.81,-419.37 97.31,-428.17"/>
<polygon fill="black" stroke="black" points="95.4,-431.12 105.37,-434.72 99.82,-425.69 95.4,-431.12"/>
</g>
<!-- Scala -->
<g id="node9" class="node">
<title>Scala</title>
<ellipse fill="none" stroke="black" cx="29.9" cy="-18" rx="29.8" ry="18"/>
<text text-anchor="middle" x="29.9" y="-14.3" font-family="Times,serif" font-size="14.00">Scala</text>
</g>
<!-- C#&#45;&gt;Scala -->
<g id="edge12" class="edge">
<title>C#&#45;&gt;Scala</title>
<path fill="none" stroke="black" d="M29.9,-71.7C29.9,-63.98 29.9,-54.71 29.9,-46.11"/>
<polygon fill="black" stroke="black" points="33.4,-46.1 29.9,-36.1 26.4,-46.1 33.4,-46.1"/>
</g>
<!-- Swift -->
<g id="node4" class="node">
<title>Swift</title>
<ellipse fill="none" stroke="black" cx="145.9" cy="-306" rx="29.8" ry="18"/>
<text text-anchor="middle" x="145.9" y="-302.3" font-family="Times,serif" font-size="14.00">Swift</text>
</g>
<!-- Objective C&#45;&gt;Swift -->
<g id="edge4" class="edge">
<title>Objective C&#45;&gt;Swift</title>
<path fill="none" stroke="black" d="M126.19,-360.05C129.16,-352.06 132.77,-342.33 136.09,-333.4"/>
<polygon fill="black" stroke="black" points="139.46,-334.38 139.66,-323.79 132.9,-331.94 139.46,-334.38"/>
</g>
<!-- Swift&#45;&gt;Java -->
<g id="edge5" class="edge">
<title>Swift&#45;&gt;Java</title>
<path fill="none" stroke="black" d="M159.89,-322.3C174.45,-340.19 193.61,-370.57 181.9,-396 174.96,-411.05 161.42,-423.41 148.75,-432.4"/>
<polygon fill="black" stroke="black" points="146.6,-429.63 140.22,-438.08 150.48,-435.45 146.6,-429.63"/>
</g>
<!-- JavaScript -->
<g id="node6" class="node">
<title>JavaScript</title>
<ellipse fill="none" stroke="black" cx="266.9" cy="-306" rx="47.39" ry="18"/>
<text text-anchor="middle" x="266.9" y="-302.3" font-family="Times,serif" font-size="14.00">JavaScript</text>
</g>
<!-- Groovy&#45;&gt;JavaScript -->
<g id="edge8" class="edge">
<title>Groovy&#45;&gt;JavaScript</title>
<path fill="none" stroke="black" d="M261.02,-360.05C260.2,-352.35 259.96,-343.03 260.29,-334.36"/>
<polygon fill="black" stroke="black" points="263.79,-334.49 260.98,-324.28 256.81,-334.01 263.79,-334.49"/>
</g>
<!-- JavaScript&#45;&gt;Groovy -->
<g id="edge7" class="edge">
<title>JavaScript&#45;&gt;Groovy</title>
<path fill="none" stroke="black" d="M272.81,-324.28C273.61,-332.03 273.84,-341.36 273.49,-350.01"/>
<polygon fill="black" stroke="black" points="269.99,-349.83 272.78,-360.05 276.97,-350.33 269.99,-349.83"/>
</g>
<!-- Go -->
<g id="node7" class="node">
<title>Go</title>
<ellipse fill="none" stroke="black" cx="228.9" cy="-234" rx="27" ry="18"/>
<text text-anchor="middle" x="228.9" y="-230.3" font-family="Times,serif" font-size="14.00">Go</text>
</g>
<!-- JavaScript&#45;&gt;Go -->
<g id="edge9" class="edge">
<title>JavaScript&#45;&gt;Go</title>
<path fill="none" stroke="black" d="M257.7,-288.05C253.15,-279.68 247.57,-269.4 242.54,-260.13"/>
<polygon fill="black" stroke="black" points="245.6,-258.43 237.75,-251.31 239.44,-261.77 245.6,-258.43"/>
</g>
<!-- TypeScript -->
<g id="node8" class="node">
<title>TypeScript</title>
<ellipse fill="none" stroke="black" cx="191.9" cy="-162" rx="50.09" ry="18"/>
<text text-anchor="middle" x="191.9" y="-158.3" font-family="Times,serif" font-size="14.00">TypeScript</text>
</g>
<!-- Go&#45;&gt;TypeScript -->
<g id="edge10" class="edge">
<title>Go&#45;&gt;TypeScript</title>
<path fill="none" stroke="black" d="M220.32,-216.76C215.96,-208.53 210.56,-198.32 205.65,-189.02"/>
<polygon fill="black" stroke="black" points="208.72,-187.33 200.95,-180.12 202.53,-190.6 208.72,-187.33"/>
</g>
<!-- TypeScript&#45;&gt;C# -->
<g id="edge11" class="edge">
<title>TypeScript&#45;&gt;C#</title>
<path fill="none" stroke="black" d="M161.05,-147.67C132.51,-135.34 90.28,-117.09 61.5,-104.66"/>
<polygon fill="black" stroke="black" points="62.87,-101.43 52.3,-100.68 60.09,-107.86 62.87,-101.43"/>
</g>
<!-- Languages -->
<g id="node10" class="node">
<title>Languages</title>
<text text-anchor="middle" x="215.9" y="-445" font-family="Times,serif" font-size="20.00">Languages</text>
</g>
</g>
</svg>
