<?xml version="1.0" encoding="UTF-8" standalone="no"?>
<!DOCTYPE svg PUBLIC "-//W3C//DTD SVG 1.1//EN"
 "http://www.w3.org/Graphics/SVG/1.1/DTD/svg11.dtd">
<!-- Generated by graphviz version 2.44.1 (20200629.0846)
 -->
<!-- Title: G Pages: 1 -->
<svg width="445pt" height="276pt"
 viewBox="0.00 0.00 444.99 276.00" xmlns="http://www.w3.org/2000/svg" xmlns:xlink="http://www.w3.org/1999/xlink">
<g id="graph0" class="graph" transform="scale(1 1) rotate(0) translate(4 272)">
<title>G</title>
<polygon fill="white" stroke="transparent" points="-4,4 -4,-272 440.99,-272 440.99,4 -4,4"/>
<g id="clust1" class="cluster">
<title>cluster_AWS</title>
<polygon fill="tan" stroke="tan" points="348,-46 348,-139 428.99,-139 428.99,-46 348,-46"/>
<text text-anchor="middle" x="388.5" y="-111" font-family="Times,serif" font-size="30.00">AWS</text>
</g>
<!-- Hana -->
<g id="node1" class="node">
<title>Hana</title>
<path fill="gray" stroke="gray" d="M122.5,-140.73C122.5,-142.53 110.4,-144 95.5,-144 80.6,-144 68.5,-142.53 68.5,-140.73 68.5,-140.73 68.5,-111.27 68.5,-111.27 68.5,-109.47 80.6,-108 95.5,-108 110.4,-108 122.5,-109.47 122.5,-111.27 122.5,-111.27 122.5,-140.73 122.5,-140.73"/>
<path fill="none" stroke="gray" d="M122.5,-140.73C122.5,-138.92 110.4,-137.45 95.5,-137.45 80.6,-137.45 68.5,-138.92 68.5,-140.73"/>
<text text-anchor="middle" x="95.5" y="-122.3" font-family="Times,serif" font-size="14.00">Hana</text>
</g>
<!-- Sync -->
<g id="node2" class="node">
<title>Sync</title>
<polygon fill="none" stroke="black" points="319,-90 265,-90 265,-54 319,-54 319,-90"/>
<text text-anchor="middle" x="292" y="-68.3" font-family="Times,serif" font-size="14.00">Sync</text>
</g>
<!-- Hana&#45;&gt;Sync -->
<g id="edge1" class="edge">
<title>Hana&#45;&gt;Sync</title>
<path fill="none" stroke="black" d="M122.72,-121.38C153.06,-115.7 204.32,-105.05 247,-91 249.74,-90.1 252.55,-89.09 255.35,-88.02"/>
<polygon fill="black" stroke="black" points="256.8,-91.21 264.77,-84.24 254.19,-84.72 256.8,-91.21"/>
</g>
<!-- Kafka -->
<g id="node3" class="node">
<title>Kafka</title>
<ellipse fill="none" stroke="black" cx="388.5" cy="-72" rx="32.49" ry="18"/>
<text text-anchor="middle" x="388.5" y="-68.3" font-family="Times,serif" font-size="14.00">Kafka</text>
</g>
<!-- Sync&#45;&gt;Kafka -->
<g id="edge2" class="edge">
<title>Sync&#45;&gt;Kafka</title>
<path fill="none" stroke="black" d="M319.07,-72C327.33,-72 336.67,-72 345.74,-72"/>
<polygon fill="black" stroke="black" points="345.79,-75.5 355.79,-72 345.79,-68.5 345.79,-75.5"/>
</g>
<!-- Oracle -->
<g id="node4" class="node">
<title>Oracle</title>
<path fill="none" stroke="black" d="M122.5,-86.73C122.5,-88.53 110.4,-90 95.5,-90 80.6,-90 68.5,-88.53 68.5,-86.73 68.5,-86.73 68.5,-57.27 68.5,-57.27 68.5,-55.47 80.6,-54 95.5,-54 110.4,-54 122.5,-55.47 122.5,-57.27 122.5,-57.27 122.5,-86.73 122.5,-86.73"/>
<path fill="none" stroke="black" d="M122.5,-86.73C122.5,-84.92 110.4,-83.45 95.5,-83.45 80.6,-83.45 68.5,-84.92 68.5,-86.73"/>
<text text-anchor="middle" x="95.5" y="-68.3" font-family="Times,serif" font-size="14.00">Oracle</text>
</g>
<!-- Oracle&#45;&gt;Sync -->
<g id="edge3" class="edge">
<title>Oracle&#45;&gt;Sync</title>
<path fill="none" stroke="red" d="M132.97,-72C167.77,-72 219.93,-72 254.68,-72"/>
<polygon fill="red" stroke="red" points="132.73,-68.5 122.73,-72 132.73,-75.5 132.73,-68.5"/>
<polygon fill="red" stroke="red" points="254.87,-75.5 264.87,-72 254.87,-68.5 254.87,-75.5"/>
<text text-anchor="middle" x="228" y="-75.8" font-family="Times,serif" font-size="14.00">critical</text>
</g>
<!-- Vault -->
<g id="node5" class="node">
<title>Vault</title>
<polygon fill="none" stroke="black" points="122.5,-36 72.5,-36 68.5,-32 68.5,0 118.5,0 122.5,-4 122.5,-36"/>
<polyline fill="none" stroke="black" points="118.5,-32 68.5,-32 "/>
<polyline fill="none" stroke="black" points="118.5,-32 118.5,0 "/>
<polyline fill="none" stroke="black" points="118.5,-32 122.5,-36 "/>
<text text-anchor="middle" x="95.5" y="-14.3" font-family="Times,serif" font-size="14.00">Vault</text>
</g>
<!-- Vault&#45;&gt;Sync -->
<g id="edge4" class="edge">
<title>Vault&#45;&gt;Sync</title>
<path fill="none" stroke="black" stroke-dasharray="1,5" d="M122.73,-25.28C156.9,-34.77 216.8,-51.4 255.14,-62.05"/>
<polygon fill="black" stroke="black" points="254.3,-65.44 264.87,-64.75 256.18,-58.7 254.3,-65.44"/>
<text text-anchor="middle" x="139.73" y="-14.08" font-family="Times,serif" font-size="14.00">config</text>
</g>
<!-- Sync Flow -->
<g id="node6" class="node">
<title>Sync Flow</title>
<text text-anchor="middle" x="95.5" y="-178" font-family="Times,serif" font-size="40.00">Sync Flow</text>
</g>
<!-- URL -->
<g id="node7" class="node">
<title>URL</title>
<g id="a_node7"><a xlink:href="https://dreampuf.github.io/GraphvizOnline/?url=https://raw.githubusercontent.com/curtcox/practical-graphviz/master/whiteboard.dot" xlink:title="URL">
<text text-anchor="middle" x="95.5" y="-246.3" font-family="Times,serif" font-size="14.00">URL</text>
</a>
</g>
</g>
</g>
</svg>
