<?xml version="1.0" encoding="UTF-8" standalone="no"?>
<!DOCTYPE svg PUBLIC "-//W3C//DTD SVG 1.1//EN"
 "http://www.w3.org/Graphics/SVG/1.1/DTD/svg11.dtd">
<!-- Generated by graphviz version 2.44.1 (20200629.0846)
 -->
<!-- Title: G Pages: 1 -->
<svg width="1147pt" height="747pt"
 viewBox="0.00 0.00 1147.00 747.00" xmlns="http://www.w3.org/2000/svg" xmlns:xlink="http://www.w3.org/1999/xlink">
<g id="graph0" class="graph" transform="scale(1 1) rotate(0) translate(4 743)">
<title>G</title>
<polygon fill="white" stroke="transparent" points="-4,4 -4,-743 1143,-743 1143,4 -4,4"/>
<g id="clust1" class="cluster">
<title>cluster_languages</title>
</g>
<g id="clust2" class="cluster">
<title>cluster_pipeline</title>
</g>
<g id="clust3" class="cluster">
<title>cluster_editor</title>
</g>
<g id="clust4" class="cluster">
<title>cluster_output</title>
</g>
<!-- Workflow -->
<g id="node1" class="node">
<title>Workflow</title>
<text text-anchor="middle" x="88.5" y="-16" font-family="Times,serif" font-size="40.00">Workflow</text>
</g>
<!-- files -->
<g id="node2" class="node">
<title>files</title>
<text text-anchor="middle" x="388.5" y="-242.5" font-family="Times,serif" font-size="30.00">files</text>
</g>
<!-- pipeline -->
<g id="node3" class="node">
<title>pipeline</title>
<text text-anchor="middle" x="515.5" y="-325.5" font-family="Times,serif" font-size="30.00">pipeline</text>
</g>
<!-- files&#45;&gt;pipeline -->
<g id="edge1" class="edge">
<title>files&#45;&gt;pipeline</title>
<path fill="none" stroke="blue" d="M420.4,-270.52C429.49,-276.55 439.79,-283.39 450.16,-290.28"/>
<polygon fill="blue" stroke="blue" points="483.52,-312.43 440.24,-305.3 466.86,-301.37 450.2,-290.31 450.2,-290.31 450.2,-290.31 466.86,-301.37 460.16,-275.31 483.52,-312.43 483.52,-312.43"/>
</g>
<!-- editor -->
<g id="node4" class="node">
<title>editor</title>
<text text-anchor="middle" x="729.5" y="-490.5" font-family="Times,serif" font-size="30.00">editor</text>
</g>
<!-- pipeline&#45;&gt;editor -->
<g id="edge2" class="edge">
<title>pipeline&#45;&gt;editor</title>
<path fill="none" stroke="blue" d="M561.61,-353.64C565.2,-355.67 568.7,-357.8 572,-360 610.99,-385.98 650.52,-420.93 680.1,-449.15"/>
<polygon fill="blue" stroke="blue" points="708.71,-477.33 667.58,-462.09 694.46,-463.3 680.21,-449.26 680.21,-449.26 680.21,-449.26 694.46,-463.3 692.85,-436.44 708.71,-477.33 708.71,-477.33"/>
</g>
<!-- graphviz -->
<g id="node5" class="node">
<title>graphviz</title>
<text text-anchor="middle" x="948" y="-532.5" font-family="Times,serif" font-size="30.00">graphviz</text>
</g>
<!-- editor&#45;&gt;graphviz -->
<g id="edge3" class="edge">
<title>editor&#45;&gt;graphviz</title>
<path fill="none" stroke="blue" d="M772.5,-506.15C793.93,-510.31 820.99,-515.55 847.36,-520.67"/>
<polygon fill="blue" stroke="blue" points="886.69,-528.3 843.99,-538.35 867.05,-524.49 847.42,-520.68 847.42,-520.68 847.42,-520.68 867.05,-524.49 850.85,-503.01 886.69,-528.3 886.69,-528.3"/>
</g>
<!-- output -->
<g id="node6" class="node">
<title>output</title>
<text text-anchor="middle" x="1092.5" y="-608.5" font-family="Times,serif" font-size="30.00">output</text>
</g>
<!-- graphviz&#45;&gt;output -->
<g id="edge4" class="edge">
<title>graphviz&#45;&gt;output</title>
<path fill="none" stroke="blue" d="M996.08,-560.57C1000.48,-562.68 1004.84,-564.84 1009,-567 1013.96,-569.58 1019.03,-572.32 1024.11,-575.14"/>
<polygon fill="blue" stroke="blue" points="1058.67,-595.34 1015.05,-590.7 1041.4,-585.25 1024.13,-575.16 1024.13,-575.16 1024.13,-575.16 1041.4,-585.25 1033.22,-559.62 1058.67,-595.34 1058.67,-595.34"/>
</g>
<!-- before -->
<g id="node7" class="node">
<title>before</title>
</g>
<!-- after -->
<g id="node8" class="node">
<title>after</title>
</g>
<!-- before&#45;&gt;after -->
<g id="edge5" class="edge">
<title>before&#45;&gt;after</title>
<path fill="none" stroke="blue" d="M115.68,-469C161.28,-469 256.57,-469 321.3,-469"/>
<polygon fill="blue" stroke="blue" points="361.48,-469 321.48,-487 341.48,-469 321.48,-469 321.48,-469 321.48,-469 341.48,-469 321.48,-451 361.48,-469 361.48,-469"/>
<text text-anchor="middle" x="266" y="-478" font-family="Times,serif" font-size="30.00">and then</text>
</g>
<!-- C# -->
<g id="node9" class="node">
<title>C#</title>
<text text-anchor="middle" x="88.5" y="-408.3" font-family="Times,serif" font-size="14.00">C#</text>
</g>
<!-- C#&#45;&gt;files -->
<g id="edge6" class="edge">
<title>C#&#45;&gt;files</title>
<path fill="none" stroke="black" d="M115.69,-411.01C165.93,-407.66 276.25,-393.1 337,-330 352.13,-314.28 342.09,-300.73 352.98,-279.2"/>
<polygon fill="black" stroke="black" points="356.05,-280.9 358.28,-270.54 350.08,-277.25 356.05,-280.9"/>
</g>
<!-- Scala -->
<g id="node10" class="node">
<title>Scala</title>
<text text-anchor="middle" x="88.5" y="-354.3" font-family="Times,serif" font-size="14.00">Scala</text>
</g>
<!-- Scala&#45;&gt;files -->
<g id="edge7" class="edge">
<title>Scala&#45;&gt;files</title>
<path fill="none" stroke="black" d="M115.5,-354.9C162.22,-348.49 262.44,-330.92 337,-291 343.51,-287.52 345.17,-284.61 352.7,-277.67"/>
<polygon fill="black" stroke="black" points="355.37,-279.98 360.64,-270.79 350.79,-274.69 355.37,-279.98"/>
</g>
<!-- Dart -->
<g id="node11" class="node">
<title>Dart</title>
<text text-anchor="middle" x="88.5" y="-300.3" font-family="Times,serif" font-size="14.00">Dart</text>
</g>
<!-- Dart&#45;&gt;files -->
<g id="edge8" class="edge">
<title>Dart&#45;&gt;files</title>
<path fill="none" stroke="black" d="M115.69,-300.73C161.05,-294.86 257.06,-281.48 337,-264 339.62,-263.43 342.3,-262.8 345,-262.14"/>
<polygon fill="black" stroke="black" points="345.94,-265.51 354.76,-259.64 344.21,-258.73 345.94,-265.51"/>
</g>
<!-- Go -->
<g id="node12" class="node">
<title>Go</title>
<text text-anchor="middle" x="88.5" y="-246.3" font-family="Times,serif" font-size="14.00">Go</text>
</g>
<!-- Go&#45;&gt;files -->
<g id="edge9" class="edge">
<title>Go&#45;&gt;files</title>
<path fill="none" stroke="black" d="M115.68,-250C167.11,-250 281.72,-250 344.45,-250"/>
<polygon fill="black" stroke="black" points="344.79,-253.5 354.79,-250 344.79,-246.5 344.79,-253.5"/>
</g>
<!-- Java -->
<g id="node13" class="node">
<title>Java</title>
<text text-anchor="middle" x="88.5" y="-192.3" font-family="Times,serif" font-size="14.00">Java</text>
</g>
<!-- Java&#45;&gt;files -->
<g id="edge10" class="edge">
<title>Java&#45;&gt;files</title>
<path fill="none" stroke="black" d="M115.68,-200.74C167.21,-210.08 282.2,-230.92 344.83,-242.27"/>
<polygon fill="black" stroke="black" points="344.33,-245.73 354.79,-244.07 345.57,-238.85 344.33,-245.73"/>
</g>
<!-- Groovy -->
<g id="node14" class="node">
<title>Groovy</title>
<text text-anchor="middle" x="88.5" y="-138.3" font-family="Times,serif" font-size="14.00">Groovy</text>
</g>
<!-- Groovy&#45;&gt;files -->
<g id="edge11" class="edge">
<title>Groovy&#45;&gt;files</title>
<path fill="none" stroke="black" d="M117.77,-146.74C165,-155.39 262.14,-176.3 337,-213 342.89,-215.89 348.81,-219.47 354.42,-223.26"/>
<polygon fill="black" stroke="black" points="352.76,-226.37 362.93,-229.32 356.82,-220.67 352.76,-226.37"/>
</g>
<!-- Objective C -->
<g id="node15" class="node">
<title>Objective C</title>
<text text-anchor="middle" x="88.5" y="-84.3" font-family="Times,serif" font-size="14.00">Objective C</text>
</g>
<!-- Objective C&#45;&gt;files -->
<g id="edge12" class="edge">
<title>Objective C&#45;&gt;files</title>
<path fill="none" stroke="black" d="M129.71,-90.66C182.48,-96.05 275.59,-112.27 337,-161 356.05,-176.11 369.16,-200.51 377.25,-219.94"/>
<polygon fill="black" stroke="black" points="374.01,-221.26 380.92,-229.29 380.52,-218.71 374.01,-221.26"/>
</g>
<!-- grep -->
<g id="node16" class="node">
<title>grep</title>
<text text-anchor="middle" x="388.5" y="-411.3" font-family="Times,serif" font-size="14.00">grep</text>
</g>
<!-- grep&#45;&gt;pipeline -->
<g id="edge13" class="edge">
<title>grep&#45;&gt;pipeline</title>
<path fill="none" stroke="black" d="M412.91,-396.73C416.63,-393.82 420.42,-390.83 424,-388 439.62,-375.64 442.16,-370.65 459,-360 459.65,-359.59 460.3,-359.19 460.96,-358.78"/>
<polygon fill="black" stroke="black" points="462.9,-361.7 469.79,-353.66 459.39,-355.65 462.9,-361.7"/>
</g>
<!-- awk -->
<g id="node17" class="node">
<title>awk</title>
<text text-anchor="middle" x="388.5" y="-357.3" font-family="Times,serif" font-size="14.00">awk</text>
</g>
<!-- awk&#45;&gt;pipeline -->
<g id="edge14" class="edge">
<title>awk&#45;&gt;pipeline</title>
<path fill="none" stroke="black" d="M415.7,-355.13C425.55,-352.93 437.23,-350.31 449.05,-347.66"/>
<polygon fill="black" stroke="black" points="449.99,-351.04 458.98,-345.44 448.46,-344.21 449.99,-351.04"/>
</g>
<!-- groovy -->
<g id="node18" class="node">
<title>groovy</title>
<text text-anchor="middle" x="388.5" y="-303.3" font-family="Times,serif" font-size="14.00">groovy</text>
</g>
<!-- groovy&#45;&gt;pipeline -->
<g id="edge15" class="edge">
<title>groovy&#45;&gt;pipeline</title>
<path fill="none" stroke="black" d="M416.01,-312.51C425.81,-314.55 437.4,-316.96 449.12,-319.4"/>
<polygon fill="black" stroke="black" points="448.46,-322.84 458.96,-321.45 449.88,-315.99 448.46,-322.84"/>
</g>
<!-- vi -->
<g id="node19" class="node">
<title>vi</title>
<text text-anchor="middle" x="515.5" y="-656.3" font-family="Times,serif" font-size="14.00">vi</text>
</g>
<!-- vi&#45;&gt;editor -->
<g id="edge16" class="edge">
<title>vi&#45;&gt;editor</title>
<path fill="none" stroke="black" d="M542.69,-652.14C553.01,-647.9 564.23,-641.72 572,-633 588.47,-614.54 590.71,-544.66 609,-528 627.18,-511.43 653.14,-503.7 676.22,-500.2"/>
<polygon fill="black" stroke="black" points="676.77,-503.66 686.24,-498.91 675.87,-496.72 676.77,-503.66"/>
</g>
<!-- Atom -->
<g id="node20" class="node">
<title>Atom</title>
<text text-anchor="middle" x="515.5" y="-602.3" font-family="Times,serif" font-size="14.00">Atom</text>
</g>
<!-- Atom&#45;&gt;editor -->
<g id="edge17" class="edge">
<title>Atom&#45;&gt;editor</title>
<path fill="none" stroke="black" d="M542.65,-596.45C552.49,-592.07 563.38,-586.23 572,-579 593.45,-561 585.8,-543.69 609,-528 628.82,-514.6 654.14,-507.18 676.36,-503.07"/>
<polygon fill="black" stroke="black" points="677.04,-506.51 686.33,-501.41 675.89,-499.61 677.04,-506.51"/>
</g>
<!-- VSCode -->
<g id="node21" class="node">
<title>VSCode</title>
<text text-anchor="middle" x="515.5" y="-548.3" font-family="Times,serif" font-size="14.00">VSCode</text>
</g>
<!-- VSCode&#45;&gt;editor -->
<g id="edge18" class="edge">
<title>VSCode&#45;&gt;editor</title>
<path fill="none" stroke="black" d="M546.9,-544.05C564.94,-539.35 588.26,-533.29 609,-528 631.19,-522.34 655.71,-516.16 676.74,-510.9"/>
<polygon fill="black" stroke="black" points="677.6,-514.29 686.45,-508.47 675.9,-507.5 677.6,-514.29"/>
</g>
<!-- online -->
<g id="node22" class="node">
<title>online</title>
<text text-anchor="middle" x="515.5" y="-494.3" font-family="Times,serif" font-size="14.00">online</text>
</g>
<!-- online&#45;&gt;editor -->
<g id="edge19" class="edge">
<title>online&#45;&gt;editor</title>
<path fill="none" stroke="black" d="M542.92,-498C576.14,-498 633.95,-498 676.24,-498"/>
<polygon fill="black" stroke="black" points="676.36,-501.5 686.36,-498 676.36,-494.5 676.36,-501.5"/>
</g>
<!-- xdot -->
<g id="node23" class="node">
<title>xdot</title>
<text text-anchor="middle" x="515.5" y="-440.3" font-family="Times,serif" font-size="14.00">xdot</text>
</g>
<!-- xdot&#45;&gt;editor -->
<g id="edge20" class="edge">
<title>xdot&#45;&gt;editor</title>
<path fill="none" stroke="black" d="M542.92,-450.73C576.22,-459.21 634.19,-473.98 676.5,-484.76"/>
<polygon fill="black" stroke="black" points="675.8,-488.19 686.36,-487.27 677.53,-481.41 675.8,-488.19"/>
</g>
<!-- IntelliJ -->
<g id="node24" class="node">
<title>IntelliJ</title>
<text text-anchor="middle" x="515.5" y="-386.3" font-family="Times,serif" font-size="14.00">IntelliJ</text>
</g>
<!-- IntelliJ&#45;&gt;editor -->
<g id="edge21" class="edge">
<title>IntelliJ&#45;&gt;editor</title>
<path fill="none" stroke="black" d="M542.54,-402.5C551.86,-407.02 562.42,-412.19 572,-417 608.43,-435.28 649.32,-456.47 680.17,-472.59"/>
<polygon fill="black" stroke="black" points="678.92,-475.89 689.4,-477.42 682.17,-469.69 678.92,-475.89"/>
</g>
<!-- PDF -->
<g id="node25" class="node">
<title>PDF</title>
<text text-anchor="middle" x="948" y="-701.3" font-family="Times,serif" font-size="14.00">PDF</text>
</g>
<!-- PDF&#45;&gt;output -->
<g id="edge22" class="edge">
<title>PDF&#45;&gt;output</title>
<path fill="none" stroke="black" d="M975.03,-694.78C985.81,-690.17 998.28,-684.33 1009,-678 1026.44,-667.7 1044.57,-654.4 1059.37,-642.76"/>
<polygon fill="black" stroke="black" points="1061.59,-645.47 1067.23,-636.5 1057.23,-640 1061.59,-645.47"/>
</g>
<!-- PNG -->
<g id="node26" class="node">
<title>PNG</title>
<text text-anchor="middle" x="948" y="-647.3" font-family="Times,serif" font-size="14.00">PNG</text>
</g>
<!-- PNG&#45;&gt;output -->
<g id="edge23" class="edge">
<title>PNG&#45;&gt;output</title>
<path fill="none" stroke="black" d="M975.14,-644.58C992.2,-640.39 1015.13,-634.76 1036.12,-629.6"/>
<polygon fill="black" stroke="black" points="1037.04,-632.98 1045.92,-627.2 1035.37,-626.18 1037.04,-632.98"/>
</g>
<!-- SVG -->
<g id="node27" class="node">
<title>SVG</title>
<text text-anchor="middle" x="948" y="-593.3" font-family="Times,serif" font-size="14.00">SVG</text>
</g>
<!-- SVG&#45;&gt;output -->
<g id="edge24" class="edge">
<title>SVG&#45;&gt;output</title>
<path fill="none" stroke="black" d="M975.14,-600.48C992.12,-602.75 1014.92,-605.79 1035.83,-608.58"/>
<polygon fill="black" stroke="black" points="1035.54,-612.07 1045.92,-609.92 1036.47,-605.13 1035.54,-612.07"/>
</g>
<!-- member -->
<g id="node28" class="node">
<title>member</title>
</g>
<!-- set -->
<g id="node29" class="node">
<title>set</title>
</g>
<!-- member&#45;&gt;set -->
<g id="edge25" class="edge">
<title>member&#45;&gt;set</title>
<path fill="none" stroke="black" d="M115.68,-525C169.01,-525 290.3,-525 351.19,-525"/>
<polygon fill="black" stroke="black" points="351.48,-528.5 361.48,-525 351.48,-521.5 351.48,-528.5"/>
<text text-anchor="middle" x="266" y="-534" font-family="Times,serif" font-size="30.00">for instance</text>
</g>
<!-- tldr -->
<g id="node30" class="node">
<title>tldr</title>
<text text-anchor="middle" x="729.5" y="-550" font-family="Times,serif" font-size="20.00">dot &#45;Tpng &#45;O path/to/file.dot</text>
</g>
<!-- tldr&#45;&gt;graphviz -->
<g id="edge26" class="edge">
<title>tldr&#45;&gt;graphviz</title>
<path fill="none" stroke="black" d="M850.15,-546.71C859.19,-546.08 868.12,-545.47 876.69,-544.87"/>
<polygon fill="black" stroke="black" points="877.21,-548.34 886.94,-544.16 876.72,-541.36 877.21,-548.34"/>
</g>
</g>
</svg>
