<?xml version="1.0" encoding="UTF-8" standalone="no"?>
<!DOCTYPE svg PUBLIC "-//W3C//DTD SVG 1.1//EN"
 "http://www.w3.org/Graphics/SVG/1.1/DTD/svg11.dtd">
<!-- Generated by graphviz version 2.44.1 (20200629.0846)
 -->
<!-- Title: G Pages: 1 -->
<svg width="1495pt" height="1163pt"
 viewBox="0.00 0.00 1495.01 1163.00" xmlns="http://www.w3.org/2000/svg" xmlns:xlink="http://www.w3.org/1999/xlink">
<g id="graph0" class="graph" transform="scale(1 1) rotate(0) translate(4 1159)">
<title>G</title>
<polygon fill="white" stroke="transparent" points="-4,4 -4,-1159 1491.01,-1159 1491.01,4 -4,4"/>
<g id="clust5" class="cluster">
<title>cluster_languages</title>
</g>
<g id="clust6" class="cluster">
<title>cluster_pipeline</title>
</g>
<g id="clust7" class="cluster">
<title>cluster_editor</title>
</g>
<g id="clust8" class="cluster">
<title>cluster_output</title>
</g>
<!-- files -->
<g id="node1" class="node">
<title>files</title>
<polygon fill="none" stroke="black" points="553,-243.5 550,-247.5 529,-247.5 526,-243.5 486,-243.5 486,-202.5 553,-202.5 553,-243.5"/>
<text text-anchor="middle" x="519.5" y="-215.5" font-family="Times,serif" font-size="30.00">files</text>
</g>
<!-- pipeline -->
<g id="node2" class="node">
<title>pipeline</title>
<polygon fill="none" stroke="black" points="685,-513.5 590,-513.5 590,-484.5 685,-484.5 685,-478.5 703,-499 685,-519.5 685,-513.5"/>
<text text-anchor="middle" x="646.5" y="-491.5" font-family="Times,serif" font-size="30.00">pipeline</text>
</g>
<!-- files&#45;&gt;pipeline -->
<g id="edge1" class="edge">
<title>files&#45;&gt;pipeline</title>
<path fill="none" stroke="blue" d="M529.9,-243.74C548.72,-285.31 591.63,-380.06 619.55,-441.7"/>
<polygon fill="blue" stroke="blue" points="636.17,-478.39 603.27,-449.38 627.91,-460.17 619.66,-441.95 619.66,-441.95 619.66,-441.95 627.91,-460.17 636.06,-434.53 636.17,-478.39 636.17,-478.39"/>
</g>
<!-- editor -->
<g id="node3" class="node">
<title>editor</title>
<polygon fill="none" stroke="black" points="903.5,-782.5 817.5,-782.5 817.5,-741.5 903.5,-741.5 903.5,-782.5"/>
<text text-anchor="middle" x="860.5" y="-754.5" font-family="Times,serif" font-size="30.00">editor</text>
</g>
<!-- pipeline&#45;&gt;editor -->
<g id="edge2" class="edge">
<title>pipeline&#45;&gt;editor</title>
<path fill="none" stroke="blue" d="M664.14,-519.64C696.95,-560.35 770.92,-652.11 817.83,-710.31"/>
<polygon fill="blue" stroke="blue" points="842.94,-741.46 803.82,-721.61 830.39,-725.89 817.84,-710.32 817.84,-710.32 817.84,-710.32 830.39,-725.89 831.85,-699.02 842.94,-741.46 842.94,-741.46"/>
</g>
<!-- graphviz -->
<g id="node4" class="node">
<title>graphviz</title>
<ellipse fill="blue" stroke="blue" cx="1104.27" cy="-862" rx="86.03" ry="28.98"/>
<text text-anchor="middle" x="1104.27" y="-854.5" font-family="Times,serif" font-size="30.00" fill="white">graphviz</text>
</g>
<!-- editor&#45;&gt;graphviz -->
<g id="edge3" class="edge">
<title>editor&#45;&gt;graphviz</title>
<path fill="none" stroke="blue" d="M903.61,-779.42C933.46,-791.76 974.64,-808.8 1011.86,-824.19"/>
<polygon fill="blue" stroke="blue" points="1048.92,-839.52 1005.07,-840.86 1030.43,-831.87 1011.95,-824.23 1011.95,-824.23 1011.95,-824.23 1030.43,-831.87 1018.83,-807.6 1048.92,-839.52 1048.92,-839.52"/>
</g>
<!-- output -->
<g id="node5" class="node">
<title>output</title>
<polygon fill="yellow" stroke="yellow" points="1471.25,-1050.28 1378.07,-1050.28 1349.27,-1138.56 1320.48,-1050.28 1227.3,-1050.28 1302.68,-995.72 1273.89,-907.44 1349.27,-962 1424.66,-907.44 1395.86,-995.72 1471.25,-1050.28"/>
<text text-anchor="middle" x="1349.27" y="-1015.5" font-family="Times,serif" font-size="30.00">output</text>
</g>
<!-- graphviz&#45;&gt;output -->
<g id="edge4" class="edge">
<title>graphviz&#45;&gt;output</title>
<path fill="none" stroke="blue" d="M1165.55,-882.59C1174.14,-886.31 1182.71,-890.46 1190.53,-895 1215.89,-909.7 1241.41,-928.36 1264.32,-946.84"/>
<polygon fill="blue" stroke="blue" points="1295.17,-972.87 1252.99,-960.83 1279.89,-959.97 1264.6,-947.08 1264.6,-947.08 1264.6,-947.08 1279.89,-959.97 1276.21,-933.32 1295.17,-972.87 1295.17,-972.87"/>
</g>
<!-- before -->
<g id="node6" class="node">
<title>before</title>
</g>
<!-- after -->
<g id="node7" class="node">
<title>after</title>
</g>
<!-- before&#45;&gt;after -->
<g id="edge5" class="edge">
<title>before&#45;&gt;after</title>
<path fill="none" stroke="blue" d="M181.14,-634C237.27,-634 370.78,-634 452.01,-634"/>
<polygon fill="blue" stroke="blue" points="492.11,-634 452.11,-652 472.11,-634 452.11,-634 452.11,-634 452.11,-634 472.11,-634 452.11,-616 492.11,-634 492.11,-634"/>
<text text-anchor="middle" x="397" y="-643" font-family="Times,serif" font-size="30.00">and then</text>
</g>
<!-- C# -->
<g id="node8" class="node">
<title>C#</title>
<text text-anchor="middle" x="154" y="-354.3" font-family="Times,serif" font-size="14.00">C#</text>
</g>
<!-- C#&#45;&gt;files -->
<g id="edge6" class="edge">
<title>C#&#45;&gt;files</title>
<path fill="none" stroke="black" d="M181.18,-355.38C212.02,-351.84 264.56,-344.38 308,-331 382.53,-308.05 400.37,-297.82 468,-259 473.08,-256.08 478.29,-252.78 483.34,-249.38"/>
<polygon fill="black" stroke="black" points="485.41,-252.2 491.63,-243.63 481.42,-246.45 485.41,-252.2"/>
</g>
<!-- Scala -->
<g id="node9" class="node">
<title>Scala</title>
<text text-anchor="middle" x="154" y="-300.3" font-family="Times,serif" font-size="14.00">Scala</text>
</g>
<!-- Scala&#45;&gt;files -->
<g id="edge7" class="edge">
<title>Scala&#45;&gt;files</title>
<path fill="none" stroke="black" d="M181.11,-300.01C211.66,-295.21 263.71,-286.57 308,-277 379.75,-261.5 396.9,-254.26 468,-236 470.62,-235.33 473.32,-234.63 476.04,-233.93"/>
<polygon fill="black" stroke="black" points="477.09,-237.28 485.9,-231.4 475.35,-230.5 477.09,-237.28"/>
</g>
<!-- Dart -->
<g id="node10" class="node">
<title>Dart</title>
<text text-anchor="middle" x="154" y="-246.3" font-family="Times,serif" font-size="14.00">Dart</text>
</g>
<!-- Dart&#45;&gt;files -->
<g id="edge8" class="edge">
<title>Dart&#45;&gt;files</title>
<path fill="none" stroke="black" d="M181.14,-248.06C243.18,-243.45 399.75,-231.82 475.77,-226.17"/>
<polygon fill="black" stroke="black" points="476.23,-229.65 485.95,-225.42 475.72,-222.67 476.23,-229.65"/>
</g>
<!-- Go -->
<g id="node11" class="node">
<title>Go</title>
<text text-anchor="middle" x="154" y="-192.3" font-family="Times,serif" font-size="14.00">Go</text>
</g>
<!-- Go&#45;&gt;files -->
<g id="edge9" class="edge">
<title>Go&#45;&gt;files</title>
<path fill="none" stroke="black" d="M181.14,-197.94C243.18,-202.55 399.75,-214.18 475.77,-219.83"/>
<polygon fill="black" stroke="black" points="475.72,-223.33 485.95,-220.58 476.23,-216.35 475.72,-223.33"/>
</g>
<!-- Java -->
<g id="node12" class="node">
<title>Java</title>
<text text-anchor="middle" x="154" y="-138.3" font-family="Times,serif" font-size="14.00">Java</text>
</g>
<!-- Java&#45;&gt;files -->
<g id="edge10" class="edge">
<title>Java&#45;&gt;files</title>
<path fill="none" stroke="black" d="M181.32,-145.78C235.61,-153.91 363.64,-174.78 468,-205 470.72,-205.79 473.51,-206.64 476.32,-207.54"/>
<polygon fill="black" stroke="black" points="475.22,-210.87 485.82,-210.7 477.43,-204.22 475.22,-210.87"/>
</g>
<!-- Groovy -->
<g id="node13" class="node">
<title>Groovy</title>
<text text-anchor="middle" x="154" y="-84.3" font-family="Times,serif" font-size="14.00">Groovy</text>
</g>
<!-- Groovy&#45;&gt;files -->
<g id="edge11" class="edge">
<title>Groovy&#45;&gt;files</title>
<path fill="none" stroke="black" d="M183.28,-89.45C241.17,-93.6 375.51,-109.43 468,-169 478.6,-175.83 488.5,-185.37 496.68,-194.53"/>
<polygon fill="black" stroke="black" points="494.24,-197.07 503.39,-202.41 499.57,-192.53 494.24,-197.07"/>
</g>
<!-- Objective C -->
<g id="node14" class="node">
<title>Objective C</title>
<text text-anchor="middle" x="154" y="-30.3" font-family="Times,serif" font-size="14.00">Objective C</text>
</g>
<!-- Objective C&#45;&gt;files -->
<g id="edge12" class="edge">
<title>Objective C&#45;&gt;files</title>
<path fill="none" stroke="black" d="M195.19,-32.34C260.49,-31.84 390.15,-40.35 468,-109 492.55,-130.64 505.71,-166.48 512.38,-192.2"/>
<polygon fill="black" stroke="black" points="509.04,-193.28 514.78,-202.19 515.85,-191.65 509.04,-193.28"/>
</g>
<!-- grep -->
<g id="node15" class="node">
<title>grep</title>
<text text-anchor="middle" x="519.5" y="-576.3" font-family="Times,serif" font-size="14.00">grep</text>
</g>
<!-- grep&#45;&gt;pipeline -->
<g id="edge13" class="edge">
<title>grep&#45;&gt;pipeline</title>
<path fill="none" stroke="black" d="M546.7,-563.02C563.59,-552.08 585.89,-537.63 605.02,-525.23"/>
<polygon fill="black" stroke="black" points="607.07,-528.07 613.56,-519.7 603.27,-522.2 607.07,-528.07"/>
</g>
<!-- sed -->
<g id="node16" class="node">
<title>sed</title>
<text text-anchor="middle" x="519.5" y="-522.3" font-family="Times,serif" font-size="14.00">sed</text>
</g>
<!-- sed&#45;&gt;pipeline -->
<g id="edge14" class="edge">
<title>sed&#45;&gt;pipeline</title>
<path fill="none" stroke="black" d="M546.7,-520.34C556.55,-518.21 568.23,-515.69 580.05,-513.14"/>
<polygon fill="black" stroke="black" points="580.94,-516.52 589.98,-510.99 579.47,-509.68 580.94,-516.52"/>
</g>
<!-- awk -->
<g id="node17" class="node">
<title>awk</title>
<text text-anchor="middle" x="519.5" y="-468.3" font-family="Times,serif" font-size="14.00">awk</text>
</g>
<!-- awk&#45;&gt;pipeline -->
<g id="edge15" class="edge">
<title>awk&#45;&gt;pipeline</title>
<path fill="none" stroke="black" d="M546.7,-477.66C556.55,-479.79 568.23,-482.31 580.05,-484.86"/>
<polygon fill="black" stroke="black" points="579.47,-488.32 589.98,-487.01 580.94,-481.48 579.47,-488.32"/>
</g>
<!-- groovy -->
<g id="node18" class="node">
<title>groovy</title>
<text text-anchor="middle" x="519.5" y="-414.3" font-family="Times,serif" font-size="14.00">groovy</text>
</g>
<!-- groovy&#45;&gt;pipeline -->
<g id="edge16" class="edge">
<title>groovy&#45;&gt;pipeline</title>
<path fill="none" stroke="black" d="M547.01,-435.18C563.91,-446.13 586.15,-460.54 605.21,-472.89"/>
<polygon fill="black" stroke="black" points="603.42,-475.9 613.71,-478.4 607.23,-470.03 603.42,-475.9"/>
</g>
<!-- vi -->
<g id="node19" class="node">
<title>vi</title>
<text text-anchor="middle" x="646.5" y="-906.3" font-family="Times,serif" font-size="14.00">vi</text>
</g>
<!-- vi&#45;&gt;editor -->
<g id="edge17" class="edge">
<title>vi&#45;&gt;editor</title>
<path fill="none" stroke="black" d="M673.65,-900.81C685.44,-896.18 699.31,-890.05 711,-883 756.03,-855.83 802.09,-816.06 830.73,-789.62"/>
<polygon fill="black" stroke="black" points="833.4,-791.92 838.33,-782.54 828.62,-786.79 833.4,-791.92"/>
</g>
<!-- Atom -->
<g id="node20" class="node">
<title>Atom</title>
<text text-anchor="middle" x="646.5" y="-852.3" font-family="Times,serif" font-size="14.00">Atom</text>
</g>
<!-- Atom&#45;&gt;editor -->
<g id="edge18" class="edge">
<title>Atom&#45;&gt;editor</title>
<path fill="none" stroke="black" d="M673.51,-845.09C685.02,-840.23 698.71,-834.38 711,-829 743.35,-814.83 779.48,-798.54 808,-785.57"/>
<polygon fill="black" stroke="black" points="809.71,-788.63 817.36,-781.31 806.81,-782.26 809.71,-788.63"/>
</g>
<!-- VSCode -->
<g id="node21" class="node">
<title>VSCode</title>
<text text-anchor="middle" x="646.5" y="-798.3" font-family="Times,serif" font-size="14.00">VSCode</text>
</g>
<!-- VSCode&#45;&gt;editor -->
<g id="edge19" class="edge">
<title>VSCode&#45;&gt;editor</title>
<path fill="none" stroke="black" d="M677.87,-796.27C711.65,-789.9 766.8,-779.49 807.48,-771.82"/>
<polygon fill="black" stroke="black" points="808.31,-775.22 817.49,-769.93 807.01,-768.34 808.31,-775.22"/>
</g>
<!-- online -->
<g id="node22" class="node">
<title>online</title>
<text text-anchor="middle" x="646.5" y="-744.3" font-family="Times,serif" font-size="14.00">online</text>
</g>
<!-- online&#45;&gt;editor -->
<g id="edge20" class="edge">
<title>online&#45;&gt;editor</title>
<path fill="none" stroke="black" d="M673.92,-749.74C707.14,-751.94 764.95,-755.76 807.24,-758.55"/>
<polygon fill="black" stroke="black" points="807.15,-762.05 817.36,-759.22 807.61,-755.07 807.15,-762.05"/>
</g>
<!-- xdot -->
<g id="node23" class="node">
<title>xdot</title>
<text text-anchor="middle" x="646.5" y="-690.3" font-family="Times,serif" font-size="14.00">xdot</text>
</g>
<!-- xdot&#45;&gt;editor -->
<g id="edge21" class="edge">
<title>xdot&#45;&gt;editor</title>
<path fill="none" stroke="black" d="M673.92,-702.47C707.29,-713.18 765.44,-731.83 807.77,-745.41"/>
<polygon fill="black" stroke="black" points="806.77,-748.76 817.36,-748.48 808.91,-742.1 806.77,-748.76"/>
</g>
<!-- IntelliJ -->
<g id="node24" class="node">
<title>IntelliJ</title>
<text text-anchor="middle" x="646.5" y="-636.3" font-family="Times,serif" font-size="14.00">IntelliJ</text>
</g>
<!-- IntelliJ&#45;&gt;editor -->
<g id="edge22" class="edge">
<title>IntelliJ&#45;&gt;editor</title>
<path fill="none" stroke="black" d="M673.6,-649.95C685.25,-654.68 699.03,-660.68 711,-667 750.29,-687.74 792.78,-715.5 822.19,-735.66"/>
<polygon fill="black" stroke="black" points="820.29,-738.6 830.51,-741.39 824.26,-732.83 820.29,-738.6"/>
</g>
<!-- PDF -->
<g id="node25" class="node">
<title>PDF</title>
<text text-anchor="middle" x="1104.27" y="-1073.3" font-family="Times,serif" font-size="14.00">PDF</text>
</g>
<!-- PDF&#45;&gt;output -->
<g id="edge23" class="edge">
<title>PDF&#45;&gt;output</title>
<path fill="none" stroke="black" d="M1131.27,-1071.22C1152.84,-1066.43 1185.24,-1059.23 1218.48,-1051.84"/>
<polygon fill="black" stroke="black" points="1219.33,-1055.24 1228.33,-1049.65 1217.81,-1048.41 1219.33,-1055.24"/>
</g>
<!-- PNG -->
<g id="node26" class="node">
<title>PNG</title>
<text text-anchor="middle" x="1104.27" y="-1019.3" font-family="Times,serif" font-size="14.00">PNG</text>
</g>
<!-- PNG&#45;&gt;output -->
<g id="edge24" class="edge">
<title>PNG&#45;&gt;output</title>
<path fill="none" stroke="black" d="M1131.27,-1023C1160.69,-1023 1210.29,-1023 1254.65,-1023"/>
<polygon fill="black" stroke="black" points="1254.91,-1026.5 1264.91,-1023 1254.91,-1019.5 1254.91,-1026.5"/>
</g>
<!-- SVG -->
<g id="node27" class="node">
<title>SVG</title>
<text text-anchor="middle" x="1104.27" y="-965.3" font-family="Times,serif" font-size="14.00">SVG</text>
</g>
<!-- SVG&#45;&gt;output -->
<g id="edge25" class="edge">
<title>SVG&#45;&gt;output</title>
<path fill="none" stroke="black" d="M1131.27,-974.78C1165.24,-982.33 1226.09,-995.85 1274.73,-1006.66"/>
<polygon fill="black" stroke="black" points="1274.08,-1010.1 1284.6,-1008.85 1275.6,-1003.26 1274.08,-1010.1"/>
</g>
<!-- member -->
<g id="node28" class="node">
<title>member</title>
</g>
<!-- set -->
<g id="node29" class="node">
<title>set</title>
</g>
<!-- member&#45;&gt;set -->
<g id="edge26" class="edge">
<title>member&#45;&gt;set</title>
<path fill="none" stroke="black" d="M181.14,-690C244.91,-690 408.59,-690 481.96,-690"/>
<polygon fill="black" stroke="black" points="482.11,-693.5 492.11,-690 482.11,-686.5 482.11,-693.5"/>
<text text-anchor="middle" x="397" y="-699" font-family="Times,serif" font-size="30.00">for instance</text>
</g>
<!-- tldr -->
<g id="node30" class="node">
<title>tldr</title>
<text text-anchor="middle" x="860.5" y="-957" font-family="Times,serif" font-size="20.00">dot &#45;Tpng &#45;O path/to/file.dot</text>
</g>
<!-- tldr&#45;&gt;graphviz -->
<g id="edge27" class="edge">
<title>tldr&#45;&gt;graphviz</title>
<path fill="none" stroke="black" d="M973.72,-943.93C976.21,-942.7 978.64,-941.39 981,-940 1003.31,-926.86 997.02,-910.17 1018,-895 1022.23,-891.94 1026.79,-889.12 1031.51,-886.53"/>
<polygon fill="black" stroke="black" points="1033.43,-889.48 1040.76,-881.83 1030.26,-883.24 1033.43,-889.48"/>
</g>
<!-- Typical Workflow
  -->
<g id="node31" class="node">
<title>Typical Workflow
 </title>
<text text-anchor="middle" x="154" y="-786" font-family="Times,serif" font-size="40.00">Typical Workflow</text>
<text text-anchor="middle" x="154" y="-742" font-family="Times,serif" font-size="40.00"> </text>
</g>
</g>
</svg>
